<svg aria-hidden="true" aria-label="" data-bbox="0 0 17.976 18" data-type="color" height="18" preserveaspectratio="xMidYMid meet" role="presentation" viewbox="0 0 17.976 18" width="18" xmlns="http://www.w3.org/2000/svg">
<g>
<path d="M17.327 9a.636.636 0 0 0 .648-.672 9 9 0 1 0-4.126 8.254.636.636 0 0 0 .15-.922c-.224-.297-.645-.354-.96-.158a7.654 7.654 0 1 1 3.585-7.174c.033.37.331.672.703.672" data-color="1" fill="#0F0F0F" opacity=".2"></path>
<path d="M17.327 9a.635.635 0 0 0 .648-.672A8.999 8.999 0 1 0 2.003 14.66c.234.289.662.3.933.045.27-.254.28-.679.05-.97a7.654 7.654 0 1 1 13.638-5.408c.033.37.331.672.703.672" data-color="2" fill="#232529"></path>
</g>
</svg>
