<svg fill="none" height="24" viewbox="0 0 24 24" width="24" xmlns="http://www.w3.org/2000/svg"><path clip-rule="evenodd" d="M11.5 3a2.5 2.5 0 0 1 .5 4.95v2.086a3.5 3.5 0 0 1 2.583 5.123l2.17 1.552a2.5 2.5 0 1 1-.562.827l-2.203-1.576A3.5 3.5 0 0 1 11.5 17a3.5 3.5 0 0 1-2.488-1.038l-2.204 1.576a2.5 2.5 0 1 1-.562-.827l2.171-1.552A3.5 3.5 0 0 1 11 10.035V7.95A2.5 2.5 0 0 1 11.5 3m7 14a1.5 1.5 0 1 0 0 3 1.5 1.5 0 0 0 0-3m-14 0a1.5 1.5 0 1 0 0 3 1.5 1.5 0 0 0 0-3m7-6a2.5 2.5 0 1 0 0 5 2.5 2.5 0 0 0 0-5m0-7a1.5 1.5 0 1 0 0 3 1.5 1.5 0 0 0 0-3" fill="#000624" fill-rule="evenodd"></path></svg>
