<svg fill="none" height="24" viewbox="0 0 24 24" width="24" xmlns="http://www.w3.org/2000/svg"><path d="M21.17 11.33c0-4.67-3.73-8.33-8.5-8.33h-1.33c-4.77 0-8.51 3.66-8.51 8.33S6.72 20 11.33 20h1.33c1.22 0 2.5-.36 3.92-1.11l3.78 1.09s.09.02.14.02c.12 0 .24-.04.33-.13.13-.12.19-.29.16-.46l-.75-4.23c.61-1.21.92-2.51.92-3.85zm-1.3 7.46-3.19-.92a.5.5 0 0 0-.46.08c-1.31.71-2.47 1.05-3.55 1.05h-1.33c-4.07 0-7.5-3.51-7.5-7.67S7.13 4 11.34 4h1.33c4.21 0 7.5 3.22 7.5 7.33 0 1.24-.3 2.43-.89 3.54-.05.1-.07.21-.05.32zm-4.86-9.05c-.05 1.1-.72 1.91-1.89 2.31-.67.23-1.1.79-1.1 1.44V14h-1v-.51c0-1.07.71-2.03 1.77-2.39.78-.26 1.19-.73 1.21-1.37C14 8.46 13 8 12.05 8 10.9 8 10 8.88 10 10H9c0-1.67 1.33-2.98 3.03-3h.04c1.76.02 2.94 1.11 2.94 2.74m-3 5.76c0 .28-.22.5-.5.5s-.5-.22-.5-.5.22-.5.5-.5.5.22.5.5" fill="#000624"></path></svg>
