<svg data-bbox="2.25 0.25 11.5 15.5" data-type="shape" height="16" viewbox="0 0 16 16" width="16" xmlns="http://www.w3.org/2000/svg">
<g>
<path d="M3.75 8.333c0 1.021.435 2.013 1.227 2.752.793.74 1.88 1.165 3.023 1.165s2.23-.424 3.023-1.165c.792-.74 1.227-1.73 1.227-2.752V6.25h1.5v2.083c0 1.454-.62 2.837-1.703 3.849a5.9 5.9 0 0 1-3.297 1.52v2.048h-1.5v-2.049a5.9 5.9 0 0 1-3.297-1.52C2.87 11.172 2.25 9.788 2.25 8.334V6.25h1.5z"></path>
<path clip-rule="evenodd" d="M8 .25c1.545 0 2.75 1.293 2.75 2.827v4.846c0 1.534-1.205 2.827-2.75 2.827S5.25 9.457 5.25 7.923V3.077C5.25 1.543 6.455.25 8 .25m0 1.5c-.664 0-1.25.567-1.25 1.327v4.846c0 .76.586 1.327 1.25 1.327s1.25-.567 1.25-1.327V3.077c0-.76-.586-1.327-1.25-1.327" fill-rule="evenodd"></path>
</g>
</svg>
