<svg fill="none" height="24" viewbox="0 0 24 24" width="24" xmlns="http://www.w3.org/2000/svg"><path d="M21 6.644a.48.48 0 0 0-.237-.42A8.889 8.889 0 0 0 12 6.09 8.9 8.9 0 0 0 7.737 5a8.9 8.9 0 0 0-4.5 1.224.48.48 0 0 0-.237.422v12.851a.5.5 0 0 0 .064.263c.13.23.42.308.647.175a7.955 7.955 0 0 1 8.052.001.47.47 0 0 0 .474 0 7.952 7.952 0 0 1 8.052 0 .47.47 0 0 0 .647-.176.5.5 0 0 0 .063-.27l.001-.028zm-17 .25a7.96 7.96 0 0 1 7.5.015v11.807a8.89 8.89 0 0 0-7.5-.012zm12.263-.933c1.303 0 2.585.321 3.737.934v11.809a8.89 8.89 0 0 0-7.5.012V6.91a7.96 7.96 0 0 1 3.763-.949" fill="#000"></path></svg>
