<svg fill="none" height="24" viewbox="0 0 24 24" width="24" xmlns="http://www.w3.org/2000/svg"><path d="M19.803 5.26A18 18 0 0 0 15.463 4c-.191.31-.403.73-.552 1.06a17.6 17.6 0 0 0-4.808 0C9.954 4.73 9.73 4.31 9.55 4a17.9 17.9 0 0 0-4.342 1.26c-2.748 3.82-3.491 7.55-3.12 11.23A18.1 18.1 0 0 0 7.407 19c.425-.54.807-1.12 1.136-1.73a11.4 11.4 0 0 1-1.794-.81c.149-.1.297-.21.435-.32 3.46 1.49 7.207 1.49 10.624 0 .149.11.287.22.435.32-.573.32-1.167.59-1.793.81.329.61.71 1.19 1.135 1.73 1.73-.5 3.502-1.26 5.318-2.51.457-4.26-.722-7.96-3.1-11.23ZM9.02 14.22c-1.04 0-1.889-.89-1.889-1.98s.828-1.98 1.89-1.98c1.05 0 1.91.89 1.888 1.98 0 1.09-.838 1.98-1.889 1.98Zm6.974 0c-1.04 0-1.89-.89-1.89-1.98s.828-1.98 1.89-1.98c1.05 0 1.91.89 1.889 1.98 0 1.09-.828 1.98-1.89 1.98Z" stroke="#000" stroke-linejoin="round"></path></svg>
