<svg width="160" height="160" viewBox="0 0 160 160" fill="none" xmlns="http://www.w3.org/2000/svg">
<path d="M55.1187 9.03983C55.0549 8.92928 55.0463 8.78683 54.9593 8.76344C54.5791 8.61462 54.1756 8.55296 53.7402 8.43603C53.6703 8.69753 53.5452 8.99093 53.4753 9.25244C53.2141 9.18228 52.8977 9.14401 52.6365 9.07385C50.8705 10.0944 49.1046 11.1149 47.3386 12.1354C47.2859 12.6818 47.0823 13.0943 46.5537 13.326C46.1355 13.494 46.1674 13.5492 45.4157 13.394C45.1544 13.3239 44.7681 13.5471 44.6982 13.8086C44.605 14.1573 44.5437 14.5613 44.0703 14.7611C43.4314 15.0566 42.8562 15.4627 42.194 15.8454C41.7525 16.1005 41.8077 16.0686 41.6912 16.5045C41.5428 16.885 41.4815 17.289 41.365 17.7248C41.1994 17.8205 41.0338 17.9162 40.8131 18.0438C40.5519 17.9736 40.2355 17.9353 39.9742 17.8652C38.9257 18.4711 37.822 19.1089 36.8286 19.683C36.782 19.8573 36.7121 20.1188 36.6655 20.2931C36.6189 20.4675 36.4852 20.6184 36.2645 20.746C36.0989 20.8417 35.9248 20.7949 35.6954 20.78C35.0541 20.561 34.7781 20.7205 34.5917 21.4178C34.5451 21.5922 34.4752 21.8537 34.3096 21.9494C34.1441 22.045 33.9785 22.1407 33.7578 22.2683C33.4267 22.4596 33.4267 22.4596 33.2869 22.9826C33.2636 23.0698 33.2402 23.157 33.1936 23.3313C32.9729 23.4589 32.697 23.6183 32.4529 23.8331C32.1537 24.0797 31.8606 23.9542 31.5994 23.8841C31.5123 23.8607 31.4252 23.8373 31.2511 23.7905C31.0855 23.8862 30.8329 23.9585 30.7544 24.0776C30.6207 24.2285 30.606 24.4581 30.5594 24.6325C30.5361 24.7196 30.5128 24.8068 30.4895 24.894C29.441 25.4999 28.3372 26.1377 27.3439 26.7118C27.0275 26.6735 26.7896 26.5162 26.4817 26.6203C26.4351 26.7947 26.4204 27.0243 26.3186 27.2305C26.272 27.4049 26.1702 27.6111 26.1236 27.7854C26.5063 28.4488 26.5148 28.5912 26.1604 28.8697C25.9716 29.0526 25.8293 29.0611 25.6 29.0462C25.4258 28.9994 25.1646 28.9293 24.9905 28.8825C24.6593 29.0738 24.3282 29.2652 23.9419 29.4884C23.872 29.7499 23.8021 30.0114 23.677 30.3048C22.9596 30.7194 22.2974 31.1021 21.5799 31.5167C21.4548 31.8101 21.4168 32.1269 21.2917 32.4203C20.7399 32.7392 20.2432 33.0262 19.7465 33.3132C19.6533 33.6619 19.5834 33.9234 19.4264 34.1615C19.0401 34.3848 18.709 34.5761 18.3227 34.7994C17.9916 34.9907 17.9916 34.9907 17.6948 35.7518C17.6249 36.0134 17.2386 36.2366 16.9774 36.1664C16.8903 36.143 16.8032 36.1197 16.7162 36.0963C16.4231 35.9708 16.1152 36.075 15.8712 36.2897C15.6504 36.4173 15.6676 36.7022 15.8908 37.0891C15.9865 37.255 16.0269 37.4527 15.9251 37.6589C15.7915 37.8099 15.6259 37.9056 15.4603 38.0012C15.4052 38.0331 15.231 37.9864 15.144 37.963C14.9698 37.9162 14.7086 37.846 14.5344 37.7993C14.4093 38.0926 14.3394 38.3542 14.2462 38.7028C13.9151 38.8942 13.5288 39.1174 13.1977 39.3088C13.1278 39.5703 13.0812 39.7446 13.0346 39.919C12.8862 40.2995 12.912 40.7269 12.6446 41.0288C12.1712 41.2286 12.1651 41.6007 12.0167 41.9813C11.9934 42.0684 11.883 42.1322 11.8279 42.1641C11.5752 42.2364 11.4967 42.3554 11.3949 42.5617C11.1767 43.2037 11.1767 43.2037 10.68 43.4908C10.5635 43.9266 10.4237 44.4496 10.3391 44.9408C10.2458 45.2894 9.90612 45.3383 9.71726 45.5212C9.50756 46.3057 9.29784 47.0902 9.08814 47.8747C8.93116 48.1129 8.59145 48.1618 8.49825 48.5104C8.42835 48.7719 8.33515 49.1206 8.26525 49.3821C8.14873 49.818 8.05553 50.1667 7.93903 50.6025C7.79921 51.1255 7.62754 51.5933 7.54291 52.0844C7.45829 52.5755 6.97634 52.6329 6.88314 52.9816C6.44042 54.6378 5.99769 56.294 5.49979 57.9821C5.40659 58.3308 5.67638 58.5434 5.72544 58.8836C5.25942 60.627 4.79342 62.3703 4.3274 64.1137C4.17042 64.3519 3.83071 64.4007 3.70562 64.6941C3.3328 66.0888 2.95998 67.4836 2.58718 68.8783C2.49396 69.2269 2.76377 69.4396 2.83613 69.6926C2.62641 70.4771 2.41671 71.2616 2.20701 72.0461C2.30266 72.212 2.42406 72.8051 2.45595 72.8604C2.26954 73.5578 2.08315 74.2551 1.89673 74.9525C1.87343 75.0396 2.01815 75.5457 2.1224 75.8539C1.77288 77.1615 1.40006 78.5562 1.02724 79.9509C1.09102 80.0614 1.21856 80.2825 1.31421 80.4484C1.1744 80.9714 1.00272 81.4391 0.918098 81.9303C0.871498 82.1046 0.967155 82.2704 1.0947 82.4915C1.23082 82.8551 1.18422 83.0294 0.766044 83.1974C0.434913 83.3888 0.333137 83.595 0.524452 83.9267C0.683876 84.203 0.701027 84.4879 0.57595 84.7813C0.395668 85.1066 0.610283 85.3511 0.769722 85.6275C0.661796 86.2058 0.466804 86.7607 0.358894 87.339C0.454551 87.5048 0.63726 87.6941 0.59066 87.8684C0.631126 88.0661 0.52935 88.2724 0.427559 88.4786C0.279167 88.8592 0.810203 89.1419 0.58332 89.6416C0.434929 90.0221 0.373619 90.4261 0.225227 90.8067C0.30616 91.2021 0.55265 91.5019 0.380958 91.9696C0.232582 92.3502 0.171257 92.7541 0.0228651 93.1347C0.118522 93.3005 0.21418 93.4664 0.341728 93.6875C0.318428 93.7747 0.295112 93.8618 0.271812 93.949C0.225212 94.1233 0.123436 94.3296 0.163902 94.5273C0.204383 94.725 0.300026 94.8908 0.395683 95.0567C0.349083 95.231 0.247291 95.4372 0.232582 95.6669C0.171257 96.0708 -0.0641863 96.428 0.0167464 96.8235C0.327018 97.2338 0.146736 97.5591 0.0854262 97.963C0.062126 98.0502 0.125892 98.1608 0.157768 98.216C0.46804 98.6264 0.177406 99.0154 0.171272 99.3875C0.188438 99.6724 0.513435 99.8531 0.365043 100.234C0.318443 100.408 0.216636 100.614 0.201927 100.844C0.297584 101.01 0.393242 101.176 0.52079 101.397C0.474189 101.571 0.459465 101.801 0.357689 102.007C0.264473 102.356 0.589454 102.536 0.551445 102.853C0.568611 103.138 0.356453 103.408 0.40551 103.748C0.683906 104.103 0.59069 104.452 0.474189 104.888C0.404289 105.149 0.761161 105.385 0.667961 105.734C0.62136 105.908 0.519554 106.114 0.504844 106.344C0.481544 106.431 0.545326 106.542 0.577217 106.597C0.759941 106.786 0.768531 106.929 0.753807 107.158C0.622596 107.824 0.622581 107.824 0.877678 108.266C0.807777 108.528 0.769752 108.844 0.644661 109.138C0.835975 109.469 1.05918 109.856 1.25048 110.188C1.21247 110.505 1.08739 110.798 1.04937 111.115C1.24068 111.447 1.46387 111.834 1.65519 112.165C1.59388 112.569 1.35842 112.926 1.66869 113.337C1.76435 113.503 1.74962 113.732 1.64783 113.938C1.54604 114.145 1.53132 114.374 1.62697 114.54C1.81829 114.872 2.04151 115.259 2.23282 115.59C2.39225 115.867 2.46459 116.12 2.33951 116.413C2.23772 116.619 2.27819 116.817 2.37385 116.983C2.53327 117.259 2.74788 117.504 2.82024 117.757C2.92449 118.065 2.71233 118.335 2.67432 118.652C3.08884 119.371 3.47146 120.034 3.88598 120.752C3.84795 121.069 3.72288 121.363 3.68485 121.679C4.09937 122.398 4.48198 123.061 4.8965 123.78C4.85848 124.097 4.78859 124.358 4.69538 124.707C4.79104 124.873 4.88669 125.039 5.01424 125.26C5.42876 125.978 5.84327 126.697 6.2259 127.36C6.32155 127.526 6.4172 127.692 6.48955 127.945C6.26269 128.445 6.34363 128.84 6.63061 129.338C7.70612 131.075 8.67129 132.875 9.69163 134.644C9.94672 135.087 9.94672 135.087 10.9303 135.771C11.2675 135.208 11.3546 135.231 11.4184 135.342C11.7691 135.95 12.1198 136.558 12.4706 137.166C12.7024 137.695 13.0592 137.931 13.605 137.984C14.0747 138.671 14.4892 139.39 14.8485 140.14C15.1355 140.638 15.4924 140.874 16.0381 140.927C16.2294 141.259 16.4526 141.645 16.6439 141.977C16.937 142.103 17.2534 142.141 17.5465 142.266C17.7379 142.598 17.9611 142.985 18.1524 143.317C18.4455 143.442 18.7619 143.48 19.055 143.606C19.2463 143.937 19.4695 144.324 19.6608 144.656C20.2065 144.709 20.6505 144.969 20.7952 145.475C20.9632 145.893 21.3667 145.955 21.7469 146.104C22.0081 146.174 22.0338 146.601 22.3821 146.695C22.5563 146.742 22.7856 146.757 22.9916 146.859C23.0787 146.882 23.1425 146.993 23.1744 147.048C23.2467 147.301 23.3657 147.38 23.6269 147.45C23.8011 147.496 24.0623 147.567 24.2364 147.613C24.3321 147.779 24.4277 147.945 24.5234 148.111C24.6105 148.134 24.7294 148.213 24.8165 148.236C24.9906 148.283 25.1967 148.385 25.426 148.4C25.5216 148.566 25.6173 148.732 25.713 148.898C26.0061 149.023 26.2992 149.148 26.5604 149.219C26.7284 149.637 27.1086 149.786 27.512 149.848C27.5991 149.871 27.7181 149.95 27.75 150.005C27.918 150.424 28.3766 150.454 28.7016 150.635C29.0266 150.815 29.1395 151.266 29.5981 151.296C30.0016 151.357 30.3818 151.506 30.8171 151.623C30.9128 151.789 31.0084 151.955 31.1041 152.121C31.3972 152.246 31.7136 152.284 32.0067 152.41C32.1024 152.576 32.198 152.742 32.2937 152.907C33.4256 153.211 34.4705 153.492 35.5154 153.773C35.7533 153.93 35.7471 154.302 36.0954 154.396C36.4989 154.457 36.8791 154.606 37.3144 154.723C37.8369 154.863 38.3041 155.036 38.7947 155.121C39.2852 155.206 39.3661 155.601 39.723 155.837C40.5067 156.048 41.2903 156.258 42.074 156.469C42.1696 156.634 42.2653 156.8 42.3928 157.021C42.7411 157.115 43.1765 157.232 43.58 157.293C43.8964 157.332 44.0767 157.006 44.4249 157.1C44.8051 157.249 45.2086 157.31 45.6439 157.427C45.9052 157.498 46.2535 157.591 46.5147 157.661C46.6017 157.685 47.107 157.54 47.3278 157.413C48.1985 157.646 49.0692 157.88 50.027 158.138C50.6365 158.301 51.246 158.465 51.7684 158.605C52.8133 158.886 52.8133 158.886 53.4608 158.733C53.998 158.644 54.4419 158.903 54.9325 158.988C55.5101 159.096 56.1515 159.315 56.6739 159.456C56.761 159.479 56.8481 159.502 56.9903 159.494C57.2663 159.335 57.4551 159.152 57.8353 159.301C58.2155 159.449 58.619 159.511 59.0543 159.628C59.4578 159.69 59.7914 160.013 60.1777 159.79C60.6192 159.534 60.9442 159.715 61.3476 159.777C61.4347 159.8 61.5451 159.736 61.6003 159.704C61.7106 159.641 61.7658 159.609 61.8762 159.545C62.4538 159.653 63.0081 159.849 63.5858 159.957C63.6091 159.87 63.6875 159.751 63.679 159.609C63.6937 159.379 63.7955 159.173 63.9377 159.164C64.1352 159.124 64.286 159.258 64.4136 159.479C64.6049 159.811 64.8428 159.968 65.1187 159.809C65.5602 159.554 65.8852 159.734 66.2887 159.796C66.6051 159.834 66.7854 159.509 67.1336 159.602C67.6561 159.743 68.0914 159.86 68.6139 160C68.7794 159.904 68.945 159.809 69.1657 159.681C69.3399 159.728 69.5692 159.743 69.7752 159.845C70.1235 159.938 70.3038 159.613 70.6202 159.651C70.9047 159.634 71.1745 159.847 71.5142 159.798C71.6013 159.821 71.6798 159.702 71.7902 159.639C72.1998 159.328 72.6732 159.128 73.2042 159.411C73.2913 159.434 73.4335 159.426 73.4887 159.394C73.6543 159.298 73.875 159.171 74.0491 159.218C74.4293 159.366 74.8328 159.428 75.1872 159.15C75.4717 159.133 75.7648 159.258 76.0812 159.296C76.4124 159.105 76.7435 158.914 77.1298 158.69C77.4462 158.729 77.7393 158.854 78.0557 158.892C78.2213 158.797 78.3868 158.701 78.5524 158.605C78.8688 158.644 79.1619 158.769 79.4783 158.807C79.8094 158.616 80.1957 158.393 80.5268 158.201C81.026 158.429 81.4846 158.459 81.9175 158.061C82.0279 157.997 82.0831 157.965 82.1935 157.902C82.2487 157.87 82.359 157.806 82.4461 157.829C82.7625 157.868 83.0323 158.08 83.3082 157.921C83.5842 157.761 83.8601 157.602 84.0809 157.474C84.2464 157.379 84.4206 157.425 84.6266 157.527C84.8326 157.629 85.0301 157.589 85.1956 157.493C85.6371 157.238 86.0786 156.983 86.5753 156.696C86.8365 156.766 87.1529 156.805 87.4693 156.843C87.966 156.556 88.5179 156.237 89.0145 155.95C89.331 155.988 89.6241 156.114 89.8853 156.184C90.4923 155.833 91.0994 155.482 91.7616 155.099C91.872 155.036 91.9272 155.004 91.9824 154.972C92.2988 155.01 92.5919 155.136 92.8531 155.206C93.5153 154.823 94.1224 154.472 94.7294 154.121C94.8398 154.058 94.895 154.026 95.0372 154.017C95.5364 154.245 95.9632 154.219 96.428 153.877C96.672 153.662 96.9798 153.558 97.2006 153.43C97.3661 153.335 97.5955 153.35 97.8015 153.452C98.0075 153.554 98.2369 153.569 98.4024 153.473C99.7269 152.708 101.051 151.942 102.376 151.177C102.431 151.145 102.573 151.136 102.66 151.16C103.041 151.309 103.444 151.37 103.798 151.092C104.098 150.845 104.516 150.677 104.847 150.486C105.123 150.326 105.28 150.088 105.628 150.182C105.802 150.229 106.064 150.299 106.238 150.346C107.121 149.835 108.004 149.325 108.887 148.815C109.409 148.955 109.844 149.072 110.367 149.212C110.541 149.259 110.738 149.219 110.959 149.091C111.314 148.813 111.337 148.725 111.114 148.339C110.914 147.864 110.929 147.635 111.425 147.348C112.474 146.742 113.522 146.136 114.626 145.498C115.068 145.243 115.068 145.243 116.04 145.271C116.545 145.126 116.964 144.958 117.277 144.482C117.379 144.276 117.339 144.078 117.188 143.944C117.037 143.81 117.052 143.58 117.154 143.374C117.209 143.342 117.296 143.366 117.383 143.389C117.557 143.436 117.818 143.506 117.992 143.553C118.254 143.623 118.602 143.716 118.863 143.787C118.98 143.351 119.073 143.002 119.189 142.566C119.352 141.956 119.652 141.709 120.293 141.928C120.467 141.975 120.728 142.045 120.894 141.95C121.06 141.854 121.225 141.758 121.446 141.631C121.832 141.408 121.832 141.408 121.949 140.972C122.065 140.536 122.158 140.187 122.275 139.751C122.772 139.464 123.323 139.145 123.875 138.826C124.137 138.897 124.453 138.935 124.714 139.005C124.88 138.909 125.045 138.814 125.266 138.686C125.319 138.14 125.554 137.783 126.051 137.496C126.8 137.136 127.486 136.666 128.148 136.284C128.314 136.188 128.447 136.037 128.613 135.941C128.706 135.593 128.735 135.133 129.209 134.934C129.374 134.838 129.476 134.632 129.491 134.402C129.506 134.172 129.607 133.966 129.773 133.871C130.246 133.671 130.221 133.243 130.369 132.863C130.424 132.831 130.503 132.712 130.558 132.68C131.441 132.17 132.324 131.659 133.207 131.149C133.538 130.958 133.608 130.696 133.678 130.435C133.701 130.348 133.724 130.26 133.748 130.173C134.244 129.886 134.796 129.567 135.348 129.248C135.473 128.955 135.511 128.638 135.636 128.345C136.354 127.93 137.016 127.548 137.678 127.165C137.803 126.872 137.928 126.578 137.998 126.317C138.416 126.149 138.565 125.768 138.626 125.364C138.649 125.277 138.728 125.158 138.783 125.126C139.059 124.967 139.335 124.807 139.556 124.68C140.108 124.361 140.108 124.361 140.956 123.281C140.98 123.193 141.09 123.13 141.145 123.098C141.421 122.938 141.665 122.724 141.918 122.651C142.446 122.42 142.682 122.062 142.734 121.516C143.01 121.356 143.231 121.229 143.507 121.069C143.949 120.814 144.004 120.782 143.763 120.111C143.627 119.747 143.674 119.573 144.005 119.381C144.115 119.318 144.171 119.286 144.281 119.222C144.327 119.048 144.374 118.873 144.389 118.644C144.412 118.556 144.435 118.469 144.514 118.35C145.176 117.968 145.894 117.553 146.611 117.138C146.751 116.615 146.835 116.124 147.007 115.656C147.155 115.276 147.043 114.825 147.429 114.602C147.87 114.347 147.877 113.975 148.025 113.594C148.048 113.507 148.159 113.443 148.214 113.411C148.466 113.339 148.545 113.22 148.615 112.958C148.661 112.784 148.676 112.555 148.778 112.348C148.944 112.253 149.109 112.157 149.33 112.029C149.493 111.419 149.688 110.864 149.796 110.286C149.904 109.708 150.171 109.406 150.668 109.119C151.086 108.951 151.054 108.896 151.171 108.46C151.287 108.024 151.38 107.675 151.497 107.239C151.662 107.144 151.828 107.048 152.017 106.865C152.11 106.516 152.227 106.081 152.32 105.732C152.483 105.122 152.591 104.543 152.786 103.989C152.981 103.434 152.851 102.698 153.577 102.426C153.836 101.982 153.888 101.435 154.005 100.999C154.168 100.389 154.331 99.7789 154.471 99.2559C154.82 97.9484 155.202 96.6961 155.496 95.4205C155.613 94.9846 155.944 94.7933 156.156 94.5233C156.368 94.2532 156.121 93.9535 155.962 93.6771C156.218 92.7182 156.475 91.7593 156.731 90.8005C156.987 89.8416 157.267 88.7956 157.523 87.8367C157.094 87.3477 157.1 86.9757 157.739 86.6801C157.794 86.6483 157.873 86.5292 157.896 86.442C157.943 86.2677 158.013 86.0062 158.059 85.8318C158.184 85.5384 158.112 85.2854 157.935 84.7242C158.145 83.9396 158.355 83.1551 158.564 82.3706C158.246 81.8178 158.246 81.8178 158.441 81.2629C158.464 81.1757 158.487 81.0886 158.479 80.9461C158.383 80.7803 158.287 80.6144 158.192 80.4486C158.215 80.3614 158.238 80.2743 158.261 80.1871C158.425 79.5769 158.62 79.022 158.727 78.4437C158.835 77.8654 159.315 77.2935 158.822 76.6939C158.889 75.9179 159.241 75.1249 159.396 74.3723C159.489 74.0236 159.219 73.811 159.147 73.558C159.357 72.7735 159.566 71.9889 159.776 71.2044C159.68 71.0386 159.559 70.4454 159.527 70.3901C159.699 69.9224 159.839 69.3994 159.955 68.9635C159.796 68.6871 159.7 68.5213 159.604 68.3555C159.651 68.1811 159.721 67.9196 159.767 67.7453C159.829 67.3413 160.064 66.9842 159.983 66.5887C159.705 66.2337 159.853 65.8531 159.915 65.4491C159.938 65.362 159.874 65.2514 159.842 65.1961C159.715 64.975 159.619 64.8092 159.666 64.6348C159.814 64.2543 159.875 63.8503 159.597 63.4953C159.635 63.1785 159.705 62.917 159.743 62.6002C159.647 62.4343 159.552 62.2685 159.456 62.1027C159.494 61.7859 159.619 61.4925 159.657 61.1757C159.498 60.8993 159.315 60.7101 159.463 60.3295C159.588 60.0361 159.603 59.8065 159.412 59.4748C159.006 58.8987 159.061 58.8668 159.184 58.0589C159.207 57.9717 159.198 57.8293 159.166 57.774C159.007 57.4976 158.935 57.2446 159.06 56.9512C159.185 56.6578 159.081 56.3495 158.953 56.1284C158.611 55.6628 158.585 55.2354 158.812 54.7358C158.58 54.2064 158.206 53.6855 157.943 53.1008C158.012 52.8393 158.05 52.5226 158.176 52.2292C157.793 51.5658 157.378 50.8472 156.964 50.1286C157.002 49.8118 157.127 49.5184 157.142 49.2888C156.217 47.6857 155.292 46.0827 154.4 44.5349C154.225 44.4881 153.964 44.4179 153.79 44.3712C153.41 44.2223 152.983 44.2478 152.681 43.98C152.513 43.5611 152.11 43.4995 151.73 43.3506C151.556 43.3039 151.428 43.0828 151.388 42.885C151.356 42.8297 151.347 42.6873 151.37 42.6001C151.417 42.4258 151.432 42.1962 151.534 41.99C151.47 41.8794 151.493 41.7922 151.429 41.6817C150.664 40.355 149.899 39.0283 149.134 37.7016C149.203 37.4401 149.241 37.1234 149.311 36.8618C149.05 36.7917 148.757 36.6662 148.496 36.5961C147.762 35.3247 147.061 34.1086 146.359 32.8924C146.397 32.5757 146.554 32.3375 146.45 32.0293C146.276 31.9825 146.047 31.9676 145.841 31.8656C145.754 31.8422 145.635 31.7635 145.603 31.7082C145.348 31.266 145.093 30.8238 144.838 30.3815C144.806 30.3263 144.687 30.2476 144.6 30.2242C143.744 29.7607 143.744 29.7607 143.489 29.3185C143.329 29.0421 143.17 28.7657 143.042 28.5446C142.946 28.3788 142.685 28.3086 142.607 28.4277C142.552 28.4596 142.505 28.6339 142.537 28.6892C142.856 29.242 143.143 29.7395 143.406 30.3241C143.534 30.5453 143.345 30.7281 143.203 30.7366C143.116 30.7132 142.973 30.7217 142.942 30.6664C142.272 29.5056 141.602 28.3448 140.965 27.2392C140.854 27.303 140.831 27.3902 140.689 27.3987C140.459 27.3838 140.285 27.337 140.19 27.1712C139.871 26.6184 139.584 26.1209 139.265 25.5681C139.105 25.2917 138.923 25.1025 138.606 25.0642C138.377 25.0493 138.226 24.9154 138.131 24.7496C137.971 24.4732 137.867 24.1649 137.684 23.9757C137.469 23.7312 137.13 23.7801 136.837 23.6546C136.645 23.323 136.454 22.9913 136.231 22.6043C135.938 22.4789 135.621 22.4406 135.328 22.3152C135.137 21.9835 134.914 21.5966 134.722 21.2649C134.429 21.1395 134.113 21.1012 133.852 21.031C133.66 20.6994 133.437 20.3124 133.278 20.036C132.985 19.9106 132.692 19.7852 132.43 19.715C132.262 19.2962 131.882 19.1473 131.479 19.0857C131.305 19.0389 131.209 18.8731 131.081 18.6519C131.049 18.5967 130.986 18.4861 130.899 18.4627C130.353 18.4096 130.019 18.0864 129.788 17.557C129.747 17.3593 129.564 17.1701 129.39 17.1233C128.987 17.0616 128.607 16.9128 128.438 16.494C128.407 16.4387 128.288 16.36 128.201 16.3366C128.026 16.2899 127.797 16.275 127.646 16.141C127.495 16.0071 127.455 15.8094 127.359 15.6435C127.011 15.55 126.75 15.4798 126.457 15.3544C126.138 14.8016 125.851 14.3041 125.532 13.7513C124.978 13.5557 124.345 13.4792 123.814 13.1964C123.527 12.6989 123.263 12.1142 122.866 11.6805C122.343 11.5402 121.908 11.4233 121.386 11.2829C121.139 10.9832 120.948 10.6515 120.544 10.5898C120.141 10.5282 119.761 10.3794 119.357 10.3177C119.262 10.1519 119.166 9.98602 119.07 9.82019C118.777 9.69475 118.516 9.6246 118.168 9.53105C118.072 9.36521 117.976 9.19937 117.881 9.03354C117.707 8.98676 117.445 8.9166 117.271 8.86983C116.891 8.721 116.464 8.74652 116.163 8.47863C115.994 8.0598 115.591 7.99814 115.211 7.84931C115.124 7.82592 115.005 7.74726 115.028 7.66009C114.932 7.49426 114.805 7.27314 114.631 7.22637C114.108 7.08605 113.673 6.96911 113.151 6.82879C113.055 6.66296 113.014 6.46523 112.864 6.33129C112.713 6.19735 112.483 6.18247 112.309 6.13569C112.222 6.11231 112.135 6.08891 112.048 6.06553C111.952 5.89969 111.857 5.73385 111.761 5.56802C111.326 5.45108 110.946 5.30227 110.574 5.29589C110.115 5.26612 110.002 4.81539 109.677 4.63467C109.352 4.45396 108.917 4.33702 108.601 4.29875C108.214 4.52199 108.214 4.52198 107.358 4.0585C107.271 4.03511 107.208 3.92456 107.12 3.90117C106.598 3.76085 106.163 3.64392 105.64 3.5036C105.545 3.33776 105.449 3.17193 105.385 3.06137C102.425 2.26621 99.4642 1.47105 96.5038 0.675897C96.2364 0.977799 95.833 0.916144 95.4528 0.767318C95.3657 0.743931 95.2786 0.720536 95.1683 0.784318C94.9708 0.824713 94.8053 0.920394 94.6397 1.01607C93.6819 0.758811 92.637 0.47816 91.6792 0.220903C91.5922 0.197516 91.5051 0.174136 91.418 0.150749C91.2525 0.246423 91.0869 0.342094 90.9213 0.437768C90.7472 0.390994 90.5179 0.376103 90.3118 0.274051C89.9084 0.212394 89.5515 -0.0235916 89.1247 0.00192073C88.9273 0.042316 88.7384 0.225153 88.5961 0.233657C88.3116 0.250666 88.0099 -0.0172206 87.734 0.142235C87.5366 0.18263 87.3477 0.365473 87.1736 0.318699C86.7701 0.257042 86.4451 0.0763248 86.0355 0.386732C85.9803 0.418623 85.838 0.427127 85.751 0.40374C85.2285 0.263418 84.7932 0.146484 84.2707 0.00616153C84.1052 0.101835 83.8844 0.229399 83.7422 0.237903C83.5447 0.278298 83.3387 0.17625 83.1646 0.129476C83.0775 0.106089 82.9904 0.0827015 82.9033 0.0593145C82.4618 0.314443 82.0203 0.56957 81.5788 0.824699C81.7616 1.01392 81.7702 1.15637 81.6684 1.3626C81.6132 1.39449 81.558 1.42638 81.5028 1.45827C81.2735 1.44339 81.1545 1.36473 81.0822 1.11172C80.8933 1.29456 80.7511 1.30306 80.545 1.20101C80.5131 1.14573 80.4812 1.09045 80.4494 1.03518C80.4641 0.805559 80.5426 0.686501 80.7952 0.614214C80.7314 0.503658 80.7547 0.416489 80.6358 0.337824C80.4297 0.235772 80.2556 0.188997 80.09 0.28467C79.8141 0.444126 79.5615 0.516411 79.2684 0.390972C79.0623 0.28892 78.8649 0.329319 78.6993 0.424993C78.2578 0.680122 77.8163 0.935249 77.3749 1.19038C76.7739 1.16912 76.1877 0.918243 75.6101 0.809812C75.1134 1.09683 74.5616 1.41574 74.0649 1.70276C73.8037 1.6326 73.4873 1.59433 73.1942 1.46889C73.1242 1.7304 72.9992 2.0238 72.9293 2.28531C72.4301 2.05781 71.9715 2.02805 71.5067 2.37035C71.2074 2.61697 70.8444 2.75304 70.4581 2.97628C69.959 2.74878 69.4451 2.75091 69.0674 3.1166C68.9019 3.21227 68.7363 3.30794 68.5707 3.40362C67.9085 3.78631 67.9404 3.84159 68.2997 4.59209C68.5609 4.66225 68.854 4.78769 69.1704 4.82596C69.1557 5.05558 69.0772 5.17464 68.9436 5.32559C68.5891 5.6041 68.2175 5.59773 67.9625 5.15551C67.8668 4.98967 67.7393 4.76856 67.4866 4.84084C67.2021 4.85785 66.9262 5.01731 66.8011 5.31071C66.7545 5.48505 66.7398 5.71466 66.6061 5.86561C66.4724 6.01656 66.3069 6.11224 66.1413 6.20791C66.0861 6.2398 65.9439 6.2483 65.8249 6.16964C65.6508 6.12287 65.6422 5.98042 65.7121 5.71891C65.7354 5.63174 65.8139 5.51268 65.782 5.4574C65.7501 5.40212 65.7734 5.31495 65.6863 5.29157C65.5992 5.26818 65.4803 5.18952 65.4251 5.22141C64.818 5.57222 64.211 5.92302 63.4936 6.3376C63.4065 6.31422 63.5169 6.25043 63.604 6.27382C63.691 6.2972 63.7548 6.40776 63.7315 6.49493C63.772 6.69265 63.6702 6.89888 63.5279 6.90738C63.4727 6.93927 63.2986 6.89251 63.2667 6.83723C63.2029 6.72667 63.1943 6.58422 63.4065 6.31421C63.4212 6.08459 63.3256 5.91876 63.198 5.69765C63.1257 5.44464 63.0067 5.36598 62.7774 5.3511C62.4929 5.3681 62.1617 5.55945 62.0599 5.76568C62.0366 5.85285 62.0133 5.94002 61.99 6.02719C61.8968 6.37586 61.8968 6.37586 61.4063 6.29082C61.3192 6.26743 61.2003 6.18877 61.1451 6.22066C60.8605 6.23767 60.6803 6.56296 60.332 6.46941C60.1578 6.42264 59.9518 6.32059 59.7225 6.3057C58.6739 6.91163 57.6254 7.51756 56.5768 8.1235C56.5069 8.385 56.437 8.64651 56.312 8.93991C55.3713 8.96754 55.1739 9.00794 55.1187 9.03983C55.2143 9.20567 55.31 9.37151 55.7307 9.71806C55.9453 9.96256 55.7159 9.94767 55.5651 9.81373C55.3272 9.6564 55.3738 9.48206 55.6583 9.46505C55.8557 9.42465 56.0618 9.52671 56.0704 9.66916C56.1022 9.72443 56.0556 9.89877 55.7073 9.80522C55.2806 9.83073 55.0831 9.87113 54.8771 9.76908C54.8452 9.7138 54.8133 9.65852 54.7814 9.60324C54.7876 9.23118 54.8661 9.11212 55.1187 9.03983ZM109.588 20.6802C109.478 20.744 109.335 20.7525 109.129 20.6504C108.891 20.4931 108.938 20.3188 109.222 20.3017C109.42 20.2614 109.626 20.3634 109.635 20.5059C109.666 20.5611 109.62 20.7355 108.819 20.2401C108.906 20.2635 108.97 20.374 108.947 20.4612C108.923 20.5484 108.813 20.6122 108.726 20.5888C108.528 20.6292 108.322 20.5271 108.314 20.3847C108.282 20.3294 108.328 20.1551 108.384 20.1232C108.462 20.0041 108.691 20.019 109.588 20.6802ZM46.6422 141.299C46.8311 141.116 46.9733 141.108 47.1793 141.21C47.2112 141.265 47.2431 141.32 47.275 141.376C47.2603 141.605 47.1818 141.724 46.9292 141.796C46.9929 141.907 47.1119 141.986 47.0886 142.073C47.0506 142.39 46.9807 142.651 46.9108 142.913C47.0383 143.134 47.134 143.3 47.2296 143.465C48.884 143.91 50.5384 144.354 52.1927 144.799C52.2884 144.964 52.3608 145.217 52.4797 145.296C52.7495 145.509 53.0573 145.404 53.3014 145.19C53.3566 145.158 53.4988 145.149 53.5859 145.173C54.0765 145.258 54.5437 145.43 55.0661 145.57C55.1213 145.538 55.2636 145.53 55.3188 145.498C55.4843 145.402 55.6499 145.307 55.8155 145.211C56.2569 144.956 56.5182 145.026 56.7732 145.468C56.9327 145.745 57.0602 145.966 57.2196 146.242C57.7421 146.382 58.2645 146.523 58.6999 146.64C59.3094 146.803 59.8637 146.999 60.4413 147.107C60.9319 147.192 61.3758 147.452 61.8578 147.394C62.8769 147.248 62.8536 147.335 63.5502 147.522C64.1597 147.686 64.6821 147.826 65.2916 147.99C65.3787 148.013 65.4658 148.037 65.5528 148.06C65.8288 147.9 66.0495 147.773 66.6308 146.995C66.6946 147.105 66.7032 147.248 66.6014 147.454C66.4444 147.692 66.2703 147.645 66.2531 147.36C66.2126 147.163 66.3144 146.957 66.4567 146.948C66.5119 146.916 66.686 146.963 66.4125 147.637C66.4763 147.747 66.4849 147.89 66.572 147.913C67.0392 148.085 67.5297 148.17 68.0522 148.311C68.1393 148.334 68.1711 148.389 68.203 148.445C68.1797 148.532 68.1883 148.674 68.1331 148.706C67.802 148.898 67.4157 149.121 67.0294 149.344C66.7682 149.274 66.507 149.204 66.1587 149.11C65.9845 149.063 65.7552 149.049 65.5492 148.947C65.2009 148.853 65.0206 149.178 64.7042 149.14C64.4197 149.157 64.1499 148.944 63.8102 148.993C63.755 149.025 63.6446 149.089 63.5342 149.153C63.479 149.185 63.3687 149.248 63.2816 149.225C62.9333 149.131 62.5213 148.927 62.1435 149.293C61.7486 149.374 61.3366 149.17 60.9883 149.076C60.6719 149.038 60.3788 148.912 60.1176 148.842C59.627 148.757 59.1279 148.53 58.6692 148.5C58.5821 148.477 58.5037 148.596 58.3933 148.659C58.2829 148.723 58.2277 148.755 58.1406 148.732C57.1681 148.704 57.1363 148.649 56.474 149.032C56.1981 149.191 55.905 149.066 55.7456 148.789C55.618 148.568 55.5224 148.402 55.3249 148.443C55.0171 148.547 55.098 148.942 54.9962 149.148C54.4272 149.182 53.8962 148.9 53.3186 148.791C53.153 148.887 52.9874 148.983 52.8219 149.078C52.3865 148.961 52.0382 148.868 51.6029 148.751C51.365 148.594 51.3392 148.166 51.0228 148.128C50.5322 148.043 50.1116 147.696 49.5916 148.071C49.5364 148.102 49.3942 148.111 49.3071 148.088C46.8691 147.433 44.3759 146.81 41.906 146.1C41.4706 145.983 41.5025 146.038 41.2474 145.596C41.0561 145.264 40.8648 144.932 40.4294 144.816C40.0259 144.754 39.6458 144.605 39.2423 144.543C39.1466 144.378 39.051 144.212 38.9234 143.991C38.1398 143.78 37.3561 143.57 36.5725 143.359C36.4854 143.336 36.3664 143.257 36.3345 143.202C36.1665 142.783 35.7631 142.721 35.3829 142.572C35.2958 142.549 35.232 142.439 35.2001 142.383C35.0407 142.107 34.9365 141.799 34.7538 141.609C34.4521 141.341 34.0253 141.367 33.6451 141.218C33.471 141.171 33.2649 141.069 33.0356 141.054C32.8443 140.723 32.6211 140.336 32.4298 140.004C32.1367 139.879 31.8755 139.809 31.5272 139.715C31.4315 139.549 31.3359 139.383 31.2402 139.218C31.0661 139.171 30.8048 139.101 30.6307 139.054C30.4566 139.007 30.3609 138.841 30.2334 138.62C30.1377 138.454 29.9868 138.32 29.7575 138.305C29.473 138.322 29.2351 138.165 29.099 137.802C28.9076 137.47 28.9076 137.47 27.9879 136.896C27.75 136.739 27.6457 136.43 27.4863 136.154C27.3906 135.988 27.295 135.822 27.0889 135.72C26.3605 135.478 26.3605 135.478 26.1373 135.091C26.0416 134.925 25.946 134.759 25.8184 134.538C25.5572 134.468 25.2641 134.342 25.0029 134.272C24.7159 133.775 24.397 133.222 24.1101 132.724C23.817 132.599 23.5006 132.561 23.2075 132.435C23.0162 132.104 22.7929 131.717 22.6016 131.385C22.3085 131.26 21.9921 131.221 21.7861 131.119C21.3716 130.401 21.0123 129.65 20.4874 128.995C19.9416 128.942 19.64 128.674 19.353 128.177C18.8342 127.15 18.237 126.242 17.663 125.247C17.5674 125.081 17.3614 124.979 17.132 124.964C16.9027 124.949 16.6967 124.847 16.601 124.682C14.4009 120.867 12.2327 117.108 10.0325 113.294C10.0007 113.239 9.99206 113.096 10.0154 113.009C10.2422 112.51 10.1294 112.059 9.78725 111.593C9.62781 111.317 9.46839 111.041 9.34084 110.819C8.99869 110.354 8.97294 109.926 9.19982 109.427C8.84049 108.676 8.37079 107.99 8.04336 107.294C7.9477 107.129 7.85203 106.963 7.72449 106.742C7.7625 106.425 7.83242 106.163 7.92562 105.815C7.63865 105.317 7.31978 104.764 7.03281 104.267C7.07084 103.95 7.14074 103.689 7.23394 103.34C7.04262 103.008 6.81942 102.621 6.6281 102.29C6.85499 101.79 6.88442 101.331 6.54226 100.865C6.29577 100.565 6.31907 100.478 6.4184 99.7575C6.4417 99.6703 6.43311 99.5278 6.40122 99.4726C6.2418 99.1962 6.08237 98.9198 5.95484 98.6987C5.85918 98.5328 5.87389 98.3032 6.00757 98.1523C6.03087 98.0651 6.17312 98.0566 6.2835 97.9928C6.0284 97.5506 5.77332 97.1084 5.51824 96.6661C5.58814 96.4046 5.62615 96.0878 5.75124 95.7944C5.65558 95.6286 5.52805 95.4075 5.48757 95.2098C5.45569 95.1545 5.50228 94.9801 5.55747 94.9483C5.66784 94.8845 5.89718 94.8994 6.04802 95.0333C6.19887 95.1672 6.23934 95.365 6.36689 95.5861C6.5582 95.9177 6.55819 95.9178 6.43555 96.7257C6.38895 96.9 6.48461 97.0658 6.61216 97.2869C6.70781 97.4528 6.69309 97.6824 6.55942 97.8334C6.53612 97.9205 6.39387 97.929 6.2835 97.9928C6.53858 98.435 6.79368 98.8773 7.04876 99.3195C7.45223 99.3811 7.8324 99.53 8.23589 99.5916C8.49711 99.6618 8.67124 99.7085 8.67983 99.851C8.7203 100.049 8.58661 100.2 8.36587 100.327C8.03475 100.519 7.93297 100.725 8.03721 101.033C8.13286 101.199 8.22852 101.365 8.21381 101.594C8.09118 102.402 8.09116 102.402 8.28248 102.734C8.697 103.453 9.11152 104.171 9.49415 104.835C9.52604 104.89 9.53461 105.032 9.51131 105.119C9.38009 105.785 9.38009 105.785 9.63517 106.227C9.89638 106.297 10.1895 106.423 10.4507 106.493C10.3808 106.754 10.3428 107.071 10.2729 107.333C10.5918 107.885 10.9339 108.351 11.1424 108.968C11.0958 109.142 10.994 109.348 10.9793 109.578C10.8861 109.926 11.1645 110.282 11.5998 110.398C12.0352 110.515 12.0904 110.484 11.9187 110.951C11.8169 111.158 11.8574 111.355 11.953 111.521C12.2081 111.963 12.408 112.437 12.7183 112.848C13.0604 113.313 13.031 113.773 12.8041 114.272C13.8245 116.041 14.8448 117.81 15.8652 119.579C16.1264 119.649 16.4195 119.775 16.6807 119.845C17.2865 120.895 17.8924 121.945 18.4982 122.996C18.7913 123.121 19.1077 123.159 19.3689 123.229C19.6878 123.782 19.9195 124.312 20.3488 124.801C20.7841 124.917 21.1324 125.011 21.5678 125.128C21.7334 125.032 21.9222 124.849 22.0645 124.841C22.4042 124.792 22.6188 125.037 22.723 125.345C22.8187 125.511 22.9144 125.677 23.0419 125.898C23.1694 126.119 23.0444 126.412 22.7132 126.603C22.3821 126.795 22.3122 127.056 22.4716 127.333C22.7267 127.775 22.9818 128.217 23.2369 128.659C23.2688 128.715 23.3877 128.793 23.4748 128.817C23.5619 128.84 23.649 128.864 23.7593 128.8C23.9568 128.759 24.1456 128.576 24.2879 128.568C24.6595 128.574 24.7637 128.883 24.9232 129.159C24.8533 129.421 24.8152 129.737 24.7453 129.999C24.9195 130.046 25.1488 130.06 25.3548 130.163C25.4419 130.186 25.529 130.209 25.6479 130.288C25.8074 130.564 25.9668 130.841 26.0943 131.062C26.2857 131.394 26.4598 131.44 26.878 131.272C26.9884 131.209 27.0436 131.177 27.1539 131.113C27.3514 131.073 27.5807 131.087 27.6764 131.253C27.8677 131.585 28.0909 131.972 28.2822 132.303C28.6648 132.967 28.72 132.935 29.4693 132.576C29.5392 132.314 29.6643 132.021 29.7342 131.759C30.4308 131.946 31.1274 132.133 31.7921 132.265C32.0153 132.652 32.2066 132.984 32.3979 133.316C32.4151 133.6 32.2814 133.751 32.1072 133.705C32.0202 133.681 31.9331 133.658 31.8141 133.579C31.6633 133.445 31.6228 133.247 31.472 133.114C31.4401 133.058 31.2659 133.011 31.2108 133.043C31.0452 133.139 30.9986 133.313 31.1261 133.535C31.3175 133.866 31.4303 134.317 31.7872 134.553C32.0251 134.71 32.3967 134.717 32.6579 134.787C32.7449 134.81 32.832 134.834 32.9743 134.825C33.3054 134.634 33.6365 134.442 34.0228 134.219C34.4582 134.336 34.8065 134.43 35.2418 134.547C35.3375 134.712 35.4332 134.878 35.5288 135.044C35.5607 135.099 35.5141 135.274 35.4589 135.306C35.4356 135.393 35.3804 135.425 35.2934 135.401C35.0088 135.418 34.7305 135.063 34.5502 135.388C34.3699 135.714 34.7268 135.95 34.7991 136.203C34.8629 136.313 34.8948 136.369 34.9586 136.479C35.0542 136.645 35.2369 136.834 35.4344 136.794C35.687 136.722 35.9948 136.617 36.088 136.269C36.1346 136.094 36.2045 135.833 36.2511 135.658C36.5124 135.729 36.8607 135.822 37.1219 135.892C37.2089 135.916 37.3512 135.907 37.3831 135.962C37.5339 136.096 37.6296 136.262 37.7252 136.428C37.7571 136.483 37.7657 136.626 37.7424 136.713C37.6958 136.887 37.5536 136.896 37.2923 136.826C36.8251 136.653 36.857 136.709 36.7405 137.145C36.6706 137.406 36.6326 137.723 36.5627 137.984C36.7368 138.031 36.8239 138.055 36.9109 138.078C37.2273 138.116 37.4653 138.274 37.5695 138.582C37.6652 138.748 37.8712 138.85 38.0686 138.809C38.1557 138.833 38.2342 138.714 38.3446 138.65C38.2808 138.539 38.1937 138.516 38.1851 138.373C38.1999 138.144 38.2465 137.97 38.412 137.874C38.688 137.714 38.8768 137.532 38.9148 137.215C38.9295 136.985 39.008 136.866 39.2055 136.826C39.4348 136.841 39.5538 136.919 39.6261 137.172C39.658 137.228 39.7218 137.338 39.8174 137.504C40.0787 137.574 40.308 137.589 40.6244 137.627C40.6097 137.857 40.5079 138.063 40.3423 138.159C40.1768 138.254 40.0112 138.35 39.9094 138.556C39.8861 138.643 39.8076 138.763 39.8395 138.818C39.8714 138.873 40.0455 138.92 40.1007 138.888C40.4956 138.807 40.7949 138.561 41.126 138.369C41.2915 138.274 41.5209 138.288 41.6717 138.422C41.7588 138.446 41.7674 138.588 41.8311 138.699C41.9648 138.548 42.1071 138.539 42.2812 138.586C42.4554 138.633 42.5743 138.712 42.6148 138.909C42.7485 138.758 42.9459 138.718 43.1519 138.82C43.239 138.843 43.3261 138.867 43.358 138.922C43.4855 139.143 43.6449 139.42 44.3906 139.947C44.2802 140.011 44.1379 140.019 43.9319 139.917C43.694 139.76 43.7406 139.585 44.0251 139.568C44.2226 139.528 44.4286 139.63 44.4372 139.772C44.4691 139.828 44.4225 140.002 43.7492 139.728C43.5836 139.823 43.4181 139.919 43.1973 140.047C43.2611 140.157 43.38 140.236 43.3567 140.323C43.2868 140.585 43.1618 140.878 43.0919 141.14C43.266 141.186 43.3531 141.21 43.4401 141.233C44.6886 141.101 44.6886 141.101 45.33 141.32C45.4171 141.344 45.4256 141.486 45.4894 141.597C45.655 141.501 45.8205 141.405 46.0413 141.278C45.8585 141.088 45.85 140.946 45.9517 140.74C46.0069 140.708 46.0621 140.676 46.1173 140.644C46.4509 140.967 46.5698 141.046 46.6422 141.299ZM125.175 30.0987C125.23 30.0669 125.341 30.0031 125.396 29.9712C125.593 29.9308 125.799 30.0328 125.895 30.1987C125.991 30.3645 126.086 30.5303 126.127 30.7281C126.159 30.7833 126.112 30.9577 126.057 30.9896C125.947 31.0534 125.717 31.0385 125.622 30.8726C125.407 30.6281 125.335 30.3751 125.175 30.0987C125.12 30.1306 125.01 30.1944 124.954 30.2263C124.757 30.2667 124.551 30.1647 124.455 29.9988C124.36 29.833 124.264 29.6672 124.223 29.4694C124.192 29.4142 124.238 29.2398 124.293 29.2079C124.404 29.1441 124.633 29.159 124.729 29.3249C124.943 29.5694 125.048 29.8776 125.175 30.0987ZM83.232 2.67014C83.0113 2.7977 82.7353 2.95716 82.5146 3.08472C82.4594 3.11662 82.3723 3.09322 82.2852 3.06984C82.0559 3.05495 82.0154 2.85723 82.2043 2.67439C82.3613 2.43627 82.582 2.3087 82.8984 2.34697C83.1278 2.36185 83.2467 2.44052 83.9053 2.9444C83.7949 3.00818 83.6526 3.01669 83.4466 2.91464C83.2087 2.75731 83.2553 2.58297 83.5398 2.56596C83.7373 2.52556 83.9433 2.62762 83.9519 2.77007C83.8967 2.80196 83.9053 2.9444 83.232 2.67014ZM153.309 72.8776C153.373 72.9882 153.382 73.1306 153.28 73.3369C153.123 73.575 152.949 73.5282 152.932 73.2433C152.891 73.0456 152.993 72.8394 153.135 72.8309C153.19 72.799 153.365 72.8457 153.091 73.5197C153.219 73.7408 153.378 74.0172 153.506 74.2383C153.537 74.2936 153.514 74.3808 153.491 74.4679C153.476 74.6975 153.279 74.738 153.096 74.5487C152.858 74.3914 152.731 74.1703 152.769 73.8535C152.728 73.6558 152.807 73.5367 153.309 72.8776ZM113.522 23.4186C113.577 23.3867 113.656 23.2676 113.743 23.291C114.178 23.408 114.637 23.4377 115.081 23.6971C115.208 23.9182 115.368 24.1946 116.261 25.7424C116.006 25.3002 115.75 24.8579 115.495 24.4157C115.606 24.3519 115.661 24.32 115.771 24.2563C115.945 24.303 116.151 24.4051 116.326 24.4519C116.729 24.5135 117.109 24.6623 117.277 25.0812C117.515 25.2385 117.832 25.2768 118.125 25.4022C118.244 25.4809 118.348 25.7892 118.467 25.8678C118.998 26.1506 119.631 26.2272 120.185 26.4228C120.281 26.5886 120.376 26.7544 120.504 26.9755C120.765 27.0457 121.082 27.084 121.375 27.2094C121.549 27.2562 121.755 27.3582 121.984 27.3731C122.332 27.4667 122.326 27.8387 122.564 27.9961C122.802 28.1534 123.142 28.1045 123.412 28.3171C123.594 28.5063 123.699 28.8146 123.573 29.108C123.486 29.0846 123.399 29.0612 123.312 29.0378C123.138 28.9911 122.964 28.9443 122.703 28.8741C122.592 28.9379 122.537 28.9698 122.427 29.0336C122.096 29.2249 121.866 29.21 121.707 28.9336C121.611 28.7678 121.516 28.602 121.31 28.4999C121.017 28.3745 120.677 28.4234 120.517 28.147C120.317 27.6729 119.891 27.6984 119.542 27.6048C119.281 27.5347 118.933 27.4411 118.672 27.371C118.353 26.8182 118.353 26.8182 117.775 26.7098C117.688 26.6864 117.601 26.663 117.514 26.6396C117.418 26.4738 117.323 26.3079 117.227 26.1421C116.966 26.0719 116.673 25.9465 115.591 24.5816C115.536 24.6134 115.457 24.7325 115.37 24.7091C114.935 24.5922 114.476 24.5624 114.032 24.303C113.905 24.0819 113.745 23.8055 113.49 23.3633C113.482 23.2209 113.458 23.308 113.522 23.4186C113.467 23.4505 113.357 23.5143 113.301 23.5462C113.104 23.5865 112.898 23.4845 112.889 23.342C112.857 23.2868 112.904 23.1124 112.959 23.0805C113.07 23.0168 113.244 23.0635 113.522 23.4186ZM45.5211 15.6179C45.2047 15.5796 44.9435 15.5095 44.6271 15.4712C44.6418 15.2416 44.7436 15.0354 44.9092 14.9397C45.0747 14.844 45.2403 14.7483 45.4058 14.6527C45.5714 14.557 45.737 14.4613 45.9344 14.4209C46.306 14.4273 46.355 14.7675 46.4826 14.9886C46.4593 15.0758 46.436 15.1629 46.4127 15.2501C46.3661 15.4244 46.3195 15.5988 46.2496 15.8603C46.2263 15.9475 46.203 16.0346 46.1797 16.1218C46.1098 16.3833 45.6364 16.5831 45.201 16.4662C45.358 16.2281 45.4279 15.9666 45.5211 15.6179ZM52.0773 11.1659C52.092 10.9363 52.1938 10.7301 52.3594 10.6344C52.6353 10.4749 52.856 10.3474 53.132 10.1879C53.3527 10.0603 53.6458 10.1858 53.8052 10.4622C53.9009 10.628 53.9966 10.7938 54.0922 10.9597C54.2749 11.1489 54.2835 11.2914 54.1817 11.4976C54.1351 11.6719 53.961 11.6251 53.6998 11.555C53.2092 11.4699 52.6549 11.2743 52.0773 11.1659ZM78.6527 3.91601C78.5657 3.89263 78.4786 3.86923 78.3915 3.84585C78.2174 3.79907 78.0113 3.69703 77.8139 3.73743C77.5846 3.72254 77.4656 3.64388 77.4251 3.44615C77.4399 3.21653 77.5183 3.09748 77.771 3.02519C77.8262 2.9933 77.9365 2.92952 78.0469 2.86573C78.134 2.88912 78.221 2.91251 78.3081 2.9359C78.4823 2.98267 78.6883 3.08472 78.8857 3.04432C79.1151 3.05921 79.234 3.13787 79.2745 3.33559C79.2598 3.56521 79.1813 3.68427 78.9287 3.75656C78.8183 3.82034 78.7631 3.85223 78.6527 3.91601ZM28.0713 131.172C28.2111 130.649 28.3999 130.467 28.8586 130.496C29.2302 130.503 29.2792 130.843 29.4068 131.064C29.4387 131.119 29.3602 131.238 29.3369 131.326C29.3136 131.413 29.2032 131.476 29.1713 131.421C28.8549 131.383 28.4195 131.266 28.0713 131.172ZM56.8724 8.76344C56.9828 8.69966 57.038 8.66777 57.1483 8.60399C57.3139 8.50831 57.488 8.55509 57.6941 8.65714C57.6794 8.88676 57.6009 9.00582 57.4672 9.15677C57.3568 9.22055 57.3016 9.25244 57.1913 9.31623C57.0257 9.4119 56.8515 9.36512 56.6455 9.26307C56.6602 9.03345 56.7068 8.85912 56.8724 8.76344ZM153.342 71.5318C153.319 71.619 153.296 71.7062 153.273 71.7933C153.194 71.9124 153.052 71.9209 152.846 71.8188C152.869 71.7317 152.892 71.6445 152.916 71.5573C152.907 71.4149 153.049 71.4064 153.342 71.5318ZM143.777 31.7316C143.753 31.8188 143.73 31.906 143.707 31.9931C143.628 32.1122 143.486 32.1207 143.28 32.0186C143.303 31.9315 143.327 31.8443 143.35 31.7571C143.428 31.6381 143.571 31.6296 143.777 31.7316ZM8.90055 79.8233C9.01951 79.902 9.0281 80.0444 8.92631 80.2507C8.83924 80.2273 8.75216 80.2039 8.66507 80.1805C8.54612 80.1019 8.53754 79.9594 8.63932 79.7532C8.7264 79.7766 8.81348 79.7999 8.90055 79.8233ZM9.33835 73.8214C9.41684 73.7023 9.55909 73.6938 9.76513 73.7959C9.74183 73.8831 9.71853 73.9702 9.69523 74.0574C9.61673 74.1765 9.47448 74.185 9.26845 74.0829C9.29175 73.9958 9.31505 73.9086 9.33835 73.8214ZM106.961 6.94146C106.984 6.8543 107.008 6.76712 107.031 6.67995C107.26 6.69484 107.379 6.7735 107.388 6.91595C107.365 7.00312 107.341 7.09029 107.318 7.17746C107.089 7.16258 106.97 7.08391 106.961 6.94146ZM87.3919 2.99331C87.3134 3.11237 87.1711 3.12087 86.9651 3.01882C86.9884 2.93165 87.0117 2.84448 87.035 2.75731C87.1135 2.63825 87.2557 2.62975 87.4618 2.7318C87.4385 2.81897 87.4152 2.90614 87.3919 2.99331ZM69.8793 4.26893C69.9982 4.3476 70.0068 4.49004 69.905 4.69627C69.818 4.67288 69.7309 4.6495 69.6438 4.62611C69.5249 4.54745 69.5163 4.405 69.6181 4.19877C69.7051 4.22216 69.7922 4.24555 69.8793 4.26893ZM51.4641 11.8888C51.377 11.8654 51.29 11.842 51.2029 11.8186C51.0839 11.7399 51.0753 11.5975 51.1771 11.3913C51.2642 11.4147 51.3513 11.438 51.4384 11.4614C51.5254 11.4848 51.534 11.6273 51.4641 11.8888ZM139.326 25.1641C139.294 25.1089 139.341 24.9345 139.396 24.9026C139.451 24.8707 139.506 24.8389 139.562 24.807C139.649 24.8304 139.791 24.8218 139.855 24.9324C140.069 25.1769 140.664 25.5702 141.044 25.719C141.331 26.2165 141.705 26.7374 141.882 27.2987C141.914 27.354 141.867 27.5283 141.812 27.5602C141.757 27.5921 141.67 27.5687 141.583 27.5454C141.409 27.4986 141.313 27.3327 141.185 27.1116C141.09 26.9458 140.884 26.8437 140.686 26.8841C140.599 26.8608 140.521 26.9798 140.41 27.0436C139.973 26.4121 139.622 25.8041 139.326 25.1641ZM133.662 19.2983C133.638 19.3854 133.615 19.4726 133.592 19.5598C133.362 19.5449 133.243 19.4662 133.093 19.3323C132.878 19.0878 132.788 18.5499 132.986 18.5095C133.183 18.4691 133.389 18.5712 133.485 18.737C133.549 18.8476 133.581 18.9028 133.644 19.0134C133.621 19.1006 133.685 19.2111 133.662 19.2983ZM135.066 20.3294C135.161 20.4953 135.115 20.6696 135.013 20.8758C134.784 20.8609 134.665 20.7823 134.514 20.6483C134.45 20.5378 134.418 20.4825 134.355 20.3719C134.259 20.2061 134.305 20.0318 134.407 19.8255C134.637 19.8404 134.756 19.9191 134.906 20.053C134.97 20.1636 135.002 20.2189 135.066 20.3294ZM137.966 23.4441C138.196 23.459 138.314 23.5377 138.323 23.6801C138.3 23.7673 138.276 23.8545 138.253 23.9416C138.024 23.9268 137.905 23.8481 137.896 23.7057C137.864 23.6504 137.943 23.5313 137.966 23.4441ZM137.647 22.8914C137.418 22.8765 137.299 22.7978 137.29 22.6554C137.314 22.5682 137.337 22.481 137.36 22.3939C137.59 22.4087 137.709 22.4874 137.717 22.6298C137.694 22.717 137.671 22.8042 137.647 22.8914ZM80.1011 0.941634C80.0054 0.775799 79.9098 0.609965 79.7822 0.388853C79.9159 0.237901 80.0581 0.229396 80.2323 0.27617C80.4064 0.322944 80.5254 0.401604 80.5659 0.599329C80.4322 0.750281 80.2666 0.84596 80.1011 0.941634ZM21.8829 30.3835C21.7958 30.3601 21.7087 30.3367 21.6216 30.3133C21.5027 30.2347 21.4941 30.0922 21.5959 29.886C21.683 29.9094 21.77 29.9328 21.8571 29.9562C21.9761 30.0348 21.9846 30.1773 21.8829 30.3835ZM65.4926 4.44539C65.4055 4.422 65.3184 4.39862 65.2313 4.37523C65.1124 4.29656 65.1038 4.15411 65.2056 3.94788C65.2927 3.97127 65.3797 3.99466 65.4668 4.01805C65.6409 4.06482 65.6495 4.20727 65.4926 4.44539ZM43.2783 140.442C43.1679 140.506 43.0894 140.625 43.0023 140.602C42.7411 140.531 42.448 140.406 42.2187 140.391C41.9979 140.519 41.8324 140.614 41.6668 140.71C41.6116 140.742 41.4927 140.663 41.4056 140.64C41.3185 140.616 41.2547 140.506 41.3099 140.474C41.5577 139.373 41.5577 139.373 41.8888 139.181C41.9292 139.379 42.0482 139.458 42.2223 139.505C42.3965 139.551 42.5387 139.543 42.6724 139.392C42.8637 139.724 43.0551 140.055 43.2783 140.442ZM45.5385 141.937C45.6255 141.96 45.6893 142.071 45.666 142.158C45.7065 142.356 45.6047 142.562 45.4624 142.57C45.4072 142.602 45.2331 142.555 45.2012 142.5C45.1374 142.39 45.1289 142.247 45.2306 142.041C45.4281 142.001 45.5066 141.882 45.5385 141.937ZM46.9611 141.852C46.8274 142.003 46.6851 142.011 46.511 141.964C46.3368 141.918 46.2179 141.839 46.1774 141.641C46.343 141.546 46.5085 141.45 46.7293 141.322C46.7378 141.465 46.8335 141.631 46.9611 141.852ZM38.4108 139.275C38.1729 139.118 38.2195 138.943 38.504 138.926C38.7014 138.886 38.9075 138.988 38.9161 139.13C38.9479 139.186 38.9013 139.36 38.8462 139.392C38.7358 139.456 38.5616 139.409 38.4108 139.275Z" fill="#E8E8E8"/>
<path fill-rule="evenodd" clip-rule="evenodd" d="M70 76.8571C70 74.4569 70 73.2568 70.4671 72.34C70.878 71.5336 71.5336 70.878 72.34 70.4671C73.2568 70 74.4569 70 76.8571 70H83.1429C85.5431 70 86.7432 70 87.66 70.4671C88.4664 70.878 89.122 71.5336 89.5329 72.34C90 73.2568 90 74.4569 90 76.8571V83.1429C90 85.5431 90 86.7432 89.5329 87.66C89.122 88.4664 88.4664 89.122 87.66 89.5329C86.7432 90 85.5431 90 83.1429 90H76.8571C74.4569 90 73.2568 90 72.34 89.5329C71.5336 89.122 70.878 88.4664 70.4671 87.66C70 86.7432 70 85.5431 70 83.1429V76.8571ZM88 79.7144V83.1429C88 84.376 87.9984 85.1805 87.9483 85.7948C87.9 86.3858 87.8168 86.6225 87.7509 86.752C87.5317 87.1821 87.1821 87.5317 86.752 87.7509C86.6225 87.8168 86.3858 87.9 85.7948 87.9483C85.1805 87.9984 84.376 88 83.1429 88H76.8571C75.624 88 74.8195 87.9984 74.2052 87.9483C73.6142 87.9 73.3775 87.8168 73.248 87.7509C72.8179 87.5317 72.4683 87.1821 72.2491 86.752C72.1832 86.6225 72.1 86.3858 72.0517 85.7948C72.0016 85.1805 72 84.376 72 83.1429V80.8573L72.6204 80.2368C73.0668 79.7905 73.7904 79.7905 74.2367 80.2368L77.1082 83.1083C77.4429 83.4431 77.9856 83.4431 78.3204 83.1083L84.049 77.3797C84.4953 76.9334 85.2189 76.9334 85.6653 77.3797L88 79.7144ZM77.5714 74.9999C77.5714 76.0256 76.74 76.8571 75.7143 76.8571C74.6886 76.8571 73.8571 76.0256 73.8571 74.9999C73.8571 73.9743 74.6886 73.1428 75.7143 73.1428C76.74 73.1428 77.5714 73.9743 77.5714 74.9999Z" fill="#737376"/>
</svg>
