<?xml version="1.0" encoding="UTF-8"?>
<svg data-bbox="2.583 0.917 14.834 18.167" xmlns="http://www.w3.org/2000/svg" viewBox="0 0 20 20" height="20" width="20" data-type="shape">
    <g>
        <path d="M11.679.917a2.75 2.75 0 0 1 1.937.808l2.99 2.989.182.2q.26.317.418.695c.128.31.196.64.206.974l.005.084-.001.019v9.981A2.417 2.417 0 0 1 15 19.084H5a2.42 2.42 0 0 1-2.417-2.417V3.334A2.417 2.417 0 0 1 5 .917zM5 2.417a.917.917 0 0 0-.917.917v13.333a.917.917 0 0 0 .917.917h10a.917.917 0 0 0 .916-.917v-9.25H12.5a1.583 1.583 0 0 1-1.583-1.583V2.417zm7.417 3.417a.084.084 0 0 0 .083.083h3.167a1 1 0 0 0-.12-.14l-2.992-2.992a1 1 0 0 0-.138-.119z" clip-rule="evenodd" fill-rule="evenodd"/>
    </g>
</svg>
