<?xml version="1.0" encoding="UTF-8"?>
<svg data-bbox="0.903 1.738 18.177 16.512" xmlns="http://www.w3.org/2000/svg" viewBox="0 0 20 20" height="20" width="20" data-type="shape">
    <g>
        <path d="M10.009 13.417a.75.75 0 0 1 0 1.5H10a.75.75 0 0 1 0-1.5z"/>
        <path d="M10 6.75a.75.75 0 0 1 .75.75v3.333a.75.75 0 0 1-1.5 0V7.5a.75.75 0 0 1 .75-.75"/>
        <path d="M9.992 1.738a2.42 2.42 0 0 1 2.1 1.223l6.666 11.664a2.42 2.42 0 0 1-.882 3.3 2.4 2.4 0 0 1-1.208.325H3.334a2.417 2.417 0 0 1-2.107-3.625L7.892 2.961a2.42 2.42 0 0 1 2.1-1.223m0 1.5a.92.92 0 0 0-.797.465l-.002.002-6.666 11.667-.002.003a.917.917 0 0 0 .802 1.375h13.34l.12-.008a.92.92 0 0 0 .673-.451.92.92 0 0 0 0-.916l-.002-.003-6.667-11.667-.001-.002a.92.92 0 0 0-.798-.465" clip-rule="evenodd" fill-rule="evenodd"/>
    </g>
</svg>
