<?xml version="1.0" encoding="UTF-8"?>
<svg data-bbox="2.25 0.25 11.5 15.5" xmlns="http://www.w3.org/2000/svg" viewBox="0 0 16 16" height="16" width="16" data-type="color">
    <g>
        <path fill="#24718B" d="M3.75 8.333c0 1.021.435 2.013 1.227 2.752.793.74 1.88 1.165 3.023 1.165s2.23-.424 3.023-1.165c.792-.74 1.227-1.73 1.227-2.752V6.25h1.5v2.083c0 1.454-.62 2.837-1.703 3.849a5.9 5.9 0 0 1-3.297 1.52v2.048h-1.5v-2.049a5.9 5.9 0 0 1-3.297-1.52C2.87 11.172 2.25 9.788 2.25 8.334V6.25h1.5zM8 .25c1.545 0 2.75 1.293 2.75 2.827v4.846c0 1.534-1.205 2.827-2.75 2.827S5.25 9.457 5.25 7.923V3.077C5.25 1.543 6.455.25 8 .25" data-color="1"/>
    </g>
</svg>
