<?xml version="1.0" encoding="UTF-8"?>
<svg width="24px" height="24px" viewBox="0 0 24 24" version="1.1" xmlns="http://www.w3.org/2000/svg" xmlns:xlink="http://www.w3.org/1999/xlink" style="background: #FFFFFF;">
    <g stroke="none" stroke-width="1" fill="none" fill-rule="evenodd">
        <path d="M14.536,5 L17.464,5 C17.768,5 18,5.286 18,5.625 L18,19.375 C18,19.715 17.768,20 17.464,20 L14.536,20 C14.232,20 14,19.714 14,19.375 L14,5.625 C14,5.285 14.232,5 14.536,5 L14.536,5 Z M17,7 L15,7 L15,9 L17,9 L17,7 Z M5.518,9 L11.482,9 C11.768,9 12,9.25 12,9.554 L12,19.446 C12,19.75 11.768,20 11.482,20 L5.518,20 C5.232,20 5,19.75 5,19.446 L5,9.554 C5,9.25 5.232,9 5.518,9 Z M8,11 L6,11 L6,13 L8,13 L8,11 Z M11,11 L9,11 L9,13 L11,13 L11,11 Z M17,11 L15,11 L15,13 L17,13 L17,11 Z M8,15 L6,15 L6,17 L8,17 L8,15 Z M11,15 L9,15 L9,17 L11,17 L11,15 Z M17,15 L15,15 L15,17 L17,17 L17,15 Z" fill="#62778C"></path>
    </g>
</svg>
