<svg width="16" height="16" viewBox="0 0 16 16" xmlns="http://www.w3.org/2000/svg"><path d="M11.06 8.52008C11.75 8.52008 12.31 7.96008 12.31 7.27008C12.31 6.68008 11.9 6.21008 11.35 6.08008L10.33 8.26008C10.54 8.41008 10.78 8.52008 11.06 8.52008Z"/><path d="M2 3C1.45 3 1 3.45 1 4V13C1 13.55 1.45 14 2 14H5.79L10.92 3H2ZM5.19 9.22L2.5 10.78V4.51H8.34L6.26 8.98C5.89 8.96 5.52 9.04 5.19 9.23V9.22Z"/><path d="M13.99 3H12.79L12.09 4.5H13.49V9.45L12.04 10.29C11.42 10.65 10.66 10.65 10.04 10.29L9.53 10L7.66 14.01H13.99C14.54 14.01 14.99 13.56 14.99 13.01V4C14.99 3.45 14.54 3 13.99 3Z"/></svg>