<svg width="128" height="98" viewBox="0 0 128 98" fill="none" xmlns="http://www.w3.org/2000/svg">
<path fill-rule="evenodd" clip-rule="evenodd" d="M7.08542 7.55011L7.09714 7.54803C7.10016 7.91564 7.0113 7.93112 6.92923 7.94542C6.91324 7.94821 6.8975 7.95095 6.88276 7.95624C6.41975 8.12591 5.95516 8.12255 5.49103 8.11919C5.23455 8.11734 4.9782 8.11548 4.72234 8.14283C4.17937 8.19771 3.64022 8.38431 3.10107 8.72458C3.13052 8.73515 3.16037 8.75363 3.1901 8.77204C3.25302 8.811 3.31543 8.84965 3.37255 8.81238C3.6823 8.6427 3.99497 8.67027 4.30785 8.69787C4.50095 8.7149 4.69413 8.73194 4.88676 8.70262C5.65916 8.58188 6.43538 8.53798 7.2116 8.51603C7.47863 8.50959 7.74565 8.54094 8.01344 8.57239C8.20199 8.59453 8.39092 8.61672 8.58051 8.62579C8.67723 8.62579 8.77573 8.5745 8.87846 8.521C8.92601 8.49624 8.97446 8.47101 9.02406 8.45017C8.63786 9.35023 8.14078 9.5478 7.78134 8.99899C7.74838 9.03538 7.71625 9.07902 7.68469 9.12189L7.68468 9.1219L7.68468 9.12191C7.62106 9.20833 7.55972 9.29164 7.49839 9.30631C6.94706 9.39186 6.39573 9.47741 5.8444 9.54792H0V82.6549V83.0733V95.4783C0.0638658 95.4935 0.127732 95.5087 0.191598 95.5087C0.67272 95.5087 1.14533 95.6304 1.61793 95.8738C1.78399 95.965 1.95004 95.965 2.12035 95.965C2.72068 95.965 3.31251 96.1628 3.89156 96.7865C4.23643 97.1667 4.58982 97.3341 4.95599 97.258C5.10774 97.2225 5.26239 97.2596 5.41656 97.2966C5.52625 97.323 5.63569 97.3493 5.74367 97.3493C5.81192 97.3471 5.88026 97.3456 5.94865 97.344C6.35808 97.3347 6.7693 97.3253 7.17426 97.182C7.55746 97.0451 7.94065 97.0298 8.31959 97.0603C8.43884 97.0679 8.55915 97.0793 8.67946 97.0907C8.79971 97.1021 8.91996 97.1135 9.03914 97.1211C9.21513 97.1313 9.39112 97.1279 9.5671 97.1245C9.6551 97.1228 9.74309 97.1211 9.83108 97.1211C9.9569 97.1211 10.0827 97.1341 10.2084 97.147C10.6102 97.1884 11.0108 97.2297 11.4064 96.8473C11.4746 96.7865 11.5512 96.7865 11.6193 96.8473C11.809 97.0047 11.9988 96.9405 12.1863 96.8771C12.2345 96.8608 12.2825 96.8445 12.3304 96.8321C12.4964 96.7865 12.6667 96.7712 12.8328 96.8321C13.436 97.0231 14.0359 96.896 14.6354 96.769C14.7044 96.7544 14.7734 96.7398 14.8424 96.7256C15.2486 96.6412 15.6542 96.5257 16.0598 96.4101C16.8236 96.1926 17.5875 95.975 18.355 95.965C18.4265 95.965 18.5005 95.9385 18.5732 95.9123C18.5957 95.9042 18.6181 95.8962 18.6403 95.889C18.7327 95.8643 18.8256 95.8381 18.9187 95.8118C19.1128 95.757 19.3075 95.7019 19.5004 95.6608C19.5631 95.6495 19.6256 95.6413 19.688 95.6331C19.9604 95.5976 20.2299 95.5623 20.4967 95.2653C20.6074 95.1436 20.7351 95.1284 20.8543 95.1588C21.3152 95.3092 21.7771 95.2998 22.239 95.2904C22.7117 95.2807 23.1843 95.2711 23.6559 95.4326C24.2149 95.2618 24.7739 95.3747 25.3302 95.4871C25.4179 95.5048 25.5056 95.5225 25.5932 95.5391C26.4703 95.7064 27.1259 95.9498 27.8625 96.68C28.1691 96.9842 28.4671 97.1667 28.7822 97.1363C28.8358 97.1276 28.8909 97.1389 28.9457 97.1501C28.9866 97.1584 29.0274 97.1667 29.0675 97.1667L29.0924 97.1679C29.7567 97.1979 30.417 97.2278 31.0814 97.2428C31.1538 97.2428 31.2304 97.2428 31.2943 97.1515C31.5071 96.9082 31.72 96.9842 31.9329 97.1667C32.1468 97.3578 32.3642 97.255 32.5757 97.155C32.6 97.1435 32.6241 97.1321 32.6482 97.1211C32.8313 97.0347 33.0152 96.9859 33.1992 96.937C33.4686 96.8654 33.7382 96.7937 34.0064 96.6039C34.2659 96.4212 34.5378 96.4401 34.8062 96.4587C34.8506 96.4618 34.8948 96.4649 34.9389 96.467C35.4413 96.4822 35.9437 96.5279 36.4461 96.5887C36.499 96.5936 36.5521 96.5957 36.6054 96.5979C36.8862 96.6092 37.1697 96.6206 37.4382 97.0298C37.5233 97.1667 37.6255 97.1667 37.7234 97.1667C37.8903 97.1774 38.0572 97.2402 38.2241 97.303C38.2957 97.33 38.3672 97.3569 38.4387 97.3797C38.6115 97.4303 38.7862 97.3597 38.9615 97.2889C39.0497 97.2533 39.138 97.2175 39.2264 97.1972C39.2703 97.1879 39.3138 97.1745 39.3572 97.1611C39.4568 97.1304 39.5556 97.0999 39.6564 97.1211C40.2408 97.242 40.8241 97.1365 41.4074 97.031C41.9247 96.9374 42.4421 96.8438 42.9604 96.9082C43.2638 96.7516 43.5671 96.7762 43.8705 96.8008C43.9503 96.8073 44.0302 96.8137 44.11 96.8169C44.2198 96.8269 44.3296 96.7971 44.4406 96.7669C44.4975 96.7515 44.5547 96.7359 44.6124 96.7256C44.7709 96.6953 44.9298 96.6498 45.089 96.6043C45.4086 96.5129 45.7289 96.4213 46.0473 96.4518C46.657 96.5094 47.2643 96.3892 47.8718 96.269C48.3884 96.1668 48.9051 96.0645 49.4236 96.0715C49.519 96.0715 49.6144 96.0326 49.7097 95.9936C49.7336 95.9839 49.7574 95.9742 49.7813 95.965C49.8489 95.9426 49.9164 95.9192 49.9839 95.8958C50.4648 95.7293 50.9436 95.5635 51.429 95.7369C51.5157 95.7701 51.6024 95.7389 51.6891 95.7077C51.7217 95.696 51.7542 95.6843 51.7867 95.676C51.8959 95.6537 52.0052 95.6305 52.1146 95.6073C52.6748 95.4885 53.2371 95.3693 53.7963 95.3566C53.8405 95.3566 53.8848 95.359 53.9293 95.3614C54.0777 95.3695 54.2269 95.3777 54.3711 95.2957C54.8522 95.0219 55.3291 95.1132 55.806 95.2957C55.9507 95.3566 56.0912 95.3718 56.236 95.2957C56.3765 95.2197 56.5213 95.2197 56.666 95.2197C56.8259 95.2051 56.9863 95.2014 57.1468 95.1977C57.4906 95.1897 57.835 95.1816 58.1775 95.0676C58.459 94.973 58.7418 94.9416 59.0245 94.9102C59.2421 94.886 59.4596 94.8619 59.6762 94.809C60.3983 94.6277 61.124 94.587 61.85 94.5463C61.916 94.5426 61.9819 94.5389 62.0478 94.5351C62.2082 94.5267 62.3685 94.5156 62.5288 94.5045C63.2316 94.4559 63.9326 94.4074 64.6365 94.5808C64.7301 94.6112 64.8281 94.6112 64.9218 94.596C65.6881 94.4135 66.4545 94.4591 67.2209 94.5199C67.5062 94.5504 67.7957 94.5352 68.081 94.4287C68.438 94.3072 68.7993 94.2918 69.1563 94.2766L69.1582 94.2766C69.31 94.2699 69.4618 94.2683 69.6136 94.2668C70.1558 94.2612 70.698 94.2556 71.2402 94.018C71.7609 93.7795 72.2868 93.6438 72.8117 93.5084C72.9565 93.4711 73.1011 93.4337 73.2456 93.3943C73.6501 93.2878 74.0588 93.2117 74.4633 93.1509C74.706 93.1053 74.9317 92.9836 75.1445 92.4816C75.2595 92.2078 75.4085 92.0861 75.549 91.9948C75.7832 91.8579 76.0216 91.7514 76.2601 91.721C76.3917 91.6994 76.5234 91.6792 76.6553 91.659C77.2654 91.5656 77.8769 91.4719 78.4826 91.2342C79.2916 90.9148 80.1048 90.641 80.918 90.6866C80.977 90.6866 81.0376 90.6565 81.0978 90.6266C81.1333 90.609 81.1686 90.5914 81.2033 90.5801C81.6589 90.3976 82.1187 90.3063 82.5658 90.5801C83.2342 90.9756 83.8984 91.0365 84.5711 91.0821C85.0012 91.1126 85.4355 91.0973 85.8655 91.0213C86.0022 90.9982 86.1397 91.0031 86.2774 91.008C86.5943 91.0193 86.9121 91.0305 87.2237 90.7018C87.2577 90.6654 87.2971 90.6678 87.3377 90.6702C87.3479 90.6708 87.3582 90.6714 87.3685 90.6714C87.5842 90.6816 87.7999 90.6833 88.0157 90.6849C88.4471 90.6883 88.8785 90.6917 89.31 90.7627C90.6043 90.9756 91.8987 91.0213 93.193 90.93C93.9256 90.8822 94.6582 90.7311 95.3908 90.58C95.5907 90.5388 95.7905 90.4976 95.9903 90.4585C96.9155 90.2707 97.8435 90.2271 98.7696 90.1837C98.9688 90.1743 99.1678 90.165 99.3667 90.1542C100.061 90.1238 100.75 90.1238 101.444 90.1238C101.528 90.1238 101.612 90.153 101.695 90.1821C101.827 90.2287 101.959 90.2748 102.087 90.1999C102.413 90.015 102.739 90.0634 103.063 90.1115C103.192 90.1307 103.321 90.1499 103.45 90.1542C103.82 90.1689 104.189 90.2829 104.558 90.3969C104.953 90.5189 105.348 90.641 105.745 90.641C105.929 90.6354 106.113 90.6523 106.297 90.6693C106.616 90.6985 106.934 90.7277 107.252 90.641C107.444 90.5954 107.635 90.641 107.827 90.6866C108.521 90.854 109.219 90.8387 109.909 90.6714C110.841 90.4432 111.774 90.3368 112.706 90.5801C112.728 90.5848 112.75 90.5901 112.772 90.5954C112.896 90.6252 113.021 90.6553 113.136 90.5649C113.447 90.2911 113.749 90.4128 114.06 90.6106C114.194 90.6974 114.332 90.7068 114.468 90.7161C114.522 90.7198 114.577 90.7235 114.631 90.7323C114.679 90.7424 114.727 90.7441 114.775 90.7458C114.871 90.7492 114.967 90.7525 115.061 90.8235C115.746 91.3864 116.436 91.3711 117.13 91.2799C117.24 91.2623 117.35 91.256 117.461 91.2497C117.637 91.2396 117.815 91.2295 117.99 91.1734C118.118 91.1278 118.22 91.2342 118.331 91.4168C118.416 91.5537 118.509 91.6297 118.603 91.6906C118.681 91.7424 118.762 91.78 118.842 91.818C118.88 91.8358 118.918 91.8537 118.956 91.8731C119.112 91.9448 119.266 92.027 119.421 92.1092C119.857 92.3408 120.294 92.5729 120.74 92.5729C121.117 92.5729 121.494 92.5985 121.871 92.6242C121.996 92.6328 122.122 92.6413 122.248 92.6489C122.584 92.6793 122.916 92.725 123.248 92.9531C123.529 93.1509 123.819 93.1965 124.108 93.0596C124.258 92.9912 124.407 93.0336 124.557 93.0761C124.573 93.0808 124.59 93.0855 124.606 93.0901C124.877 93.1878 125.152 93.208 125.427 93.2282C125.537 93.2363 125.647 93.2443 125.756 93.2574C126.132 92.8909 126.518 92.9241 126.903 92.9571C126.949 92.9611 126.996 92.9651 127.042 92.9684C127.234 92.9836 127.412 92.8619 127.6 92.6489C127.642 92.6033 127.685 92.5576 127.723 92.512V82.6549H127.518V16.6037C127.546 16.4005 127.566 16.1612 127.58 15.8811C127.599 15.486 127.622 15.0799 127.66 14.6957C127.75 13.8024 127.735 12.8985 127.72 11.9987C127.714 11.605 127.707 11.212 127.71 10.8211C127.713 10.4128 127.648 10.0691 127.518 9.9119V9.54792H126.092C125.836 9.50483 125.579 9.464 125.324 9.42706C125.199 9.4124 125.075 9.42383 124.951 9.43523C124.797 9.44944 124.643 9.46361 124.49 9.42706C124.153 9.34361 123.818 9.22934 123.483 9.11492L123.482 9.11484C123.288 9.04868 123.094 8.98247 122.899 8.92215C122.775 8.8857 122.649 8.86862 122.523 8.85161C122.46 8.843 122.396 8.83442 122.333 8.82336C122.324 8.82336 122.313 8.83139 122.302 8.83972C122.288 8.85087 122.272 8.86258 122.257 8.85629C122.007 8.84283 121.756 8.85311 121.505 8.86339C120.939 8.88662 120.373 8.90983 119.821 8.65871C119.011 8.28552 118.2 8.24162 117.393 8.2526C116.85 8.2526 116.334 8.09893 115.822 7.65987C115.803 7.64622 115.785 7.61136 115.752 7.54473C115.731 7.50419 115.705 7.4519 115.669 7.38547C116.535 7.29481 117.373 7.42572 118.202 7.55509C118.777 7.64501 119.348 7.73419 119.921 7.74769C119.901 7.73194 119.882 7.71195 119.863 7.69177C119.828 7.65571 119.793 7.61907 119.756 7.60499C119.451 7.49455 119.147 7.37096 118.843 7.24742C117.969 6.89208 117.096 6.53711 116.208 6.49639C115.732 6.47447 115.257 6.39782 114.781 6.32109C114.304 6.24415 113.826 6.16713 113.348 6.14514C112.264 6.09641 111.186 5.82523 110.109 5.55408C109.73 5.45884 109.352 5.36361 108.973 5.27802C108.607 5.19717 108.24 5.17623 107.873 5.15529C107.592 5.13927 107.311 5.12326 107.031 5.08044C106.737 5.04116 106.442 4.96673 106.147 4.89209C105.948 4.8416 105.748 4.79101 105.547 4.75115C105.381 4.71983 105.214 4.70281 105.047 4.68581C104.922 4.67302 104.796 4.66024 104.672 4.64139C104.525 4.61705 104.38 4.57584 104.235 4.5346C104.118 4.50145 104.001 4.46827 103.884 4.44382C103.61 4.38894 103.338 4.34229 103.066 4.29564C102.793 4.24899 102.521 4.20234 102.247 4.14746C102.152 4.12675 102.057 4.08896 101.963 4.05135C101.857 4.00921 101.752 3.96728 101.647 3.94988C101.124 3.85768 100.601 3.77734 100.078 3.69699C99.7289 3.64343 99.3802 3.58986 99.0315 3.53278C98.347 3.41205 97.6664 3.28033 96.9819 3.11569C96.836 3.08018 96.69 2.99411 96.544 2.90805C96.4644 2.8611 96.3848 2.81416 96.3051 2.77542L96.286 2.76444C96.2165 2.72434 96.1496 2.68577 96.0795 2.66565C94.5959 2.28148 93.1161 1.97415 91.6248 1.88634C91.5722 1.88243 91.5194 1.87914 91.4664 1.87584C91.0737 1.85138 90.6759 1.82659 90.3018 1.54608C89.7278 1.11951 89.1538 1.10085 88.5781 1.08213C88.3983 1.07628 88.2183 1.07043 88.0382 1.05214C87.7464 1.02187 87.4543 0.987478 87.162 0.953066L87.1619 0.953048C86.5004 0.875168 85.8383 0.797204 85.178 0.766755C84.4744 0.732982 83.7709 0.732464 83.0673 0.731946C82.6276 0.731622 82.1878 0.731298 81.7481 0.722854C81.6234 0.722854 81.4987 0.6896 81.374 0.656345C81.296 0.635561 81.2181 0.614776 81.1401 0.602111C81.1032 0.597786 81.0663 0.588774 81.0294 0.579776C80.8792 0.543105 80.73 0.506671 80.5857 0.788709C80.5245 0.909448 80.4059 0.876521 80.3256 0.810663C79.9259 0.464879 79.5164 0.473571 79.1084 0.482232C78.9465 0.485668 78.7848 0.489099 78.6241 0.470394C77.9129 0.382583 77.2016 0.360635 76.4904 0.371611C76.0032 0.381857 75.5168 0.408843 75.0304 0.435826C74.4748 0.466652 73.9192 0.497475 73.3626 0.503328C73.0126 0.509237 72.6638 0.470609 72.3149 0.431971C72.0157 0.398838 71.7164 0.365698 71.4163 0.360631C71.1297 0.356111 70.8432 0.377646 70.5566 0.399181C70.1473 0.429944 69.7379 0.460708 69.3285 0.415512C69.0244 0.382564 68.7202 0.401815 68.4165 0.421035C68.1132 0.440234 67.8103 0.459402 67.5084 0.426492C67.1923 0.392343 66.8762 0.340849 66.5601 0.289355C66.165 0.224988 65.7699 0.16062 65.3748 0.130131C65.1518 0.112515 64.9277 0.142016 64.7032 0.171585C64.508 0.197289 64.3124 0.223044 64.1167 0.21794C63.3597 0.198124 62.6027 0.166385 61.8465 0.134681C61.3461 0.1137 60.846 0.0927333 60.3465 0.0752485C59.1382 0.0423195 57.9299 0.0313439 56.7178 0.0203675C56.419 0.0181685 56.1204 0.015529 55.8219 0.0128904C54.6304 0.00235822 53.4403 -0.008161 52.2478 0.00939354C50.8751 0.0313461 49.5062 0.0862234 48.1334 0.163057C47.6012 0.195913 47.069 0.250624 46.5363 0.305383C46.0012 0.360388 45.4657 0.415442 44.9291 0.448445C44.7824 0.458115 44.6356 0.467365 44.4889 0.476616C43.1361 0.561867 41.7815 0.647239 40.4362 1.06312C40.2995 1.10742 40.1603 1.09698 40.0207 1.08651C39.9182 1.07883 39.8155 1.07113 39.7135 1.08507C38.5435 1.22776 37.3772 1.38143 36.2072 1.54608L36.1735 1.55092C35.2708 1.68103 34.3644 1.81166 33.4617 1.98513C33.2399 2.02903 33.0191 2.10587 32.7983 2.1827C32.5774 2.25953 32.3566 2.33637 32.1348 2.38027C31.846 2.4342 31.5571 2.45501 31.2691 2.47575C31.0882 2.48878 30.9077 2.50179 30.7277 2.52296C30.4035 2.55584 30.0794 2.58281 29.7553 2.60978C28.9976 2.67282 28.2404 2.73582 27.4852 2.8742C26.5562 3.0454 25.6258 3.10995 24.6957 3.17448C24.0753 3.21752 23.4551 3.26055 22.8355 3.33521C22.7896 3.34619 22.7437 3.36814 22.7016 3.55474C22.8318 3.55474 22.9615 3.55596 23.0911 3.55718H23.0911C23.3498 3.55962 23.608 3.56205 23.8679 3.55474C24.2388 3.54376 24.6059 3.53278 24.9768 3.48887C25.1797 3.46046 25.3819 3.41979 25.5837 3.37921C25.8496 3.32572 26.1149 3.27237 26.3801 3.2474C26.6216 3.22429 26.862 3.23159 27.1025 3.23888C27.319 3.24545 27.5355 3.25202 27.7528 3.23642C27.9946 3.21732 28.2365 3.17235 28.479 3.12724C28.6545 3.0946 28.8304 3.06189 29.007 3.03885C29.1466 3.02238 29.2852 3.02787 29.4238 3.03336C29.5624 3.03885 29.701 3.04434 29.8406 3.02788C29.9497 3.01605 30.0588 2.98196 30.168 2.94786C30.2615 2.91863 30.355 2.8894 30.4486 2.87421C30.7229 2.83091 30.9973 2.78694 31.2716 2.74296L31.2718 2.74294C32.1103 2.60856 32.9493 2.47409 33.7905 2.35832C33.9384 2.33636 34.0862 2.39247 34.2341 2.44857C34.308 2.47662 34.3819 2.50467 34.4559 2.52296C34.4559 2.56687 34.4568 2.60803 34.4578 2.64919C34.4587 2.69035 34.4597 2.73151 34.4597 2.77541L34.4465 2.78688C34.4134 2.81572 34.3826 2.84255 34.3488 2.85225C34.3233 2.85957 34.2978 2.85713 34.2723 2.85469C34.2596 2.85347 34.2468 2.85225 34.2341 2.85225C34.0666 2.86871 33.8988 2.87332 33.7311 2.87793C33.3397 2.88869 32.9486 2.89944 32.5631 3.0608C32.019 3.29299 31.4748 3.29967 30.9307 3.30635C30.6259 3.31008 30.3212 3.31382 30.0165 3.35716C28.3532 3.59864 26.6898 3.78524 25.0227 3.97183C24.5466 4.02672 24.0705 4.06788 23.5945 4.10904C23.1184 4.1502 22.6424 4.19136 22.1663 4.24624C21.6794 4.30234 21.1925 4.3644 20.7053 4.4265C20.0485 4.51023 19.3912 4.59402 18.7326 4.66334C18.5029 4.68731 18.2732 4.67202 18.0442 4.65676C17.8538 4.64408 17.6638 4.63142 17.4746 4.64139C17.3152 4.64832 17.1558 4.68591 16.9954 4.72372L16.9954 4.72373C16.9019 4.74578 16.808 4.76791 16.7136 4.78408C16.6106 4.80132 16.5075 4.82306 16.4045 4.84479L16.4045 4.8448C16.1139 4.9061 15.8239 4.96729 15.5359 4.92677C14.8974 4.82799 14.2703 4.9597 13.6432 5.25606C13.452 5.34387 13.2799 5.35485 13.0849 5.26704C12.8093 5.14005 12.5215 5.15216 12.2378 5.1641L12.2377 5.1641C12.2027 5.16558 12.1677 5.16705 12.1328 5.16825C11.9295 5.1774 11.7263 5.1838 11.523 5.1902H11.523C10.5066 5.22222 9.4906 5.25422 8.47727 5.62925C8.4002 5.66086 8.32059 5.63786 8.24064 5.61477C8.18176 5.59776 8.12269 5.5807 8.0643 5.58535C7.93981 5.59162 7.81406 5.58357 7.68823 5.5755C7.37347 5.55534 7.05816 5.53514 6.7604 5.73902C6.47796 5.93182 6.19396 5.87302 5.91051 5.81432C5.56463 5.7427 5.21956 5.67125 4.87911 6.05733C4.75775 6.19365 4.61272 6.16798 4.46915 6.14257L4.46914 6.14257C4.40464 6.13115 4.34042 6.11978 4.27878 6.12319C4.1939 6.12549 4.10919 6.12345 4.02458 6.12142C3.70514 6.11375 3.38709 6.10612 3.06665 6.33174C2.87797 6.47152 2.6699 6.42356 2.46367 6.37603L2.46366 6.37603C2.41078 6.36384 2.35801 6.35167 2.30572 6.34271C2.2627 6.3341 2.21974 6.32473 2.17683 6.31537C1.89177 6.25321 1.60884 6.19151 1.32302 6.35369C1.18043 6.43707 1.02873 6.41576 0.877987 6.39459C0.810432 6.38511 0.743069 6.37565 0.676804 6.37565H0.420613C0.420613 6.45248 0.420613 6.52931 0.416789 6.61712C0.542973 6.6281 0.668201 6.63633 0.793429 6.64456C0.918658 6.65279 1.04389 6.66103 1.17007 6.672V6.95739H0V7.25375C0.196924 7.29766 0.394804 7.34156 0.592685 7.38547C0.790563 7.42937 0.988442 7.47328 1.18536 7.51718C1.24049 7.5296 1.29715 7.51745 1.35386 7.50529C1.49777 7.47443 1.64207 7.44349 1.76275 7.81354C1.78349 7.87306 1.86045 7.79808 1.91741 7.74259L1.93482 7.72572L1.94549 7.71551C2.18283 7.48825 2.42011 7.26105 2.65369 7.74768C2.66922 7.78484 2.83724 7.69622 2.95957 7.63169C3.01793 7.60091 3.06589 7.57561 3.08195 7.57207C3.18901 7.56109 3.2999 7.58303 3.40697 7.61596C3.46722 7.63518 3.52795 7.66248 3.58881 7.68984L3.58882 7.68984C3.70176 7.74061 3.81519 7.79159 3.927 7.79159C4.0946 7.79159 4.26219 7.76098 4.42923 7.73047C4.5785 7.70321 4.72732 7.67602 4.87529 7.67084C5.19432 7.6583 5.5146 7.66009 5.8347 7.66188C6.07474 7.66323 6.31468 7.66457 6.55392 7.65987C6.66488 7.65987 6.77585 7.62929 6.88777 7.59845L6.88779 7.59844C6.95327 7.5804 7.01909 7.56226 7.08542 7.55011ZM8.92083 7.65987C8.31361 7.5083 7.71384 7.44216 7.11051 7.5457C7.36309 7.8653 7.62665 7.86642 7.88404 7.86752C7.98888 7.86797 8.09269 7.86841 8.19431 7.89037C8.24298 7.89835 8.29165 7.91214 8.34032 7.92593C8.42548 7.95006 8.51064 7.9742 8.59581 7.96721C8.70669 7.95623 8.81758 7.85744 8.92083 7.65987ZM113.489 7.6489C113.27 7.61432 113.071 7.58579 112.882 7.55855C112.71 7.53391 112.545 7.51032 112.38 7.48425C112.225 7.46073 112.069 7.43117 111.913 7.4016C111.706 7.36217 111.498 7.32274 111.29 7.29766C111.172 7.28301 111.051 7.29157 110.931 7.30012C110.692 7.31718 110.453 7.33417 110.231 7.16594C110.1 7.06685 109.965 7.07958 109.826 7.09255C109.597 7.11406 109.36 7.13625 109.126 6.65006C109.226 6.65006 109.317 6.64871 109.404 6.64742C109.565 6.64506 109.709 6.64294 109.853 6.65006C109.939 6.65448 110.025 6.66245 110.111 6.67041C110.239 6.68221 110.366 6.69396 110.491 6.69396C110.708 6.68845 110.925 6.6774 111.142 6.66637C111.356 6.65545 111.571 6.64454 111.784 6.63908C111.812 6.63908 111.843 6.63575 111.873 6.63237C111.991 6.61946 112.117 6.60562 112.193 6.7708C112.449 7.30863 112.713 7.22082 112.996 7.10008C113.01 7.09311 113.024 7.08522 113.039 7.07727L113.039 7.07719C113.185 6.99754 113.343 6.91066 113.489 7.6489ZM35.5992 2.34734C36.0733 1.9961 38.6773 1.71072 38.9144 1.96317C38.8779 1.99248 38.8453 2.02658 38.8152 2.05816L38.8151 2.05819C38.7663 2.10939 38.7237 2.15396 38.6811 2.16075C37.8208 2.32539 36.9604 2.49003 36.0963 2.61077C36.0066 2.62508 35.9152 2.56014 35.8022 2.47975C35.7417 2.43678 35.6751 2.3894 35.5992 2.34734ZM44.8412 1.03019C45.3066 1.01991 45.7452 1.01925 46.1822 1.01921C46.1669 1.03771 46.1516 1.05651 46.1363 1.0753C46.0358 1.19879 45.9355 1.32219 45.8315 1.35948C45.7284 1.39895 45.6226 1.36745 45.5164 1.33588C45.4454 1.31476 45.3743 1.29362 45.3039 1.29362C45.264 1.29068 45.2232 1.31133 45.182 1.3322C45.0693 1.38934 44.9532 1.4482 44.8412 1.03019ZM66.9387 8.19771V8.41724C67.0456 8.4611 67.1535 8.5077 67.2615 8.5543L67.2618 8.55444L67.2622 8.55464C67.3701 8.60122 67.478 8.6478 67.5849 8.69165C67.2561 8.87824 66.9272 8.95508 66.5945 8.72458C66.7169 7.89038 66.7169 7.89037 67.0457 7.94525C67.0529 7.94525 67.0586 7.9794 67.0646 8.01575C67.0682 8.0377 67.072 8.06045 67.0763 8.07698C67.0304 8.10991 66.9846 8.15381 66.9387 8.19771ZM2.67663 6.69396C2.67663 6.73237 2.67567 6.76805 2.67472 6.80372C2.67376 6.83939 2.67281 6.87506 2.67281 6.91348H1.90749C2.00245 6.89968 2.09631 6.83238 2.18996 6.76524C2.35131 6.64956 2.51203 6.53433 2.67663 6.69396ZM35.32 2.57784C35.2292 2.48173 35.1389 2.56883 35.0469 2.65771C34.9182 2.78196 34.7859 2.90967 34.6432 2.54492C34.9912 2.1827 35.0638 2.1827 35.32 2.57784ZM41.4151 1.33752V1.56802C41.1283 1.87536 40.8301 1.82048 40.5318 1.52412C40.8262 1.46925 41.1206 1.4034 41.4149 1.33756L41.4151 1.33752ZM12.1634 7.30863C11.8383 7.89038 11.8192 7.89038 11.5745 7.30863H12.1634ZM50.8751 0.810662H50.2478C50.3116 0.794546 50.375 0.738147 50.4379 0.682063C50.5849 0.551173 50.73 0.422004 50.8751 0.810662ZM11.2342 8.91117C11.4674 8.45017 11.5516 8.45017 11.7619 8.91117H11.2342ZM73.6456 8.60383V8.72458L72.9496 8.72458V8.60383H73.6456ZM113.65 7.6489C113.65 7.60499 113.651 7.55834 113.652 7.5117L113.652 7.51052C113.653 7.46426 113.653 7.41803 113.653 7.37449L114.089 7.5062C114.089 7.52693 114.089 7.54766 114.088 7.56955V7.56965C114.087 7.59409 114.086 7.61997 114.086 7.6489H113.65ZM20.5145 6.71591C20.5164 6.66652 20.5173 6.61712 20.5183 6.56773C20.5192 6.51834 20.5202 6.46894 20.5221 6.41955L20.5224 6.41964C20.6217 6.45254 20.721 6.48544 20.8242 6.51834C20.8223 6.55127 20.8213 6.5842 20.8204 6.61713C20.8194 6.65005 20.8184 6.68298 20.8165 6.71591H20.5145ZM40.0156 1.88634V1.63388H40.268C40.268 1.68877 40.268 1.74365 40.2718 1.79853C40.1877 1.83146 40.1036 1.86438 40.0156 1.88634ZM115.259 7.55011L115.256 7.56576C115.254 7.5787 115.252 7.5889 115.252 7.60499H114.965V7.49523C115.058 7.50547 115.147 7.52527 115.24 7.54571L115.259 7.55011ZM68.4299 8.74653V8.68067H68.7511V8.74653H68.4299ZM44.1453 1.18385C44.0382 1.6229 43.9579 1.56802 43.8317 1.18385H44.1453ZM46.9863 0.958512L46.9863 0.958839C46.9911 0.98628 46.9959 1.01372 47.0016 1.04116H46.6804V0.942379C46.7282 0.931403 46.777 0.920426 46.8257 0.909449C46.8745 0.898471 46.9232 0.887494 46.971 0.876517C46.9767 0.903849 46.9815 0.931181 46.9863 0.958512ZM61.362 8.70125C61.3611 8.69306 61.3604 8.68411 61.3598 8.67516C61.3589 8.66145 61.3579 8.64774 61.356 8.63677C61.3808 8.64774 61.4047 8.65598 61.4286 8.66421C61.4525 8.67244 61.4764 8.68067 61.5013 8.69165C61.4554 8.69165 61.4095 8.70262 61.3636 8.71359C61.363 8.70977 61.3624 8.70562 61.362 8.70125ZM69.6497 8.64774C69.6497 8.69164 69.6497 8.72457 69.6459 8.76848L69.4738 8.73555C69.4738 8.70263 69.4738 8.68067 69.4777 8.64774H69.6497ZM74.6627 8.73555C74.6608 8.7136 74.6598 8.69439 74.6588 8.67519C74.6579 8.65598 74.6569 8.63677 74.655 8.61482C74.7085 8.63677 74.7583 8.65872 74.8118 8.69165C74.7621 8.70262 74.7124 8.7136 74.6627 8.73555Z" fill="#E8E8E8"/>
</svg>
