<svg class="logo-svg trans" viewbox="0 0 70.5 22.8" xmlns="http://www.w3.org/2000/svg"><g>
<path class="st0" d="M19.7,0c-3,0-5.5,1.9-5.5,7.6v7.5c0,5.8,2.4,7.6,5.5,7.6c3,0,5.5-1.9,5.5-7.6V7.6C25.2,1.9,22.7,0,19.7,0z
		 M22.3,18.7c0,2-1,3.3-2.6,3.3c-1.7,0-2.6-1.3-2.6-3.3V4.1c0-2,0.9-3.3,2.6-3.3s2.6,1.3,2.6,3.3V18.7z"></path>
<path class="st0" d="M6.2,2.6H0v1h4l-2.4,2v11.6l2.4,2H0v1h6.2c3,0,5.4-1.1,5.4-6.9V9.4C11.6,3.7,9.2,2.6,6.2,2.6z M8.7,16.7
		c0,2-1.2,2.6-2.6,2.6H4.2V3.6h1.9c1.4,0,2.6,0.6,2.6,2.6V16.7z"></path>
<polygon class="st0" points="36.1,3.6 37.5,3.6 37.5,16.4 31.8,2.6 27.6,2.6 27.6,3.6 29,3.6 29,19.1 27.6,19.1 27.6,20.1 
		31.3,20.1 31.3,19.1 29.9,19.1 29.9,4.7 36.3,20.2 39.1,20.2 38.5,18.7 38.5,3.6 39.7,3.6 39.7,2.6 36.1,2.6 	"></polygon>
<path class="st0" d="M46.86,14.12c0.22-0.12,0.38-0.35,0.38-0.6c0-0.33-0.25-0.74-1-0.74h-1.8H44.2v0.14c0,0,0.24,0.01,0.24,0.24
		v2.27c0,0.23-0.24,0.23-0.24,0.23v0.14h0.24h1.86c0.72,0,1.1-0.42,1.1-0.92C47.4,14.51,47.21,14.24,46.86,14.12z M45.11,13.19h1.06
		c0.38,0,0.39,0.29,0.39,0.38c0,0.28-0.22,0.4-0.39,0.4h-1.06V13.19z M46.28,15.36h-1.17v-0.95h1.17c0.2,0,0.44,0.17,0.44,0.48
		C46.72,15.3,46.42,15.36,46.28,15.36z"></path>
<path class="st0" d="M58.39,15.78c0.72,0,1.1-0.42,1.1-0.92c0-0.35-0.19-0.63-0.54-0.75c0.22-0.12,0.38-0.35,0.38-0.6
		c0-0.33-0.25-0.74-1-0.74h-1.8h-0.24v0.14c0,0,0.24,0.01,0.24,0.24v2.27c0,0.23-0.24,0.23-0.24,0.23v0.14h0.24H58.39z M57.2,13.19
		h1.06c0.38,0,0.39,0.29,0.39,0.38c0,0.28-0.22,0.4-0.39,0.4H57.2V13.19z M57.2,14.41h1.17c0.2,0,0.44,0.17,0.44,0.48
		c0,0.41-0.3,0.47-0.44,0.47H57.2V14.41z"></path>
<path class="st0" d="M63.2,15.78v-0.44V15.1h-0.14c0,0-0.01,0.24-0.23,0.24h-1.59v-0.91h1.11v-0.44h-1.11v-0.77h1.48
		c0.23,0,0.23,0.24,0.23,0.24h0.14v-0.24v0v-0.45h-2.51h-0.24v0.14c0,0,0.24,0.01,0.24,0.24v2.27c0,0.23-0.24,0.23-0.24,0.23v0.14
		h0.24H63.2z"></path>
<path class="st0" d="M66.11,15.78h1.09v-0.14c0,0-0.13,0.01-0.21-0.08l-0.58-1c0.37-0.16,0.61-0.46,0.61-0.85
		c0-0.24-0.09-0.46-0.25-0.62c-0.19-0.2-0.48-0.33-0.9-0.33h-1.91v0.14c0,0,0.24,0.01,0.24,0.24v2.27c0,0.23-0.24,0.23-0.24,0.23
		v0.14h0.9h0.24v-0.14c0,0-0.24-0.01-0.24-0.23v-0.74h0.89l0.51,0.93c-0.07,0.04-0.14,0.04-0.14,0.04V15.78z M65.93,14.24h-1.08
		V13.2h1.03c0.17,0,0.47,0.11,0.47,0.52C66.35,13.95,66.16,14.24,65.93,14.24z"></path>
<path class="st0" d="M53.95,14.67l0.51,0.93c-0.07,0.04-0.14,0.04-0.14,0.04v0.09v0.05h0.24h0h0.09h0.56h0.11h0.09v-0.14
		c0,0-0.13,0.01-0.21-0.07l-0.58-1c0.37-0.16,0.61-0.46,0.61-0.85c0-0.24-0.09-0.46-0.25-0.62c-0.19-0.2-0.47-0.33-0.9-0.33h-1.91
		v0.14c0,0,0.24,0.01,0.24,0.24v2.27c0,0.23-0.24,0.23-0.24,0.23v0.14h1.14v-0.14c0,0-0.24-0.01-0.24-0.23v-0.74H53.95z M53.06,13.2
		h1.03c0.17,0,0.47,0.11,0.47,0.52c0,0.23-0.19,0.52-0.42,0.52h-1.08V13.2z"></path>
<path class="st0" d="M50.31,15.14l0.2,0.45c-0.07,0.05-0.15,0.05-0.15,0.05v0.14h0.23h0.01h0.64h0.07h0.12v-0.14
		c0,0-0.16,0.02-0.24-0.11l-1.29-2.77h-0.44l-1.29,2.78c-0.08,0.11-0.23,0.1-0.23,0.1v0.14h0.12h0.08h0.32h0.18h0.21v-0.14
		c0,0-0.07,0-0.13-0.04l0.2-0.46H50.31z M49.6,13.56h0.03l0.46,1.06h-0.94L49.6,13.56z"></path>
<path class="st0" d="M56.45,18.98c0.37-0.16,0.61-0.46,0.61-0.85c0-0.24-0.09-0.46-0.25-0.62c-0.19-0.2-0.48-0.33-0.9-0.33H54v0.14
		c0,0,0.24,0.01,0.24,0.24v2.27c0,0.23-0.24,0.23-0.24,0.23v0.14h0.9h0.24v-0.14c0,0-0.24-0.01-0.24-0.23v-0.74h0.89l0.51,0.93
		c-0.07,0.04-0.14,0.04-0.14,0.04v0.14h1.09v-0.14c0,0-0.13,0.01-0.21-0.08L56.45,18.98z M55.97,18.65h-1.08v-1.04h1.03
		c0.17,0,0.47,0.11,0.47,0.52C56.39,18.36,56.2,18.65,55.97,18.65z"></path>
<path class="st0" d="M51.83,18.69c-0.1,0-0.13-0.09-0.13-0.09h-0.14v0.09v0.34v0.06v0.09h0.14c0,0,0.03-0.09,0.13-0.09h0.66v0.49
		c-0.12,0.04-0.21,0.08-0.38,0.12c-0.17,0.04-0.36,0.05-0.58,0.05c-0.14,0-0.28-0.02-0.41-0.06c-0.14-0.04-0.26-0.1-0.36-0.19
		c-0.11-0.08-0.19-0.19-0.26-0.33c-0.07-0.14-0.1-0.3-0.1-0.48c0-0.19,0.03-0.35,0.1-0.49s0.15-0.24,0.26-0.33
		c0.11-0.08,0.23-0.15,0.36-0.19c0.14-0.04,0.27-0.06,0.41-0.06c0.11,0,0.23,0.01,0.36,0.02c0.13,0.02,0.19,0.04,0.29,0.07
		c0.11,0.03,0.19,0.07,0.26,0.12c0.01,0.01,0.02,0.01,0.03,0.02l0,0c0.1,0.08,0.06,0.15,0.06,0.15l0.13,0.05l0.04-0.09l0.19-0.42
		l0,0l0.01-0.03l0.03-0.07h0l0.05-0.12l-0.12-0.05c0,0-0.03,0.1-0.18,0.06c-0.02-0.01-0.03-0.01-0.04-0.02c-0.01,0-0.01,0-0.02-0.01
		c0,0-0.01,0-0.01,0l0,0c-0.07-0.02-0.16-0.05-0.26-0.07c-0.12-0.03-0.2-0.05-0.34-0.08c-0.15-0.02-0.31-0.03-0.47-0.03
		c-0.26,0-0.5,0.04-0.72,0.11c-0.22,0.07-0.4,0.17-0.55,0.31c-0.15,0.13-0.27,0.29-0.36,0.48c-0.08,0.19-0.13,0.4-0.13,0.64
		c0,0.24,0.04,0.46,0.13,0.64c0.08,0.19,0.2,0.35,0.36,0.48c0.15,0.13,0.34,0.23,0.55,0.3c0.21,0.07,0.45,0.1,0.72,0.1
		c0.13,0,0.27,0,0.41-0.01c0.14-0.01,0.23-0.03,0.37-0.06s0.28-0.08,0.42-0.13c0.14-0.06,0.27-0.13,0.39-0.22l0.04-0.03v-0.14
		c0,0-0.15-0.01-0.15-0.24l0,0v-0.33c0-0.23,0.15-0.24,0.15-0.24v-0.14h-0.15H51.83z"></path>
<path class="st0" d="M70.1,17.31v-0.14h-1.16l-0.03,0.14c0.02,0,0.13,0.02,0.06,0.16c-0.01,0.02-0.84,1.25-0.84,1.25l-0.83-1.24
		c-0.07-0.14,0.04-0.16,0.06-0.16v-0.14h-1.19v0.14c0,0,0.24,0.01,0.24,0.24v2.27c0,0.23-0.24,0.24-0.24,0.24v0.14h0.97v-0.1
		c-0.1,0-0.16-0.03-0.16-0.1v-1.91h0.01l1.11,1.65h0.02l1.13-1.64h0.01v1.9c0,0.07-0.05,0.1-0.15,0.1v0.1h1.01v-0.14
		c0,0-0.24-0.01-0.24-0.24v-2.27C69.87,17.32,70.1,17.31,70.1,17.31z"></path>
<path class="st0" d="M60.8,17.52c-0.17-0.13-0.36-0.22-0.57-0.28c-0.21-0.06-0.41-0.09-0.61-0.09c-0.2,0-0.4,0.03-0.61,0.09
		c-0.21,0.06-0.4,0.16-0.57,0.28c-0.17,0.13-0.31,0.29-0.42,0.48c-0.11,0.19-0.16,0.42-0.16,0.68c0,0.26,0.05,0.49,0.16,0.68
		c0.11,0.19,0.25,0.35,0.42,0.48c0.17,0.13,0.36,0.22,0.57,0.27c0.21,0.06,0.41,0.09,0.61,0.09c0.2,0,0.4-0.03,0.61-0.09
		c0.21-0.06,0.4-0.15,0.57-0.27c0.17-0.13,0.31-0.29,0.42-0.48c0.11-0.19,0.16-0.42,0.16-0.68c0-0.26-0.05-0.49-0.16-0.68
		C61.11,17.81,60.97,17.65,60.8,17.52z M60.68,19.11c-0.07,0.13-0.16,0.23-0.27,0.32c-0.11,0.09-0.23,0.15-0.37,0.2
		c-0.14,0.05-0.28,0.07-0.41,0.07s-0.28-0.02-0.41-0.07c-0.14-0.05-0.26-0.11-0.37-0.2s-0.2-0.19-0.27-0.32
		c-0.07-0.13-0.1-0.27-0.1-0.43c0-0.16,0.03-0.3,0.1-0.43c0.07-0.13,0.16-0.23,0.27-0.32c0.11-0.09,0.23-0.15,0.37-0.2
		c0.14-0.05,0.28-0.07,0.41-0.07s0.28,0.02,0.41,0.07c0.14,0.05,0.26,0.11,0.37,0.2c0.11,0.09,0.2,0.19,0.27,0.32
		c0.07,0.13,0.1,0.27,0.1,0.43C60.79,18.84,60.75,18.99,60.68,19.11z"></path>
<path class="st0" d="M65,17.52c-0.17-0.13-0.36-0.22-0.57-0.28c-0.21-0.06-0.41-0.09-0.61-0.09c-0.2,0-0.4,0.03-0.61,0.09
		c-0.21,0.06-0.4,0.16-0.57,0.28c-0.17,0.13-0.31,0.29-0.42,0.48c-0.11,0.19-0.16,0.42-0.16,0.68c0,0.26,0.05,0.49,0.16,0.68
		c0.11,0.19,0.25,0.35,0.42,0.48c0.17,0.13,0.36,0.22,0.57,0.27c0.21,0.06,0.41,0.09,0.61,0.09c0.2,0,0.4-0.03,0.61-0.09
		c0.21-0.06,0.4-0.15,0.57-0.27c0.17-0.13,0.31-0.29,0.42-0.48c0.11-0.19,0.16-0.42,0.16-0.68c0-0.26-0.05-0.49-0.16-0.68
		C65.31,17.81,65.17,17.65,65,17.52z M64.88,19.11c-0.07,0.13-0.16,0.23-0.27,0.32c-0.11,0.09-0.23,0.15-0.37,0.2
		c-0.14,0.05-0.28,0.07-0.41,0.07c-0.14,0-0.28-0.02-0.41-0.07c-0.14-0.05-0.26-0.11-0.37-0.2s-0.2-0.19-0.27-0.32
		c-0.07-0.13-0.1-0.27-0.1-0.43c0-0.16,0.03-0.3,0.1-0.43c0.07-0.13,0.16-0.23,0.27-0.32c0.11-0.09,0.23-0.15,0.37-0.2
		c0.14-0.05,0.28-0.07,0.41-0.07c0.14,0,0.28,0.02,0.41,0.07c0.14,0.05,0.26,0.11,0.37,0.2c0.11,0.09,0.2,0.19,0.27,0.32
		c0.07,0.13,0.1,0.27,0.1,0.43C64.98,18.84,64.95,18.99,64.88,19.11z"></path>
<path class="st0" d="M46.59,18.67L46.59,18.67l-0.25,0v0.14c0,0,0.13,0.03,0,0.18c-0.02,0.03-0.05,0.06-0.08,0.09l-1.25-1.47
		l0.98,0l-0.09,0c0.19,0,0.24,0.16,0.24,0.16h0.14v-0.16h0v-0.44h-2.06v0.32l0.6,0.69c-0.23,0.09-0.42,0.22-0.55,0.38
		c-0.16,0.2-0.25,0.42-0.25,0.67c0,0.42,0.2,0.64,0.3,0.74c0.26,0.24,0.59,0.3,0.85,0.3c0.3,0,0.69-0.07,1.06-0.4l0.27,0.3h0.6h0.09
		h0.03v-0.14c0,0-0.14,0.01-0.22-0.08l-0.37-0.43c0.17-0.19,0.39-0.46,0.51-0.62v0c0.08-0.1,0.16-0.1,0.16-0.1v-0.14h-0.07
		L46.59,18.67z M45.19,19.77c-0.5,0-0.55-0.41-0.55-0.54c0-0.49,0.47-0.68,0.47-0.68l0.77,0.9C45.88,19.45,45.55,19.77,45.19,19.77z
		"></path>
</g></svg>