<svg width="224" height="171" viewBox="0 0 224 171" fill="none" xmlns="http://www.w3.org/2000/svg">
<path d="M0 16.744H223.626V145.684H0V16.744Z" fill="#E8E8E8"/>
<path d="M12.4457 13.202C12.4591 14.0104 12.2311 13.8949 12.0701 13.9527C10.8095 14.4146 9.54211 14.1451 8.28145 14.2799C7.32925 14.3761 6.38376 14.7034 5.43827 15.3001C5.5992 15.3578 5.76684 15.5503 5.91437 15.4541C6.7928 14.9728 7.68465 15.3963 8.5698 15.2616C9.92433 15.0498 11.2856 14.9729 12.6468 14.9344C13.4448 14.9151 14.2428 15.0883 15.0474 15.1268C15.2955 15.1268 15.5504 14.9344 15.8253 14.8189C15.148 16.3973 14.2763 16.7438 13.646 15.7813C13.4716 15.9738 13.3107 16.2818 13.1497 16.3203C11.6611 16.5513 10.1724 16.7822 8.68379 16.917C7.40972 17.0325 6.14236 16.9747 4.86829 17.0517C4.49277 17.071 4.12396 17.302 3.75515 17.5137C5.2438 18.3222 6.74586 17.225 8.3418 17.7639C8.20099 18.0527 8.13393 18.1874 7.99311 18.4762C8.90508 19.0344 9.75669 18.3799 10.6016 18.5339C11.4599 18.7071 12.3317 18.5724 13.1967 18.6879C12.2445 19.2076 11.252 19.0344 10.2663 20.478C10.387 20.6705 10.4675 20.8053 10.5547 20.94C10.5547 21.0362 10.548 21.1325 10.548 21.2287C8.95872 21.4597 7.36949 21.71 5.78025 21.941C5.77355 22.0564 5.77355 22.1912 5.76684 22.3067C6.15577 22.4414 6.54469 22.6724 6.93362 22.7109C7.40302 22.7687 7.87241 22.6724 8.3418 22.6339C10.0048 22.5184 11.6745 22.3837 13.3375 22.4992C11.1381 23.0574 8.93861 23.6156 6.73916 24.1738C8.23451 24.732 9.72316 25.194 11.2252 24.7898C12.1707 24.5395 13.1296 24.9053 14.0818 24.886C15.9527 24.8475 17.8236 24.732 19.6944 24.655C20.7137 24.6165 21.733 24.6165 22.7589 24.578C24.6901 24.4818 26.6214 24.3663 28.5593 24.2316C31.6573 24.0006 34.7486 23.7503 37.8466 23.4424C39.409 23.2884 40.9647 22.9996 42.5271 22.8456C43.7945 22.7301 45.0685 22.8264 46.3426 22.6916C48.0995 22.4992 49.8564 22.1719 51.6133 21.9217C52.4783 21.8062 53.35 21.7677 54.215 21.633C55.992 21.3442 57.7757 20.9978 59.5527 20.709C61.1554 20.4588 62.7647 20.3048 64.3674 20.0546C67.7135 19.5541 71.0529 19.0151 74.399 18.5531C76.0687 18.3221 77.7451 18.1297 79.4215 18.0142C82.4055 17.8217 85.3962 17.7062 88.3802 17.5714C90.117 17.4944 91.8604 17.3597 93.5972 17.3597C95.1596 17.3597 96.722 17.5329 98.2777 17.5714C99.1025 17.5907 99.9206 17.4945 100.745 17.456C102.194 17.3982 103.642 17.2827 105.091 17.302C106.291 17.302 107.485 17.4367 108.685 17.5137C109.664 17.5715 110.643 17.7062 111.615 17.7254C112.105 17.7254 112.588 17.5137 113.077 17.4752C113.432 17.456 113.788 17.5714 114.143 17.5907C114.7 17.6292 115.256 17.7639 115.813 17.6484C116.792 17.4367 117.758 17.3212 118.737 17.61C119.266 17.7639 119.803 17.6484 120.339 17.6292C121.493 17.61 122.653 17.6099 123.806 17.5714C124.718 17.5522 125.63 17.4175 126.542 17.5137C127.896 17.6485 129.244 17.1865 130.612 17.4367C132.228 17.7447 133.865 17.379 135.487 17.3405C135.977 17.3212 136.466 17.3597 136.956 17.379C139.229 17.4752 141.502 17.5522 143.775 17.7062C146.746 17.9179 149.71 18.2067 152.681 18.4762C154.397 18.6301 156.114 18.7264 157.83 18.9381C159.902 19.2076 161.975 19.5926 164.04 19.9391C165.777 20.2278 167.513 20.4973 169.25 20.8438C170.873 21.171 172.496 21.5752 174.118 21.9602C175.366 22.2682 176.606 22.6532 177.853 22.9034C180.455 23.4231 183.064 23.8658 185.665 24.3278C188.542 24.8283 191.412 25.3095 194.289 25.7907C196.428 26.1565 198.567 26.5222 200.706 26.8494C203.449 27.2729 206.185 27.6001 208.927 28.1006C210.309 28.3508 211.677 28.9091 213.051 29.2555C213.963 29.4865 214.882 29.602 215.794 29.7945C217.638 30.1795 219.482 30.6415 221.326 30.9879C221.789 31.0842 222.265 30.9687 222.728 30.8147C223.385 30.603 223.639 29.7752 223.733 27.8504C223.767 27.1574 223.807 26.4452 223.874 25.7715C224.102 23.5194 223.948 21.2287 223.961 18.9766C223.968 18.0912 223.794 17.379 223.445 17.2442C223.291 17.1865 223.137 17.0902 222.982 17.071C221.916 16.8785 220.843 16.686 219.777 16.532C219.288 16.4743 218.798 16.6475 218.315 16.532C217.383 16.301 216.458 15.9353 215.526 15.6466C215.197 15.5503 214.862 15.5311 214.533 15.4733C214.493 15.4733 214.446 15.5503 214.399 15.5311C212.971 15.4541 211.522 15.8198 210.128 15.1846C208.706 14.5301 207.284 14.4531 205.87 14.4724C204.917 14.4724 204.012 14.2029 203.114 13.4329C203.06 13.3944 203.013 13.2597 202.845 12.9517C205.42 12.6822 207.854 13.5292 210.302 13.5869C210.208 13.5099 210.114 13.3752 210.014 13.3367C207.942 12.586 205.89 11.4888 203.791 11.3926C202.121 11.3156 200.451 10.8536 198.775 10.7766C196.207 10.6611 193.659 9.83341 191.104 9.25594C189.971 9.0057 188.831 9.08269 187.697 8.90945C186.832 8.79396 185.967 8.50522 185.096 8.33199C184.586 8.23574 184.07 8.21649 183.56 8.1395C183.097 8.0625 182.641 7.88926 182.179 7.79302C181.22 7.60053 180.267 7.46579 179.309 7.2733C178.953 7.1963 178.604 6.98456 178.256 6.92682C176.727 6.65733 175.198 6.4456 173.669 6.19536C172.469 5.98362 171.275 5.75264 170.075 5.46391C169.679 5.36766 169.284 5.05967 168.888 4.86718C168.754 4.79019 168.627 4.71319 168.492 4.67469C165.891 4.00098 163.296 3.46202 160.68 3.30803C159.902 3.25028 159.104 3.26954 158.36 2.71132C157.039 1.72962 155.718 1.97986 154.39 1.84512C152.721 1.67188 151.044 1.42163 149.375 1.34464C147.37 1.2484 145.365 1.30615 143.36 1.26765C143.004 1.26765 142.649 1.11365 142.293 1.05591C141.965 1.01741 141.636 0.767176 141.321 1.38314C141.214 1.59488 141.006 1.53713 140.865 1.42164C139.886 0.57469 138.874 0.940411 137.881 0.824919C136.634 0.670927 135.387 0.632435 134.139 0.651684C132.309 0.690182 130.485 0.863424 128.654 0.882673C127.514 0.901922 126.381 0.651678 125.241 0.632429C124.021 0.61318 122.8 0.863415 121.58 0.728672C120.514 0.613178 119.447 0.86342 118.388 0.747929C117.141 0.613186 115.893 0.324451 114.646 0.228207C113.915 0.17046 113.178 0.401443 112.44 0.382195C110.234 0.324448 108.028 0.208956 105.828 0.13196C103.709 0.0742149 101.59 0.054966 99.4646 0.035717C96.8494 0.016468 94.2409 -0.0220261 91.6257 0.0164719C89.2184 0.0549698 86.8178 0.151207 84.4105 0.28595C82.5396 0.401443 80.6687 0.670933 78.7912 0.786427C76.1626 0.959665 73.5273 1.05591 70.9121 1.86436C70.4963 1.9991 70.0671 1.84511 69.6447 1.90286C67.5928 2.1531 65.5475 2.42258 63.4956 2.71132C61.893 2.9423 60.2836 3.17329 58.681 3.48127C57.9031 3.63526 57.132 4.02023 56.3541 4.17422C55.5293 4.32821 54.7045 4.32821 53.8864 4.42446C51.9888 4.61695 50.0911 4.69394 48.2001 5.04042C45.4843 5.54089 42.7618 5.52165 40.046 5.84888C39.9656 5.86813 39.8851 5.90663 39.8113 6.23386C40.4953 6.23386 41.1726 6.25311 41.8565 6.23386C42.507 6.21461 43.1507 6.19535 43.8012 6.11836C44.626 6.00286 45.4441 5.77189 46.2621 5.69489C47.0668 5.6179 47.8648 5.73338 48.6695 5.67564C49.4004 5.61789 50.1313 5.4254 50.8689 5.32916C51.3584 5.27141 51.8412 5.36766 52.3307 5.30991C52.6861 5.27142 53.0415 5.09817 53.3969 5.04043C55.3483 4.73244 57.2996 4.40521 59.2577 4.13572C59.6466 4.07798 60.0355 4.32821 60.4244 4.42446C60.4244 4.57845 60.4312 4.71319 60.4312 4.86718C60.3641 4.92493 60.3037 4.98268 60.2367 5.00192C60.1696 5.02117 60.1026 5.00192 60.0355 5.00192C59.0565 5.09817 58.0708 4.96343 57.1052 5.36766C55.6165 6.00287 54.1279 5.67564 52.6392 5.88738C49.7223 6.31086 46.8053 6.63808 43.8816 6.96531C42.2119 7.1578 40.5422 7.25405 38.8725 7.44654C36.8676 7.67752 34.8626 7.96625 32.8509 8.17799C32.1133 8.25499 31.3756 8.10099 30.6447 8.13949C30.2022 8.15874 29.7596 8.31274 29.3103 8.38973C28.6196 8.50523 27.929 8.73621 27.245 8.63997C26.1251 8.46673 25.0254 8.69772 23.9257 9.21744C23.5904 9.37143 23.2887 9.39067 22.9467 9.23668C22.4035 8.98644 21.8335 9.0442 21.277 9.06345C19.1379 9.15969 16.9988 9.08269 14.8664 9.87189C14.6317 9.96813 14.3836 9.77565 14.1422 9.7949C13.3777 9.8334 12.5865 9.56391 11.8556 10.0644C10.7558 10.8151 9.6427 9.39067 8.55639 10.6226C8.24793 10.9691 7.85229 10.7188 7.5036 10.7381C6.7928 10.7573 6.08871 10.6034 5.37791 11.1038C4.96217 11.4118 4.49277 11.2001 4.04349 11.1231C3.46681 11.0076 2.89683 10.8151 2.32015 11.1423C1.95804 11.3541 1.56241 11.1808 1.1869 11.1808C1.03937 11.1808 0.891849 11.1808 0.73762 11.1808C0.73762 11.3156 0.737619 11.4503 0.730913 11.6043C1.17349 11.6428 1.60935 11.662 2.05192 11.7005C2.05192 11.8738 2.05192 12.047 2.05192 12.201C1.36795 12.201 0.683974 12.201 2.76626e-08 12.201C1.84421e-08 12.3743 9.22052e-09 12.5475 0 12.7207C0.69068 12.8747 1.38807 13.0287 2.07875 13.1827C2.42073 13.2597 2.79625 12.7977 3.0913 13.7024C3.13153 13.8179 3.29247 13.6447 3.39305 13.5484C3.8155 13.1442 4.23796 12.7207 4.65371 13.5869C4.69394 13.6832 5.31757 13.2982 5.40474 13.279C5.5925 13.2597 5.78696 13.2982 5.97472 13.3559C6.27647 13.4522 6.58493 13.6639 6.88668 13.6639C7.44325 13.6639 7.99982 13.4714 8.54968 13.4522C9.5287 13.4137 10.5144 13.4522 11.4935 13.4329C11.8019 13.4329 12.1104 13.2982 12.4255 13.2404C13.4984 13.048 14.5646 13.1634 15.6442 13.4329C15.4632 13.7794 15.2687 13.9527 15.0743 13.9719C14.8396 13.9912 14.6049 13.8757 14.3702 13.8372C13.7465 13.7024 13.076 14.0297 12.4457 13.202ZM199.023 13.4137C198.292 13.2982 197.689 13.2212 197.078 13.125C196.441 13.0287 195.804 12.8747 195.167 12.7977C194.544 12.7207 193.893 13.0095 193.31 12.5667C192.7 12.1048 192.029 13.0287 191.372 11.6621C191.868 11.6621 192.257 11.6428 192.646 11.6621C193.022 11.6813 193.397 11.739 193.766 11.739C194.524 11.7198 195.281 11.662 196.032 11.6428C196.274 11.6428 196.582 11.5081 196.75 11.8738C197.199 12.817 197.662 12.663 198.158 12.4513C198.433 12.3165 198.741 11.9893 199.023 13.4137ZM62.4294 4.11648C63.2609 3.50052 67.8275 3.00005 68.2432 3.44277C68.0756 3.57751 67.9549 3.77 67.8342 3.78925C66.3254 4.07798 64.8166 4.36671 63.3012 4.57845C63.0598 4.61695 62.8116 4.32822 62.4294 4.11648ZM15.4498 20.401C14.4708 21.1517 11.4264 21.2287 11.0241 20.7283C11.3526 20.0738 11.6477 19.5926 12.0634 20.2086C12.2445 20.478 12.4993 20.401 12.7206 20.401C13.6325 20.4203 14.5445 20.401 15.4498 20.401ZM81.1448 1.78736C81.1515 1.72961 81.1583 1.65262 81.1583 1.59487C80.8967 1.86436 80.6419 2.28784 80.3737 2.38408C80.0719 2.49958 79.7568 2.26858 79.4483 2.26858C79.1868 2.24933 78.9052 2.80756 78.6369 1.80662C79.5087 1.78737 80.3268 1.78736 81.1448 1.78736ZM117.389 14.3761C117.389 14.5109 117.389 14.6264 117.389 14.7611C117.764 14.9151 118.147 15.0883 118.522 15.2423C117.945 15.5696 117.369 15.7043 116.785 15.3001C117 13.8372 117 13.8372 117.577 13.9334C117.597 13.9334 117.61 14.0874 117.63 14.1644C117.55 14.2221 117.469 14.2991 117.389 14.3761ZM4.69394 11.739C4.69394 11.8738 4.68724 11.9893 4.68724 12.124C4.19772 12.124 3.71492 12.124 3.22541 12.124C3.72163 12.201 4.19773 11.2578 4.69394 11.739ZM61.9399 4.5207C61.5577 4.11648 61.1822 5.56014 60.753 4.46296C61.3632 3.82775 61.4906 3.82774 61.9399 4.5207ZM72.6287 2.34558C72.6287 2.48032 72.6287 2.61506 72.6287 2.7498C72.1258 3.28877 71.6027 3.19254 71.0797 2.67282C71.596 2.57657 72.1124 2.46108 72.6287 2.34558ZM21.3306 12.817C20.7606 13.8372 20.7271 13.8372 20.2979 12.817C20.66 12.817 20.9819 12.817 21.3306 12.817ZM87.998 1.42164C88.4137 1.53713 88.8161 0.3437 89.2184 1.42164C88.8161 1.42164 88.407 1.42164 87.998 1.42164ZM19.7011 15.6273C20.1102 14.8189 20.2577 14.8189 20.6265 15.6273C20.3047 15.6273 20.0364 15.6273 19.7011 15.6273ZM129.15 15.0883C129.15 15.1653 129.15 15.2231 129.15 15.3001C128.741 15.3001 128.339 15.3001 127.93 15.3001C127.93 15.2231 127.93 15.1653 127.93 15.0883C128.332 15.0883 128.741 15.0883 129.15 15.0883ZM199.305 13.4137C199.305 13.2597 199.311 13.0865 199.311 12.9325C199.566 13.0095 199.821 13.0865 200.076 13.1635C200.076 13.2404 200.069 13.3174 200.069 13.4137C199.814 13.4137 199.56 13.4137 199.305 13.4137ZM35.9757 11.7775C35.9824 11.6043 35.9824 11.4311 35.9891 11.2578C36.1635 11.3156 36.3378 11.3733 36.5189 11.4311C36.5122 11.5466 36.5122 11.662 36.5055 11.7775C36.3244 11.7775 36.1501 11.7775 35.9757 11.7775ZM70.1744 3.30803C70.1744 3.15403 70.1744 3.01929 70.1744 2.8653C70.322 2.8653 70.4695 2.8653 70.617 2.8653C70.617 2.96155 70.617 3.05779 70.6237 3.15404C70.4762 3.21178 70.3287 3.26953 70.1744 3.30803ZM202.128 13.2404C202.121 13.2789 202.114 13.2982 202.114 13.3367C201.947 13.3367 201.779 13.3367 201.611 13.3367C201.611 13.2789 201.611 13.202 201.611 13.1442C201.786 13.1635 201.953 13.202 202.128 13.2404ZM120.004 15.3386C120.004 15.3001 120.004 15.2616 120.004 15.2231C120.192 15.2231 120.38 15.2231 120.567 15.2231C120.567 15.2616 120.567 15.3001 120.567 15.3386C120.38 15.3386 120.192 15.3386 120.004 15.3386ZM16.5227 22.5569C16.5227 22.4222 16.516 22.2874 16.516 22.1719C16.6233 22.1719 16.7305 22.1719 16.8378 22.1719C16.8378 22.2489 16.8445 22.3259 16.8445 22.4222C16.7305 22.4607 16.6233 22.4992 16.5227 22.5569ZM77.4165 2.07609C77.2288 2.84605 77.0879 2.7498 76.8667 2.07609C77.0745 2.07609 77.2153 2.07609 77.4165 2.07609ZM82.372 1.53713C82.3921 1.63337 82.4055 1.72961 82.4256 1.82586C82.2379 1.82586 82.0501 1.82586 81.8623 1.82586C81.8623 1.76811 81.8623 1.71037 81.8623 1.65263C82.03 1.61413 82.2043 1.57562 82.372 1.53713ZM107.612 15.2808C107.605 15.2423 107.605 15.1846 107.599 15.1461C107.686 15.1846 107.766 15.2038 107.853 15.2423C107.773 15.2423 107.692 15.2616 107.612 15.2808ZM122.143 15.1653C122.143 15.2423 122.143 15.3001 122.136 15.3771C122.036 15.3578 121.935 15.3386 121.835 15.3193C121.835 15.2616 121.835 15.2231 121.841 15.1653C121.942 15.1653 122.042 15.1653 122.143 15.1653ZM130.934 15.3193C130.927 15.2423 130.927 15.1846 130.921 15.1076C131.015 15.1461 131.102 15.1846 131.196 15.2423C131.109 15.2616 131.021 15.2808 130.934 15.3193Z" fill="#E8E8E8"/>
<path d="M224 144.95H0V167.438C0.112 167.465 0.224 167.491 0.336 167.491C1.17973 167.491 2.00853 167.705 2.83733 168.132C3.12853 168.292 3.41973 168.292 3.7184 168.292C4.7712 168.292 5.80907 168.638 6.82453 169.732C7.42933 170.399 8.04907 170.692 8.6912 170.559C9.14667 170.452 9.61707 170.719 10.0725 170.719C10.9088 170.692 11.7525 170.719 12.5813 170.426C13.2533 170.186 13.9253 170.159 14.5899 170.212C15.008 170.239 15.4336 170.292 15.8517 170.319C16.3147 170.346 16.7776 170.319 17.2405 170.319C18.1664 170.319 19.0923 170.719 20.0032 169.839C20.1227 169.732 20.2571 169.732 20.3765 169.839C20.7947 170.186 21.2128 169.919 21.6235 169.812C21.9147 169.732 22.2133 169.705 22.5045 169.812C23.6843 170.186 24.8565 169.866 26.0288 169.625C28.0821 169.199 30.128 168.318 32.1888 168.292C32.3531 168.292 32.5248 168.212 32.6891 168.158C33.1893 168.025 33.6971 167.865 34.1973 167.758C34.7872 167.651 35.3696 167.705 35.9445 167.065C36.1387 166.851 36.3627 166.824 36.5717 166.878C38.2069 167.411 39.8496 166.798 41.4848 167.358C42.6197 167.011 43.7547 167.331 44.8821 167.545C46.4203 167.838 47.5701 168.265 48.8619 169.545C49.3995 170.079 49.9221 170.399 50.4747 170.346C50.6389 170.319 50.8107 170.399 50.9749 170.399C52.1547 170.452 53.3269 170.506 54.5067 170.532C54.6336 170.532 54.768 170.532 54.88 170.372C55.2533 169.946 55.6267 170.079 56 170.399C56.4181 170.773 56.8437 170.506 57.2544 170.319C58.0459 169.946 58.8448 169.972 59.6363 169.412C60.1664 169.039 60.7264 169.145 61.2715 169.172C62.1525 169.199 63.0336 169.279 63.9147 169.385C64.4971 169.439 65.0944 169.305 65.6544 170.159C65.8037 170.399 65.9829 170.399 66.1547 170.399C66.5728 170.426 66.9909 170.639 67.4091 170.773C67.8645 170.906 68.3275 170.559 68.7904 170.452C69.0443 170.399 69.2907 170.266 69.5445 170.319C71.4784 170.719 73.4048 169.705 75.3387 169.946C76.0107 169.599 76.6827 169.759 77.3547 169.785C77.6459 169.812 77.9371 169.679 78.2357 169.625C79.072 169.465 79.9157 169.065 80.752 169.145C82.7307 169.332 84.6944 168.452 86.6731 168.478C86.8821 168.478 87.0912 168.372 87.3003 168.292C88.2635 167.972 89.2192 167.545 90.1899 167.891C90.3989 167.972 90.608 167.838 90.8171 167.785C91.9893 167.545 93.1691 167.251 94.3413 167.225C94.6773 167.225 95.0208 167.305 95.3493 167.118C96.1931 166.638 97.0293 166.798 97.8656 167.118C98.1195 167.225 98.3659 167.251 98.6197 167.118C98.8661 166.985 99.12 166.985 99.3739 166.985C100.255 166.904 101.143 167.011 102.025 166.718C102.898 166.424 103.779 166.478 104.653 166.264C106.034 165.917 107.423 165.864 108.812 165.784C110.327 165.704 111.836 165.491 113.351 165.864C113.516 165.917 113.687 165.917 113.852 165.891C115.196 165.571 116.54 165.651 117.884 165.757C118.384 165.811 118.892 165.784 119.392 165.597C120.019 165.384 120.654 165.357 121.281 165.331C122.498 165.277 123.715 165.411 124.932 164.877C126.097 164.344 127.277 164.103 128.449 163.783C129.158 163.597 129.875 163.463 130.585 163.357C131.01 163.277 131.406 163.063 131.779 162.183C131.981 161.703 132.242 161.489 132.489 161.329C132.899 161.089 133.317 160.902 133.735 160.849C135.035 160.636 136.341 160.502 137.633 159.995C139.052 159.435 140.478 158.955 141.904 159.035C142.068 159.035 142.24 158.902 142.404 158.848C143.203 158.528 144.01 158.368 144.794 158.848C145.966 159.542 147.131 159.649 148.31 159.729C149.065 159.782 149.826 159.755 150.58 159.622C151.372 159.489 152.178 159.889 152.962 159.062C153.037 158.982 153.126 159.008 153.216 159.008C154.351 159.062 155.486 158.982 156.621 159.168C158.891 159.542 161.161 159.622 163.43 159.462C165.066 159.355 166.701 158.955 168.336 158.635C170.307 158.235 172.286 158.208 174.257 158.101C175.474 158.048 176.684 158.048 177.901 158.048C178.282 158.048 178.662 158.395 179.028 158.181C179.827 157.728 180.626 158.075 181.418 158.101C182.762 158.155 184.098 158.955 185.442 158.955C186.323 158.928 187.204 159.195 188.085 158.955C188.421 158.875 188.757 158.955 189.093 159.035C190.31 159.328 191.535 159.302 192.745 159.008C194.38 158.608 196.015 158.421 197.65 158.848C197.904 158.902 198.165 159.008 198.404 158.822C198.949 158.341 199.479 158.555 200.025 158.902C200.353 159.115 200.697 159.062 201.025 159.115C201.279 159.168 201.533 159.088 201.779 159.275C202.981 160.262 204.191 160.235 205.408 160.075C205.908 159.995 206.416 160.049 206.916 159.889C207.14 159.809 207.319 159.995 207.514 160.315C207.663 160.556 207.827 160.689 207.991 160.796C208.193 160.929 208.402 161.009 208.611 161.116C209.649 161.596 210.679 162.343 211.74 162.343C212.621 162.343 213.502 162.423 214.383 162.476C214.973 162.53 215.555 162.61 216.138 163.01C216.63 163.357 217.138 163.437 217.646 163.196C217.937 163.063 218.228 163.17 218.519 163.25C219.184 163.49 219.863 163.463 220.535 163.543C221.275 162.823 222.036 162.983 222.79 163.036C223.126 163.063 223.44 162.85 223.769 162.476C223.843 162.396 223.918 162.316 223.985 162.236V144.95H224Z" fill="#E8E8E8"/>
<path fill-rule="evenodd" clip-rule="evenodd" d="M102 77.8571C102 75.4569 102 74.2568 102.467 73.34C102.878 72.5336 103.534 71.878 104.34 71.4671C105.257 71 106.457 71 108.857 71H115.143C117.543 71 118.743 71 119.66 71.4671C120.466 71.878 121.122 72.5336 121.533 73.34C122 74.2568 122 75.4569 122 77.8571V84.1429C122 86.5431 122 87.7432 121.533 88.66C121.122 89.4664 120.466 90.122 119.66 90.5329C118.743 91 117.543 91 115.143 91H108.857C106.457 91 105.257 91 104.34 90.5329C103.534 90.122 102.878 89.4664 102.467 88.66C102 87.7432 102 86.5431 102 84.1429V77.8571ZM120 80.7144V84.1429C120 85.376 119.998 86.1805 119.948 86.7948C119.9 87.3858 119.817 87.6225 119.751 87.752C119.532 88.1821 119.182 88.5317 118.752 88.7509C118.623 88.8168 118.386 88.9 117.795 88.9483C117.181 88.9984 116.376 89 115.143 89H108.857C107.624 89 106.819 88.9984 106.205 88.9483C105.614 88.9 105.377 88.8168 105.248 88.7509C104.818 88.5317 104.468 88.1821 104.249 87.752C104.183 87.6225 104.1 87.3858 104.052 86.7948C104.002 86.1805 104 85.376 104 84.1429V81.8573L104.62 81.2368C105.067 80.7905 105.79 80.7905 106.237 81.2368L109.108 84.1083C109.443 84.4431 109.986 84.4431 110.32 84.1083L116.049 78.3797C116.495 77.9334 117.219 77.9334 117.665 78.3797L120 80.7144ZM109.571 75.9999C109.571 77.0256 108.74 77.8571 107.714 77.8571C106.689 77.8571 105.857 77.0256 105.857 75.9999C105.857 74.9743 106.689 74.1428 107.714 74.1428C108.74 74.1428 109.571 74.9743 109.571 75.9999Z" fill="#737376"/>
</svg>
