<svg width="92" height="92" viewBox="0 0 92 92" fill="none" xmlns="http://www.w3.org/2000/svg">
<path d="M31.4303 5.15479C31.3939 5.09175 31.389 5.01052 31.3394 4.99718C31.1226 4.91232 30.8925 4.87716 30.6442 4.81048C30.6044 4.9596 30.5331 5.1269 30.4932 5.27602C30.3442 5.23601 30.1638 5.21419 30.0149 5.17419C29.0079 5.75612 28.0008 6.33805 26.9938 6.91998C26.9638 7.23155 26.8477 7.46675 26.5463 7.59889C26.3078 7.69467 26.326 7.72619 25.8973 7.63769C25.7484 7.59768 25.5281 7.72498 25.4882 7.8741C25.4351 8.07292 25.4001 8.30327 25.1302 8.41723C24.7658 8.58575 24.4378 8.81731 24.0602 9.03553C23.8085 9.18101 23.8399 9.16283 23.7735 9.41136C23.6889 9.62837 23.6539 9.85872 23.5875 10.1073C23.4931 10.1618 23.3987 10.2164 23.2728 10.2891C23.1238 10.2491 22.9434 10.2273 22.7945 10.1873C22.1965 10.5328 21.5672 10.8965 21.0007 11.2238C20.9741 11.3232 20.9343 11.4724 20.9077 11.5718C20.8811 11.6712 20.8049 11.7573 20.679 11.83C20.5846 11.8846 20.4853 11.8579 20.3546 11.8494C19.9888 11.7245 19.8315 11.8155 19.7252 12.2131C19.6986 12.3125 19.6587 12.4616 19.5643 12.5162C19.4699 12.5708 19.3755 12.6253 19.2496 12.698C19.0608 12.8072 19.0608 12.8072 18.9811 13.1054C18.9678 13.1551 18.9545 13.2048 18.9279 13.3042C18.8021 13.377 18.6447 13.4679 18.5056 13.5903C18.3349 13.731 18.1678 13.6594 18.0188 13.6194C17.9692 13.6061 17.9195 13.5928 17.8202 13.5661C17.7258 13.6206 17.5818 13.6619 17.537 13.7298C17.4608 13.8158 17.4524 13.9468 17.4258 14.0462C17.4125 14.0959 17.3993 14.1456 17.386 14.1953C16.7881 14.5408 16.1587 14.9045 15.5922 15.2319C15.4118 15.21 15.2761 15.1203 15.1006 15.1797C15.074 15.2792 15.0657 15.4101 15.0076 15.5277C14.981 15.6271 14.923 15.7447 14.8964 15.8441C15.1146 16.2224 15.1195 16.3036 14.9174 16.4624C14.8097 16.5667 14.7286 16.5715 14.5978 16.563C14.4985 16.5364 14.3495 16.4964 14.2502 16.4697C14.0614 16.5788 13.8726 16.6879 13.6523 16.8152C13.6125 16.9643 13.5726 17.1134 13.5013 17.2807C13.0922 17.5172 12.7146 17.7354 12.3055 17.9718C12.2341 18.1391 12.2124 18.3197 12.1411 18.487C11.8264 18.6689 11.5432 18.8326 11.26 18.9962C11.2068 19.195 11.167 19.3442 11.0775 19.48C10.8572 19.6073 10.6684 19.7164 10.4481 19.8437C10.2593 19.9528 10.2593 19.9528 10.09 20.3868C10.0502 20.5359 9.82989 20.6632 9.68093 20.6232C9.63128 20.6099 9.58163 20.5965 9.53198 20.5832C9.36485 20.5117 9.18931 20.5711 9.05015 20.6935C8.92427 20.7663 8.93407 20.9287 9.06134 21.1494C9.11589 21.2439 9.13896 21.3567 9.08092 21.4743C9.0047 21.5604 8.91029 21.6149 8.81588 21.6695C8.78441 21.6877 8.6851 21.661 8.63546 21.6476C8.53616 21.621 8.3872 21.581 8.2879 21.5543C8.21657 21.7216 8.1767 21.8707 8.12356 22.0695C7.93475 22.1787 7.71445 22.306 7.52564 22.4151C7.48579 22.5642 7.45921 22.6636 7.43264 22.763C7.34802 22.98 7.36272 23.2237 7.21027 23.3959C6.94033 23.5098 6.93683 23.722 6.85221 23.939C6.83893 23.9887 6.77599 24.0251 6.74451 24.0433C6.60046 24.0845 6.5557 24.1524 6.49766 24.27C6.37318 24.6361 6.37318 24.6361 6.08996 24.7998C6.02352 25.0483 5.94381 25.3465 5.89555 25.6266C5.84241 25.8254 5.6487 25.8533 5.541 25.9576C5.42142 26.4049 5.30183 26.8523 5.18225 27.2996C5.09274 27.4354 4.89903 27.4633 4.84589 27.6621C4.80602 27.8113 4.75288 28.0101 4.71301 28.1592C4.64658 28.4077 4.59343 28.6066 4.52699 28.8551C4.44727 29.1533 4.34937 29.4201 4.30112 29.7001C4.25287 29.9802 3.97804 30.0129 3.9249 30.2117C3.67244 31.1561 3.41999 32.1006 3.13607 33.0632C3.08292 33.262 3.23677 33.3832 3.26474 33.5772C2.999 34.5714 2.73327 35.5655 2.46753 36.5596C2.37802 36.6954 2.1843 36.7233 2.11298 36.8906C1.90038 37.6859 1.6878 38.4812 1.4752 39.2765C1.42206 39.4753 1.5759 39.5966 1.61716 39.7408C1.49758 40.1882 1.378 40.6355 1.25842 41.0829C1.31297 41.1775 1.38219 41.5157 1.40038 41.5472C1.29408 41.9449 1.18779 42.3425 1.0815 42.7402C1.06821 42.7899 1.15073 43.0784 1.21017 43.2542C1.01086 43.9998 0.798279 44.7951 0.585686 45.5904C0.622047 45.6535 0.694778 45.7796 0.749321 45.8741C0.669601 46.1724 0.571701 46.4391 0.523445 46.7192C0.496872 46.8186 0.551422 46.9131 0.624146 47.0392C0.701775 47.2465 0.675201 47.3459 0.436737 47.4417C0.247925 47.5508 0.18988 47.6684 0.298973 47.8576C0.389885 48.0152 0.399666 48.1776 0.328339 48.3449C0.22554 48.5304 0.347923 48.6698 0.438835 48.8274C0.377296 49.1572 0.266106 49.4736 0.204567 49.8034C0.259117 49.8979 0.363304 50.0058 0.336731 50.1053C0.35981 50.218 0.301773 50.3356 0.243729 50.4532C0.159111 50.6702 0.461914 50.8315 0.332542 51.1164C0.247925 51.3334 0.212967 51.5637 0.128349 51.7807C0.1745 52.0062 0.315063 52.1772 0.217155 52.4439C0.132538 52.6609 0.0975723 52.8913 0.0129623 53.1083C0.0675049 53.2028 0.122055 53.2974 0.194778 53.4235C0.181496 53.4732 0.168205 53.5229 0.154915 53.5726C0.128342 53.672 0.0703049 53.7896 0.0933838 53.9024C0.116463 54.0151 0.171005 54.1097 0.225548 54.2042C0.198975 54.3036 0.140938 54.4212 0.132545 54.5522C0.09758 54.7825 -0.0366898 54.9862 0.00946808 55.2117C0.186394 55.4457 0.0835953 55.6312 0.0486298 55.8615C0.0353394 55.9112 0.071701 55.9743 0.0898819 56.0058C0.266808 56.2398 0.101074 56.4616 0.09758 56.6738C0.107368 56.8363 0.292694 56.9393 0.208076 57.1563C0.181503 57.2557 0.123451 57.3733 0.115059 57.5043C0.169609 57.5988 0.224159 57.6934 0.296883 57.8195C0.270309 57.9189 0.261925 58.0498 0.20388 58.1674C0.150734 58.3662 0.336044 58.4693 0.314369 58.6499C0.324158 58.8124 0.203186 58.9664 0.231155 59.1603C0.3899 59.3628 0.336746 59.5616 0.270317 59.8102C0.230453 59.9593 0.43396 60.0939 0.380814 60.2927C0.35424 60.3921 0.296188 60.5097 0.287796 60.6406C0.274513 60.6903 0.310883 60.7534 0.329063 60.7849C0.433258 60.8928 0.438156 60.974 0.429764 61.105C0.354935 61.4844 0.354935 61.4844 0.500397 61.7366C0.460533 61.8857 0.438858 62.0664 0.367523 62.2337C0.476616 62.4228 0.603889 62.6434 0.712982 62.8326C0.691307 63.0132 0.61998 63.1805 0.598305 63.3612C0.707397 63.5503 0.834671 63.7709 0.943764 63.9601C0.908798 64.1904 0.774529 64.3941 0.951454 64.6281C1.006 64.7226 0.997604 64.8536 0.939568 64.9712C0.881523 65.0888 0.873123 65.2197 0.927673 65.3143C1.03677 65.5034 1.16405 65.724 1.27314 65.9132C1.36405 66.0708 1.40531 66.215 1.33398 66.3823C1.27593 66.4999 1.29901 66.6127 1.35356 66.7073C1.44447 66.8649 1.56685 67.0043 1.60811 67.1486C1.66755 67.3243 1.54658 67.4783 1.5249 67.659C1.76127 68.0687 1.97945 68.447 2.21582 68.8568C2.19414 69.0374 2.12281 69.2047 2.10114 69.3854C2.3375 69.7951 2.55569 70.1734 2.79205 70.5832C2.77038 70.7638 2.73052 70.9129 2.67737 71.1117C2.73192 71.2063 2.78647 71.3009 2.85919 71.427C3.09557 71.8367 3.33192 72.2465 3.55011 72.6248C3.60466 72.7193 3.6592 72.8139 3.70046 72.9582C3.57109 73.2431 3.61725 73.4686 3.78089 73.7523C4.39419 74.7428 4.94455 75.7696 5.52638 76.7783C5.67184 77.0305 5.67184 77.0305 6.2327 77.4209C6.425 77.0996 6.47465 77.1129 6.51102 77.176C6.71102 77.5227 6.91102 77.8694 7.11102 78.2162C7.24319 78.518 7.4467 78.6526 7.7579 78.6829C8.02573 79.0745 8.2621 79.4843 8.467 79.9122C8.63064 80.1959 8.83414 80.3305 9.14534 80.3608C9.25443 80.5499 9.38171 80.7706 9.4908 80.9597C9.65794 81.0313 9.83836 81.0531 10.0055 81.1246C10.1146 81.3137 10.2419 81.5344 10.351 81.7235C10.5181 81.795 10.6985 81.8169 10.8657 81.8884C10.9747 82.0775 11.102 82.2982 11.2111 82.4873C11.5223 82.5176 11.7755 82.6655 11.858 82.954C11.9538 83.1929 12.1839 83.228 12.4007 83.3129C12.5496 83.3529 12.5643 83.5966 12.7629 83.6499C12.8622 83.6766 12.993 83.6851 13.1105 83.7433C13.1601 83.7566 13.1965 83.8197 13.2147 83.8512C13.2559 83.9955 13.3237 84.0403 13.4727 84.0803C13.572 84.107 13.721 84.147 13.8203 84.1737C13.8748 84.2682 13.9294 84.3628 13.9839 84.4574C14.0335 84.4707 14.1014 84.5156 14.151 84.5289C14.2503 84.5556 14.3678 84.6138 14.4986 84.6223C14.5531 84.7168 14.6077 84.8114 14.6622 84.9059C14.8294 84.9775 14.9965 85.049 15.1455 85.089C15.2413 85.3279 15.458 85.4127 15.6881 85.4479C15.7378 85.4612 15.8056 85.5061 15.8238 85.5376C15.9196 85.7764 16.1811 85.7934 16.3665 85.8964C16.5518 85.9995 16.6161 86.2565 16.8777 86.2735C17.1077 86.3086 17.3245 86.3935 17.5728 86.4602C17.6273 86.5547 17.6819 86.6493 17.7364 86.7439C17.9036 86.8154 18.084 86.8372 18.2511 86.9088C18.3057 87.0033 18.3602 87.0979 18.4148 87.1925C19.0602 87.3658 19.656 87.5258 20.2519 87.6859C20.3875 87.7756 20.384 87.9878 20.5826 88.0411C20.8127 88.0763 21.0295 88.1611 21.2777 88.2278C21.5757 88.3078 21.8421 88.406 22.1218 88.4545C22.4015 88.503 22.4477 88.7285 22.6512 88.8631C23.0981 88.9831 23.5449 89.1031 23.9918 89.2232C24.0463 89.3177 24.1009 89.4123 24.1736 89.5384C24.3722 89.5917 24.6205 89.6584 24.8505 89.6936C25.031 89.7154 25.1338 89.5299 25.3324 89.5832C25.5492 89.6681 25.7792 89.7033 26.0275 89.7699C26.1764 89.8099 26.3751 89.8633 26.524 89.9033C26.5737 89.9166 26.8618 89.8342 26.9876 89.7615C27.4842 89.8948 27.9807 90.0282 28.5268 90.1749C28.8744 90.2682 29.222 90.3616 29.5199 90.4416C30.1157 90.6016 30.1157 90.6016 30.4849 90.5143C30.7912 90.4634 31.0444 90.6113 31.3241 90.6598C31.6535 90.7216 32.0192 90.8465 32.3171 90.9265C32.3668 90.9399 32.4164 90.9532 32.4975 90.9484C32.6549 90.8574 32.7626 90.7532 32.9794 90.838C33.1962 90.9229 33.4262 90.9581 33.6745 91.0247C33.9046 91.0599 34.0948 91.2442 34.3151 91.1169C34.5668 90.9714 34.7521 91.0744 34.9822 91.1096C35.0319 91.1229 35.0948 91.0866 35.1263 91.0684C35.1892 91.032 35.2207 91.0138 35.2836 90.9774C35.613 91.0393 35.9291 91.1508 36.2585 91.2126C36.2717 91.1629 36.3165 91.095 36.3116 91.0138C36.32 90.8829 36.378 90.7653 36.4592 90.7604C36.5718 90.7374 36.6578 90.8138 36.7305 90.9399C36.8396 91.129 36.9753 91.2187 37.1326 91.1278C37.3844 90.9823 37.5697 91.0854 37.7997 91.1205C37.9802 91.1423 38.083 90.9568 38.2816 91.0102C38.5795 91.0902 38.8277 91.1569 39.1256 91.2369C39.2201 91.1823 39.3145 91.1278 39.4403 91.055C39.5396 91.0817 39.6704 91.0902 39.7879 91.1484C39.9865 91.2017 40.0893 91.0163 40.2697 91.0381C40.432 91.0284 40.5858 91.1496 40.7795 91.1217C40.8292 91.1351 40.8739 91.0672 40.9369 91.0308C41.1704 90.8538 41.4404 90.7398 41.7432 90.9011C41.7928 90.9144 41.874 90.9096 41.9054 90.8914C41.9998 90.8368 42.1257 90.7641 42.225 90.7908C42.4418 90.8756 42.6719 90.9108 42.874 90.752C43.0362 90.7423 43.2033 90.8138 43.3838 90.8356C43.5726 90.7265 43.7614 90.6174 43.9817 90.4901C44.1621 90.5119 44.3292 90.5834 44.5097 90.6053C44.6041 90.5507 44.6985 90.4962 44.7929 90.4416C44.9733 90.4634 45.1404 90.535 45.3209 90.5568C45.5097 90.4477 45.73 90.3204 45.9188 90.2113C46.2034 90.341 46.4649 90.3579 46.7118 90.1312C46.7747 90.0949 46.8062 90.0767 46.8692 90.0403C46.9006 90.0221 46.9636 89.9858 47.0132 89.9991C47.1936 90.0209 47.3475 90.1422 47.5048 90.0512C47.6622 89.9603 47.8195 89.8694 47.9454 89.7966C48.0398 89.7421 48.1391 89.7688 48.2566 89.827C48.3741 89.8851 48.4867 89.8621 48.5811 89.8075C48.8328 89.6621 49.0846 89.5166 49.3678 89.3529C49.5168 89.3929 49.6972 89.4147 49.8776 89.4366C50.1608 89.2729 50.4755 89.091 50.7587 88.9274C50.9392 88.9492 51.1063 89.0207 51.2552 89.0607C51.6014 88.8607 51.9476 88.6607 52.3252 88.4424C52.3881 88.4061 52.4196 88.3879 52.4511 88.3697C52.6315 88.3915 52.7986 88.4631 52.9476 88.5031C53.3252 88.2848 53.6714 88.0848 54.0175 87.8848C54.0805 87.8484 54.1119 87.8302 54.1931 87.8253C54.4777 87.9551 54.721 87.9405 54.9861 87.7453C55.1253 87.6229 55.3008 87.5635 55.4267 87.4907C55.5211 87.4362 55.6518 87.4447 55.7693 87.5029C55.8868 87.5611 56.0176 87.5695 56.112 87.515C56.8672 87.0785 57.6225 86.6421 58.3778 86.2057C58.4092 86.1875 58.4903 86.1826 58.54 86.196C58.7568 86.2808 58.9869 86.316 59.189 86.1572C59.3596 86.0165 59.5981 85.9208 59.7869 85.8116C59.9442 85.7207 60.0337 85.5849 60.2323 85.6383C60.3316 85.6649 60.4806 85.7049 60.5799 85.7316C61.0834 85.4407 61.5869 85.1497 62.0904 84.8587C62.3883 84.9387 62.6366 85.0054 62.9345 85.0854C63.0338 85.1121 63.1464 85.0891 63.2723 85.0163C63.4744 84.8575 63.4876 84.8078 63.3604 84.5872C63.2464 84.3168 63.2548 84.1859 63.538 84.0222C64.1359 83.6767 64.7338 83.3312 65.3632 82.9675C65.615 82.822 65.615 82.822 66.1695 82.8377C66.4576 82.7553 66.6961 82.6595 66.8751 82.388C66.9332 82.2704 66.9101 82.1576 66.8241 82.0812C66.7381 82.0049 66.7464 81.8739 66.8045 81.7563C66.836 81.7381 66.8856 81.7515 66.9353 81.7648C67.0346 81.7915 67.1835 81.8315 67.2828 81.8582C67.4318 81.8982 67.6304 81.9515 67.7793 81.9915C67.8458 81.743 67.8989 81.5442 67.9654 81.2956C68.0584 80.9477 68.229 80.807 68.5947 80.9319C68.694 80.9586 68.843 80.9986 68.9374 80.944C69.0318 80.8895 69.1262 80.8349 69.2521 80.7622C69.4724 80.6349 69.4724 80.6349 69.5388 80.3864C69.6052 80.1378 69.6584 79.939 69.7248 79.6905C70.008 79.5268 70.3227 79.3449 70.6374 79.1631C70.7864 79.2031 70.9668 79.2249 71.1158 79.2649C71.2102 79.2104 71.3046 79.1558 71.4305 79.0831C71.4605 78.7715 71.5948 78.5678 71.878 78.4042C72.3053 78.1993 72.6962 77.9313 73.0738 77.7131C73.1682 77.6586 73.2445 77.5725 73.3389 77.5179C73.392 77.3191 73.4088 77.0572 73.6787 76.9433C73.7731 76.8887 73.8312 76.7711 73.8396 76.6402C73.848 76.5093 73.906 76.3917 74.0004 76.3371C74.2704 76.2231 74.2557 75.9794 74.3403 75.7624C74.3718 75.7443 74.4165 75.6764 74.448 75.6582C74.9515 75.3672 75.455 75.0762 75.9585 74.7853C76.1473 74.6762 76.1872 74.5271 76.227 74.3779C76.2403 74.3282 76.2536 74.2785 76.2669 74.2288C76.5501 74.0651 76.8648 73.8833 77.1795 73.7014C77.2508 73.5341 77.2725 73.3535 77.3438 73.1862C77.7529 72.9498 78.1306 72.7316 78.5082 72.5133C78.5795 72.346 78.6509 72.1787 78.6907 72.0296C78.9292 71.9338 79.0138 71.7168 79.0488 71.4865C79.0621 71.4368 79.1068 71.3689 79.1383 71.3507C79.2956 71.2598 79.453 71.1688 79.5788 71.0961C79.8935 70.9142 79.8935 70.9142 80.3775 70.2984C80.3907 70.2487 80.4537 70.2123 80.4852 70.1941C80.6425 70.1032 80.7817 69.9807 80.9257 69.9395C81.2271 69.8074 81.3614 69.6037 81.3915 69.2921C81.5488 69.2012 81.6747 69.1284 81.832 69.0375C82.0838 68.892 82.1153 68.8738 81.9782 68.4907C81.9006 68.2834 81.9271 68.184 82.116 68.0749C82.1789 68.0385 82.2104 68.0203 82.2733 67.984C82.2999 67.8846 82.3264 67.7852 82.3348 67.6542C82.3481 67.6045 82.3614 67.5548 82.4062 67.4869C82.7838 67.2687 83.1929 67.0323 83.602 66.7959C83.6817 66.4976 83.73 66.2176 83.8279 65.9509C83.9125 65.7338 83.8482 65.4768 84.0684 65.3495C84.3202 65.204 84.3237 64.9919 84.4083 64.7749C84.4216 64.7252 84.4845 64.6888 84.516 64.6706C84.6601 64.6294 84.7048 64.5615 84.7447 64.4124C84.7712 64.313 84.7796 64.182 84.8377 64.0644C84.9321 64.0099 85.0265 63.9553 85.1524 63.8826C85.2454 63.5346 85.3566 63.2182 85.4181 62.8885C85.4796 62.5587 85.6321 62.3865 85.9153 62.2229C86.1538 62.1271 86.1356 62.0956 86.202 61.847C86.2685 61.5985 86.3216 61.3997 86.3881 61.1511C86.4825 61.0966 86.5769 61.042 86.6846 60.9378C86.7377 60.7389 86.8041 60.4904 86.8573 60.2916C86.9503 59.9436 87.0118 59.6139 87.123 59.2975C87.2342 58.981 87.1601 58.5616 87.5741 58.4064C87.7216 58.153 87.7517 57.8414 87.8181 57.5929C87.9112 57.2449 88.0042 56.897 88.0839 56.5988C88.2832 55.8532 88.5007 55.1391 88.6685 54.4117C88.7349 54.1631 88.9238 54.054 89.0447 53.9001C89.1657 53.7461 89.0252 53.5751 88.9342 53.4175C89.0804 52.8708 89.2266 52.324 89.3727 51.7772C89.5189 51.2304 89.6783 50.634 89.8245 50.0872C89.5797 49.8084 89.5832 49.5962 89.9475 49.4277C89.979 49.4095 90.0238 49.3416 90.0371 49.2919C90.0636 49.1925 90.1035 49.0434 90.1301 48.9439C90.2014 48.7766 90.1601 48.6324 90.0594 48.3123C90.179 47.8649 90.2986 47.4176 90.4182 46.9702C90.2364 46.655 90.2364 46.655 90.3475 46.3386C90.3608 46.2889 90.3741 46.2392 90.3692 46.158C90.3147 46.0634 90.2601 45.9688 90.2056 45.8743C90.2189 45.8246 90.2322 45.7748 90.2454 45.7251C90.3385 45.3772 90.4496 45.0608 90.5112 44.731C90.5727 44.4012 90.8462 44.0751 90.565 43.7332C90.6035 43.2907 90.8042 42.8385 90.8923 42.4094C90.9455 42.2105 90.7916 42.0893 90.7503 41.945C90.8699 41.4977 90.9895 41.0503 91.1091 40.6029C91.0545 40.5084 90.9853 40.1701 90.9671 40.1386C91.065 39.8719 91.1448 39.5737 91.2112 39.3251C91.1203 39.1675 91.0657 39.0729 91.0112 38.9784C91.0378 38.879 91.0776 38.7299 91.1042 38.6304C91.1392 38.4001 91.2734 38.1964 91.2273 37.9709C91.0685 37.7685 91.1531 37.5514 91.1881 37.3211C91.2014 37.2714 91.165 37.2083 91.1469 37.1768C91.0741 37.0507 91.0196 36.9562 91.0461 36.8568C91.1308 36.6398 91.1657 36.4094 91.007 36.2069C91.0287 36.0263 91.0685 35.8772 91.0902 35.6965C91.0357 35.602 90.9811 35.5074 90.9266 35.4128C90.9482 35.2322 91.0196 35.0649 91.0412 34.8843C90.9503 34.7267 90.8461 34.6188 90.9308 34.4017C91.0021 34.2344 91.0105 34.1035 90.9014 33.9144C90.6699 33.5858 90.7014 33.5676 90.7713 33.1069C90.7846 33.0572 90.7797 32.976 90.7615 32.9445C90.6706 32.7869 90.6294 32.6426 90.7007 32.4753C90.772 32.308 90.7126 32.1322 90.6398 32.0061C90.4447 31.7406 90.43 31.4969 90.5594 31.212C90.4272 30.9102 90.214 30.6131 90.0636 30.2797C90.1035 30.1306 90.1251 29.95 90.1965 29.7827C89.9783 29.4044 89.7419 28.9946 89.5055 28.5849C89.5272 28.4042 89.5986 28.2369 89.6069 28.106C89.0797 27.1919 88.5524 26.2777 88.0433 25.3951C87.944 25.3685 87.795 25.3285 87.6957 25.3018C87.4789 25.2169 87.2356 25.2315 87.0635 25.0787C86.9677 24.8399 86.7377 24.8047 86.5209 24.7199C86.4216 24.6932 86.3488 24.5671 86.3258 24.4544C86.3076 24.4228 86.3027 24.3416 86.316 24.2919C86.3425 24.1925 86.3509 24.0616 86.409 23.944C86.3726 23.8809 86.3859 23.8312 86.3495 23.7682C85.9132 23.0117 85.4768 22.2551 85.0404 21.4986C85.0803 21.3495 85.102 21.1689 85.1418 21.0198C84.9929 20.9797 84.8257 20.9082 84.6768 20.8682C84.2586 20.1432 83.8586 19.4497 83.4586 18.7563C83.4802 18.5756 83.5698 18.4399 83.5103 18.2641C83.411 18.2374 83.2802 18.2289 83.1627 18.1707C83.1131 18.1574 83.0453 18.1125 83.0271 18.081C82.8816 17.8288 82.7362 17.5767 82.5907 17.3245C82.5725 17.293 82.5047 17.2481 82.455 17.2348C81.9669 16.9705 81.9669 16.9705 81.8215 16.7183C81.7306 16.5607 81.6396 16.4031 81.5669 16.277C81.5124 16.1824 81.3634 16.1424 81.3187 16.2103C81.2872 16.2285 81.2606 16.3279 81.2788 16.3595C81.4606 16.6747 81.6243 16.9584 81.7746 17.2918C81.8473 17.4178 81.7396 17.5221 81.6585 17.5269C81.6089 17.5136 81.5278 17.5185 81.5096 17.4869C81.1277 16.825 80.7459 16.1631 80.3823 15.5326C80.3193 15.569 80.306 15.6187 80.2249 15.6236C80.0942 15.6151 79.9949 15.5884 79.9403 15.4938C79.7585 15.1786 79.5948 14.8949 79.413 14.5797C79.3221 14.4221 79.2179 14.3142 79.0375 14.2924C78.9067 14.2839 78.8207 14.2075 78.7662 14.113C78.6752 13.9554 78.6158 13.7796 78.5116 13.6717C78.3892 13.5322 78.1955 13.5601 78.0284 13.4886C77.9193 13.2995 77.8102 13.1103 77.6829 12.8897C77.5158 12.8182 77.3354 12.7963 77.1682 12.7248C77.0591 12.5357 76.9319 12.315 76.8228 12.1259C76.6556 12.0544 76.4752 12.0325 76.3262 11.9925C76.2172 11.8034 76.0899 11.5828 75.999 11.4252C75.8318 11.3536 75.6647 11.2821 75.5157 11.2421C75.4199 11.0033 75.2032 10.9184 74.9731 10.8832C74.8738 10.8566 74.8192 10.762 74.7465 10.6359C74.7283 10.6044 74.692 10.5413 74.6423 10.528C74.3311 10.4977 74.1409 10.3134 74.0087 10.0115C73.9856 9.8988 73.8814 9.7909 73.7821 9.76422C73.5521 9.72906 73.3353 9.6442 73.2395 9.40537C73.2213 9.37385 73.1535 9.32899 73.1038 9.31565C73.0045 9.28898 72.8737 9.28049 72.7877 9.20411C72.7017 9.12774 72.6786 9.01499 72.6241 8.92043C72.4255 8.86708 72.2765 8.82707 72.1094 8.75554C71.9276 8.44033 71.7639 8.15664 71.5821 7.84143C71.266 7.72989 70.9052 7.68624 70.6024 7.525C70.4387 7.24131 70.2884 6.90791 70.0618 6.66059C69.7639 6.58057 69.5156 6.51389 69.2177 6.43388C69.0772 6.26293 68.9681 6.07381 68.738 6.03865C68.5079 6.00349 68.2911 5.91863 68.0611 5.88347C68.0065 5.7889 67.952 5.69434 67.8974 5.59977C67.7303 5.52824 67.5813 5.48824 67.3827 5.4349C67.3282 5.34033 67.2736 5.24576 67.2191 5.1512C67.1198 5.12453 66.9708 5.08452 66.8715 5.05785C66.6547 4.97298 66.4114 4.98753 66.2393 4.83478C66.1435 4.59594 65.9135 4.56078 65.6967 4.47592C65.647 4.46258 65.5792 4.41773 65.5925 4.36802C65.5379 4.27346 65.4652 4.14737 65.3659 4.1207C65.068 4.04068 64.8197 3.974 64.5218 3.89399C64.4673 3.79942 64.4442 3.68667 64.3582 3.6103C64.2722 3.53392 64.1414 3.52543 64.0421 3.49876C63.9924 3.48542 63.9428 3.47208 63.8931 3.45875C63.8386 3.36419 63.784 3.26962 63.7295 3.17505C63.4812 3.10837 63.2645 3.02351 63.0526 3.01988C62.791 3.0029 62.7267 2.74588 62.5414 2.64283C62.356 2.53978 62.1078 2.4731 61.9274 2.45128C61.7071 2.57857 61.7071 2.57857 61.219 2.31428C61.1693 2.30094 61.1329 2.2379 61.0833 2.22457C60.7854 2.14455 60.5371 2.07787 60.2392 1.99786C60.1847 1.90329 60.1301 1.80873 60.0938 1.74569C58.4056 1.29226 56.7175 0.83884 55.0293 0.385417C54.8769 0.557571 54.6468 0.522413 54.43 0.437548C54.3804 0.424212 54.3307 0.410871 54.2678 0.447242C54.1552 0.470277 54.0608 0.524837 53.9664 0.579393C53.4202 0.432697 52.8244 0.272661 52.2782 0.125966C52.2286 0.11263 52.1789 0.099298 52.1293 0.085962C52.0349 0.140518 51.9405 0.195073 51.8461 0.249628C51.7467 0.222957 51.616 0.214465 51.4985 0.156272C51.2684 0.121114 51.0649 -0.0134527 50.8216 0.00109526C50.709 0.0241299 50.6013 0.128389 50.5201 0.133239C50.3579 0.142937 50.1859 -0.0098197 50.0285 0.0811068C49.9159 0.104141 49.8082 0.208404 49.7089 0.181732C49.4789 0.146573 49.2935 0.0435227 49.06 0.220526C49.0285 0.238712 48.9474 0.243561 48.8977 0.230225C48.5998 0.150209 48.3516 0.0835294 48.0537 0.0035135C47.9593 0.0580694 47.8334 0.13081 47.7523 0.13566C47.6397 0.158694 47.5222 0.100503 47.4229 0.0738313C47.3732 0.0604953 47.3236 0.0471589 47.2739 0.033823C47.0222 0.179305 46.7704 0.324787 46.5187 0.470269C46.6229 0.578169 46.6278 0.659398 46.5697 0.776996C46.5383 0.795182 46.5068 0.813368 46.4753 0.831553C46.3445 0.823066 46.2767 0.778208 46.2355 0.633938C46.1278 0.738201 46.0466 0.743047 45.9292 0.684853C45.911 0.653332 45.8928 0.62181 45.8746 0.590289C45.883 0.459354 45.9277 0.391464 46.0718 0.350244C46.0354 0.287201 46.0487 0.237495 45.9809 0.192637C45.8634 0.134444 45.7641 0.107772 45.6697 0.162328C45.5124 0.253254 45.3683 0.294473 45.2012 0.222944C45.0837 0.164751 44.9711 0.187788 44.8767 0.242344C44.6249 0.387826 44.3732 0.533307 44.1214 0.67879C43.7788 0.666666 43.4445 0.52361 43.1151 0.46178C42.8319 0.625447 42.5172 0.807301 42.234 0.970968C42.085 0.93096 41.9046 0.909138 41.7375 0.837609C41.6976 0.986728 41.6263 1.15403 41.5864 1.30315C41.3018 1.17343 41.0402 1.15646 40.7752 1.35164C40.6046 1.49228 40.3976 1.56987 40.1773 1.69716C39.8927 1.56744 39.5997 1.56865 39.3843 1.77718C39.2899 1.83174 39.1955 1.88629 39.1011 1.94085C38.7234 2.15907 38.7416 2.19059 38.9465 2.61855C39.0955 2.65856 39.2626 2.73009 39.443 2.75191C39.4346 2.88285 39.3899 2.95074 39.3136 3.03681C39.1115 3.19563 38.8997 3.192 38.7542 2.93983C38.6996 2.84526 38.6269 2.71918 38.4829 2.7604C38.3206 2.77009 38.1633 2.86102 38.0919 3.02833C38.0654 3.12774 38.057 3.25867 37.9808 3.34475C37.9045 3.43083 37.8101 3.48538 37.7157 3.53994C37.6842 3.55812 37.6031 3.56297 37.5353 3.51812C37.436 3.49145 37.4311 3.41022 37.471 3.2611C37.4842 3.21139 37.529 3.1435 37.5108 3.11198C37.4926 3.08046 37.5059 3.03075 37.4563 3.01741C37.4066 3.00408 37.3388 2.95922 37.3073 2.97741C36.9612 3.17745 36.615 3.37749 36.2059 3.6139C36.1562 3.60056 36.2192 3.56419 36.2688 3.57752C36.3185 3.59086 36.3549 3.6539 36.3416 3.70361C36.3646 3.81635 36.3066 3.93395 36.2255 3.9388C36.194 3.95699 36.0947 3.93032 36.0765 3.8988C36.0402 3.83576 36.0353 3.75452 36.1562 3.60056C36.1646 3.46962 36.1101 3.37506 36.0374 3.24897C35.9961 3.1047 35.9283 3.05984 35.7975 3.05136C35.6353 3.06106 35.4464 3.17017 35.3884 3.28777C35.3751 3.33747 35.3618 3.38718 35.3485 3.43689C35.2954 3.63571 35.2954 3.63571 35.0157 3.58722C34.966 3.57388 34.8982 3.52903 34.8667 3.54721C34.7045 3.55691 34.6017 3.7424 34.4031 3.68906C34.3038 3.66238 34.1863 3.60419 34.0555 3.59571C33.4576 3.94123 32.8597 4.28675 32.2618 4.63227C32.2219 4.78139 32.182 4.9305 32.1107 5.09781C31.5743 5.11357 31.4617 5.1366 31.4303 5.15479C31.4848 5.24935 31.5394 5.34392 31.7792 5.54153C31.9016 5.68096 31.7708 5.67247 31.6848 5.59609C31.5492 5.50638 31.5757 5.40696 31.738 5.39726C31.8506 5.37423 31.9681 5.43242 31.9729 5.51365C31.9911 5.54517 31.9646 5.64458 31.7659 5.59124C31.5226 5.60578 31.41 5.62882 31.2925 5.57063C31.2743 5.53911 31.2561 5.50758 31.238 5.47606C31.2415 5.2639 31.2862 5.19601 31.4303 5.15479ZM62.4903 11.7925C62.4274 11.8288 62.3463 11.8337 62.2288 11.7755C62.0931 11.6858 62.1197 11.5864 62.2819 11.5767C62.3945 11.5536 62.512 11.6118 62.5169 11.6931C62.5351 11.7246 62.5085 11.824 62.0519 11.5415C62.1015 11.5549 62.1379 11.6179 62.1246 11.6676C62.1113 11.7173 62.0484 11.7537 61.9987 11.7403C61.8861 11.7634 61.7686 11.7052 61.7637 11.624C61.7456 11.5924 61.7721 11.493 61.8036 11.4748C61.8484 11.4069 61.9791 11.4154 62.4903 11.7925ZM26.5967 80.573C26.7044 80.4687 26.7855 80.4639 26.903 80.5221C26.9212 80.5536 26.9394 80.5851 26.9576 80.6166C26.9492 80.7476 26.9044 80.8155 26.7604 80.8567C26.7967 80.9197 26.8646 80.9646 26.8513 81.0143C26.8296 81.1949 26.7897 81.3441 26.7499 81.4932C26.8226 81.6193 26.8772 81.7138 26.9317 81.8084C27.8751 82.0618 28.8184 82.3152 29.7618 82.5686C29.8164 82.6631 29.8576 82.8074 29.9255 82.8522C30.0793 82.9735 30.2548 82.9141 30.394 82.7916C30.4255 82.7734 30.5066 82.7686 30.5562 82.7819C30.836 82.8304 31.1024 82.9286 31.4003 83.0086C31.4318 82.9904 31.5129 82.9856 31.5444 82.9674C31.6388 82.9129 31.7332 82.8583 31.8276 82.8037C32.0793 82.6583 32.2283 82.6983 32.3738 82.9504C32.4647 83.108 32.5374 83.2341 32.6283 83.3917C32.9262 83.4718 33.2241 83.5518 33.4724 83.6184C33.8199 83.7118 34.136 83.8233 34.4654 83.8852C34.7451 83.9337 34.9983 84.0816 35.2731 84.0488C35.8542 83.9652 35.841 84.0149 36.2382 84.1216C36.5857 84.2149 36.8836 84.2949 37.2312 84.3883C37.2808 84.4016 37.3305 84.415 37.3802 84.4283C37.5375 84.3374 37.6634 84.2646 37.9948 83.8209C38.0312 83.884 38.0361 83.9652 37.9781 84.0828C37.8886 84.2186 37.7892 84.1919 37.7795 84.0294C37.7564 83.9167 37.8144 83.7991 37.8955 83.7943C37.927 83.7761 38.0263 83.8027 37.8704 84.187C37.9067 84.2501 37.9116 84.3313 37.9613 84.3447C38.2277 84.4429 38.5074 84.4914 38.8054 84.5714C38.855 84.5847 38.8732 84.6162 38.8914 84.6478C38.8781 84.6975 38.883 84.7787 38.8515 84.7969C38.6627 84.906 38.4424 85.0333 38.2221 85.1606C38.0732 85.1206 37.9242 85.0806 37.7256 85.0272C37.6263 85.0005 37.4955 84.9921 37.3781 84.9339C37.1794 84.8805 37.0766 85.066 36.8962 85.0442C36.734 85.0539 36.5801 84.9326 36.3864 84.9605C36.355 84.9787 36.292 85.0151 36.2291 85.0515C36.1976 85.0696 36.1347 85.106 36.085 85.0927C35.8864 85.0393 35.6514 84.923 35.4361 85.1315C35.2109 85.1775 34.9759 85.0612 34.7773 85.0078C34.5969 84.986 34.4297 84.9145 34.2808 84.8745C34.0011 84.826 33.7164 84.6962 33.4549 84.6793C33.4053 84.6659 33.3605 84.7338 33.2976 84.7702C33.2346 84.8066 33.2031 84.8247 33.1535 84.8114C32.5989 84.7956 32.5808 84.7641 32.2031 84.9824C32.0458 85.0733 31.8786 85.0017 31.7877 84.8441C31.715 84.7181 31.6605 84.6235 31.5479 84.6465C31.3723 84.7059 31.4185 84.9314 31.3605 85.049C31.036 85.0684 30.7332 84.9072 30.4038 84.8453C30.3094 84.8999 30.215 84.9545 30.1206 85.009C29.8723 84.9423 29.6737 84.889 29.4255 84.8223C29.2898 84.7326 29.2751 84.4889 29.0947 84.4671C28.815 84.4186 28.5751 84.221 28.2786 84.4344C28.2471 84.4525 28.166 84.4574 28.1163 84.4441C26.7261 84.0707 25.3044 83.7154 23.896 83.3105C23.6477 83.2438 23.6659 83.2753 23.5204 83.0232C23.4113 82.834 23.3023 82.6449 23.054 82.5782C22.8239 82.5431 22.6071 82.4582 22.3771 82.4231C22.3225 82.3285 22.268 82.2339 22.1952 82.1078C21.7484 81.9878 21.3015 81.8678 20.8547 81.7478C20.805 81.7344 20.7372 81.6896 20.719 81.6581C20.6232 81.4192 20.3931 81.3841 20.1763 81.2992C20.1267 81.2859 20.0903 81.2228 20.0721 81.1913C19.9812 81.0337 19.9218 80.8579 19.8176 80.75C19.6455 80.5972 19.4022 80.6118 19.1854 80.5269C19.0861 80.5002 18.9686 80.4421 18.8378 80.4336C18.7287 80.2444 18.6015 80.0238 18.4924 79.8347C18.3252 79.7631 18.1763 79.7231 17.9777 79.6698C17.9231 79.5752 17.8686 79.4807 17.814 79.3861C17.7147 79.3594 17.5658 79.3194 17.4665 79.2927C17.3672 79.2661 17.3126 79.1715 17.2399 79.0454C17.1853 78.9509 17.0993 78.8745 16.9686 78.866C16.8063 78.8757 16.6707 78.786 16.593 78.5787C16.4839 78.3895 16.4839 78.3895 15.9594 78.0622C15.8238 77.9725 15.7643 77.7967 15.6734 77.6391C15.6189 77.5445 15.5643 77.45 15.4469 77.3918C15.0315 77.2536 15.0315 77.2536 14.9042 77.0329C14.8496 76.9383 14.7951 76.8438 14.7224 76.7177C14.5734 76.6777 14.4063 76.6062 14.2573 76.5661C14.0937 76.2825 13.9119 75.9672 13.7482 75.6836C13.5811 75.612 13.4007 75.5902 13.2335 75.5187C13.1244 75.3295 12.9971 75.1089 12.8881 74.9198C12.7209 74.8482 12.5405 74.8264 12.423 74.7682C12.1866 74.3584 11.9818 73.9305 11.6824 73.5571C11.3712 73.5268 11.1992 73.374 11.0356 73.0903C10.7398 72.5048 10.3992 71.9871 10.0719 71.4197C10.0174 71.3251 9.89989 71.2669 9.76912 71.2584C9.63834 71.25 9.52085 71.1918 9.46631 71.0972C8.21174 68.9222 6.97535 66.7788 5.72078 64.6038C5.7026 64.5723 5.69769 64.4911 5.71098 64.4414C5.84035 64.1565 5.77602 63.8994 5.58091 63.6339C5.49 63.4763 5.39909 63.3187 5.32635 63.1926C5.13125 62.9271 5.11657 62.6834 5.24594 62.3985C5.04104 61.9706 4.7732 61.579 4.58649 61.1826C4.53194 61.088 4.47739 60.9934 4.40466 60.8673C4.42634 60.6867 4.4662 60.5376 4.51935 60.3388C4.35571 60.0551 4.17389 59.7399 4.01025 59.4562C4.03193 59.2755 4.07178 59.1264 4.12493 58.9276C4.01584 58.7384 3.88857 58.5178 3.77947 58.3287C3.90884 58.0438 3.92563 57.7819 3.73051 57.5164C3.58996 57.3455 3.60324 57.2957 3.65989 56.8848C3.67317 56.835 3.66827 56.7538 3.65009 56.7223C3.55918 56.5647 3.46828 56.4071 3.39555 56.281C3.341 56.1864 3.3494 56.0555 3.42562 55.9694C3.4389 55.9197 3.52002 55.9149 3.58296 55.8785C3.4375 55.6263 3.29205 55.3742 3.14658 55.122C3.18645 54.9729 3.20812 54.7922 3.27946 54.6249C3.22491 54.5304 3.15218 54.4043 3.1291 54.2915C3.11092 54.26 3.13749 54.1606 3.16896 54.1424C3.2319 54.106 3.36267 54.1145 3.44869 54.1909C3.53471 54.2673 3.55779 54.38 3.63051 54.5061C3.73961 54.6952 3.7396 54.6952 3.66967 55.1559C3.6431 55.2553 3.69765 55.3499 3.77037 55.476C3.82492 55.5706 3.81653 55.7015 3.7403 55.7876C3.72701 55.8373 3.6459 55.8421 3.58296 55.8785C3.72842 56.1307 3.87388 56.3828 4.01933 56.635C4.24941 56.6702 4.4662 56.755 4.69627 56.7902C4.84523 56.8302 4.94453 56.8569 4.94942 56.9381C4.9725 57.0508 4.89627 57.1369 4.77039 57.2097C4.58158 57.3188 4.52354 57.4364 4.58298 57.6122C4.63753 57.7067 4.69208 57.8013 4.68369 57.9322C4.61375 58.3929 4.61375 58.3929 4.72285 58.5821C4.95921 58.9918 5.19559 59.4016 5.41377 59.7799C5.43195 59.8114 5.43684 59.8926 5.42355 59.9423C5.34873 60.3218 5.34873 60.3218 5.49419 60.574C5.64314 60.614 5.81028 60.6855 5.95923 60.7255C5.91937 60.8746 5.8977 61.0553 5.85783 61.2044C6.03966 61.5196 6.23477 61.7851 6.35365 62.1367C6.32708 62.2361 6.26904 62.3537 6.26064 62.4846C6.20749 62.6835 6.36624 62.8859 6.6145 62.9526C6.86275 63.0193 6.89422 63.0011 6.79632 63.2678C6.73827 63.3854 6.76134 63.4982 6.8159 63.5927C6.96135 63.8449 7.07534 64.1152 7.25227 64.3492C7.44738 64.6147 7.4306 64.8766 7.30122 65.1615C7.88306 66.1702 8.46489 67.1789 9.04671 68.1876C9.19567 68.2276 9.36281 68.2991 9.51176 68.3391C9.85722 68.938 10.2027 69.5369 10.5481 70.1358C10.7153 70.2073 10.8957 70.2292 11.0447 70.2692C11.2265 70.5844 11.3587 70.8863 11.6034 71.1651C11.8517 71.2318 12.0503 71.2851 12.2985 71.3518C12.3929 71.2972 12.5006 71.193 12.5818 71.1881C12.7755 71.1603 12.8978 71.2997 12.9573 71.4755C13.0118 71.57 13.0664 71.6646 13.1391 71.7907C13.2118 71.9168 13.1405 72.0841 12.9517 72.1932C12.7629 72.3023 12.723 72.4514 12.8139 72.609C12.9594 72.8612 13.1048 73.1134 13.2503 73.3655C13.2685 73.397 13.3363 73.4419 13.386 73.4552C13.4356 73.4686 13.4853 73.4819 13.5482 73.4455C13.6608 73.4225 13.7685 73.3182 13.8496 73.3134C14.0615 73.317 14.1209 73.4928 14.2119 73.6504C14.172 73.7996 14.1503 73.9802 14.1105 74.1293C14.2098 74.156 14.3405 74.1645 14.458 74.2227C14.5077 74.236 14.5573 74.2493 14.6252 74.2942C14.7161 74.4518 14.807 74.6094 14.8797 74.7355C14.9888 74.9246 15.0881 74.9513 15.3266 74.8555C15.3895 74.8191 15.421 74.801 15.4839 74.7646C15.5965 74.7416 15.7273 74.75 15.7818 74.8446C15.8909 75.0337 16.0182 75.2544 16.1273 75.4435C16.3455 75.8218 16.3769 75.8036 16.8042 75.5987C16.8441 75.4496 16.9154 75.2823 16.9553 75.1331C17.3525 75.2398 17.7497 75.3465 18.1287 75.4217C18.256 75.6423 18.3651 75.8315 18.4742 76.0206C18.484 76.183 18.4077 76.2691 18.3084 76.2425C18.2588 76.2291 18.2091 76.2158 18.1413 76.1709C18.0553 76.0946 18.0322 75.9818 17.9462 75.9054C17.928 75.8739 17.8287 75.8472 17.7972 75.8654C17.7028 75.92 17.6763 76.0194 17.749 76.1455C17.8581 76.3346 17.9224 76.5916 18.1259 76.7262C18.2616 76.8159 18.4735 76.8195 18.6224 76.8596C18.6721 76.8729 18.7217 76.8862 18.8029 76.8814C18.9917 76.7723 19.1805 76.6631 19.4008 76.5358C19.649 76.6025 19.8476 76.6559 20.0959 76.7226C20.1504 76.8171 20.205 76.9117 20.2595 77.0062C20.2777 77.0378 20.2511 77.1372 20.2197 77.1554C20.2064 77.2051 20.1749 77.2233 20.1253 77.2099C19.963 77.2196 19.8043 77.0172 19.7015 77.2026C19.5987 77.3881 19.8022 77.5227 19.8434 77.667C19.8798 77.73 19.898 77.7615 19.9343 77.8246C19.9889 77.9192 20.0931 78.027 20.2057 78.004C20.3497 77.9628 20.5253 77.9034 20.5784 77.7046C20.605 77.6051 20.6449 77.456 20.6714 77.3566C20.8204 77.3966 21.019 77.45 21.1679 77.49C21.2176 77.5033 21.2987 77.4985 21.3169 77.53C21.4029 77.6064 21.4575 77.7009 21.512 77.7955C21.5302 77.827 21.5351 77.9082 21.5218 77.9579C21.4952 78.0574 21.4141 78.0622 21.2651 78.0222C20.9987 77.924 21.0169 77.9555 20.9505 78.204C20.9106 78.3532 20.8889 78.5338 20.8491 78.6829C20.9484 78.7096 20.998 78.7229 21.0477 78.7363C21.2281 78.7581 21.3637 78.8478 21.4232 79.0236C21.4777 79.1182 21.5952 79.1764 21.7078 79.1533C21.7575 79.1667 21.8022 79.0988 21.8652 79.0624C21.8288 78.9994 21.7791 78.986 21.7742 78.9048C21.7826 78.7739 21.8092 78.6744 21.9036 78.6199C22.061 78.529 22.1687 78.4247 22.1903 78.2441C22.1987 78.1131 22.2435 78.0452 22.3561 78.0222C22.4868 78.0307 22.5547 78.0755 22.5959 78.2198C22.6141 78.2513 22.6505 78.3144 22.705 78.4089C22.854 78.449 22.9848 78.4574 23.1652 78.4793C23.1568 78.6102 23.0987 78.7278 23.0043 78.7823C22.9099 78.8369 22.8155 78.8915 22.7575 79.0091C22.7442 79.0588 22.6994 79.1267 22.7176 79.1582C22.7358 79.1897 22.8351 79.2164 22.8666 79.1982C23.0918 79.1521 23.2624 79.0115 23.4512 78.9024C23.5456 78.8478 23.6764 78.8563 23.7624 78.9327C23.812 78.946 23.8169 79.0272 23.8533 79.0903C23.9295 79.0042 24.0107 78.9994 24.11 79.026C24.2093 79.0527 24.2771 79.0976 24.3002 79.2103C24.3764 79.1242 24.489 79.1012 24.6065 79.1594C24.6561 79.1727 24.7058 79.1861 24.724 79.2176C24.7967 79.3437 24.8876 79.5013 25.3128 79.8019C25.2498 79.8383 25.1687 79.8432 25.0512 79.785C24.9156 79.6953 24.9421 79.5958 25.1044 79.5861C25.217 79.5631 25.3345 79.6213 25.3394 79.7025C25.3575 79.734 25.331 79.8335 24.947 79.6771C24.8526 79.7316 24.7582 79.7862 24.6323 79.8589C24.6687 79.922 24.7365 79.9668 24.7233 80.0165C24.6834 80.1656 24.6121 80.333 24.5722 80.4821C24.6715 80.5088 24.7212 80.5221 24.7708 80.5354C25.4827 80.4603 25.4827 80.4603 25.8485 80.5851C25.8981 80.5985 25.903 80.6797 25.9394 80.7427C26.0338 80.6882 26.1282 80.6336 26.2541 80.5609C26.1499 80.453 26.145 80.3717 26.203 80.2542C26.2345 80.236 26.2659 80.2178 26.2974 80.1996C26.4876 80.3839 26.5555 80.4287 26.5967 80.573ZM71.3786 17.1632C71.4101 17.145 71.473 17.1087 71.5045 17.0905C71.6171 17.0675 71.7346 17.1256 71.7891 17.2202C71.8437 17.3148 71.8982 17.4093 71.9213 17.5221C71.9395 17.5536 71.9129 17.653 71.8814 17.6712C71.8185 17.7076 71.6877 17.6991 71.6332 17.6045C71.5108 17.4651 71.4695 17.3208 71.3786 17.1632C71.3471 17.1814 71.2842 17.2178 71.2527 17.236C71.1401 17.259 71.0227 17.2008 70.9681 17.1062C70.9136 17.0117 70.859 16.9171 70.8359 16.8044C70.8178 16.7729 70.8443 16.6734 70.8758 16.6553C70.9387 16.6189 71.0695 16.6274 71.1241 16.7219C71.2464 16.8614 71.3059 17.0371 71.3786 17.1632ZM47.4614 1.5226C47.3355 1.59534 47.1781 1.68626 47.0523 1.759C47.0208 1.77719 46.9711 1.76385 46.9215 1.75051C46.7907 1.74203 46.7676 1.62928 46.8753 1.52502C46.9648 1.38924 47.0907 1.31649 47.2711 1.33832C47.4019 1.3468 47.4697 1.39166 47.8453 1.67899C47.7823 1.71536 47.7012 1.72021 47.5837 1.66202C47.4481 1.5723 47.4746 1.47289 47.6369 1.46319C47.7495 1.44015 47.867 1.49835 47.8718 1.57958C47.8404 1.59776 47.8453 1.67899 47.4614 1.5226ZM87.4216 41.5571C87.458 41.6201 87.4629 41.7013 87.4048 41.8189C87.3153 41.9547 87.216 41.928 87.2062 41.7656C87.1831 41.6528 87.2412 41.5352 87.3223 41.5304C87.3538 41.5122 87.4531 41.5389 87.2971 41.9232C87.3699 42.0493 87.4608 42.2069 87.5335 42.333C87.5517 42.3645 87.5384 42.4142 87.5251 42.4639C87.5167 42.5948 87.4041 42.6179 87.2999 42.51C87.1643 42.4203 87.0915 42.2942 87.1132 42.1135C87.0901 42.0008 87.1349 41.9329 87.4216 41.5571ZM64.7337 13.354C64.7652 13.3358 64.8099 13.2679 64.8596 13.2813C65.1079 13.3479 65.3694 13.3649 65.6226 13.5128C65.6953 13.6389 65.7862 13.7965 66.2953 14.6791C66.1498 14.4269 66.0044 14.1748 65.8589 13.9226C65.9219 13.8862 65.9533 13.868 66.0163 13.8317C66.1156 13.8583 66.2331 13.9165 66.3324 13.9432C66.5624 13.9784 66.7792 14.0632 66.875 14.3021C67.0107 14.3918 67.1911 14.4136 67.3583 14.4851C67.4261 14.53 67.4855 14.7058 67.5534 14.7506C67.8562 14.9119 68.217 14.9555 68.5331 15.0671C68.5876 15.1616 68.6422 15.2562 68.7149 15.3823C68.8639 15.4223 69.0443 15.4441 69.2114 15.5156C69.3107 15.5423 69.4282 15.6005 69.559 15.609C69.7576 15.6623 69.7541 15.8745 69.8898 15.9642C70.0254 16.0539 70.2192 16.026 70.373 16.1473C70.4772 16.2552 70.5366 16.431 70.4653 16.5983C70.4157 16.5849 70.366 16.5716 70.3164 16.5583C70.2171 16.5316 70.1178 16.5049 69.9688 16.4649C69.9059 16.5013 69.8744 16.5195 69.8115 16.5558C69.6226 16.6649 69.4919 16.6565 69.401 16.4989C69.3464 16.4043 69.2919 16.3097 69.1744 16.2515C69.0072 16.18 68.8135 16.2079 68.7226 16.0503C68.6086 15.7799 68.3653 15.7945 68.1667 15.7411C68.0177 15.7011 67.8191 15.6478 67.6701 15.6078C67.4883 15.2926 67.4883 15.2926 67.1589 15.2307C67.1093 15.2174 67.0596 15.2041 67.01 15.1907C66.9554 15.0962 66.9009 15.0016 66.8464 14.907C66.6974 14.867 66.5303 14.7955 65.9135 14.0172C65.882 14.0353 65.8372 14.1032 65.7876 14.0899C65.5393 14.0232 65.2778 14.0062 65.0246 13.8583C64.9519 13.7323 64.861 13.5746 64.7155 13.3225C64.7106 13.2412 64.6974 13.291 64.7337 13.354C64.7023 13.3722 64.6393 13.4086 64.6079 13.4267C64.4953 13.4498 64.3778 13.3916 64.3729 13.3104C64.3547 13.2788 64.3813 13.1794 64.4127 13.1612C64.4757 13.1249 64.575 13.1515 64.7337 13.354ZM25.9575 8.90581C25.777 8.88399 25.6281 8.84398 25.4477 8.82215C25.456 8.69122 25.5141 8.57362 25.6085 8.51907C25.7029 8.46451 25.7973 8.40996 25.8917 8.3554C25.9861 8.30084 26.0805 8.24629 26.1931 8.22326C26.405 8.22689 26.433 8.42087 26.5057 8.54695C26.4924 8.59666 26.4791 8.64637 26.4659 8.69607C26.4393 8.79549 26.4127 8.8949 26.3728 9.04402C26.3596 9.09373 26.3463 9.14343 26.333 9.19314C26.2931 9.34226 26.0232 9.45622 25.7749 9.38954C25.8644 9.25376 25.9043 9.10464 25.9575 8.90581ZM29.696 6.36714C29.7044 6.23621 29.7624 6.11861 29.8568 6.06405C30.0142 5.97313 30.14 5.90038 30.2974 5.80946C30.4233 5.73672 30.5904 5.80825 30.6813 5.96586C30.7359 6.06042 30.7904 6.15498 30.845 6.24955C30.9492 6.35745 30.9541 6.43868 30.896 6.55627C30.8694 6.65569 30.7701 6.62901 30.6212 6.58901C30.3414 6.54051 30.0254 6.42897 29.696 6.36714ZM44.8501 2.23303C44.8005 2.2197 44.7508 2.20636 44.7012 2.19302C44.6019 2.16635 44.4844 2.10816 44.3718 2.13119C44.241 2.12271 44.1732 2.07785 44.1501 1.9651C44.1585 1.83417 44.2032 1.76628 44.3473 1.72506C44.3788 1.70687 44.4417 1.6705 44.5047 1.63413C44.5543 1.64747 44.604 1.6608 44.6536 1.67414C44.7529 1.70081 44.8704 1.759 44.983 1.73597C45.1138 1.74445 45.1816 1.78931 45.2047 1.90206C45.1963 2.03299 45.1515 2.10088 45.0075 2.1421C44.9445 2.17848 44.913 2.19666 44.8501 2.23303ZM16.007 74.7985C16.0867 74.5003 16.1944 74.396 16.456 74.413C16.6679 74.4166 16.6958 74.6106 16.7686 74.7367C16.7867 74.7682 16.742 74.8361 16.7287 74.8858C16.7154 74.9355 16.6525 74.9719 16.6343 74.9404C16.4539 74.9186 16.2056 74.8519 16.007 74.7985ZM32.4303 4.99718C32.4932 4.96081 32.5247 4.94263 32.5876 4.90626C32.6821 4.8517 32.7814 4.87837 32.8988 4.93657C32.8904 5.0675 32.8457 5.13539 32.7695 5.22147C32.7065 5.25784 32.6751 5.27603 32.6121 5.3124C32.5177 5.36695 32.4184 5.34028 32.3009 5.28209C32.3093 5.15115 32.3359 5.05174 32.4303 4.99718ZM87.4405 40.7896C87.4272 40.8393 87.4139 40.8891 87.4006 40.9388C87.3559 41.0066 87.2748 41.0115 87.1573 40.9533C87.1706 40.9036 87.1838 40.8539 87.1971 40.8042C87.1922 40.723 87.2734 40.7181 87.4405 40.7896ZM81.9858 18.0943C81.9725 18.144 81.9592 18.1938 81.9459 18.2435C81.9012 18.3113 81.8201 18.3162 81.7026 18.258C81.7159 18.2083 81.7292 18.1586 81.7424 18.1089C81.7872 18.041 81.8683 18.0361 81.9858 18.0943ZM5.07529 45.5177C5.14312 45.5626 5.14802 45.6438 5.08997 45.7614C5.04032 45.7481 4.99066 45.7347 4.94102 45.7214C4.87318 45.6765 4.86829 45.5953 4.92633 45.4777C4.97598 45.491 5.02563 45.5044 5.07529 45.5177ZM5.32494 42.0952C5.36969 42.0273 5.45081 42.0225 5.56829 42.0807C5.55501 42.1304 5.54173 42.1801 5.52843 42.2298C5.48368 42.2977 5.40256 42.3025 5.28507 42.2444C5.29836 42.1946 5.31165 42.1449 5.32494 42.0952ZM60.9924 3.95824C61.0057 3.90853 61.019 3.85882 61.0322 3.80911C61.163 3.8176 61.2309 3.86246 61.2357 3.94369C61.2225 3.99339 61.2092 4.0431 61.1959 4.09281C61.0651 4.08432 60.9973 4.03946 60.9924 3.95824ZM49.8334 1.70688C49.7887 1.77477 49.7075 1.77962 49.5901 1.72142C49.6033 1.67172 49.6166 1.62201 49.6299 1.5723C49.6747 1.50441 49.7558 1.49956 49.8733 1.55776C49.86 1.60746 49.8467 1.65717 49.8334 1.70688ZM39.8472 2.43428C39.9151 2.47913 39.9199 2.56036 39.8619 2.67796C39.8123 2.66462 39.7626 2.65129 39.713 2.63795C39.6451 2.59309 39.6402 2.51187 39.6983 2.39427C39.7479 2.4076 39.7976 2.42094 39.8472 2.43428ZM29.3463 6.77934C29.2967 6.76601 29.247 6.75267 29.1974 6.73933C29.1295 6.69448 29.1246 6.61325 29.1827 6.49565C29.2323 6.50899 29.282 6.52233 29.3316 6.53566C29.3813 6.549 29.3862 6.63022 29.3463 6.77934ZM79.448 14.3494C79.4298 14.3178 79.4564 14.2184 79.4879 14.2002C79.5193 14.1821 79.5508 14.1639 79.5823 14.1457C79.6319 14.159 79.713 14.1542 79.7494 14.2172C79.8718 14.3566 80.2109 14.5809 80.4277 14.6658C80.5914 14.9495 80.8047 15.2465 80.9054 15.5666C80.9235 15.5981 80.897 15.6975 80.8655 15.7157C80.834 15.7339 80.7844 15.7205 80.7347 15.7072C80.6354 15.6805 80.5809 15.586 80.5082 15.4599C80.4536 15.3653 80.3361 15.3071 80.2235 15.3302C80.1739 15.3168 80.1291 15.3847 80.0662 15.4211C79.8165 15.061 79.6165 14.7143 79.448 14.3494ZM76.2179 11.0045C76.2046 11.0542 76.1913 11.1039 76.178 11.1536C76.0472 11.1451 75.9794 11.1002 75.8934 11.0239C75.771 10.8844 75.7199 10.5777 75.8325 10.5547C75.9451 10.5317 76.0626 10.5898 76.1171 10.6844C76.1535 10.7475 76.1717 10.779 76.2081 10.842C76.1948 10.8917 76.2311 10.9548 76.2179 11.0045ZM77.0186 11.5925C77.0731 11.687 77.0465 11.7864 76.9885 11.904C76.8577 11.8955 76.7899 11.8507 76.7039 11.7743C76.6675 11.7113 76.6493 11.6797 76.613 11.6167C76.5584 11.5221 76.585 11.4227 76.643 11.3051C76.7738 11.3136 76.8416 11.3585 76.9277 11.4349C76.964 11.4979 76.9822 11.5294 77.0186 11.5925ZM78.6725 13.3686C78.8032 13.3771 78.8711 13.4219 78.876 13.5031C78.8627 13.5528 78.8494 13.6026 78.8361 13.6523C78.7053 13.6438 78.6375 13.5989 78.6326 13.5177C78.6144 13.4862 78.6592 13.4183 78.6725 13.3686ZM78.4906 13.0534C78.3599 13.0449 78.292 13 78.2871 12.9188C78.3004 12.8691 78.3137 12.8194 78.327 12.7697C78.4578 12.7781 78.5256 12.823 78.5305 12.9042C78.5172 12.9539 78.5039 13.0036 78.4906 13.0534ZM45.676 0.536948C45.6215 0.442385 45.5669 0.347821 45.4942 0.221736C45.5704 0.135658 45.6515 0.130809 45.7508 0.157481C45.8501 0.184153 45.918 0.229007 45.941 0.341756C45.8648 0.427833 45.7704 0.482392 45.676 0.536948ZM12.4782 17.3256C12.4285 17.3123 12.3789 17.2989 12.3292 17.2856C12.2614 17.2407 12.2565 17.1595 12.3145 17.0419C12.3642 17.0552 12.4138 17.0686 12.4635 17.0819C12.5313 17.1268 12.5362 17.208 12.4782 17.3256ZM37.3458 2.5349C37.2961 2.52156 37.2465 2.50823 37.1968 2.49489C37.129 2.45003 37.1241 2.3688 37.1821 2.2512C37.2318 2.26454 37.2814 2.27788 37.3311 2.29121C37.4304 2.31789 37.4353 2.39911 37.3458 2.5349ZM24.6785 80.0844C24.6156 80.1208 24.5708 80.1887 24.5212 80.1753C24.3722 80.1353 24.2051 80.0638 24.0743 80.0553C23.9484 80.1281 23.854 80.1826 23.7596 80.2372C23.7281 80.2554 23.6603 80.2105 23.6106 80.1972C23.561 80.1838 23.5246 80.1208 23.5561 80.1026C23.6974 79.4746 23.6974 79.4746 23.8862 79.3655C23.9093 79.4782 23.9771 79.5231 24.0764 79.5498C24.1757 79.5764 24.2568 79.5716 24.333 79.4855C24.4421 79.6746 24.5512 79.8638 24.6785 80.0844ZM25.9673 80.9367C26.017 80.95 26.0534 81.0131 26.0401 81.0628C26.0631 81.1755 26.0051 81.2931 25.924 81.298C25.8925 81.3162 25.7932 81.2895 25.775 81.258C25.7387 81.1949 25.7338 81.1137 25.7918 80.9961C25.9044 80.9731 25.9492 80.9052 25.9673 80.9367ZM26.7785 80.8882C26.7023 80.9743 26.6212 80.9791 26.5219 80.9525C26.4226 80.9258 26.3548 80.8809 26.3317 80.7682C26.4261 80.7136 26.5205 80.6591 26.6464 80.5863C26.6513 80.6676 26.7058 80.7621 26.7785 80.8882ZM21.9029 79.4188C21.7673 79.3291 21.7938 79.2297 21.9561 79.22C22.0687 79.197 22.1861 79.2552 22.191 79.3364C22.2092 79.3679 22.1826 79.4673 22.1512 79.4855C22.0882 79.5219 21.9889 79.4952 21.9029 79.4188Z" fill="#E8E8E8"/>
</svg>
