<?xml version="1.0" encoding="UTF-8"?>
<!DOCTYPE svg  PUBLIC '-//W3C//DTD SVG 1.1//EN'  'http://www.w3.org/Graphics/SVG/1.1/DTD/svg11.dtd'>
<svg version="1.1" xmlns="http://www.w3.org/2000/svg">
<defs>
<font id="PFGrandGothikCompressed-Reg" horiz-adv-x="836">
<font-face font-family="PF Grand Gothik Compressed" font-weight="400" ascent="800" bbox="-150 -240 954 865" cap-height="651" descent="-200" panose-1="0 0 0 0 0 0 0 0 0 0" underline-position="-125" underline-thickness="50" unicode-range="U+0002-FB05" units-per-em="1000" x-height="488"/>
<missing-glyph d="M0 0v703h333v-703h-333zM286 92v522q-48 -127 -99 -263zM41 613v-521q14 37 99 259l-44 116q-41 109 -55 146zM64 41h199q-46 123 -99 259zM164 405l99 259h-199q8 -21 42 -108q46 -120 58 -151z" horiz-adv-x="333"/>
<glyph d="M3 418v70h49v59q0 127 100 143q17 3 35 3q52 -1 89 -16v-78q-48 16 -79 16q-49 0 -60 -32q-4 -14 -4 -33v-62h181l-1 -524q0 -108 -60 -133q-23 -9 -52 -9q-21 0 -44 6l-7 72q23 -7 36 -7q43 2 44 56v469h-96v-418h-82v418h-49z" glyph-name="uniE1F8" horiz-adv-x="355" unicode="fj"/>
<glyph d="M3 418v70h51v39q0 112 87 148q32 13 70 13q26 0 49 -4q34 40 106 40q52 -1 89 -16v-78q-48 16 -79 16q-49 0 -60 -32q-4 -14 -4 -33v-93h181l-1 -514q0 -108 -60 -133q-23 -9 -52 -9q-21 0 -44 6l-7 72q23 -7 36 -7q43 2 44 56v459h-96v-418h-82v418h-94v-418h-83v418 h-51zM137 528v-40h94v90q0 23 2 35h-12q-83 -2 -84 -85z" glyph-name="uniE1F9" horiz-adv-x="534" unicode="ffj"/>
<glyph d="M7 417v71h47v123h80v-123h108v123h80v-123h82v-71h-82v-308q2 -40 34 -41q18 0 54 14v-75q-38 -16 -73 -16q-81 0 -93 86q-2 14 -2 28v312h-108v-308q2 -40 34 -41q18 0 54 14v-75q-38 -16 -73 -16q-81 0 -93 86q-2 14 -2 28v312h-47z" glyph-name="uniE1FA" horiz-adv-x="413" unicode="tt"/>
<glyph d="M7 417v71h47v128l80 25v-153h108v128l80 25v-153h82v-71h-82v-308q2 -40 34 -41q18 0 54 14v-75q-38 -16 -73 -16q-81 0 -93 86q-2 14 -2 28v312h-108v-308q2 -40 34 -41q18 0 54 14v-75q-38 -16 -73 -16q-81 0 -93 86q-2 14 -2 28v312h-47z" glyph-name="uniE1FB" horiz-adv-x="413" unicode=""/>
<glyph d="M5 479q53 0 68 38q10 27 11 99h59v-128h53q53 0 66 35q7 23 9 93h59v-128h78v-71h-78v-308q2 -40 34 -41q18 0 54 14v-75q-38 -16 -73 -16q-81 0 -93 86q-2 14 -2 28v312h-107v-308q2 -40 34 -41q18 0 54 14v-75q-38 -16 -73 -16q-81 0 -93 86q-2 14 -2 28v312h-58v62z " glyph-name="uniE1FC" horiz-adv-x="421" unicode=""/>
<glyph d="M3 488h51v39q0 112 87 148q32 13 70 13q23 0 43 -4q29 39 94 39q17 0 43 -5v-82q-20 7 -39 7q-30 0 -37 -26q-3 -13 -3 -34v-95h77v-71h-76v-417h-82v418h-94v-418h-83v418h-51v70zM137 488h94v84q0 28 1 41h-11q-83 -2 -84 -85v-40z" glyph-name="f_f" horiz-adv-x="391" unicode="ff"/>
<glyph d="M52 418h-49v70h49v56q0 127 100 143q17 3 35 3q52 -1 89 -16v-78q-48 16 -79 16q-49 0 -60 -32q-4 -14 -4 -33v-59h182v-488h-86v418h-95v-418h-82v418z" glyph-name="fi" horiz-adv-x="355" unicode="fi"/>
<glyph d="M52 418h-49v70h49v43q2 154 135 155q32 0 67 -11h62v-675h-84v604q-27 9 -44 9q-52 -6 -55 -60v-65h73v-70h-72v-418h-82v418z" glyph-name="fl" horiz-adv-x="356" unicode="fl"/>
<glyph d="M3 488h51v19q0 112 87 148q32 13 70 13q26 0 49 -4q34 40 106 40q52 -1 89 -16v-78q-48 16 -79 16q-49 0 -60 -32q-4 -14 -4 -33v-73h182v-488h-86v418h-95v-418h-82v418h-94v-418h-83v418h-51v70zM137 508v-20h94v70q0 23 2 35h-12q-83 -2 -84 -85z" glyph-name="f_f_i" horiz-adv-x="534" unicode="ffi"/>
<glyph d="M54 418h-51v70h51v29q0 112 87 148q32 13 70 13q36 0 66 -8q32 25 89 25q35 0 67 -9h62v-686h-84v618q-21 7 -41 7q-57 -2 -58 -81v-56h73v-70h-72v-418h-82v418h-94v-418h-83v418zM137 518v-30h94v49q0 35 6 65q-12 3 -22 3q-49 0 -70 -46q-8 -19 -8 -41z" glyph-name="f_f_l" horiz-adv-x="535" unicode="ffl"/>
<glyph d="M5 489h51v54q0 104 45 134q28 17 72 17q17 0 43 -5v-82q-20 7 -39 7q-30 0 -37 -26q-3 -13 -3 -34v-66h99v117h80v-117h82v-71h-82v-308q2 -40 34 -41q18 0 54 14v-75q-38 -16 -73 -16q-81 0 -93 86q-2 14 -2 28v312h-98v-417h-82v417h-51v72z" glyph-name="longs_t" horiz-adv-x="408" unicode="ft"/>
<glyph d="M0 0v703h333v-703h-333zM286 92v522q-48 -127 -99 -263zM41 613v-521q14 37 99 259l-44 116q-41 109 -55 146zM64 41h199q-46 123 -99 259zM164 405l99 259h-199q8 -21 42 -108q46 -120 58 -151z" glyph-name=".notdef" horiz-adv-x="333"/>
<glyph glyph-name="uni0000" horiz-adv-x="0"/>
<glyph glyph-name="uni0000" horiz-adv-x="0"/>
<glyph glyph-name="uni000D" horiz-adv-x="250" unicode=""/>
<glyph glyph-name="uni0002" horiz-adv-x="333"/>
<glyph glyph-name="uni0009" horiz-adv-x="80" unicode="	"/>
<glyph glyph-name="uni000A" horiz-adv-x="333" unicode="
"/>
<glyph glyph-name="space" horiz-adv-x="175" unicode=" "/>
<glyph d="M94 0v100h100v-100h-100zM123 169l-23 207v275h87v-274l-22 -208h-42z" glyph-name="exclam" horiz-adv-x="275" unicode="!"/>
<glyph d="M210 429l11 222h92l-49 -222h-54zM65 429l11 222h91l-49 -222h-53z" glyph-name="quotedbl" horiz-adv-x="369" unicode='"'/>
<glyph d="M100 208h-74l7 73h75l10 97h-75l8 72h75l22 201h78l-21 -201h89l22 201h79l-22 -201h75l-8 -72h-75l-10 -97h75l-8 -73h-75l-21 -208h-79l22 208h-90l-21 -208h-79zM187 281h90l10 97h-90z" glyph-name="numbersign" horiz-adv-x="471" unicode="#"/>
<glyph d="M101 -83l7 80q-70 28 -91 121l71 38q10 -48 27 -71l19 223q-63 72 -81 104q-24 45 -24 90q0 112 74 146q28 12 61 12l7 78l45 -3l-7 -86q59 -26 83 -109l-68 -36q-12 37 -23 53l-15 -180q61 -66 81 -101q31 -56 31 -119q0 -98 -59 -144q-33 -25 -76 -25h-10l-6 -74z M159 62h2q53 1 53 86q-1 52 -38 108zM112 513q1 -45 32 -88l14 158q-38 0 -45 -54q-1 -8 -1 -16z" glyph-name="dollar" horiz-adv-x="319" unicode="$"/>
<glyph d="M464 -8q-111 7 -113 188q4 187 114 190q98 0 111 -148q2 -20 2 -42q0 -158 -83 -184q-15 -4 -31 -4zM465 55q36 0 41 111v15q0 93 -28 120q-7 6 -14 6q-37 0 -41 -110v-14q0 -93 27 -121q8 -7 15 -7zM146 283q-103 0 -113 157q-1 15 -1 31q0 164 88 187q13 3 27 3 q112 -2 113 -190q0 -147 -74 -180q-19 -8 -40 -8zM147 346q17 2 27 28q14 34 14 98q0 93 -28 120q-7 6 -14 6q-35 0 -41 -106v-17q0 -95 27 -122q8 -7 15 -7zM187 -21h-58l295 696h59z" glyph-name="percent" horiz-adv-x="612" unicode="%"/>
<glyph d="M475 0h-101q-2 3 -24 37q-21 33 -23 37q-70 -83 -153 -84q-84 0 -120 75q-19 40 -19 94q1 122 112 217q-57 87 -57 147q0 89 58 131q32 23 72 23q75 0 111 -62q19 -34 19 -77q0 -82 -62 -153q-13 -15 -30 -32q3 -5 36 -61q33 -55 36 -61q11 28 16 88h79q-6 -102 -45 -168 q8 -13 48 -75q39 -63 47 -76zM186 70q49 0 95 74q1 3 2 4q-69 120 -93 160q-70 -64 -71 -138q0 -89 55 -99q6 -1 12 -1zM216 419q46 54 50 119q0 50 -32 59q-5 1 -10 1q-38 0 -45 -55q-1 -8 -1 -14q1 -57 38 -110z" glyph-name="ampersand" horiz-adv-x="474" unicode="&amp;"/>
<glyph d="M75 429l11 222h91l-49 -222h-53z" glyph-name="quotesingle" horiz-adv-x="230" unicode="'"/>
<glyph d="M226 -93l-45 -35q-99 116 -137 277q-16 70 -16 136q0 183 98 347q26 43 55 78l47 -34q-86 -123 -113 -286q-9 -53 -9 -100q0 -167 83 -322q18 -33 37 -61z" glyph-name="parenleft" horiz-adv-x="241" unicode="("/>
<glyph d="M56 -128l-45 35q89 126 113 292q7 47 7 91q0 155 -77 309q-21 43 -45 77l47 34q101 -119 138 -286q15 -71 15 -139q0 -173 -96 -334q-27 -44 -57 -79z" glyph-name="parenright" horiz-adv-x="241" unicode=")"/>
<glyph d="M63 429l63 76l-95 27l19 58l93 -38l-6 98h61l-7 -98q38 14 94 38l19 -58l-96 -27l64 -76l-51 -38l-54 85l-54 -85z" glyph-name="asterisk" horiz-adv-x="332" unicode="*"/>
<glyph d="M30 349h102v116h78v-116h107v-75h-107v-115h-78v115h-102v75z" glyph-name="plus" horiz-adv-x="347" unicode="+"/>
<glyph d="M50 -123l-17 44q52 6 58 47q1 13 0 28h-33v113h98v-87q0 -102 -54 -131q-22 -11 -52 -14z" glyph-name="comma" horiz-adv-x="230" unicode=","/>
<glyph d="M59 236v86h213v-86h-213z" glyph-name="hyphen" horiz-adv-x="333" unicode="-"/>
<glyph d="M56 0v112h98v-112h-98z" glyph-name="period" horiz-adv-x="208" unicode="."/>
<glyph d="M-1 -79l354 806h84l-354 -806h-84z" glyph-name="slash" horiz-adv-x="440" unicode="/"/>
<glyph d="M177 -10q-94 0 -126 115q-21 77 -21 220q0 239 65 304q33 32 83 32q94 0 126 -115q21 -77 21 -220q0 -228 -56 -296q-34 -40 -92 -40zM178 69q26 0 40 43q1 1 1 2q17 60 17 211q0 220 -39 250q-9 7 -20 7q-34 0 -47 -72v-2q-11 -64 -11 -182q0 -240 50 -256q5 -1 9 -1z " glyph-name="zero" horiz-adv-x="355" unicode="0"/>
<glyph d="M97 0v534l-79 -48v93l108 72h57v-651h-86z" glyph-name="one" horiz-adv-x="268" unicode="1"/>
<glyph d="M39 0v18q0 153 50 248q24 43 68 99q67 87 68 144q0 62 -40 72q-6 1 -12 1q-38 0 -53 -61q-3 -11 -5 -23q-3 1 -41 10q-37 10 -41 11q25 117 105 137q20 5 42 5q84 0 116 -74q15 -34 15 -75q-1 -82 -92 -200q-72 -94 -85 -167q-6 -30 -6 -65h175v-80h-264z" glyph-name="two" horiz-adv-x="357" unicode="2"/>
<glyph d="M111 318v71h15q60 0 76 32q11 24 11 83q-6 71 -48 78q-41 0 -57 -81v-2l-75 27q24 126 120 134q7 1 14 1q81 0 115 -75q16 -36 16 -80q-1 -111 -79 -145v-4q84 -29 85 -167q0 -132 -73 -180q-31 -20 -70 -20q-84 0 -117 85q-11 28 -19 66q3 1 40 13q36 11 40 12 q14 -96 59 -97q39 0 51 83q2 18 2 34q0 105 -55 125q-18 7 -42 7h-9z" glyph-name="three" horiz-adv-x="344" unicode="3"/>
<glyph d="M209 144h-189v58q6 14 62 139q126 285 137 310h66v-434h43v-73h-43v-144h-76v144zM104 217h106v238q-4 -10 -53 -119q-48 -108 -53 -119z" glyph-name="four" horiz-adv-x="358" unicode="4"/>
<glyph d="M37 142l79 21q5 -77 43 -91q6 -2 12 -2q56 2 56 150q-1 137 -49 138q-30 -1 -50 -43l-73 18l11 318h237v-81h-160l-8 -156q27 23 62 23q117 -2 118 -215q0 -212 -123 -230q-11 -2 -23 -2q-85 0 -119 92q-10 28 -13 60z" glyph-name="five" horiz-adv-x="358" unicode="5"/>
<glyph d="M181 -10q-112 0 -134 163q-7 52 -7 144q0 246 56 320q34 44 90 44q103 0 121 -137q1 -6 1 -10q-3 -1 -38 -10q-34 -9 -38 -10q-10 87 -46 88q-39 0 -50 -92q-6 -48 -7 -127l4 -1q31 33 69 33q84 0 109 -113q9 -40 9 -89q0 -124 -63 -177q-33 -26 -76 -26zM182 69 q51 2 51 120q-1 122 -55 123q-24 -1 -46 -22q-9 -82 6 -156q14 -64 44 -65z" glyph-name="six" horiz-adv-x="358" unicode="6"/>
<glyph d="M158 0h-83q1 365 133 571h-172v80h260v-80q-99 -154 -124 -325q-14 -97 -14 -246z" glyph-name="seven" horiz-adv-x="307" unicode="7"/>
<glyph d="M111 353l1 6q-59 35 -59 132q0 100 57 146q32 24 72 24q93 0 120 -98q9 -33 9 -71q0 -69 -38 -112q-11 -12 -22 -19l-2 -5q67 -37 67 -160q0 -171 -98 -201q-18 -5 -38 -5q-99 0 -125 120q-8 38 -8 85q1 126 64 158zM183 69q47 2 47 127q0 107 -41 119q-4 1 -8 1 q-39 0 -46 -83q-2 -17 -2 -36q1 -127 50 -128zM182 397q44 2 44 91q-1 94 -44 95q-44 -2 -44 -92q1 -93 44 -94z" glyph-name="eight" horiz-adv-x="358" unicode="8"/>
<glyph d="M174 -10q-92 0 -118 108q-5 19 -7 39q3 1 31 8l48 12q10 -87 46 -88q33 0 45 58q11 50 12 161l-4 1q-31 -33 -69 -33q-84 0 -109 113q-9 40 -9 89q0 124 63 177q33 26 76 26q112 0 134 -163q7 -52 7 -144q0 -224 -39 -299q-35 -64 -107 -65zM182 339q24 1 46 22 q9 85 -6 157q-14 63 -44 64q-51 -2 -51 -120q1 -122 55 -123z" glyph-name="nine" horiz-adv-x="358" unicode="9"/>
<glyph d="M67 0v112h98v-112h-98zM67 420h98v-112h-98v112z" glyph-name="colon" horiz-adv-x="230" unicode=":"/>
<glyph d="M63 -123l-17 44q52 6 58 47q1 13 0 28h-33v113h98v-87q0 -100 -49 -129q-23 -13 -57 -16zM71 308v112h98v-112h-98z" glyph-name="semicolon" horiz-adv-x="237" unicode=";"/>
<glyph d="M26 354q8 6 128 84q120 77 129 83v-84q-7 -5 -89 -59q-82 -53 -90 -58q6 -4 90 -58q83 -55 89 -59v-90q-176 117 -257 169v72z" glyph-name="less" horiz-adv-x="313" unicode="&lt;"/>
<glyph d="M39 201v77h266v-77h-266zM39 435h266v-77h-266v77z" glyph-name="equal" horiz-adv-x="345" unicode="="/>
<glyph d="M28 113v90l180 117q-4 2 -90 58t-90 59v84q5 -3 129 -83q123 -80 129 -84v-72z" glyph-name="greater" horiz-adv-x="313" unicode="&gt;"/>
<glyph d="M151 0v100h100v-100h-100zM241 171h-83q0 85 56 175q45 71 51 85q16 35 16 67q0 50 -37 72q-17 10 -38 10q-63 0 -91 -90q-3 -11 -5 -21l-76 29q24 110 105 147q30 14 64 14q94 0 141 -68q27 -41 27 -95q0 -56 -49 -131q-49 -74 -60 -100q-21 -47 -21 -94z" glyph-name="question" horiz-adv-x="416" unicode="?"/>
<glyph d="M438 467l4 26h65l-33 -264q-5 -36 7 -44q7 -4 17 -4q50 0 86 64q34 62 34 150q0 132 -92 189q-51 31 -120 31q-127 0 -213 -103q-84 -100 -84 -242q0 -160 109 -222q55 -31 128 -31q88 0 181 41q1 1 2 1q1 -3 9 -29q7 -25 8 -28q-108 -43 -201 -43q-155 0 -237 107 q-63 82 -63 205q0 162 102 278q98 110 238 121q14 1 26 1q150 0 221 -103q47 -69 47 -165q0 -146 -80 -229q-52 -52 -113 -53q-48 1 -70 47q-45 -44 -95 -44q-73 0 -100 70q-13 33 -13 75q0 141 77 203q36 28 76 28q46 -1 77 -33zM341 191q31 0 59 30q6 6 10 12l18 159 q-27 40 -63 41q-47 0 -72 -67q-15 -40 -15 -88q0 -73 48 -85q8 -2 15 -2z" glyph-name="at" horiz-adv-x="730" unicode="@"/>
<glyph d="M5 0l125 651h87l125 -651h-86l-28 154h-110l-28 -154h-85zM130 228h85l-41 239z" glyph-name="A" horiz-adv-x="347" unicode="A"/>
<glyph d="M166 0h-116v651h115q149 -2 150 -168q0 -98 -69 -133q-2 -1 -3 -2v-5q67 -22 79 -114q2 -18 2 -36q-2 -192 -158 -193zM136 307v-231h29q55 0 67 62q4 22 4 52q-1 116 -80 117h-20zM136 575v-192h31q59 2 60 97q0 80 -45 92q-11 3 -24 3h-22z" glyph-name="B" horiz-adv-x="364" unicode="B"/>
<glyph d="M184 -11q-93 0 -125 124q-19 77 -19 211q0 302 115 333q15 4 31 4q105 0 129 -153q2 -14 3 -27l-40 -10q-35 -9 -39 -10q-9 107 -41 119q-6 2 -12 2q-43 0 -53 -126q-4 -52 -4 -132q0 -240 50 -254q4 -1 8 -1q40 2 55 122q4 -1 42 -10q37 -9 41 -10q-21 -181 -141 -182z " glyph-name="C" horiz-adv-x="345" unicode="C"/>
<glyph d="M50 0v651h120q105 0 138 -110q22 -71 22 -211q0 -242 -82 -304q-36 -26 -87 -26h-111zM137 77h23q46 0 64 64q17 60 17 187q0 197 -43 234q-15 12 -35 12h-26v-497z" glyph-name="D" horiz-adv-x="370" unicode="D"/>
<glyph d="M50 651h207v-81h-119v-183h78v-81h-78v-225h127v-81h-215v651z" glyph-name="E" horiz-adv-x="285" unicode="E"/>
<glyph d="M50 651h207v-81h-119v-196h78v-81h-78v-292h-88v650z" glyph-name="F" horiz-adv-x="267" unicode="F"/>
<glyph d="M277 -3l-13 48q-19 -47 -70 -54q-6 -1 -11 -1q-87 0 -118 96q-25 78 -25 238q0 314 126 335q11 2 21 2q95 0 123 -120q7 -28 9 -59l-79 -20q-9 107 -39 118q-6 2 -12 2q-59 -2 -59 -258q0 -215 35 -248q11 -9 24 -9q36 0 46 57q5 30 5 79v53h-59v77h144v-336h-48z" glyph-name="G" horiz-adv-x="365" unicode="G"/>
<glyph d="M50 651h88v-265h114v265h88v-651h-88v306h-114v-306h-88v651z" glyph-name="H" horiz-adv-x="390" unicode="H"/>
<glyph d="M50 0v651h88v-651h-88z" glyph-name="I" horiz-adv-x="188" unicode="I"/>
<glyph d="M-10 146l82 29q16 -105 69 -106q48 0 56 62q2 13 2 27v493h87v-489q0 -114 -77 -155q-32 -17 -70 -17q-113 0 -143 125q-4 15 -6 31z" glyph-name="J" horiz-adv-x="336" unicode="J"/>
<glyph d="M50 0v651h88v-235l108 235h90q-63 -133 -109 -235q5 -18 61 -208t61 -208h-91q-3 11 -36 125q-50 177 -55 193l-15 -30q-13 -28 -14 -31v-257h-88z" glyph-name="K" horiz-adv-x="357" unicode="K"/>
<glyph d="M50 0v651h88v-570h138v-81h-226z" glyph-name="L" horiz-adv-x="281" unicode="L"/>
<glyph d="M50 651h128l66 -430h4l66 430h123v-651h-78v492h-2q-3 -20 -39 -246q-36 -225 -40 -246h-67q-3 20 -40 246q-36 226 -40 247h-3v-493h-78v651z" glyph-name="M" horiz-adv-x="487" unicode="M"/>
<glyph d="M49 -1l1 652h98l106 -393h2l1 393h81l-1 -651h-88l-117 423h-2l-1 -424h-80z" glyph-name="N" horiz-adv-x="387" unicode="N"/>
<glyph d="M186 -10q-93 0 -125 113q-21 77 -21 222q0 191 39 268q36 67 108 68q94 0 125 -116q21 -77 21 -219q0 -183 -34 -259q-36 -76 -113 -77zM187 68q23 2 36 27q24 52 24 230q0 229 -45 254q-8 4 -16 4q-35 0 -49 -73v-2q-10 -60 -10 -182q0 -240 51 -257q5 -1 9 -1z" glyph-name="O" horiz-adv-x="373" unicode="O"/>
<glyph d="M138 0h-88v651h109q166 -2 167 -200q-3 -203 -172 -205h-16v-246zM156 569h-18v-241h20q55 0 67 54q6 25 6 67q0 88 -32 109q-17 11 -43 11z" glyph-name="P" horiz-adv-x="346" unicode="P"/>
<glyph d="M144 -11v7q-80 28 -98 191q-6 58 -6 138q0 191 39 268q36 67 108 68q94 0 125 -116q21 -77 21 -219q0 -183 -34 -259q-27 -58 -76 -72v-6q0 -43 29 -47q5 -1 9 -1q16 0 53 10l-8 -70q-26 -8 -46 -8q-93 0 -111 68q-5 20 -5 48zM187 68q23 2 36 27q24 52 24 230 q0 229 -45 254q-8 4 -16 4q-35 0 -49 -73v-2q-10 -60 -10 -182q0 -240 51 -257q5 -1 9 -1z" glyph-name="Q" horiz-adv-x="373" unicode="Q"/>
<glyph d="M50 0v651h106q169 -2 170 -185q-1 -116 -67 -161l76 -305h-97l-64 277q-10 -1 -27 -1h-9v-276h-88zM138 569v-211h17q54 0 68 38q8 23 8 68q0 76 -29 95q-18 10 -49 10h-15z" glyph-name="R" horiz-adv-x="365" unicode="R"/>
<glyph d="M159 -10q-75 0 -119 70q-10 17 -18 37q2 3 31 33q28 28 31 32q33 -94 79 -95q44 0 55 57q2 13 2 26q0 69 -60 138q-9 10 -28 30q-60 63 -78 105q-17 39 -17 82q0 96 63 136q32 20 70 20q87 -1 130 -95q-10 -13 -55 -58q-36 72 -73 73q-36 0 -47 -40q-3 -12 -3 -25 q0 -54 57 -119q8 -9 24 -26q65 -71 85 -118q20 -45 20 -95q0 -103 -71 -147q-34 -21 -78 -21z" glyph-name="S" horiz-adv-x="336" unicode="S"/>
<glyph d="M5 571v80h273v-80h-96v-571h-88v571h-89z" glyph-name="T" horiz-adv-x="283" unicode="T"/>
<glyph d="M45 651h87v-503q1 -78 56 -79q55 2 56 79v503h88v-497q0 -127 -93 -156q-25 -8 -54 -8q-104 0 -132 97q-8 29 -8 65v499z" glyph-name="U" horiz-adv-x="377" unicode="U"/>
<glyph d="M10 651h88l68 -446l66 446h87l-113 -651h-86z" glyph-name="V" horiz-adv-x="329" unicode="V"/>
<glyph d="M10 651h84q2 -18 22 -215q19 -195 21 -214h3q2 18 23 214t23 215h74l45 -426h4l42 426h87l-86 -651h-85q-2 16 -23 186q-20 170 -22 186h-2l-44 -372h-85q-3 27 -41 326q-36 297 -40 325z" glyph-name="W" horiz-adv-x="448" unicode="W"/>
<glyph d="M6 0l112 338l-103 313h90q10 -38 58 -214q6 22 40 144q15 57 19 70h89l-104 -311q99 -293 113 -340h-90l-68 242l-68 -242h-88z" glyph-name="X" horiz-adv-x="326" unicode="X"/>
<glyph d="M6 651h92l84 -307h1l82 307h90l-130 -397v-254h-89v251z" glyph-name="Y" horiz-adv-x="360" unicode="Y"/>
<glyph d="M10 0v78l189 492h-165v81h252v-79q-8 -20 -94 -246q-87 -224 -95 -245h176v-81h-263z" glyph-name="Z" horiz-adv-x="296" unicode="Z"/>
<glyph d="M49 700h158v-75h-76v-668h76v-75h-158v818z" glyph-name="bracketleft" horiz-adv-x="245" unicode="["/>
<glyph d="M353 -79l-354 806h84l354 -806h-84z" glyph-name="backslash" horiz-adv-x="440" unicode="\"/>
<glyph d="M121 625h-76v75h158v-818h-158v75h76v668z" glyph-name="bracketright" horiz-adv-x="245" unicode="]"/>
<glyph d="M90 363h-83q5 12 67 144q60 131 66 144h78l132 -288h-83q-2 6 -26 59q-57 126 -62 138q-4 -11 -59 -131q-27 -59 -30 -66z" glyph-name="asciicircum" horiz-adv-x="363" unicode="^"/>
<glyph d="M0 -140v70h500v-70h-500z" glyph-name="underscore" horiz-adv-x="500" unicode="_"/>
<glyph d="M148 553l-98 148h102l45 -148h-49z" glyph-name="grave" horiz-adv-x="321" unicode="`"/>
<glyph d="M201 30h-4q-27 -36 -65 -39q-106 2 -107 163q0 114 63 153q24 15 52 15q28 -1 51 -17v49q-3 64 -46 66q-34 -1 -68 -32l-34 65q53 46 115 46q107 0 115 -114q1 -10 1 -21v-277q1 -23 13 -24q9 1 23 8v-61q-23 -17 -57 -17q-43 2 -52 37zM192 82v156q-17 11 -34 11 q-40 0 -48 -68q-2 -13 -2 -28q0 -77 34 -90q5 -2 10 -2q20 1 40 21z" glyph-name="a" horiz-adv-x="321" unicode="a"/>
<glyph d="M40 670h83v-206l3 -1q29 37 61 38q92 0 107 -168q3 -38 3 -86q0 -239 -98 -255q-8 -1 -15 -1q-35 1 -60 34l-5 -1v-24h-79v670zM123 405v-322q23 -22 47 -22q40 0 43 155v29q0 172 -40 180q-4 1 -6 1q-19 -1 -44 -21z" glyph-name="b" horiz-adv-x="327" unicode="b"/>
<glyph d="M277 361l-77 -23q-6 81 -38 82q-48 -2 -48 -178q0 -164 43 -173q3 -1 6 -1q35 0 46 89v2q3 -1 38 -11q34 -10 38 -11q-19 -146 -124 -147q-130 2 -131 251q1 257 132 258q83 0 108 -95q5 -20 7 -43z" glyph-name="c" horiz-adv-x="299" unicode="c"/>
<glyph d="M136 -9q-96 0 -105 207q-1 24 -1 49q0 211 72 246q17 8 37 8q30 -1 59 -26q1 0 5 1v194h83v-670h-83v25l-3 2q-25 -35 -64 -36zM159 427q-37 0 -43 -114q-2 -30 -2 -68q0 -171 37 -181q3 -1 6 -1q23 1 46 22v321q-27 21 -44 21z" glyph-name="d" horiz-adv-x="326" unicode="d"/>
<glyph d="M289 217h-176q2 -149 54 -150q37 0 47 65v2q3 -1 36 -14q33 -14 37 -15q-26 -106 -112 -114q-7 -1 -14 -1q-130 2 -131 251q1 256 131 257q128 -2 128 -248v-33zM114 286h95q-8 131 -47 135q-34 0 -44 -80q-3 -24 -4 -55z" glyph-name="e" horiz-adv-x="317" unicode="e"/>
<glyph d="M5 417v72h51v40q0 104 45 134q28 17 72 17q17 0 43 -5v-82q-20 7 -39 7q-30 0 -37 -26q-3 -13 -3 -34v-51h77v-72h-76v-417h-82v417h-51z" glyph-name="f" horiz-adv-x="216" unicode="f"/>
<glyph d="M30 242q0 239 98 255q8 1 15 1q31 -1 57 -34l3 1v23h84v-445q0 -113 -43 -161q-25 -27 -65 -44q-35 -12 -46 -15q-2 3 -24 34q-22 30 -24 34q77 20 100 55q18 27 18 68v9h-4q-27 -34 -59 -35q-94 0 -107 177q-3 35 -3 77zM114 244q0 -172 40 -180q4 -1 6 -1q21 1 43 21 v321q-24 22 -45 22q-43 -8 -44 -183z" glyph-name="g" horiz-adv-x="327" unicode="g"/>
<glyph d="M40 670h83v-209l3 -2q36 37 74 41q88 -2 89 -117v-383h-83v372q-5 50 -35 53q-23 -1 -48 -22v-403h-83v670z" glyph-name="h" horiz-adv-x="329" unicode="h"/>
<glyph d="M43 0v489h83v-489h-83zM42 571v95h87v-95h-87z" glyph-name="i" horiz-adv-x="171" unicode="i"/>
<glyph d="M-32 -167l-7 72q23 -7 36 -7q43 2 44 56v535h83v-520q0 -118 -75 -138q-17 -4 -37 -4q-21 0 -44 6zM40 571v95h87v-95h-87z" glyph-name="j" horiz-adv-x="168" unicode="j"/>
<glyph d="M40 670h82v-357l85 176h92l-87 -160l90 -329h-83l-65 231l-32 -60v-171h-82v670z" glyph-name="k" horiz-adv-x="309" unicode="k"/>
<glyph d="M45 0v671h84v-671h-84z" glyph-name="l" horiz-adv-x="174" unicode="l"/>
<glyph d="M40 488h83v-27l3 -2q34 40 71 41q56 -1 74 -44q43 44 83 44q73 0 84 -81q2 -17 2 -36v-383h-83v370q0 47 -22 52q-5 1 -10 1q-20 -1 -43 -20v-30l1 -373h-83v370q0 47 -22 52q-5 1 -10 1q-20 -1 -45 -22v-401h-83v488z" glyph-name="m" horiz-adv-x="480" unicode="m"/>
<glyph d="M40 488h83v-27l3 -2q36 37 74 41q88 -2 89 -117v-383h-83v370q-5 50 -35 53q-23 -1 -48 -22v-401h-83v488z" glyph-name="n" horiz-adv-x="329" unicode="n"/>
<glyph d="M163 -10q-132 2 -133 253q7 248 134 255q132 -2 133 -255q0 -232 -114 -251q-10 -2 -20 -2zM165 64q50 3 49 179q0 165 -40 179q-6 2 -11 2q-51 -4 -50 -181q0 -161 40 -177q6 -2 12 -2z" glyph-name="o" horiz-adv-x="327" unicode="o"/>
<glyph d="M40 488h83v-28q28 32 67 37q96 0 105 -207q1 -24 1 -49q0 -211 -72 -246q-17 -8 -37 -8q-33 1 -64 29v-181h-83v653zM123 401v-325q27 -21 44 -21q43 0 45 173v15q0 167 -36 179q-4 1 -7 1q-23 -1 -46 -22z" glyph-name="p" horiz-adv-x="326" unicode="p"/>
<glyph d="M140 -12q-109 0 -110 243v11q0 223 85 251q13 5 28 5q32 -1 61 -39v30h83v-654h-83v194q-31 -40 -64 -41zM157 426q-44 -1 -43 -182q1 -180 46 -182q19 1 44 21v321q-21 21 -47 22z" glyph-name="q" horiz-adv-x="327" unicode="q"/>
<glyph d="M42 0v488h83v-43l3 -1q25 52 68 54q22 -1 38 -11v-97q-24 16 -52 16q-45 -1 -57 -38v-368h-83z" glyph-name="r" horiz-adv-x="234" unicode="r"/>
<glyph d="M137 -9q-67 0 -106 60q-9 14 -15 29q2 2 28 30l29 29q27 -72 65 -73q37 0 42 40q1 5 1 10q0 46 -50 95q-6 6 -19 17q-54 50 -70 85q-12 29 -12 60q0 77 56 111q27 16 60 16q68 0 106 -62q5 -9 9 -18q-47 -47 -52 -53q-29 52 -61 53q-31 0 -37 -29q-1 -6 -1 -11 q0 -36 49 -83q53 -51 63 -62q44 -53 44 -113q0 -83 -64 -116q-30 -15 -65 -15z" glyph-name="s" horiz-adv-x="287" unicode="s"/>
<glyph d="M7 488h47v123h80v-123h82v-71h-82v-308q2 -40 34 -41q18 0 54 14v-75q-38 -16 -73 -16q-81 0 -93 86q-2 14 -2 28v312h-47v71z" glyph-name="t" horiz-adv-x="225" unicode="t"/>
<glyph d="M40 488h83v-370q1 -51 33 -52q21 1 44 21v401h83v-488h-83v27l-3 2q-34 -40 -68 -41q-88 2 -89 117v383z" glyph-name="u" horiz-adv-x="323" unicode="u"/>
<glyph d="M5 488h87q1 -8 28 -174q27 -167 28 -175h4l55 349h86q-2 -10 -51 -244q-49 -233 -51 -244h-85q-2 10 -50 244q-49 233 -51 244z" glyph-name="v" horiz-adv-x="298" unicode="v"/>
<glyph d="M78 0l-73 488h86l31 -299h4q1 5 20.5 139.5t22.5 159.5h74l43 -300h4q1 6 17 163q12 115 14 137h86l-74 -488h-79l-46 317h-4l-47 -317h-79z" glyph-name="w" horiz-adv-x="412" unicode="w"/>
<glyph d="M5 0l108 259l-96 229h87l52 -152l52 152h88l-96 -229l109 -259h-88l-64 181l-65 -181h-87z" glyph-name="x" horiz-adv-x="314" unicode="x"/>
<glyph d="M8 488h88l66 -359h5q3 15 31 179q27 164 30 180h86l-99 -455q-24 -110 -65 -155q-36 -39 -96 -54q-2 2 -20 32q-17 29 -19 32q96 15 108 107l-4 17q-4 18 -10.5 46.5t-15.5 65t-18 77.5t-18.5 81.5t-18.5 77t-15.5 65t-10.5 45.5z" glyph-name="y" horiz-adv-x="319" unicode="y"/>
<glyph d="M15 64q5 13 109 256q38 88 41 95h-137v73h226v-64q-6 -14 -76 -176q-70 -160 -77 -175h153v-73h-239v64z" glyph-name="z" horiz-adv-x="269" unicode="z"/>
<glyph d="M84 145q0 100 -60 114q-5 1 -9 2v58q69 9 69 118v117q0 128 112 137q9 1 17 1h23v-70h-11q-53 0 -56 -81v-10v-98q0 -96 -59 -133q-8 -5 -16 -8v-4q66 -24 74 -120q1 -12 1 -23v-99q1 -90 56 -91h11v-69h-24q-127 2 -128 143v116z" glyph-name="braceleft" horiz-adv-x="257" unicode="{"/>
<glyph d="M55 -124v871h81v-871h-81z" glyph-name="bar" horiz-adv-x="191" unicode="|"/>
<glyph d="M47 -114h-24v69h11q56 2 56 91v99q0 110 68 140q4 2 7 3v4q-57 22 -71 99q-4 20 -4 42v98q-6 87 -56 91h-11v70h23q119 0 128 -118q1 -10 1 -20v-117q1 -110 69 -118v-58q-65 -7 -69 -105v-11v-116q-2 -142 -128 -143z" glyph-name="braceright" horiz-adv-x="257" unicode="}"/>
<glyph d="M26 307q32 81 83 99q11 4 21 4q27 0 76 -38q39 -29 56 -30q19 0 37 34q3 4 8 13l7 14q36 -21 56 -32q-24 -85 -83 -105q-14 -5 -27 -5q-26 0 -74 37q-37 28 -53 29q-22 0 -39 -29q-4 -8 -12 -23q-2 1 -28 16q-25 14 -28 16z" glyph-name="asciitilde" horiz-adv-x="394" unicode="~"/>
<glyph glyph-name="uni00A0" horiz-adv-x="514" unicode=" "/>
<glyph d="M100 -162v275l23 207h42l22 -208v-274h-87zM94 389v100h100v-100h-100z" glyph-name="exclamdown" horiz-adv-x="275" unicode="¡"/>
<glyph d="M30 302q1 201 101 225v116h52v-115q73 -13 89 -102q1 -10 2 -19l-75 -20q-11 66 -40 67q-18 -2 -28 -25q-15 -39 -15 -126q0 -89 15 -124q11 -21 29 -22q35 0 41 58q1 5 1 9l77 -14q-18 -110 -96 -127v-117h-52v118q-101 24 -101 218z" glyph-name="cent" horiz-adv-x="308" unicode="¢"/>
<glyph d="M307 0h-269v71q46 92 51 216h-51v58h45q-2 9 -23 83q-12 43 -12 84q0 98 66 134q29 15 64 15q103 0 128 -117q4 -17 6 -36q-26 -6 -75 -21q-5 78 -46 96q-8 3 -16 3q-35 0 -43 -46q-2 -11 -2 -23q0 -32 22 -118q8 -33 11 -54h80v-58h-76q-4 -124 -40 -207h180v-80z" glyph-name="sterling" horiz-adv-x="337" unicode="£"/>
<glyph d="M155 388l-54 54q1 2 20 21l4.5 4.5l4.5 4.5t4 4.5t3 3t3 2.5l1 2l54 -54q40 29 93 29q52 -1 93 -29l54 54q37 -37 41 -42l-54 -54q28 -40 28 -92q-1 -51 -28 -93q10 -9 27 -26q18 -18 27 -26l-41 -41q-8 9 -26 27q-19 18 -28 27q-41 -30 -93 -30q-52 1 -93 30l-13 -14 l-28 -28l-13 -13q-5 7 -40 42q9 7 54 52q-30 47 -30 93q1 53 30 92zM181 296q0 -58 49 -90q27 -17 58 -17q55 0 88 47q18 28 18 60q0 58 -48 90q-27 17 -58 17q-58 0 -90 -49q-17 -27 -17 -58z" glyph-name="currency" horiz-adv-x="580" unicode="¤"/>
<glyph d="M116 303l-102 348h92l71 -307l70 307h90l-103 -348h84v-50h-98v-68h98v-50h-98v-135h-89v135h-100v50h100v68h-100v50h85z" glyph-name="yen" horiz-adv-x="348" unicode="¥"/>
<glyph d="M87 748h81v-439h-81v439zM87 -197v437h81v-437h-81z" glyph-name="brokenbar" horiz-adv-x="244" unicode="¦"/>
<glyph d="M43 -44l32 65q38 -43 83 -44q41 0 59 37q7 14 7 29q0 38 -56 85q-8 7 -25 20q-68 54 -91 90q-24 38 -24 81q0 70 52 106q8 5 15 9q-40 49 -40 103q0 75 60 113q34 21 76 21q73 -1 122 -57l-40 -57q-37 41 -79 42q-36 0 -49 -34q-5 -11 -5 -23q0 -44 61 -96q9 -7 28 -22 q67 -54 88 -88t21 -71q0 -75 -62 -112q-5 -3 -10 -5q45 -49 45 -101q0 -83 -72 -120q-37 -18 -81 -18q-70 1 -115 47zM110 325q0 -45 61 -97q10 -8 34 -27q31 4 44 38q4 11 4 22q0 38 -56 85q-8 6 -25 20q-11 8 -16 12q-32 -4 -43 -35q-3 -9 -3 -18z" glyph-name="section" horiz-adv-x="365" unicode="§"/>
<glyph d="M177 579v95h87v-95h-87zM141 579h-87v95h87v-95z" glyph-name="dieresis" horiz-adv-x="321" unicode="¨"/>
<glyph d="M296 -10q-249 2 -250 335q0 299 201 332q24 4 49 4q212 0 244 -244q6 -43 6 -92q0 -316 -223 -334q-14 -1 -27 -1zM100 325q0 -261 161 -284q17 -2 35 -2q132 0 173 117q23 65 23 169q-1 286 -196 287q-195 -2 -196 -287zM299 117q-66 0 -87 73q-14 48 -14 133 q0 166 59 198q19 10 43 10q78 0 95 -100l2 -14q-3 -1 -28 -10t-28 -10q-10 72 -40 76q-29 0 -37 -63q-4 -34 -4 -86q0 -131 27 -147q7 -3 15 -3q29 0 39 71v2q3 -1 27 -8q25 -7 28 -8q-6 -79 -58 -105q-18 -9 -39 -9z" glyph-name="copyright" horiz-adv-x="589" unicode="©"/>
<glyph d="M114 249q-71 0 -86 74q-3 17 -3 36q0 77 53 104q20 9 41 9q21 -1 38 -10v26q-3 37 -33 39q-26 -1 -55 -22l-31 50q48 34 95 34q92 -2 93 -96v-175q2 -14 16 -15q5 0 16 2v-49q-18 -6 -42 -6q-36 1 -46 26q-22 -26 -56 -27zM96 360q0 -49 28 -54q4 -1 6 -1q14 1 27 12v95 q-15 8 -24 8q-29 0 -36 -43q-1 -9 -1 -17z" glyph-name="ordfeminine" horiz-adv-x="274" unicode="ª"/>
<glyph d="M170 238l94 179h84l-91 -179l91 -181h-84zM134 57l-94 181l94 179h84l-91 -179l91 -181h-84z" glyph-name="guillemotleft" horiz-adv-x="378" unicode="«"/>
<glyph d="M34 274v75h287l1 -190h-78v115h-210z" glyph-name="logicalnot" horiz-adv-x="348" unicode="¬"/>
<glyph d="M59 236v86h213v-86h-213z" glyph-name="uni00AD" horiz-adv-x="333" unicode="­"/>
<glyph d="M215 256q-124 0 -161 115q-13 42 -13 95q0 149 95 195q35 16 79 16q116 0 155 -107q16 -45 16 -104q0 -147 -93 -193q-35 -17 -78 -17zM215 636q-114 0 -126 -139q-1 -15 -1 -31q0 -156 110 -168q9 -1 17 -1q124 2 125 169q0 141 -90 165q-17 5 -35 5zM198 344h-44v253 h58q59 0 70 -55q2 -11 2 -22q-1 -50 -32 -68q3 -8 20 -54q16 -45 19 -54h-47l-32 93h-14v-93zM198 474h6q34 2 35 44q-3 42 -37 44h-4v-88z" glyph-name="registered" horiz-adv-x="435" unicode="®"/>
<glyph d="M67 581v70h196v-70h-196z" glyph-name="macron" horiz-adv-x="321" unicode="¯"/>
<glyph d="M112 479q-54 0 -78 46q-10 20 -10 43q0 53 44 77q21 11 44 11q57 0 79 -47q9 -20 9 -41q0 -55 -45 -79q-20 -10 -43 -10zM112 520q35 0 44 33q2 8 2 15q0 39 -34 46q-6 1 -12 1q-34 0 -43 -32q-2 -7 -2 -15q0 -35 30 -46q8 -2 15 -2z" glyph-name="degree" horiz-adv-x="223" unicode="°"/>
<glyph d="M34 369h102v116h78v-116h107v-75h-107v-115h-78v115h-102v75zM33 73v71h289v-71h-289z" glyph-name="plusminus" horiz-adv-x="348" unicode="±"/>
<glyph d="M46 345v16q0 108 70 183l18 18q47 46 48 74q-2 34 -37 35q-22 0 -36 -29q-5 -11 -8 -23q-3 1 -31 9q-29 7 -32 8q21 79 88 89q12 2 25 2q72 0 93 -54q6 -17 6 -35q-1 -49 -67 -114q-65 -66 -67 -120h131v-59h-201z" glyph-name="twosuperior" horiz-adv-x="287" unicode="²"/>
<glyph d="M107 525v48h19q51 2 52 61q-1 36 -34 37q-29 0 -40 -44q-1 -1 -1 -2q-3 1 -29 8q-27 7 -30 8q22 85 102 86q67 0 91 -51q8 -19 8 -40q-1 -64 -56 -84q59 -18 60 -90q0 -85 -64 -110q-20 -7 -44 -7q-70 0 -94 66q-5 14 -9 29q2 0 32 8q28 6 31 7q12 -55 42 -56q32 0 37 50 q1 6 1 10q0 59 -45 65q-7 1 -14 1h-15z" glyph-name="threesuperior" horiz-adv-x="293" unicode="³"/>
<glyph d="M178 553h-49q2 6 23 74q20 67 22 74h97q-4 -6 -47 -74q-42 -67 -46 -74z" glyph-name="acute" horiz-adv-x="321" unicode="´"/>
<glyph d="M40 -165v653h83v-362q1 -59 35 -60q21 1 43 21v401h83v-488h-83v28h-4q-23 -40 -66 -41q-1 0 -4 1h-4v-153h-83z" glyph-name="mu" horiz-adv-x="324" unicode="µ"/>
<glyph d="M40 -165v653h83v-362q1 -59 35 -60q21 1 43 21v401h83v-488h-83v28h-4q-23 -40 -66 -41q-1 0 -4 1h-4v-153h-83z" glyph-name="mu" horiz-adv-x="324" unicode="μ"/>
<glyph d="M177 -116l-36 75q89 18 107 82q7 26 7 78v532h83v-521q0 -158 -75 -213q-35 -25 -86 -33zM26 472q0 92 62 144q44 35 103 35h37v-358h-37q-96 0 -140 79q-25 44 -25 100z" glyph-name="paragraph" horiz-adv-x="373" unicode="¶"/>
<glyph d="M67 246v112h98v-112h-98z" glyph-name="periodcentered" horiz-adv-x="230" unicode="·"/>
<glyph d="M135 -82l-23 25l37 91l33 -3l-32 -70q70 0 91 -50q5 -12 5 -24q0 -49 -42 -71q-23 -11 -53 -11q-37 1 -68 17l10 43q20 -14 49 -14q41 2 42 34q-1 33 -49 33z" glyph-name="cedilla" horiz-adv-x="299" unicode="¸"/>
<glyph d="M103 345v278l-53 -33v77l3 2l7.5 5t10 6.5t11.5 7.5t12.5 8t12 7.5t10 6.5l7.5 5l3 2h46v-372h-70z" glyph-name="onesuperior" horiz-adv-x="250" unicode="¹"/>
<glyph d="M144 245q-109 2 -110 172q1 171 110 172q109 -2 110 -172q-1 -171 -110 -172zM145 303q37 6 38 114q-3 110 -39 114q-34 0 -38 -78q-1 -17 -1 -36q0 -107 34 -113q3 -1 6 -1z" glyph-name="ordmasculine" horiz-adv-x="283" unicode="º"/>
<glyph d="M251 238l-91 179h84l94 -179l-94 -181h-84zM30 57l91 181l-91 179h84l94 -179l-94 -181h-84z" glyph-name="guillemotright" horiz-adv-x="378" unicode="»"/>
<glyph d="M226 78v41q6 11 74 129q68 117 74 128h60v-246h34v-52h-34v-78h-70v78h-138zM61 -21l295 696h59l-296 -696h-58zM19 524v77l3 2l7.5 5t10 6.5t11.5 7.5t12.5 8t12 7.5t10 6.5l7.5 5l3 2h46v-372h-70v278zM301 130h64v109z" glyph-name="onequarter" horiz-adv-x="490" unicode="¼"/>
<glyph d="M111 -21h-58l295 696h59zM288 0v16q0 108 70 183l18 18q44 43 45 74q-2 34 -37 35q-23 0 -36 -34q-3 -9 -5 -18l-63 17q25 90 113 91q72 0 93 -54q6 -17 6 -35q-1 -52 -64 -114q-65 -66 -67 -120h128v-59h-201zM76 279v278l-53 -33v77l3 2l7.5 5t10 6.5t11.5 7.5t12.5 8 t12 7.5t10 6.5l7.5 5l3 2h46v-372h-70z" glyph-name="onehalf" horiz-adv-x="537" unicode="½"/>
<glyph d="M298 78v41l148 257h60v-246h34v-52h-34v-78h-70v78h-138zM28 370l16 4l32 8l15 3q12 -55 43 -56q32 0 37 50q1 6 1 10q0 61 -50 66h-10h-15v48h19q53 2 54 61q-1 36 -36 37q-29 0 -40 -44q-1 -1 -1 -2q-5 1 -29 8q-25 6 -30 8q22 85 102 86q67 0 91 -51q8 -19 8 -40 q-1 -64 -56 -84q59 -18 60 -90q0 -85 -64 -110q-20 -7 -44 -7q-70 0 -94 66q-5 14 -9 29zM130 -21l295 696h59l-296 -696h-58zM437 239l-61 -109h61v109z" glyph-name="threequarters" horiz-adv-x="582" unicode="¾"/>
<glyph d="M184 318h83q0 -85 -56 -175q-45 -71 -51 -85q-16 -35 -16 -67q0 -50 37 -72q17 -10 38 -10q63 0 91 90q3 11 5 21q3 -1 38 -14q34 -14 38 -15q-24 -110 -105 -147q-30 -14 -64 -14q-94 0 -141 68q-27 41 -27 95q0 56 49 131q49 74 60 100q21 47 21 94zM174 389v100h100 v-100h-100z" glyph-name="questiondown" horiz-adv-x="416" unicode="¿"/>
<glyph d="M90 0h-85l125 651h87l125 -651h-86l-28 154h-110zM53 850h102q2 -6 23 -74q20 -67 22 -74h-49q-4 6 -49 74q-45 67 -49 74zM130 228h85l-41 239z" glyph-name="Agrave" horiz-adv-x="347" unicode="À"/>
<glyph d="M90 0h-85l125 651h87l125 -651h-86l-28 154h-110zM151 702q2 6 22 74q20 67 22 74h100l-24 -37q-24 -37 -49 -74l-24 -37h-47zM174 467l-44 -239h85z" glyph-name="Aacute" horiz-adv-x="347" unicode="Á"/>
<glyph d="M5 0l125 651h87l125 -651h-86l-28 154h-110l-28 -154h-85zM128 702h-67q3 6 39 74q35 67 38 74h72l75 -148h-69q-2 4 -22 45q-21 41 -23 45q-1 -3 -14 -29q-26 -56 -29 -61zM130 228h85l-41 239z" glyph-name="Acircumflex" horiz-adv-x="347" unicode="Â"/>
<glyph d="M90 0h-85l125 651h87l125 -651h-86l-28 154h-110zM59 720q15 77 44 88q8 3 16 3q18 0 65 -33q21 -15 28 -15q14 0 22 36q1 6 3 14q2 -1 23 -8q3 -1 5 -2t5 -2l4.5 -1.5t3.5 -1t4 -0.5l1 -1q-16 -84 -53 -92q-6 -1 -11 -1q-19 0 -68 33q-15 10 -20 10q-14 0 -21 -27 q-3 -8 -5 -19zM174 467l-44 -239h85z" glyph-name="Atilde" horiz-adv-x="347" unicode="Ã"/>
<glyph d="M5 0l125 651h87l125 -651h-86l-28 154h-110l-28 -154h-85zM174 467l-44 -239h85zM190 807h87v-95h-87v95zM154 712h-87v95h87v-95z" glyph-name="Adieresis" horiz-adv-x="347" unicode="Ä"/>
<glyph d="M5 0l124 644q-44 24 -45 78q0 51 44 76q21 11 44 11q52 0 78 -44q11 -20 11 -43q-1 -52 -43 -77l124 -645h-86l-28 154h-110l-28 -154h-85zM174 467l-44 -239h85zM172 765q-28 0 -40 -26q-3 -9 -3 -17q0 -31 27 -43q8 -3 16 -3q30 0 41 29q3 8 3 17q0 30 -28 40 q-8 3 -16 3z" glyph-name="Aring" horiz-adv-x="347" unicode="Å"/>
<glyph d="M100 0h-95q9 27 102 326q93 297 102 325h261v-81h-114v-183h76v-81h-76v-225h125v-81h-214v155h-123l-22 -77q-20 -71 -22 -78zM166 229h101v334h-5q-4 -14 -48 -167q-44 -152 -48 -167z" glyph-name="AE" horiz-adv-x="501" unicode="Æ"/>
<glyph d="M118 -180l10 43q20 -14 49 -14q41 2 42 34q-1 33 -49 33l-23 25l20 49q-93 12 -117 171q-10 67 -10 163q0 302 115 333q15 4 31 4q105 0 129 -153q2 -14 3 -27l-79 -20q-9 107 -41 119q-6 2 -12 2q-43 0 -53 -126q-4 -52 -4 -132q0 -240 50 -254q4 -1 8 -1q40 2 55 122 l83 -20q-19 -169 -126 -181l-14 -31q70 0 91 -50q5 -12 5 -24q0 -49 -42 -71q-23 -11 -53 -11q-37 1 -68 17z" glyph-name="Ccedilla" horiz-adv-x="345" unicode="Ç"/>
<glyph d="M50 0v651h207v-81h-119v-183h78v-81h-78v-225h127v-81h-215zM33 850h102q2 -6 23 -74q20 -67 22 -74h-49q-4 6 -49 74q-45 67 -49 74z" glyph-name="Egrave" horiz-adv-x="285" unicode="È"/>
<glyph d="M50 0v651h207v-81h-119v-183h78v-81h-78v-225h127v-81h-215zM161 702h-47q2 6 22 74q20 67 22 74h100l-24 -37l-48 -74z" glyph-name="Eacute" horiz-adv-x="285" unicode="É"/>
<glyph d="M50 0v651h207v-81h-119v-183h78v-81h-78v-225h127v-81h-215zM37 702q3 6 39 74q35 67 38 74h72l75 -148h-69q-2 4 -22 45q-21 41 -23 45q-1 -3 -14 -29q-26 -56 -29 -61h-67z" glyph-name="Ecircumflex" horiz-adv-x="285" unicode="Ê"/>
<glyph d="M50 0v651h207v-81h-119v-183h78v-81h-78v-225h127v-81h-215zM252 709h-87v95h87v-95zM42 804h87v-95h-87v95z" glyph-name="Edieresis" horiz-adv-x="285" unicode="Ë"/>
<glyph d="M50 0v651h88v-651h-88zM119 702h-49q-4 6 -49 74q-45 67 -49 74h102q2 -6 22 -74q21 -67 23 -74z" glyph-name="Igrave" horiz-adv-x="188" unicode="Ì"/>
<glyph d="M50 0v651h88v-651h-88zM110 702h-47q2 6 22 74q20 67 22 74h100l-24 -37q-24 -37 -49 -74z" glyph-name="Iacute" horiz-adv-x="188" unicode="Í"/>
<glyph d="M50 651h88v-651h-88v651zM-18 702q3 6 38 74q36 67 39 74h72l75 -148h-69q-2 4 -23 45q-20 41 -22 45q-1 -3 -14 -29q-26 -56 -29 -61h-67z" glyph-name="Icircumflex" horiz-adv-x="188" unicode="Î"/>
<glyph d="M50 0v651h88v-651h-88zM113 709v95h87v-95h-87zM-10 804h87v-95h-87v95z" glyph-name="Idieresis" horiz-adv-x="188" unicode="Ï"/>
<glyph d="M50 298h-44v71h44v282h120q105 0 138 -110q22 -71 22 -211q0 -242 -82 -304q-36 -26 -87 -26h-111v298zM163 574h-26v-205h55v-71h-55v-221h23q46 0 64 64q17 60 17 187q0 197 -43 234q-15 12 -35 12z" glyph-name="Eth" horiz-adv-x="370" unicode="Ð"/>
<glyph d="M129 -1h-80l1 652h98l106 -393h2l1 393h81l-1 -651h-88l-117 423h-2zM92 729q15 77 44 88q8 3 16 3q18 0 65 -33q21 -15 28 -15q14 0 22 36q1 6 3 14q2 0 23 -8q3 -1 5 -2t5 -2l4.5 -1.5t3.5 -1t3 -1.5h2q-16 -84 -53 -92q-6 -1 -11 -1q-19 0 -68 33q-15 10 -20 10 q-14 0 -21 -27q-3 -8 -5 -19z" glyph-name="Ntilde" horiz-adv-x="387" unicode="Ñ"/>
<glyph d="M186 -10q-93 0 -125 113q-21 77 -21 222q0 191 39 268q36 67 108 68q94 0 125 -116q21 -77 21 -219q0 -183 -34 -259q-36 -76 -113 -77zM187 68q23 2 36 27q24 52 24 230q0 229 -45 254q-8 4 -16 4q-35 0 -49 -73v-2q-10 -60 -10 -182q0 -240 51 -257q5 -1 9 -1zM217 702 h-49q-4 6 -49 74q-45 67 -49 74h102q2 -6 22 -74q21 -67 23 -74z" glyph-name="Ograve" horiz-adv-x="373" unicode="Ò"/>
<glyph d="M186 -10q-93 0 -125 113q-21 77 -21 222q0 191 39 268q36 67 108 68q94 0 125 -116q21 -77 21 -219q0 -183 -34 -259q-36 -76 -113 -77zM187 68q23 2 36 27q24 52 24 230q0 229 -45 254q-8 4 -16 4q-35 0 -49 -73v-2q-10 -60 -10 -182q0 -240 51 -257q5 -1 9 -1zM210 702 h-47q2 6 22 74q20 67 22 74h100l-24 -37q-24 -37 -49 -74z" glyph-name="Oacute" horiz-adv-x="373" unicode="Ó"/>
<glyph d="M186 -10q-93 0 -125 113q-21 77 -21 222q0 191 39 268q36 67 108 68q94 0 125 -116q21 -77 21 -219q0 -183 -34 -259q-36 -76 -113 -77zM127 326q0 -240 51 -257q5 -1 9 -1q23 2 36 27q24 52 24 230q0 229 -45 254q-8 4 -16 4q-35 0 -49 -73v-2q-10 -60 -10 -182zM74 702 q3 6 38 74q36 67 39 74h72l75 -148h-69q-2 4 -23 45q-20 41 -22 45q-1 -3 -14 -29q-26 -56 -29 -61h-67z" glyph-name="Ocircumflex" horiz-adv-x="373" unicode="Ô"/>
<glyph d="M186 -10q-93 0 -125 113q-21 77 -21 222q0 191 39 268q36 67 108 68q94 0 125 -116q21 -77 21 -219q0 -183 -34 -259q-36 -76 -113 -77zM187 68q23 2 36 27q24 52 24 230q0 229 -45 254q-8 4 -16 4q-35 0 -49 -73v-2q-10 -60 -10 -182q0 -240 51 -257q5 -1 9 -1zM119 709 l-46 19q15 77 44 88q8 3 16 3q18 0 65 -33q21 -15 28 -15q14 0 22 36q1 6 3 14q2 -1 23 -8q3 -1 5 -2t5 -2l4.5 -1.5t3.5 -1t4 -0.5l1 -1q-16 -84 -53 -92q-6 -1 -11 -1q-19 0 -68 33q-15 10 -20 10q-14 0 -21 -27q-3 -8 -5 -19z" glyph-name="Otilde" horiz-adv-x="373" unicode="Õ"/>
<glyph d="M186 -10q-93 0 -125 113q-21 77 -21 222q0 191 39 268q36 67 108 68q94 0 125 -116q21 -77 21 -219q0 -183 -34 -259q-36 -76 -113 -77zM137 508q-10 -60 -10 -182q0 -240 51 -257q5 -1 9 -1q23 2 36 27q24 52 24 230q0 229 -45 254q-8 4 -16 4q-35 0 -49 -73v-2z M292 728h-87v95h87v-95zM169 728h-87v95h87v-95z" glyph-name="Odieresis" horiz-adv-x="373" unicode="Ö"/>
<glyph d="M93 177l-53 54l83 83l-80 83l53 53l80 -83l82 82l2 -3l5 -5t7 -6.5t8 -8t8 -8.5t8 -7.5t7 -6.5t5 -6l2 -2l-82 -82l83 -84l-3 -2q-2 -3 -5 -6t-6.5 -7t-8 -8.5l-8.5 -8.5t-7.5 -8t-6.5 -7t-6 -5l-2 -3l-83 86z" glyph-name="multiply" horiz-adv-x="368" unicode="×"/>
<glyph d="M15 5l45 104q-20 78 -20 216q0 160 25 232q36 103 122 104q59 -1 92 -43l19 43l32 -15l-29 -67q32 -79 32 -253q0 -150 -19 -218q-35 -117 -128 -118q-74 1 -109 71l-30 -69zM187 68q63 5 60 257q0 77 -4 121q-6 -16 -78 -181q-30 -69 -33 -76q13 -120 55 -121zM128 266 l107 248q-16 68 -49 69q-61 -5 -59 -257q0 -41 1 -60z" glyph-name="Oslash" horiz-adv-x="373" unicode="Ø"/>
<glyph d="M45 651h87v-503q1 -78 56 -79q55 2 56 79v503h88v-497q0 -127 -93 -156q-25 -8 -54 -8q-104 0 -132 97q-8 29 -8 65v499zM167 702q-4 6 -49 74q-45 67 -49 74h102q2 -6 23 -74q20 -67 22 -74h-49z" glyph-name="Ugrave" horiz-adv-x="377" unicode="Ù"/>
<glyph d="M185 -10q-104 0 -132 97q-8 29 -8 65v499h87v-503q1 -78 56 -79q55 2 56 79v503h88v-497q0 -127 -93 -156q-25 -8 -54 -8zM203 702h-47q2 6 22 74q20 67 22 74h100l-24 -37l-48 -74z" glyph-name="Uacute" horiz-adv-x="377" unicode="Ú"/>
<glyph d="M45 651h87v-503q1 -78 56 -79q55 2 56 79v503h88v-497q0 -127 -93 -156q-25 -8 -54 -8q-104 0 -132 97q-8 29 -8 65v499zM80 702q3 6 38 74q36 67 39 74h72l75 -148h-69q-2 4 -23 45q-20 41 -22 45q-1 -3 -14 -29q-26 -56 -29 -61h-67z" glyph-name="Ucircumflex" horiz-adv-x="377" unicode="Û"/>
<glyph d="M45 651h87v-503q1 -78 56 -79q55 2 56 79v503h88v-497q0 -127 -93 -156q-25 -8 -54 -8q-104 0 -132 97q-8 29 -8 65v499zM206 826h87v-95h-87v95zM83 826h87v-95h-87v95z" glyph-name="Udieresis" horiz-adv-x="377" unicode="Ü"/>
<glyph d="M136 251l-130 400h92l84 -307h1l82 307h90l-130 -397v-254h-89v251zM194 699h-47q2 6 22 74q20 67 22 74h100l-24 -37q-24 -37 -49 -74z" glyph-name="Yacute" horiz-adv-x="360" unicode="Ý"/>
<glyph d="M138 0h-88l1 651h87v-110h11q135 0 168 -121q9 -36 9 -79q0 -156 -112 -194q-32 -11 -70 -11h-6v-136zM146 459h-8v-241h10q71 0 81 85q2 17 2 36q0 108 -68 119q-8 1 -17 1z" glyph-name="Thorn" horiz-adv-x="346" unicode="Þ"/>
<glyph d="M40 0v528q0 117 66 152q23 12 50 12q96 0 112 -124q3 -22 3 -47q-1 -97 -51 -128l1 -3q73 -28 73 -179q0 -197 -85 -219q-10 -3 -20 -3q-23 1 -43 11q0 2 2 29q3 37 3 42q1 0 3 -1q8 -2 12 -2q28 0 41 74q16 92 -8 161q-20 53 -57 54v64q42 9 48 65q2 14 2 31 q0 87 -27 96q-5 1 -9 1q-34 -1 -34 -62v-552h-82z" glyph-name="germandbls" horiz-adv-x="326" unicode="ß"/>
<glyph d="M201 30h-4q-27 -36 -65 -39q-106 2 -107 163q0 114 63 153q24 15 52 15q28 -1 51 -17v49q-3 64 -46 66q-34 -1 -68 -32l-34 65q53 46 115 46q107 0 115 -114q1 -10 1 -21v-277q1 -23 13 -24q9 1 23 8v-61q-23 -17 -57 -17q-43 2 -52 37zM192 82v156q-17 11 -34 11 q-40 0 -48 -68q-2 -13 -2 -28q0 -77 34 -90q5 -2 10 -2q20 1 40 21zM147 553l-98 148h102l45 -148h-49z" glyph-name="agrave" horiz-adv-x="321" unicode="à"/>
<glyph d="M201 30h-4q-27 -36 -65 -39q-106 2 -107 163q0 114 63 153q24 15 52 15q28 -1 51 -17v49q-3 64 -46 66q-34 -1 -68 -32l-34 65q53 46 115 46q107 0 115 -114q1 -10 1 -21v-277q1 -23 13 -24q9 1 23 8v-61q-23 -17 -57 -17q-43 2 -52 37zM192 82v156q-17 11 -34 11 q-40 0 -48 -68q-2 -13 -2 -28q0 -77 34 -90q5 -2 10 -2q20 1 40 21zM182 553h-49q2 6 23 74q20 67 22 74h97q-4 -6 -47 -74q-42 -67 -46 -74z" glyph-name="aacute" horiz-adv-x="321" unicode="á"/>
<glyph d="M25 154q0 114 63 153q24 15 52 15q28 -1 51 -17v49q-3 64 -46 66q-34 -1 -68 -32l-34 65q53 46 115 46q107 0 115 -114q1 -10 1 -21v-277q1 -23 13 -24q9 1 23 8v-61q-23 -17 -57 -17q-43 2 -52 37h-4q-27 -36 -65 -39q-106 2 -107 163zM104 552h-66l77 150h71l75 -150 h-69q-2 4 -22 46q-21 41 -23 46q-2 -4 -21 -46q-20 -41 -22 -46zM158 249q-40 0 -48 -68q-2 -13 -2 -28q0 -77 34 -90q5 -2 10 -2q20 1 40 21v156q-17 11 -34 11z" glyph-name="acircumflex" horiz-adv-x="321" unicode="â"/>
<glyph d="M201 30h-4q-27 -36 -65 -39q-106 2 -107 163q0 114 63 153q24 15 52 15q28 -1 51 -17v49q-3 64 -46 66q-34 -1 -68 -32l-34 65q53 46 115 46q107 0 115 -114q1 -10 1 -21v-277q1 -23 13 -24q9 1 23 8v-61q-23 -17 -57 -17q-43 2 -52 37zM192 82v156q-17 11 -34 11 q-40 0 -48 -68q-2 -13 -2 -28q0 -77 34 -90q5 -2 10 -2q20 1 40 21zM93 561l-46 19q15 77 44 88q8 3 16 3q18 0 65 -33q21 -15 28 -15q14 0 22 36q1 6 3 14q2 -1 23 -8q3 -1 5 -2t5 -2l4.5 -1.5t3.5 -1t4 -0.5l1 -1q-16 -84 -53 -92q-6 -1 -11 -1q-19 0 -68 33 q-15 10 -20 10q-14 0 -21 -27q-3 -8 -5 -19z" glyph-name="atilde" horiz-adv-x="321" unicode="ã"/>
<glyph d="M25 154q0 114 63 153q24 15 52 15q28 -1 51 -17v47q0 56 -36 65q-6 1 -11 1q-31 -1 -65 -32l-34 67q53 46 112 46q106 0 116 -115q1 -13 1 -25v-270q1 -28 17 -29q7 0 17 3v-61q-25 -10 -49 -10q-41 1 -55 35l-5 2q-27 -34 -67 -38q-84 0 -102 104q-5 27 -5 59zM158 249 q-40 0 -48 -68q-2 -13 -2 -28q0 -77 34 -90q5 -2 10 -2q19 1 39 21v156q-17 11 -33 11zM263 579h-87v95h87v-95zM140 579h-87v95h87v-95z" glyph-name="adieresis" horiz-adv-x="319" unicode="ä"/>
<glyph d="M201 30h-4q-27 -36 -65 -39q-106 2 -107 163q0 114 63 153q24 15 52 15q28 -1 51 -17v49q-3 64 -46 66q-34 -1 -68 -32l-34 65q53 46 115 46q107 0 115 -114q1 -10 1 -21v-277q1 -23 13 -24q9 1 23 8v-61q-23 -17 -57 -17q-43 2 -52 37zM192 82v156q-17 11 -34 11 q-40 0 -48 -68q-2 -13 -2 -28q0 -77 34 -90q5 -2 10 -2q20 1 40 21zM162 540q-53 0 -77 45q-11 20 -11 44q0 51 44 76q21 11 44 11q52 0 78 -44q11 -20 11 -43q0 -53 -45 -78q-20 -11 -44 -11zM162 583q30 0 41 29q3 8 3 17q0 30 -28 40q-8 3 -16 3q-28 0 -40 -26 q-3 -9 -3 -17q0 -31 27 -43q8 -3 16 -3z" glyph-name="aring" horiz-adv-x="321" unicode="å"/>
<glyph d="M449 217h-176q2 -149 54 -150q37 0 47 65v2q41 -14 73 -29q-26 -106 -112 -114q-7 -1 -14 -1q-59 1 -91 51q-39 -50 -98 -50q-84 0 -102 104q-5 27 -5 59q0 106 60 148q25 17 53 17q27 -1 51 -16v13q1 15 1 17q-1 84 -46 85q-36 -1 -71 -32l-17 34q-15 30 -17 33 q53 46 118 46q59 -1 85 -42q25 41 79 41q128 -2 128 -248v-33zM152 63q35 1 56 26q-18 59 -18 151q-17 11 -34 11q-46 -6 -48 -96q1 -91 44 -92zM369 286q-8 131 -47 135q-34 0 -44 -80q-3 -24 -4 -55h95z" glyph-name="ae" horiz-adv-x="477" unicode="æ"/>
<glyph d="M81 -178l10 43q20 -14 49 -14q41 2 42 34q-1 33 -49 33l-23 25l21 51q-101 28 -101 247q1 257 132 258q83 0 108 -95q5 -20 7 -43l-77 -23q-6 81 -38 82q-48 -2 -48 -178q0 -164 43 -173q3 -1 6 -1q35 0 46 89v2q2 -1 38 -11l9 -3t8 -2.5t8 -2t6 -1.5t5 -1l2 -1 q-19 -146 -124 -147l-13 -29q70 0 91 -50q5 -12 5 -24q0 -49 -42 -71q-23 -11 -53 -11q-37 1 -68 17z" glyph-name="ccedilla" horiz-adv-x="299" unicode="ç"/>
<glyph d="M289 217h-176q2 -149 54 -150q37 0 47 65v2q3 -1 36 -14q33 -14 37 -15q-26 -106 -112 -114q-7 -1 -14 -1q-130 2 -131 251q1 256 131 257q128 -2 128 -248v-33zM114 286h95q-8 131 -47 135q-34 0 -44 -80q-3 -24 -4 -55zM146 553l-98 148h102l45 -148h-49z" glyph-name="egrave" horiz-adv-x="317" unicode="è"/>
<glyph d="M289 217h-176q2 -149 54 -150q37 0 47 65v2q3 -1 36 -14q33 -14 37 -15q-26 -106 -112 -114q-7 -1 -14 -1q-130 2 -131 251q1 256 131 257q128 -2 128 -248v-33zM114 286h95q-8 131 -47 135q-34 0 -44 -80q-3 -24 -4 -55zM183 553h-49q2 6 22 74q21 67 23 74h97 q-4 -6 -46 -74q-43 -67 -47 -74z" glyph-name="eacute" horiz-adv-x="317" unicode="é"/>
<glyph d="M161 -10q-130 2 -131 251q1 256 131 257q128 -2 128 -248v-33h-176q2 -149 54 -150q37 0 47 65v2q3 -1 36 -14q33 -14 37 -15q-26 -106 -112 -114q-7 -1 -14 -1zM117 555h-66l77 150h71l75 -150h-69l-23 46q-20 41 -22 46q-2 -4 -22 -46q-19 -41 -21 -46zM114 286h95 q-8 131 -47 135q-34 0 -44 -80q-3 -24 -4 -55z" glyph-name="ecircumflex" horiz-adv-x="317" unicode="ê"/>
<glyph d="M161 -10q-130 2 -131 251q1 256 131 257q128 -2 128 -248v-33h-176q2 -149 54 -150q37 0 47 65v2q3 -1 36 -14q33 -14 37 -15q-26 -106 -112 -114q-7 -1 -14 -1zM114 286h95q-8 131 -47 135q-34 0 -44 -80q-3 -24 -4 -55zM179 572v95h87v-95h-87zM56 667h87v-95h-87v95z " glyph-name="edieresis" horiz-adv-x="317" unicode="ë"/>
<glyph d="M43 0v489h83v-489h-83zM60 553l-98 148h102l45 -148h-49z" glyph-name="igrave" horiz-adv-x="171" unicode="ì"/>
<glyph d="M43 0v489h83v-489h-83zM111 553h-49q2 6 22 74q21 67 23 74h97q-4 -6 -46 -74q-43 -67 -47 -74z" glyph-name="iacute" horiz-adv-x="171" unicode="í"/>
<glyph d="M43 0v489h83v-489h-83zM40 552h-66l77 150h71l75 -150h-69q-2 4 -22 46q-21 41 -23 46q-2 -4 -21 -46q-20 -41 -22 -46z" glyph-name="icircumflex" horiz-adv-x="171" unicode="î"/>
<glyph d="M43 0v489h83v-489h-83zM102 579v95h87v-95h-87zM-21 674h87v-95h-87v95z" glyph-name="idieresis" horiz-adv-x="171" unicode="ï"/>
<glyph d="M222 680l30 -33l-2 -1q-1 -2 -3 -3.5t-4 -3.5l-4.5 -4.5t-5.5 -4.5t-5.5 -4.5l-4.5 -4.5t-4 -3.5t-3 -3.5l-2 -1q76 -86 84 -260q1 -32 1 -80q0 -176 -47 -239q-34 -43 -89 -44q-132 2 -133 243q1 243 125 244q26 -1 47 -14l3 2q-11 55 -46 98q-2 -2 -24 -21 q-21 -19 -24 -22l-1 2l-2.5 2.5l-3.5 3.5t-4 4.5t-4 4.5t-4 4.5t-4 4.5l-3.5 3.5l-2.5 2.5l-1 2q21 21 45 40q-35 28 -76 41q2 3 18 32q15 29 17 32q55 -22 97 -55l2 2q2 1 4 3l5 5t6 5.5l6 5t6 5.5l5 5t4 3zM165 64q52 2 52 194q0 78 -8 124q-17 22 -40 23q-56 -1 -56 -162 q0 -128 20 -160q13 -18 32 -19z" glyph-name="eth" horiz-adv-x="327" unicode="ð"/>
<glyph d="M40 0v488h83v-27l3 -2q36 37 74 41q88 -2 89 -117v-383h-83v370q-5 50 -35 53q-23 -1 -48 -22v-401h-83zM40 580q15 77 44 88q8 3 16 3q18 0 65 -33q21 -15 28 -15q14 0 22 36q1 6 3 14q2 -1 23 -8q3 -1 5 -2t5 -2l4.5 -1.5t3.5 -1t3 -0.5l2 -1q-16 -84 -53 -92 q-6 -1 -11 -1q-19 0 -68 33q-15 10 -20 10q-14 0 -21 -27q-3 -8 -5 -19z" glyph-name="ntilde" horiz-adv-x="329" unicode="ñ"/>
<glyph d="M163 -10q-132 2 -133 253q7 248 134 255q132 -2 133 -255q0 -232 -114 -251q-10 -2 -20 -2zM165 64q50 3 49 179q0 165 -40 179q-6 2 -11 2q-51 -4 -50 -181q0 -161 40 -177q6 -2 12 -2zM146 553l-98 148h102l45 -148h-49z" glyph-name="ograve" horiz-adv-x="327" unicode="ò"/>
<glyph d="M163 -10q-132 2 -133 253q7 248 134 255q132 -2 133 -255q0 -232 -114 -251q-10 -2 -20 -2zM165 64q50 3 49 179q0 165 -40 179q-6 2 -11 2q-51 -4 -50 -181q0 -161 40 -177q6 -2 12 -2zM183 553h-49q2 6 22 74q21 67 23 74h97q-4 -6 -46 -74q-43 -67 -47 -74z" glyph-name="oacute" horiz-adv-x="327" unicode="ó"/>
<glyph d="M163 -10q-132 2 -133 253q7 248 134 255q132 -2 133 -255q0 -232 -114 -251q-10 -2 -20 -2zM163 424q-51 -4 -50 -181q0 -161 40 -177q6 -2 12 -2q50 3 49 179q0 165 -40 179q-6 2 -11 2zM122 552h-66l77 150h71l75 -150h-69q-2 4 -22 46q-21 41 -23 46q-2 -4 -21 -46 q-20 -41 -22 -46z" glyph-name="ocircumflex" horiz-adv-x="327" unicode="ô"/>
<glyph d="M163 -10q-132 2 -133 253q7 248 134 255q132 -2 133 -255q0 -232 -114 -251q-10 -2 -20 -2zM165 64q50 3 49 179q0 165 -40 179q-6 2 -11 2q-51 -4 -50 -181q0 -161 40 -177q6 -2 12 -2zM95 561l-46 19q15 77 44 88q8 3 16 3q18 0 65 -33q21 -15 28 -15q14 0 22 36 q1 6 3 14q2 -1 23 -8q3 -1 5 -2t5 -2l4.5 -1.5t3.5 -1t4 -0.5l1 -1q-16 -84 -53 -92q-6 -1 -11 -1q-19 0 -68 33q-15 10 -20 10q-14 0 -21 -27q-3 -8 -5 -19z" glyph-name="otilde" horiz-adv-x="327" unicode="õ"/>
<glyph d="M163 -10q-132 2 -133 253q7 248 134 255q132 -2 133 -255q0 -232 -114 -251q-10 -2 -20 -2zM163 424q-51 -4 -50 -181q0 -161 40 -177q6 -2 12 -2q50 3 49 179q0 165 -40 179q-6 2 -11 2zM182 579v95h87v-95h-87zM146 579h-87v95h87v-95z" glyph-name="odieresis" horiz-adv-x="327" unicode="ö"/>
<glyph d="M30 273v76h296v-76h-296zM129 129v102h98v-102h-98zM129 387v102h98v-102h-98z" glyph-name="divide" horiz-adv-x="356" unicode="÷"/>
<glyph d="M30 6l28 59q-28 64 -28 178q2 253 134 255q52 -1 84 -40l19 40l32 -15l-30 -62q28 -64 28 -178q-1 -252 -134 -253q-52 1 -84 40l-18 -38zM115 182q29 65 90 187q-12 54 -42 55q-40 0 -48 -106q-2 -33 -2 -75q0 -26 2 -61zM165 64q41 0 48 118q1 27 1 61q0 44 -1 62 q-6 -12 -58 -119q-31 -63 -33 -68q12 -53 43 -54z" glyph-name="oslash" horiz-adv-x="327" unicode="ø"/>
<glyph d="M40 488h83v-370q1 -51 33 -52q21 1 44 21v401h83v-488h-83v27l-3 2q-34 -40 -68 -41q-88 2 -89 117v383zM50 701h102l45 -148h-49z" glyph-name="ugrave" horiz-adv-x="323" unicode="ù"/>
<glyph d="M40 488h83v-370q1 -51 33 -52q21 1 44 21v401h83v-488h-83v27l-3 2q-34 -40 -68 -41q-88 2 -89 117v383zM181 553h-49q2 6 22 74q21 67 23 74h97q-4 -6 -46 -74q-43 -67 -47 -74z" glyph-name="uacute" horiz-adv-x="323" unicode="ú"/>
<glyph d="M40 488h83v-370q1 -51 33 -52q21 1 44 21v401h83v-488h-83v27l-3 2q-34 -40 -68 -41q-88 2 -89 117v383zM117 553h-66l77 150h71l75 -150h-69l-23 46q-20 41 -22 46q-2 -4 -22 -46q-19 -41 -21 -46z" glyph-name="ucircumflex" horiz-adv-x="323" unicode="û"/>
<glyph d="M40 105v383h83v-370q1 -51 33 -52q21 1 44 21v401h83v-488h-83v27l-3 2q-34 -40 -68 -41q-88 2 -89 117zM181 674h87v-95h-87v95zM145 579h-87v95h87v-95z" glyph-name="udieresis" horiz-adv-x="323" unicode="ü"/>
<glyph d="M8 488h88l66 -359h5q3 15 31 179q27 164 30 180h86l-99 -455q-24 -110 -65 -155q-36 -39 -96 -54q-2 2 -20 32q-17 29 -19 32q96 15 108 107l-4 17q-4 18 -10.5 46.5t-15.5 65t-18 77.5t-18.5 81.5t-18.5 77t-15.5 65t-10.5 45.5zM128 553q2 6 22 74q21 67 23 74h97 q-4 -6 -46 -74q-43 -67 -47 -74h-49z" glyph-name="yacute" horiz-adv-x="319" unicode="ý"/>
<glyph d="M40 671h83v-208l3 -2q25 35 64 36q96 0 105 -207q1 -24 1 -49q0 -211 -72 -246q-17 -8 -37 -8q-30 1 -59 26l-5 -1v-177h-83v836zM123 401v-325q27 -21 44 -21q43 0 45 173v15q0 167 -36 179q-4 1 -7 1q-23 -1 -46 -22z" glyph-name="thorn" horiz-adv-x="326" unicode="þ"/>
<glyph d="M8 488h88l66 -359h5q3 15 31 179q27 164 30 180h86l-99 -455q-24 -110 -65 -155q-36 -39 -96 -54q-2 2 -20 32q-17 29 -19 32q96 15 108 107l-4 17q-4 18 -10.5 46.5t-15.5 65t-18 77.5t-18.5 81.5t-18.5 77t-15.5 65t-10.5 45.5zM269 579h-87v95h87v-95zM59 579v95h87 v-95h-87z" glyph-name="ydieresis" horiz-adv-x="319" unicode="ÿ"/>
<glyph d="M5 0l125 651h87l125 -651h-86l-28 154h-110l-28 -154h-85zM74 801h196v-70h-196v70zM130 228h85l-41 239z" glyph-name="Amacron" horiz-adv-x="347" unicode="Ā"/>
<glyph d="M201 30h-4q-27 -36 -65 -39q-106 2 -107 163q0 114 63 153q24 15 52 15q28 -1 51 -17v49q-3 64 -46 66q-34 -1 -68 -32l-34 65q53 46 115 46q107 0 115 -114q1 -10 1 -21v-277q1 -23 13 -24q9 1 23 8v-61q-23 -17 -57 -17q-43 2 -52 37zM192 82v156q-17 11 -34 11 q-40 0 -48 -68q-2 -13 -2 -28q0 -77 34 -90q5 -2 10 -2q20 1 40 21zM66 573v70h196v-70h-196z" glyph-name="amacron" horiz-adv-x="321" unicode="ā"/>
<glyph d="M90 0h-85l125 651h87l125 -651h-86l-28 154h-110zM174 703q-77 0 -99 78q-8 31 -6 68h55q2 -70 25 -86q11 -6 24 -6q52 2 47 92h59q5 -97 -51 -132q-24 -14 -54 -14zM174 467l-44 -239h85z" glyph-name="Abreve" horiz-adv-x="347" unicode="Ă"/>
<glyph d="M25 154q0 114 63 153q24 15 52 15q28 -1 51 -17v49q-3 64 -46 66q-34 -1 -68 -32l-34 65q53 46 115 46q107 0 115 -114q1 -10 1 -21v-277q1 -23 13 -24q9 1 23 8v-61q-23 -17 -57 -17q-43 2 -52 37h-4q-27 -36 -65 -39q-106 2 -107 163zM158 546q-77 0 -99 78 q-8 31 -6 68h55q2 -70 25 -86q11 -6 24 -6q52 2 47 92h59q5 -97 -51 -132q-24 -14 -54 -14zM108 153q0 -77 34 -90q5 -2 10 -2q20 1 40 21v156q-17 11 -34 11q-40 0 -48 -68q-2 -13 -2 -28z" glyph-name="abreve" horiz-adv-x="321" unicode="ă"/>
<glyph d="M90 0h-85l125 651h87l125 -651h-47q-58 -56 -63 -107q2 -39 40 -40q18 0 52 11l5 -39q-34 -22 -74 -22q-77 6 -81 74q0 42 37 88q17 20 38 35q1 0 3 2t3 2l-27 150h-110zM130 228h85l-41 239z" glyph-name="Aogonek" horiz-adv-x="347" unicode="Ą"/>
<glyph d="M25 154q0 114 63 153q24 15 52 15q28 -1 51 -17v47q0 56 -36 65q-6 1 -11 1q-31 -1 -65 -32l-34 67q53 46 112 46q106 0 116 -115q1 -13 1 -25v-270q1 -28 17 -29q7 0 17 3v-61q-20 -8 -41 -10q-53 -51 -55 -99q2 -39 40 -40q18 0 52 11l5 -39q-34 -22 -74 -22 q-77 6 -81 74q0 44 38 89q16 19 36 33q-22 12 -29 30q-27 -34 -67 -38q-84 0 -102 104q-5 27 -5 59zM108 153q0 -77 34 -90q5 -2 10 -2q19 1 39 21v156q-17 11 -33 11q-40 0 -48 -68q-2 -13 -2 -28z" glyph-name="aogonek" horiz-adv-x="320" unicode="ą"/>
<glyph d="M184 -11q-93 0 -125 124q-19 77 -19 211q0 302 115 333q15 4 31 4q105 0 129 -153q2 -14 3 -27l-40 -10q-35 -9 -39 -10q-9 107 -41 119q-6 2 -12 2q-43 0 -53 -126q-4 -52 -4 -132q0 -240 50 -254q4 -1 8 -1q40 2 55 122q4 -1 42 -10q37 -9 41 -10q-21 -181 -141 -182z M197 702h-47q2 6 22 74q20 67 22 74h100l-24 -37l-48 -74z" glyph-name="Cacute" horiz-adv-x="345" unicode="Ć"/>
<glyph d="M277 361l-77 -23q-6 81 -38 82q-48 -2 -48 -178q0 -164 43 -173q3 -1 6 -1q35 0 46 89v2q3 -1 38 -11q34 -10 38 -11q-19 -146 -124 -147q-130 2 -131 251q1 257 132 258q83 0 108 -95q5 -20 7 -43zM175 553h-49q2 6 22 74q21 67 23 74h97q-4 -6 -46 -74q-43 -67 -47 -74 z" glyph-name="cacute" horiz-adv-x="299" unicode="ć"/>
<glyph d="M40 324q0 302 115 333q15 4 31 4q105 0 129 -153q2 -14 3 -27l-40 -10q-35 -9 -39 -10q-9 107 -41 119q-6 2 -12 2q-43 0 -53 -126q-4 -52 -4 -132q0 -240 50 -254q4 -1 8 -1q40 2 55 122q4 -1 42 -10q37 -9 41 -10q-21 -181 -141 -182q-93 0 -125 124q-19 77 -19 211z M139 702h-67q3 6 38 74q36 67 39 74h72l75 -148h-69q-2 4 -23 45q-20 41 -22 45q-1 -3 -14 -29q-26 -56 -29 -61z" glyph-name="Ccircumflex" horiz-adv-x="345" unicode="Ĉ"/>
<glyph d="M161 -10q-130 2 -131 251q1 257 132 258q83 0 108 -95q5 -20 7 -43l-77 -23q-6 81 -38 82q-48 -2 -48 -178q0 -164 43 -173q3 -1 6 -1q35 0 46 89v2q3 -1 38 -11q34 -10 38 -11q-19 -146 -124 -147zM49 552l77 150h71l75 -150h-69l-23 46q-20 41 -22 46q-2 -4 -22 -46 q-19 -41 -21 -46h-66z" glyph-name="ccircumflex" horiz-adv-x="299" unicode="ĉ"/>
<glyph d="M184 -11q-93 0 -125 124q-19 77 -19 211q0 302 115 333q15 4 31 4q105 0 129 -153q2 -14 3 -27l-40 -10q-35 -9 -39 -10q-9 107 -41 119q-6 2 -12 2q-43 0 -53 -126q-4 -52 -4 -132q0 -240 50 -254q4 -1 8 -1q40 2 55 122q4 -1 42 -10q37 -9 41 -10q-21 -181 -141 -182z M141 731v95h87v-95h-87z" glyph-name="Cdotaccent" horiz-adv-x="345" unicode="Ċ"/>
<glyph d="M277 361l-77 -23q-6 81 -38 82q-48 -2 -48 -178q0 -164 43 -173q3 -1 6 -1q35 0 46 89v2q3 -1 38 -11q34 -10 38 -11q-19 -146 -124 -147q-130 2 -131 251q1 257 132 258q83 0 108 -95q5 -20 7 -43zM120 569v95h87v-95h-87z" glyph-name="cdotaccent" horiz-adv-x="299" unicode="ċ"/>
<glyph d="M184 -11q-93 0 -125 124q-19 77 -19 211q0 302 115 333q15 4 31 4q105 0 129 -153q2 -14 3 -27l-40 -10q-35 -9 -39 -10q-9 107 -41 119q-6 2 -12 2q-43 0 -53 -126q-4 -52 -4 -132q0 -240 50 -254q4 -1 8 -1q40 2 55 122q4 -1 42 -10q37 -9 41 -10q-21 -181 -141 -182z M151 702q-3 6 -39 74q-35 67 -38 74h67q2 -4 21 -45q20 -41 22 -45l45 90h67q-3 -6 -38 -74q-34 -67 -37 -74h-70z" glyph-name="Ccaron" horiz-adv-x="345" unicode="Č"/>
<glyph d="M161 -10q-130 2 -131 251q1 257 132 258q83 0 108 -95q5 -20 7 -43l-77 -23q-6 81 -38 82q-48 -2 -48 -178q0 -164 43 -173q3 -1 6 -1q35 0 46 89v2q3 -1 38 -11q34 -10 38 -11q-19 -146 -124 -147zM50 702h70q32 -65 43 -92l45 92h65l-75 -150h-71q-3 6 -39 75 q-35 68 -38 75z" glyph-name="ccaron" horiz-adv-x="299" unicode="č"/>
<glyph d="M50 0v651h120q105 0 138 -110q22 -71 22 -211q0 -242 -82 -304q-36 -26 -87 -26h-111zM137 77h23q46 0 64 64q17 60 17 187q0 197 -43 234q-15 12 -35 12h-26v-497zM127 702q-3 6 -39 74q-35 67 -38 74h67q2 -4 21 -45q20 -41 22 -45l45 90h67q-3 -6 -38 -74 q-34 -67 -37 -74h-70z" glyph-name="Dcaron" horiz-adv-x="370" unicode="Ď"/>
<glyph d="M30 247q0 211 72 246q17 8 37 8q30 -1 59 -26q1 0 5 1v194h83v-670h-83v25l-3 2q-25 -35 -64 -36q-96 0 -105 207q-1 24 -1 49zM159 427q-37 0 -43 -114q-2 -30 -2 -68q0 -171 37 -181q3 -1 6 -1q23 1 46 22v321q-27 21 -44 21zM322 511l-15 40q52 8 54 48v12h-30v85h93 v-62q0 -105 -84 -121z" glyph-name="dcaron" horiz-adv-x="407" unicode="ď"/>
<glyph d="M50 306h-44v63h44v282h120q105 0 138 -110q22 -71 22 -211q0 -242 -82 -304q-36 -26 -87 -26h-111v306zM163 574h-26v-205h60v-63h-60v-229h23q46 0 64 64q17 60 17 187q0 197 -43 234q-15 12 -35 12z" glyph-name="Dcroat" horiz-adv-x="370" unicode="Đ"/>
<glyph d="M136 -9q-96 0 -105 207q-1 24 -1 49q0 148 40 188q25 24 69 24q35 -1 63 -25h1v98h-66v59h66v79h83v-79h40v-59h-40v-532h-83v25l-2 1q-24 -34 -65 -35zM159 385q-24 0 -32 -14q-13 -27 -13 -126q0 -171 37 -181q3 -1 6 -1q23 1 46 22v279q-27 21 -44 21z" glyph-name="dcroat" horiz-adv-x="326" unicode="đ"/>
<glyph d="M50 0v651h207v-81h-119v-183h78v-81h-78v-225h127v-81h-215zM247 727h-196v70h196v-70z" glyph-name="Emacron" horiz-adv-x="285" unicode="Ē"/>
<glyph d="M289 217h-176q2 -149 54 -150q37 0 47 65v2q3 -1 36 -14q33 -14 37 -15q-26 -106 -112 -114q-7 -1 -14 -1q-130 2 -131 251q1 256 131 257q128 -2 128 -248v-33zM114 286h95q-8 131 -47 135q-34 0 -44 -80q-3 -24 -4 -55zM63 573v70h196v-70h-196z" glyph-name="emacron" horiz-adv-x="317" unicode="ē"/>
<glyph d="M46 0v651h207v-81h-119v-183h78v-81h-78v-225h127v-81h-215zM149 703q-77 0 -99 78q-8 31 -6 68h55q2 -70 25 -86q11 -6 24 -6q52 2 47 92h59q5 -97 -51 -132q-24 -14 -54 -14z" glyph-name="Ebreve" horiz-adv-x="281" unicode="Ĕ"/>
<glyph d="M161 -10q-130 2 -131 251q1 256 131 257q128 -2 128 -248v-33h-176q2 -149 54 -150q37 0 47 65v2q3 -1 36 -14q33 -14 37 -15q-26 -106 -112 -114q-7 -1 -14 -1zM162 546q-77 0 -99 78q-8 31 -6 68h55q2 -70 25 -86q11 -6 24 -6q52 2 47 92h59q5 -97 -51 -132 q-24 -14 -54 -14zM162 421q-34 0 -44 -80q-3 -24 -4 -55h95q-8 131 -47 135z" glyph-name="ebreve" horiz-adv-x="317" unicode="ĕ"/>
<glyph d="M50 0v651h207v-81h-119v-183h78v-81h-78v-225h127v-81h-215zM195 726h-87v95h87v-95z" glyph-name="Edotaccent" horiz-adv-x="285" unicode="Ė"/>
<glyph d="M289 217h-176q2 -149 54 -150q37 0 47 65v2q3 -1 36 -14q33 -14 37 -15q-26 -106 -112 -114q-7 -1 -14 -1q-130 2 -131 251q1 256 131 257q128 -2 128 -248v-33zM114 286h95q-8 131 -47 135q-34 0 -44 -80q-3 -24 -4 -55zM118 565v95h87v-95h-87z" glyph-name="edotaccent" horiz-adv-x="317" unicode="ė"/>
<glyph d="M50 0v651h207v-81h-119v-183h78v-81h-78v-225h127v-81h-32q-58 -56 -63 -107q2 -39 40 -40q18 0 52 11l5 -39q-34 -22 -74 -22q-77 6 -81 74q0 44 38 89q17 20 38 34h-138z" glyph-name="Eogonek" horiz-adv-x="285" unicode="Ę"/>
<glyph d="M263 -110l5 -39q-34 -22 -74 -22q-77 6 -81 74q1 44 37 87q-77 17 -106 130q-14 54 -14 121q1 256 131 257q128 -2 128 -248v-33h-176q2 -149 54 -150q37 0 47 65v2l73 -29q-22 -84 -80 -107q-36 -41 -36 -79q2 -39 40 -40q18 0 52 11zM114 286h95q-8 131 -47 135 q-34 0 -44 -80q-3 -24 -4 -55z" glyph-name="eogonek" horiz-adv-x="317" unicode="ę"/>
<glyph d="M50 651h207v-81h-119v-183h78v-81h-78v-225h127v-81h-215v651zM117 702q-3 6 -39 74q-35 67 -38 74h67q2 -4 21 -45q20 -41 22 -45l45 90h67q-3 -6 -38 -74q-34 -67 -37 -74h-70z" glyph-name="Ecaron" horiz-adv-x="285" unicode="Ě"/>
<glyph d="M161 -10q-130 2 -131 251q1 256 131 257q128 -2 128 -248v-33h-176q2 -149 54 -150q37 0 47 65v2q3 -1 36 -14q33 -14 37 -15q-26 -106 -112 -114q-7 -1 -14 -1zM128 552q-3 6 -38 75q-36 68 -39 75h70q32 -65 43 -92l45 92h65l-75 -150h-71zM114 286h95q-8 131 -47 135 q-34 0 -44 -80q-3 -24 -4 -55z" glyph-name="ecaron" horiz-adv-x="317" unicode="ě"/>
<glyph d="M40 324q0 314 126 335q11 2 21 2q95 0 123 -120q7 -28 9 -59l-79 -20q-9 107 -39 118q-6 2 -12 2q-59 -2 -59 -258q0 -215 35 -248q11 -9 24 -9q36 0 46 57q5 30 5 79v53h-59v77h144v-336h-48l-13 48q-19 -47 -70 -54q-6 -1 -11 -1q-87 0 -118 96q-25 78 -25 238z M144 702h-67q3 6 39 74q35 67 38 74h72l75 -148h-69q-2 4 -22 45q-21 41 -23 45q-1 -3 -14 -29q-26 -56 -29 -61z" glyph-name="Gcircumflex" horiz-adv-x="365" unicode="Ĝ"/>
<glyph d="M140 -12q-94 0 -107 177q-3 35 -3 77q0 239 98 255q8 1 15 1q31 -1 57 -34l3 1v23h84v-445q0 -113 -43 -161q-25 -27 -65 -44q-35 -12 -46 -15q-2 3 -24 34q-22 30 -24 34q77 20 100 55q18 27 18 68v9h-4q-27 -34 -59 -35zM158 427q-43 -8 -44 -183q0 -172 40 -180 q4 -1 6 -1q21 1 43 21v321q-24 22 -45 22zM52 552l77 150h71l75 -150h-69q-2 4 -22 46q-21 41 -23 46q-2 -4 -21 -46q-20 -41 -22 -46h-66z" glyph-name="gcircumflex" horiz-adv-x="327" unicode="ĝ"/>
<glyph d="M183 -10q-87 0 -118 96q-25 78 -25 238q0 314 126 335q11 2 21 2q95 0 123 -120q7 -28 9 -59l-79 -20q-9 107 -39 118q-6 2 -12 2q-59 -2 -59 -258q0 -215 35 -248q11 -9 24 -9q36 0 46 57q5 30 5 79v53h-59v77h144v-336h-48l-13 48q-19 -47 -70 -54q-6 -1 -11 -1z M190 704q-77 0 -99 78q-8 31 -6 68h55q2 -70 25 -86q11 -6 24 -6q52 2 47 92h59q5 -97 -51 -132q-24 -14 -54 -14z" glyph-name="Gbreve" horiz-adv-x="365" unicode="Ğ"/>
<glyph d="M140 -12q-94 0 -107 177q-3 35 -3 77q0 239 98 255q8 1 15 1q31 -1 57 -34l3 1v23h84v-445q0 -113 -43 -161q-25 -27 -65 -44q-35 -12 -46 -15q-2 3 -24 34q-22 30 -24 34q77 20 100 55q18 27 18 68v9h-4q-27 -34 -59 -35zM158 427q-43 -8 -44 -183q0 -172 40 -180 q4 -1 6 -1q21 1 43 21v321q-24 22 -45 22zM173 546q-77 0 -99 78q-8 31 -6 68h55q2 -70 25 -86q11 -6 24 -6q52 2 47 92h59q5 -97 -51 -132q-24 -14 -54 -14z" glyph-name="gbreve" horiz-adv-x="327" unicode="ğ"/>
<glyph d="M277 -3l-13 48q-19 -47 -70 -54q-6 -1 -11 -1q-87 0 -118 96q-25 78 -25 238q0 314 126 335q11 2 21 2q95 0 123 -120q7 -28 9 -59l-79 -20q-9 107 -39 118q-6 2 -12 2q-59 -2 -59 -258q0 -215 35 -248q11 -9 24 -9q36 0 46 57q5 30 5 79v53h-59v77h144v-336h-48z M146 719v95h87v-95h-87z" glyph-name="Gdotaccent" horiz-adv-x="365" unicode="Ġ"/>
<glyph d="M30 242q0 239 98 255q8 1 15 1q31 -1 57 -34l3 1v23h84v-445q0 -113 -43 -161q-25 -27 -65 -44q-35 -12 -46 -15q-2 3 -24 34q-22 30 -24 34q77 20 100 55q18 27 18 68v9h-4q-27 -34 -59 -35q-94 0 -107 177q-3 35 -3 77zM114 244q0 -172 40 -180q4 -1 6 -1q21 1 43 21 v321q-24 22 -45 22q-43 -8 -44 -183zM189 569h-87v95h87v-95z" glyph-name="gdotaccent" horiz-adv-x="327" unicode="ġ"/>
<glyph d="M277 -3l-13 48q-19 -47 -70 -54q-6 -1 -11 -1q-87 0 -118 96q-25 78 -25 238q0 314 126 335q11 2 21 2q95 0 123 -120q7 -28 9 -59l-79 -20q-9 107 -39 118q-6 2 -12 2q-59 -2 -59 -258q0 -215 35 -248q11 -9 24 -9q36 0 46 57q5 30 5 79v53h-59v77h144v-336h-48z M126 -240l-15 40q52 8 54 48v12h-30v85h93v-62q0 -105 -84 -121z" glyph-name="uni0122" horiz-adv-x="365" unicode="Ģ"/>
<glyph d="M140 -12q-94 0 -107 177q-3 35 -3 77q0 239 98 255q8 1 15 1q31 -1 57 -34l3 1v23h84v-445q0 -113 -43 -161q-25 -27 -65 -44q-35 -12 -46 -15q-2 3 -24 34q-22 30 -24 34q77 20 100 55q18 27 18 68v9h-4q-27 -34 -59 -35zM158 427q-43 -8 -44 -183q0 -172 40 -180 q4 -1 6 -1q21 1 43 21v321q-24 22 -45 22zM214 544h-93v62q0 105 84 121l18 2l15 -40q-52 -8 -54 -48v-12h30v-85z" glyph-name="uni0123" horiz-adv-x="327" unicode="ģ"/>
<glyph d="M138 0h-88v651h88v-265h114v265h88v-651h-88v306h-114v-306zM147 702h-67q3 6 38 74q36 67 39 74h72l75 -148h-69q-2 4 -23 45q-20 41 -22 45q-1 -3 -14 -29q-26 -56 -29 -61z" glyph-name="Hcircumflex" horiz-adv-x="390" unicode="Ĥ"/>
<glyph d="M40 0v670h83v-209l3 -2q36 37 74 41q88 -2 89 -117v-383h-83v372q-5 50 -35 53q-23 -1 -48 -22v-403h-83zM40 714h-67q3 6 39 74q35 67 38 74h72l75 -148h-69q-2 4 -22 45q-21 41 -23 45q-1 -3 -14 -29q-26 -56 -29 -61z" glyph-name="hcircumflex" horiz-adv-x="329" unicode="ĥ"/>
<glyph d="M25 550h25v101h88v-101h114v101h88v-101h25v-59h-25v-491h-88v306h-114v-306h-88v491h-25v59zM138 491v-105h114v105h-114z" glyph-name="Hbar" horiz-adv-x="390" unicode="Ħ"/>
<glyph d="M40 532h-40v59h40v80h83v-80h65v-59h-65v-101l3 -2q36 37 74 41q88 -2 89 -117v-353h-83v342q-5 50 -35 53q-23 -1 -48 -22v-373h-83v532z" glyph-name="hbar" horiz-adv-x="326" unicode="ħ"/>
<glyph d="M50 0v651h88v-651h-88zM27 710l-46 19q15 77 44 88q8 3 16 3q18 0 65 -33q21 -15 28 -15q14 0 22 36q1 6 3 14q2 0 23 -8q3 -1 5 -2t5 -2l4.5 -1.5t3.5 -1t4 -1.5h1q-16 -84 -53 -92q-6 -1 -11 -1q-19 0 -68 33q-15 10 -20 10q-14 0 -21 -27q-3 -8 -5 -19z" glyph-name="Itilde" horiz-adv-x="188" unicode="Ĩ"/>
<glyph d="M43 0v489h83v-489h-83zM15 559l-46 19q15 77 44 88q8 3 16 3q18 0 65 -33q21 -15 28 -15q14 0 22 36q1 6 3 14q2 -1 23 -8q3 -1 5 -2t5 -2l4.5 -1.5t3.5 -1t4 -0.5l1 -1q-16 -84 -53 -92q-6 -1 -11 -1q-19 0 -68 33q-15 10 -20 10q-14 0 -21 -27q-3 -8 -5 -19z" glyph-name="itilde" horiz-adv-x="171" unicode="ĩ"/>
<glyph d="M50 0v651h88v-651h-88zM-3 726v70h196v-70h-196z" glyph-name="Imacron" horiz-adv-x="188" unicode="Ī"/>
<glyph d="M43 0v489h83v-489h-83zM-13 581v70h196v-70h-196z" glyph-name="imacron" horiz-adv-x="171" unicode="ī"/>
<glyph d="M134 0h-88v651h88v-651zM93 703q-76 0 -99 77q-9 31 -7 69h56q2 -70 25 -86q11 -6 24 -6q52 2 47 92h59q5 -97 -51 -132q-24 -14 -54 -14z" glyph-name="Ibreve" horiz-adv-x="180" unicode="Ĭ"/>
<glyph d="M121 0h-82v489h83zM81 546q-76 0 -99 77q-9 31 -7 69h56q2 -70 25 -86q11 -6 24 -6q52 2 47 92h59q5 -97 -51 -132q-24 -14 -54 -14z" glyph-name="ibreve" horiz-adv-x="163" unicode="ĭ"/>
<glyph d="M60 -207q-77 6 -81 74q0 45 39 90q23 26 53 43h-21v651h88v-651h-25q-67 -51 -75 -108q-1 -5 -1 -9q2 -39 40 -40q18 0 52 11l5 -39q-34 -22 -74 -22z" glyph-name="Iogonek" horiz-adv-x="188" unicode="Į"/>
<glyph d="M57 -197q-77 6 -81 74q0 44 38 89q17 20 38 34h-9v489h83v-489h-29q-58 -56 -63 -107q2 -39 40 -40q18 0 52 11l5 -39q-34 -22 -74 -22zM129 571h-87v95h87v-95z" glyph-name="iogonek" horiz-adv-x="171" unicode="į"/>
<glyph d="M50 0v651h88v-651h-88zM50 812h87v-95h-87v95z" glyph-name="Idotaccent" horiz-adv-x="188" unicode="İ"/>
<glyph d="M43 0v489h83v-489h-83z" glyph-name="dotlessi" horiz-adv-x="171" unicode="ı"/>
<glyph d="M159 146l82 29q16 -105 69 -106q48 0 56 62q2 13 2 27v493h87v-489q0 -114 -77 -155q-32 -17 -70 -17q-113 0 -143 125q-4 15 -6 31zM50 651h88v-651h-88v651z" glyph-name="IJ" horiz-adv-x="500" unicode="Ĳ"/>
<glyph d="M134 -167l-7 72q23 -7 36 -7q43 2 44 56v535h83v-520q0 -118 -75 -138q-17 -4 -37 -4q-21 0 -44 6zM43 0v489h83v-489h-83zM206 666h87v-95h-87v95zM42 571v95h87v-95h-87z" glyph-name="ij" horiz-adv-x="333" unicode="ĳ"/>
<glyph d="M-10 147l82 29q16 -105 69 -106q48 0 56 62q2 13 2 27v493h87v-489q0 -114 -77 -155q-32 -17 -70 -17q-113 0 -143 125q-4 15 -6 31zM128 702q3 6 38 74q36 67 39 74h72l75 -148h-69q-2 4 -23 45q-20 41 -22 45q-1 -3 -14 -29q-26 -56 -29 -61h-67z" glyph-name="Jcircumflex" horiz-adv-x="336" unicode="Ĵ"/>
<glyph d="M-32 -167l-7 72q23 -7 36 -7q43 2 44 56v535h83v-520q0 -118 -75 -138q-17 -4 -37 -4q-21 0 -44 6zM36 552h-66l77 150h71l75 -150h-69q-2 4 -22 46q-21 41 -23 46q-2 -4 -21 -46q-20 -41 -22 -46z" glyph-name="jcircumflex" horiz-adv-x="168" unicode="ĵ"/>
<glyph d="M50 0v651h88v-235l108 235h90q-63 -133 -109 -235q5 -18 61 -208t61 -208h-91q-3 11 -36 125q-50 177 -55 193l-15 -30q-13 -28 -14 -31v-257h-88zM134 -217l-15 40q52 8 54 48v12h-30v85h93v-62q0 -105 -84 -121z" glyph-name="uni0136" horiz-adv-x="357" unicode="Ķ"/>
<glyph d="M40 0v670h82v-357l85 176h92l-87 -160l90 -329h-83l-65 231l-32 -60v-171h-82zM107 -223l-15 40q52 8 54 48v12h-30v85h93v-62q0 -105 -84 -121z" glyph-name="uni0137" horiz-adv-x="309" unicode="ķ"/>
<glyph d="M40 489h82v-176l85 176h92l-87 -160l90 -329h-83l-65 231l-32 -60v-171h-82v489z" glyph-name="kgreenlandic" horiz-adv-x="314" unicode="ĸ"/>
<glyph d="M50 0v651h88v-570h138v-81h-226zM121 702h-47q2 6 22 74q20 67 22 74h100l-24 -37l-48 -74z" glyph-name="Lacute" horiz-adv-x="281" unicode="Ĺ"/>
<glyph d="M45 0v671h84v-671h-84zM103 714h-47q2 6 22 74q20 67 22 74h100l-24 -37l-48 -74z" glyph-name="lacute" horiz-adv-x="174" unicode="ĺ"/>
<glyph d="M50 0v651h88v-570h138v-81h-226zM98 -230l-15 40q52 8 54 48v12h-30v85h93v-62q0 -105 -84 -121z" glyph-name="uni013B" horiz-adv-x="281" unicode="Ļ"/>
<glyph d="M45 0v671h84v-671h-84zM31 -222l-15 40q52 8 54 48v12h-30v85h93v-62q0 -105 -84 -121z" glyph-name="uni013C" horiz-adv-x="174" unicode="ļ"/>
<glyph d="M50 0v651h88v-570h138v-81h-226zM198 473l-15 40q52 8 54 48v12h-30v85h93v-62q0 -105 -84 -121z" glyph-name="Lcaron" horiz-adv-x="292" unicode="Ľ"/>
<glyph d="M129 0h-84v671h84v-671zM169 510l-15 40q52 8 54 48v12h-30v85h93v-62q0 -105 -84 -121z" glyph-name="lcaron" horiz-adv-x="254" unicode="ľ"/>
<glyph d="M50 0v651h88v-570h138v-81h-226zM193 288v95h87v-95h-87z" glyph-name="Ldot" horiz-adv-x="281" unicode="Ŀ"/>
<glyph d="M45 0v671h84v-671h-84zM163 289v95h87v-95h-87z" glyph-name="ldot" horiz-adv-x="252" unicode="ŀ"/>
<glyph d="M-11 257l61 35v359h88v-308l53 30l25 -43l-78 -46v-203h138v-81h-226v233l-34 -20z" glyph-name="Lslash" horiz-adv-x="281" unicode="Ł"/>
<glyph d="M-16 267l61 36v368h84v-319l41 24l25 -43l-66 -39v-294h-84v243l-34 -20z" glyph-name="lslash" horiz-adv-x="174" unicode="ł"/>
<glyph d="M129 -1h-80l1 652h98l106 -393h2l1 393h81l-1 -651h-88l-117 423h-2zM206 702h-47q2 6 22 74q20 67 22 74h100l-24 -37q-24 -37 -49 -74z" glyph-name="Nacute" horiz-adv-x="387" unicode="Ń"/>
<glyph d="M123 0h-83v488h83v-27l3 -2q36 37 74 41q88 -2 89 -117v-383h-83v370q-5 50 -35 53q-23 -1 -48 -22v-401zM122 553q2 6 22 74q21 67 23 74h97q-4 -6 -46 -74q-43 -67 -47 -74h-49z" glyph-name="nacute" horiz-adv-x="329" unicode="ń"/>
<glyph d="M129 -1h-80l1 652h98l106 -393h2l1 393h81l-1 -651h-88l-117 423h-2zM133 -213l-15 40q52 8 54 48v12h-30v85h93v-62q0 -105 -84 -121z" glyph-name="uni0145" horiz-adv-x="387" unicode="Ņ"/>
<glyph d="M40 488h83v-27l3 -2q36 37 74 41q88 -2 89 -117v-383h-83v370q-5 50 -35 53q-23 -1 -48 -22v-401h-83v488zM98 -180q52 8 54 48v12h-30v85h93v-62q0 -105 -84 -121l-18 -2z" glyph-name="uni0146" horiz-adv-x="329" unicode="ņ"/>
<glyph d="M49 -1l1 652h98l106 -393h2l1 393h81l-1 -651h-88l-117 423h-2l-1 -424h-80zM84 850h67q2 -4 21 -45q20 -41 22 -45l45 90h67q-3 -6 -38 -74q-34 -67 -37 -74h-70q-3 6 -39 74q-35 67 -38 74z" glyph-name="Ncaron" horiz-adv-x="387" unicode="Ň"/>
<glyph d="M40 0v488h83v-27l3 -2q36 37 74 41q88 -2 89 -117v-383h-83v370q-5 50 -35 53q-23 -1 -48 -22v-401h-83zM50 702h70q32 -65 43 -92l45 92h65l-75 -150h-71q-3 6 -39 75q-35 68 -38 75z" glyph-name="ncaron" horiz-adv-x="329" unicode="ň"/>
<glyph d="M100 488h83v-27l3 -2q36 37 74 41q88 -2 89 -117v-383h-83v370q-5 50 -35 53q-23 -1 -48 -22v-401h-83v488zM-5 532q52 8 54 48v12h-30v85h93v-62q0 -105 -84 -121l-18 -2z" glyph-name="napostrophe" horiz-adv-x="389" unicode="ŉ"/>
<glyph d="M50 651h98l106 -393h2v393h81l-1 -687q0 -108 -60 -133q-23 -9 -52 -9q-21 0 -44 6l-7 72q23 -7 36 -7q43 2 44 56v39l-121 435h-2v-423h-80v651z" glyph-name="Eng" horiz-adv-x="387" unicode="Ŋ"/>
<glyph d="M40 488h83v-27l3 -2q36 37 74 41q88 -2 89 -117v-419q0 -108 -60 -133q-23 -9 -52 -9q-21 0 -44 6q-1 3 -3 36q-3 32 -4 36q23 -7 36 -7q43 2 44 56v421q-5 50 -35 53q-23 -1 -48 -22v-401h-83v488z" glyph-name="eng" horiz-adv-x="329" unicode="ŋ"/>
<glyph d="M186 -10q-93 0 -125 113q-21 77 -21 222q0 191 39 268q36 67 108 68q94 0 125 -116q21 -77 21 -219q0 -183 -34 -259q-36 -76 -113 -77zM187 68q23 2 36 27q24 52 24 230q0 229 -45 254q-8 4 -16 4q-35 0 -49 -73v-2q-10 -60 -10 -182q0 -240 51 -257q5 -1 9 -1zM89 733 v70h196v-70h-196z" glyph-name="Omacron" horiz-adv-x="373" unicode="Ō"/>
<glyph d="M163 -10q-132 2 -133 253q7 248 134 255q132 -2 133 -255q0 -232 -114 -251q-10 -2 -20 -2zM165 64q50 3 49 179q0 165 -40 179q-6 2 -11 2q-51 -4 -50 -181q0 -161 40 -177q6 -2 12 -2zM64 581v70h196v-70h-196z" glyph-name="omacron" horiz-adv-x="327" unicode="ō"/>
<glyph d="M186 -10q-93 0 -125 113q-21 77 -21 222q0 191 39 268q36 67 108 68q94 0 125 -116q21 -77 21 -219q0 -183 -34 -259q-36 -76 -113 -77zM127 326q0 -240 51 -257q5 -1 9 -1q23 2 36 27q24 52 24 230q0 229 -45 254q-8 4 -16 4q-35 0 -49 -73v-2q-10 -60 -10 -182z M187 703q-77 0 -99 78q-8 31 -6 68h55q2 -70 25 -86q11 -6 24 -6q52 2 47 92h59q5 -97 -51 -132q-24 -14 -54 -14z" glyph-name="Obreve" horiz-adv-x="373" unicode="Ŏ"/>
<glyph d="M30 243q7 248 134 255q132 -2 133 -255q0 -232 -114 -251q-10 -2 -20 -2q-132 2 -133 253zM163 424q-51 -4 -50 -181q0 -161 40 -177q6 -2 12 -2q50 3 49 179q0 165 -40 179q-6 2 -11 2zM164 546q-77 0 -99 78q-8 31 -6 68h55q2 -70 25 -86q11 -6 24 -6q52 2 47 92h59 q5 -97 -51 -132q-24 -14 -54 -14z" glyph-name="obreve" horiz-adv-x="327" unicode="ŏ"/>
<glyph d="M186 -10q-93 0 -125 113q-21 77 -21 222q0 191 39 268q36 67 108 68q94 0 125 -116q21 -77 21 -219q0 -183 -34 -259q-36 -76 -113 -77zM137 508q-10 -60 -10 -182q0 -240 51 -257q5 -1 9 -1q23 2 36 27q24 52 24 230q0 229 -45 254q-8 4 -16 4q-35 0 -49 -73v-2z M207 703l44 147h106q-4 -6 -49 -74q-44 -66 -48 -73h-53zM148 703h-53l44 147h106q-4 -6 -49 -74q-44 -66 -48 -73z" glyph-name="Ohungarumlaut" horiz-adv-x="373" unicode="Ő"/>
<glyph d="M30 243q2 253 134 255q132 -2 133 -255q0 -234 -116 -252q-9 -1 -18 -1q-132 2 -133 253zM163 424q-40 0 -48 -106q-2 -33 -2 -75q0 -161 40 -177q6 -2 12 -2q41 0 48 118q1 27 1 61q0 165 -40 179q-6 2 -11 2zM181 552l43 150h102l-96 -150h-49zM120 552h-49l43 150h102 z" glyph-name="ohungarumlaut" horiz-adv-x="327" unicode="ő"/>
<glyph d="M186 -10q-93 0 -125 113q-21 77 -21 222q0 240 65 304q32 32 82 32q25 0 50 -10h157v-81h-118v-183h77v-81h-77v-225h126v-81h-165q-22 -10 -51 -10zM146 544q-19 -57 -19 -218q0 -162 21 -219q15 -38 40 -39v515q-28 -2 -42 -39z" glyph-name="OE" horiz-adv-x="422" unicode="Œ"/>
<glyph d="M478 217h-175q5 -149 53 -150q34 0 48 65v2q38 -13 74 -30q-30 -86 -82 -106q-21 -8 -46 -8q-58 1 -91 56q-34 -55 -94 -56q-132 2 -133 253q2 253 134 255q60 -1 92 -56q33 55 93 56q127 -2 127 -248v-33zM165 64q25 0 36 39q1 1 1 2q12 45 12 138q0 165 -40 179 q-6 2 -11 2q-26 0 -37 -39q-1 -1 -1 -2q-12 -45 -12 -140q0 -161 40 -177q6 -2 12 -2zM303 286h96q-5 134 -48 135q-38 0 -46 -105z" glyph-name="oe" horiz-adv-x="505" unicode="œ"/>
<glyph d="M50 0v651h106q169 -2 170 -185q-1 -116 -67 -161l76 -305h-97l-64 277q-10 -1 -27 -1h-9v-276h-88zM138 569v-211h17q54 0 68 38q8 23 8 68q0 76 -29 95q-18 10 -49 10h-15zM170 702h-47q2 6 22 74q20 67 22 74h100l-24 -37q-24 -37 -49 -74z" glyph-name="Racute" horiz-adv-x="365" unicode="Ŕ"/>
<glyph d="M42 488h83v-43l3 -1q25 52 68 54q22 -1 38 -11v-97q-24 16 -52 16q-45 -1 -57 -38v-368h-83v488zM114 553h-49q2 6 23 74q20 67 22 74h97q-4 -6 -47 -74q-42 -67 -46 -74z" glyph-name="racute" horiz-adv-x="234" unicode="ŕ"/>
<glyph d="M50 651h106q169 -2 170 -185q-1 -116 -67 -161l76 -305h-97l-64 277q-10 -1 -27 -1h-9v-276h-88v651zM153 569h-15v-211h17q54 0 68 38q8 23 8 68q0 76 -29 95q-18 10 -49 10zM118 -178q52 8 54 48v12h-30v85h93v-62q0 -105 -84 -121l-18 -2z" glyph-name="uni0156" horiz-adv-x="365" unicode="Ŗ"/>
<glyph d="M42 488h83v-43l3 -1q25 52 68 54q22 -1 38 -11v-97q-24 16 -52 16q-45 -1 -57 -38v-368h-83v488zM13 -183q52 8 54 48v12h-30v85h93v-62q0 -105 -84 -121l-18 -2z" glyph-name="uni0157" horiz-adv-x="234" unicode="ŗ"/>
<glyph d="M50 0v651h106q169 -2 170 -185q-1 -116 -67 -161l76 -305h-97l-64 277q-10 -1 -27 -1h-9v-276h-88zM138 569v-211h17q54 0 68 38q8 23 8 68q0 76 -29 95q-18 10 -49 10h-15zM124 702q-3 6 -38 74q-36 67 -39 74h67q2 -4 22 -45q19 -41 21 -45l45 90h67l-37 -74 q-35 -67 -38 -74h-70z" glyph-name="Rcaron" horiz-adv-x="365" unicode="Ř"/>
<glyph d="M125 0h-83v488h83v-43l3 -1q25 52 68 54q22 -1 38 -11v-97q-24 16 -52 16q-45 -1 -57 -38v-368zM52 552q-3 6 -38 75q-36 68 -39 75h70q32 -65 43 -92l45 92h65l-75 -150h-71z" glyph-name="rcaron" horiz-adv-x="234" unicode="ř"/>
<glyph d="M159 -10q-75 0 -119 70q-10 17 -18 37q2 3 31 33q28 28 31 32q33 -94 79 -95q44 0 55 57q2 13 2 26q0 69 -60 138q-9 10 -28 30q-60 63 -78 105q-17 39 -17 82q0 96 63 136q32 20 70 20q87 -1 130 -95q-10 -13 -55 -58q-36 72 -73 73q-36 0 -47 -40q-3 -12 -3 -25 q0 -54 57 -119q8 -9 24 -26q65 -71 85 -118q20 -45 20 -95q0 -103 -71 -147q-34 -21 -78 -21zM171 702h-47q2 6 22 74q20 67 22 74h100l-24 -37l-48 -74z" glyph-name="Sacute" horiz-adv-x="336" unicode="Ś"/>
<glyph d="M137 -9q-67 0 -106 60q-9 14 -15 29q2 2 28 30l29 29q27 -72 65 -73q37 0 42 40q1 5 1 10q0 46 -50 95q-6 6 -19 17q-54 50 -70 85q-12 29 -12 60q0 77 56 111q27 16 60 16q68 0 106 -62q5 -9 9 -18q-47 -47 -52 -53q-29 52 -61 53q-31 0 -37 -29q-1 -6 -1 -11 q0 -36 49 -83q53 -51 63 -62q44 -53 44 -113q0 -83 -64 -116q-30 -15 -65 -15zM148 553h-49q2 6 23 74q20 67 22 74h97q-4 -6 -47 -74q-42 -67 -46 -74z" glyph-name="sacute" horiz-adv-x="287" unicode="ś"/>
<glyph d="M159 -10q-75 0 -119 70q-10 17 -18 37q2 3 31 33q28 28 31 32q33 -94 79 -95q44 0 55 57q2 13 2 26q0 69 -60 138q-9 10 -28 30q-60 63 -78 105q-17 39 -17 82q0 96 63 136q32 20 70 20q87 -1 130 -95q-10 -13 -55 -58q-36 72 -73 73q-36 0 -47 -40q-3 -12 -3 -25 q0 -54 57 -119q8 -9 24 -26q65 -71 85 -118q20 -45 20 -95q0 -103 -71 -147q-34 -21 -78 -21zM120 702h-67q3 6 39 74q35 67 38 74h72l75 -148h-69q-2 4 -22 45q-21 41 -23 45q-1 -3 -14 -29q-26 -56 -29 -61z" glyph-name="Scircumflex" horiz-adv-x="336" unicode="Ŝ"/>
<glyph d="M137 -9q-67 0 -106 60q-9 14 -15 29q2 2 28 30l29 29q27 -72 65 -73q37 0 42 40q1 5 1 10q0 46 -50 95q-6 6 -19 17q-54 50 -70 85q-12 29 -12 60q0 77 56 111q27 16 60 16q68 0 106 -62q5 -9 9 -18q-47 -47 -52 -53q-29 52 -61 53q-31 0 -37 -29q-1 -6 -1 -11 q0 -36 49 -83q53 -51 63 -62q44 -53 44 -113q0 -83 -64 -116q-30 -15 -65 -15zM96 552h-66l77 150h71l75 -150h-69q-2 4 -22 46q-21 41 -23 46q-2 -4 -21 -46q-20 -41 -22 -46z" glyph-name="scircumflex" horiz-adv-x="287" unicode="ŝ"/>
<glyph d="M96 -178l10 43q20 -14 49 -14q41 2 42 34q-1 33 -49 33l-23 25l19 48q-75 8 -113 86q-5 10 -9 20q6 5 31 33q25 26 31 32q33 -94 79 -95q44 0 55 57q2 13 2 26q0 69 -60 138q-9 10 -28 30q-60 63 -78 105q-17 39 -17 82q0 96 63 136q32 20 70 20q87 -1 130 -95l-55 -58 q-36 72 -73 73q-36 0 -47 -40q-3 -12 -3 -25q0 -54 57 -119q8 -9 24 -26q65 -71 85 -118q20 -45 20 -95q0 -103 -70 -146q-28 -17 -61 -21l-14 -30q70 0 91 -50q5 -12 5 -24q0 -49 -42 -71q-23 -11 -53 -11q-37 1 -68 17z" glyph-name="Scedilla" horiz-adv-x="336" unicode="Ş"/>
<glyph d="M70 -178l10 43q20 -14 49 -14q41 2 42 34q-1 33 -49 33l-23 25l20 49q-66 10 -100 80q-2 5 -3 8l2 2q3 3 6 6.5t7.5 7.5t8.5 8.5t8.5 9.5t9 9t7.5 7.5t5 5.5l3 3q27 -72 65 -73q37 0 42 40q1 5 1 10q0 46 -50 95q-6 6 -19 17q-54 50 -70 85q-12 29 -12 60q0 77 56 111 q27 16 60 16q68 0 106 -62q5 -9 9 -18l-52 -53q-29 52 -61 53q-31 0 -37 -29q-1 -6 -1 -11q0 -36 49 -83q53 -51 63 -62q44 -53 44 -113q0 -83 -64 -116q-23 -12 -51 -14l-14 -31q70 0 91 -50q5 -12 5 -24q0 -49 -42 -71q-23 -11 -53 -11q-37 1 -68 17z" glyph-name="scedilla" horiz-adv-x="287" unicode="ş"/>
<glyph d="M159 -10q-75 0 -119 70q-10 17 -18 37q2 3 31 33q28 28 31 32q33 -94 79 -95q44 0 55 57q2 13 2 26q0 69 -60 138q-9 10 -28 30q-60 63 -78 105q-17 39 -17 82q0 96 63 136q32 20 70 20q87 -1 130 -95q-10 -13 -55 -58q-36 72 -73 73q-36 0 -47 -40q-3 -12 -3 -25 q0 -54 57 -119q8 -9 24 -26q65 -71 85 -118q20 -45 20 -95q0 -103 -71 -147q-34 -21 -78 -21zM115 702q-3 6 -39 74q-35 67 -38 74h67q2 -4 21 -45q20 -41 22 -45l45 90h67q-3 -6 -38 -74q-34 -67 -37 -74h-70z" glyph-name="Scaron" horiz-adv-x="336" unicode="Š"/>
<glyph d="M137 -9q-67 0 -106 60q-9 14 -15 29q2 2 28 30l29 29q27 -72 65 -73q37 0 42 40q1 5 1 10q0 46 -50 95q-6 6 -19 17q-54 50 -70 85q-12 29 -12 60q0 77 56 111q27 16 60 16q68 0 106 -62q5 -9 9 -18q-47 -47 -52 -53q-29 52 -61 53q-31 0 -37 -29q-1 -6 -1 -11 q0 -36 49 -83q53 -51 63 -62q44 -53 44 -113q0 -83 -64 -116q-30 -15 -65 -15zM28 702h70q32 -65 43 -92l45 92h65l-75 -150h-71q-3 6 -39 75q-35 68 -38 75z" glyph-name="scaron" horiz-adv-x="287" unicode="š"/>
<glyph d="M5 571v80h273v-80h-96v-571h-28l-18 -39q70 0 91 -50q5 -12 5 -24q0 -49 -42 -71q-23 -11 -53 -11q-37 1 -68 17l10 43q20 -14 49 -14q41 2 42 34q-1 33 -49 33l-23 25l23 57h-27v571h-89z" glyph-name="uni0162" horiz-adv-x="283" unicode="Ţ"/>
<glyph d="M7 417v71h47v123h80v-123h82v-71h-82v-308q2 -40 34 -41q18 0 54 14v-75q-38 -16 -73 -16q-23 0 -39 7l-14 -30q70 0 91 -50q5 -12 5 -24q0 -49 -42 -71q-23 -11 -53 -11q-37 1 -68 17l10 43q20 -14 49 -14q41 2 42 34q-1 33 -49 33l-23 25l26 64q-30 31 -30 91v312h-47z " glyph-name="uni0163" horiz-adv-x="225" unicode="ţ"/>
<glyph d="M5 571v80h273v-80h-96v-571h-88v571h-89zM31 850h67q2 -4 22 -45q19 -41 21 -45l45 90h67l-37 -74q-35 -67 -38 -74h-70q-3 6 -38 74q-36 67 -39 74z" glyph-name="Tcaron" horiz-adv-x="283" unicode="Ť"/>
<glyph d="M7 417v71h47v123h80v-123h82v-71h-82v-308q2 -40 34 -41q18 0 54 14v-75q-38 -16 -73 -16q-81 0 -93 86q-2 14 -2 28v312h-47zM222 577q32 14 30 54h-30v85h93v-62q0 -106 -84 -121q-5 0 -9 -1h-4q-4 -1 -5 -1l-15 40q14 1 24 6z" glyph-name="tcaron" horiz-adv-x="303" unicode="ť"/>
<glyph d="M5 651h273v-80h-96v-202h72v-63h-72v-306h-88v306h-58v63h58v202h-89v80z" glyph-name="Tbar" horiz-adv-x="283" unicode="Ŧ"/>
<glyph d="M7 488h47v123h80v-123h82v-71h-82v-87h70v-59h-70v-162q2 -40 34 -41q18 0 54 14v-75q-38 -16 -73 -16q-81 0 -93 86q-2 14 -2 28v166h-45v59h45v87h-47v71z" glyph-name="tbar" horiz-adv-x="225" unicode="ŧ"/>
<glyph d="M45 152v499h87v-503q1 -78 56 -79q55 2 56 79v503h88v-497q0 -127 -93 -156q-25 -8 -54 -8q-104 0 -132 97q-8 29 -8 65zM75 732q15 77 44 88q8 3 16 3q18 0 65 -33q21 -15 28 -15q14 0 22 36q1 6 3 14q2 -1 23 -8q3 -1 5 -2t5 -2l4.5 -1.5t3.5 -1t4 -0.5l1 -1 q-16 -84 -53 -92q-6 -1 -11 -1q-19 0 -68 33q-15 10 -20 10q-14 0 -21 -27q-3 -8 -5 -19z" glyph-name="Utilde" horiz-adv-x="377" unicode="Ũ"/>
<glyph d="M40 105v383h83v-370q1 -51 33 -52q21 1 44 21v401h83v-488h-83v27l-3 2q-34 -40 -68 -41q-88 2 -89 117zM50 580q15 77 44 88q8 3 16 3q18 0 65 -33q21 -15 28 -15q14 0 22 36q1 6 3 14q2 -1 23 -8q3 -1 5 -2t5 -2l4.5 -1.5t3.5 -1t3 -0.5l2 -1q-16 -84 -53 -92 q-6 -1 -11 -1q-19 0 -68 33q-15 10 -20 10q-14 0 -21 -27q-3 -8 -5 -19z" glyph-name="utilde" horiz-adv-x="323" unicode="ũ"/>
<glyph d="M45 152v499h87v-503q1 -78 56 -79q55 2 56 79v503h88v-497q0 -127 -93 -156q-25 -8 -54 -8q-104 0 -132 97q-8 29 -8 65zM285 730h-196v70h196v-70z" glyph-name="Umacron" horiz-adv-x="377" unicode="Ū"/>
<glyph d="M40 105v383h83v-370q1 -51 33 -52q21 1 44 21v401h83v-488h-83v27l-3 2q-34 -40 -68 -41q-88 2 -89 117zM261 581h-196v70h196v-70z" glyph-name="umacron" horiz-adv-x="323" unicode="ū"/>
<glyph d="M45 152v499h87v-503q1 -78 56 -79q55 2 56 79v503h88v-497q0 -127 -93 -156q-25 -8 -54 -8q-104 0 -132 97q-8 29 -8 65zM189 694q-77 0 -99 78q-8 31 -6 68h55q2 -70 25 -86q11 -6 24 -6q52 2 47 92h59q5 -97 -51 -132q-24 -14 -54 -14z" glyph-name="Ubreve" horiz-adv-x="377" unicode="Ŭ"/>
<glyph d="M40 105v383h83v-370q1 -51 33 -52q21 1 44 21v401h83v-488h-83v27l-3 2q-34 -40 -68 -41q-88 2 -89 117zM163 545q-77 0 -99 78q-8 31 -6 68h55q2 -70 25 -86q11 -6 24 -6q52 2 47 92h59q5 -97 -51 -132q-24 -14 -54 -14z" glyph-name="ubreve" horiz-adv-x="323" unicode="ŭ"/>
<glyph d="M45 651h87v-503q1 -78 56 -79q55 2 56 79v503h88v-497q0 -127 -93 -156q-25 -8 -54 -8q-104 0 -132 97q-8 29 -8 65v499zM97 778q0 51 44 76q21 11 44 11q52 0 78 -44q11 -20 11 -43q0 -53 -45 -78q-20 -11 -44 -11q-53 0 -77 45q-11 20 -11 44zM185 821q-28 0 -40 -26 q-3 -9 -3 -17q0 -31 27 -43q8 -3 16 -3q30 0 41 29q3 8 3 17q0 30 -28 40q-8 3 -16 3z" glyph-name="Uring" horiz-adv-x="377" unicode="Ů"/>
<glyph d="M40 488h83v-370q1 -51 33 -52q21 1 44 21v401h83v-488h-83v27l-3 2q-34 -40 -68 -41q-88 2 -89 117v383zM162 542q-53 0 -77 45q-11 20 -11 44q0 51 44 76q21 11 44 11q52 0 78 -44q11 -20 11 -43q0 -53 -45 -78q-20 -11 -44 -11zM119 631q0 -31 27 -43q8 -3 16 -3 q30 0 41 29q3 8 3 17q0 30 -28 40q-8 3 -16 3q-28 0 -40 -26q-3 -9 -3 -17z" glyph-name="uring" horiz-adv-x="323" unicode="ů"/>
<glyph d="M45 152v499h87v-503q1 -78 56 -79q55 2 56 79v503h88v-497q0 -127 -93 -156q-25 -8 -54 -8q-104 0 -132 97q-8 29 -8 65zM98 703l44 147h106q-4 -6 -48 -74q-45 -66 -49 -73h-53zM263 703h-53l44 147h106l-8 -11q-7 -11 -17.5 -27t-23 -35t-23 -35t-18.5 -28z" glyph-name="Uhungarumlaut" horiz-adv-x="377" unicode="Ű"/>
<glyph d="M40 105v383h83v-370q1 -51 33 -52q21 1 44 21v401h83v-488h-83v27l-3 2q-34 -40 -68 -41q-88 2 -89 117zM238 552h-49l43 150h102zM79 552l43 150h102l-96 -150h-49z" glyph-name="uhungarumlaut" horiz-adv-x="323" unicode="ű"/>
<glyph d="M156 -8q-93 16 -108 121q-3 19 -3 39v499h87v-503q1 -78 56 -79q55 2 56 79v503h88v-497q0 -125 -91 -155q-19 -6 -39 -8q-51 -51 -52 -97q2 -39 40 -40q18 0 52 11l5 -39q-34 -22 -74 -22q-77 6 -81 74q0 45 39 90q12 14 25 24z" glyph-name="Uogonek" horiz-adv-x="377" unicode="Ų"/>
<glyph d="M40 488h83v-370q1 -51 33 -52q21 1 44 21v401h83v-488h-40q-61 -58 -67 -110q2 -39 40 -40q18 0 52 11l5 -39q-34 -22 -74 -22q-77 6 -81 74q0 43 37 87q19 24 45 40v26l-3 2q-34 -40 -68 -41q-88 2 -89 117v383z" glyph-name="uogonek" horiz-adv-x="323" unicode="ų"/>
<glyph d="M91 0q-3 27 -41 326q-36 297 -40 325h84q2 -18 22 -215q19 -195 21 -214h3q2 18 23 214t23 215h74l45 -426h4l42 426h87l-86 -651h-85q-2 16 -23 186q-20 170 -22 186h-2l-44 -372h-85zM176 702h-67q3 6 39 74q35 67 38 74h72l75 -148h-69q-2 4 -22 45q-21 41 -23 45 q-1 -3 -14 -29q-26 -56 -29 -61z" glyph-name="Wcircumflex" horiz-adv-x="448" unicode="Ŵ"/>
<glyph d="M78 0l-73 488h86l31 -299h4q1 5 20.5 139.5t22.5 159.5h74l43 -300h4q1 6 17 163q12 115 14 137h86l-74 -488h-79l-46 317h-4l-47 -317h-79zM95 552l77 150h71l75 -150h-69l-23 46q-20 41 -22 46q-2 -4 -22 -46q-19 -41 -21 -46h-66z" glyph-name="wcircumflex" horiz-adv-x="412" unicode="ŵ"/>
<glyph d="M136 251l-130 400h92l84 -307h1l82 307h90l-130 -397v-254h-89v251zM70 702q3 6 38 74q36 67 39 74h72l75 -148h-69q-2 4 -23 45q-20 41 -22 45q-1 -3 -14 -29q-26 -56 -29 -61h-67z" glyph-name="Ycircumflex" horiz-adv-x="360" unicode="Ŷ"/>
<glyph d="M8 488h88l66 -359h5q3 15 31 179q27 164 30 180h86l-99 -455q-24 -110 -65 -155q-36 -39 -96 -54q-2 2 -20 32q-17 29 -19 32q96 15 108 107l-4 17q-4 18 -10.5 46.5t-15.5 65t-18 77.5t-18.5 81.5t-18.5 77t-15.5 65t-10.5 45.5zM120 552h-66l77 150h71l75 -150h-69 q-2 4 -22 46q-21 41 -23 46q-2 -4 -21 -46q-20 -41 -22 -46z" glyph-name="ycircumflex" horiz-adv-x="319" unicode="ŷ"/>
<glyph d="M136 251l-130 400h92l84 -307h1l82 307h90l-130 -397v-254h-89v251zM208 711v95h87v-95h-87zM85 711v95h87v-95h-87z" glyph-name="Ydieresis" horiz-adv-x="360" unicode="Ÿ"/>
<glyph d="M10 0v78l189 492h-165v81h252v-79q-8 -20 -94 -246q-87 -224 -95 -245h176v-81h-263zM172 702h-47q2 6 22 74q20 67 22 74h100l-24 -37q-24 -37 -49 -74z" glyph-name="Zacute" horiz-adv-x="296" unicode="Ź"/>
<glyph d="M15 64q5 13 109 256q38 88 41 95h-137v73h226v-64q-6 -14 -76 -176q-70 -160 -77 -175h153v-73h-239v64zM160 553h-49q2 6 23 74q20 67 22 74h97q-4 -6 -47 -74q-42 -67 -46 -74z" glyph-name="zacute" horiz-adv-x="269" unicode="ź"/>
<glyph d="M10 0v78l189 492h-165v81h252v-79q-8 -20 -94 -246q-87 -224 -95 -245h176v-81h-263zM121 724v95h87v-95h-87z" glyph-name="Zdotaccent" horiz-adv-x="296" unicode="Ż"/>
<glyph d="M15 64q5 13 109 256q38 88 41 95h-137v73h226v-64q-6 -14 -76 -176q-70 -160 -77 -175h153v-73h-239v64zM97 664h87v-95h-87v95z" glyph-name="zdotaccent" horiz-adv-x="269" unicode="ż"/>
<glyph d="M10 0v78l189 492h-165v81h252v-79q-8 -20 -94 -246q-87 -224 -95 -245h176v-81h-263zM52 850h67q2 -4 21 -45q20 -41 22 -45l45 90h67q-3 -6 -38 -74q-34 -67 -37 -74h-70q-3 6 -39 74q-35 67 -38 74z" glyph-name="Zcaron" horiz-adv-x="296" unicode="Ž"/>
<glyph d="M15 64q5 13 109 256q38 88 41 95h-137v73h226v-64q-6 -14 -76 -176q-70 -160 -77 -175h153v-73h-239v64zM31 702h70q32 -65 43 -92l45 92h65l-75 -150h-71q-3 6 -38 75q-36 68 -39 75z" glyph-name="zcaron" horiz-adv-x="269" unicode="ž"/>
<glyph d="M41 319v43h196q0 182 -37 212q-11 9 -25 9q-26 0 -45 -44q-11 -26 -15 -60q-30 15 -76 31q28 135 119 150q11 2 22 2q145 -2 145 -332q0 -300 -112 -334q-16 -5 -33 -5q-105 0 -130 177q-9 63 -9 151zM237 285h-111q0 -197 40 -215q6 -2 12 -2q35 0 48 74q9 50 11 143z " glyph-name="uni018F" horiz-adv-x="366" unicode="Ə"/>
<glyph d="M27 -81q1 3 11 35q11 31 12 35q34 -13 54 -13q21 1 39 15q59 51 77 292q2 33 3 40h-82v71h92q15 132 44 186q43 79 135 80q44 0 83 -15l-18 -72q-31 11 -62 11q-20 -1 -37 -11q-47 -32 -58 -173q-1 -1 -1 -3v-3h96v-71h-107q-1 -15 -4 -50q-11 -179 -42 -258 q-33 -80 -90 -105q-29 -10 -56 -10q-48 0 -89 19z" glyph-name="florin" horiz-adv-x="519" unicode="ƒ"/>
<glyph d="M100 0h-95q9 27 102 326q93 297 102 325h261v-81h-114v-183h76v-81h-76v-225h125v-81h-214v155h-123l-22 -77q-20 -71 -22 -78zM262 563q-4 -14 -48 -167q-44 -152 -48 -167h101v334h-5zM339 702h-47q2 6 22 74q20 67 22 74h100l-24 -37l-48 -74z" glyph-name="AEacute" horiz-adv-x="501" unicode="Ǽ"/>
<glyph d="M449 217h-176q2 -149 54 -150q37 0 47 65v2q41 -14 73 -29q-26 -106 -112 -114q-7 -1 -14 -1q-59 1 -91 51q-39 -50 -98 -50q-84 0 -102 104q-5 27 -5 59q0 106 60 148q25 17 53 17q27 -1 51 -16v13q1 15 1 17q-1 84 -46 85q-36 -1 -71 -32l-17 34q-15 30 -17 33 q53 46 118 46q59 -1 85 -42q25 41 79 41q128 -2 128 -248v-33zM152 63q35 1 56 26q-18 59 -18 151q-17 11 -34 11q-46 -6 -48 -96q1 -91 44 -92zM369 286q-8 131 -47 135q-34 0 -44 -80q-3 -24 -4 -55h95zM256 553h-49q2 6 23 74q20 67 22 74h97q-4 -6 -47 -74 q-42 -67 -46 -74z" glyph-name="aeacute" horiz-adv-x="477" unicode="ǽ"/>
<glyph d="M15 5l45 104q-20 78 -20 216q0 160 25 232q36 103 122 104q59 -1 92 -43l19 43l32 -15l-29 -67q32 -79 32 -253q0 -150 -19 -218q-35 -117 -128 -118q-74 1 -109 71l-30 -69zM187 68q63 5 60 257q0 77 -4 121q-6 -16 -78 -181q-30 -69 -33 -76q13 -120 55 -121zM128 266 l107 248q-16 68 -49 69q-61 -5 -59 -257q0 -41 1 -60zM206 702h-47q2 6 22 74q20 67 22 74h100l-24 -37q-24 -37 -49 -74z" glyph-name="Oslashacute" horiz-adv-x="373" unicode="Ǿ"/>
<glyph d="M30 6l28 59q-28 64 -28 178q2 253 134 255q52 -1 84 -40l19 40l32 -15l-30 -62q28 -64 28 -178q-1 -252 -134 -253q-52 1 -84 40l-18 -38zM115 182q29 65 90 187q-12 54 -42 55q-40 0 -48 -106q-2 -33 -2 -75q0 -26 2 -61zM165 64q41 0 48 118q1 27 1 61q0 44 -1 62 q-6 -12 -58 -119q-31 -63 -33 -68q12 -53 43 -54zM186 553h-49q2 6 23 74q20 67 22 74h97q-4 -6 -47 -74q-42 -67 -46 -74z" glyph-name="oslashacute" horiz-adv-x="327" unicode="ǿ"/>
<glyph d="M159 -10q-75 0 -119 70q-10 17 -18 37q2 3 31 33q28 28 31 32q33 -94 79 -95q44 0 55 57q2 13 2 26q0 69 -60 138q-9 10 -28 30q-60 63 -78 105q-17 39 -17 82q0 96 63 136q32 20 70 20q87 -1 130 -95q-10 -13 -55 -58q-36 72 -73 73q-36 0 -47 -40q-3 -12 -3 -25 q0 -54 57 -119q8 -9 24 -26q65 -71 85 -118q20 -45 20 -95q0 -103 -71 -147q-34 -21 -78 -21zM103 -230l-15 40q52 8 54 48v12h-30v85h93v-62q0 -105 -84 -121z" glyph-name="uni0218" horiz-adv-x="336" unicode="Ș"/>
<glyph d="M137 -9q-67 0 -106 60q-9 14 -15 29q2 2 28 30l29 29q27 -72 65 -73q37 0 42 40q1 5 1 10q0 46 -50 95q-6 6 -19 17q-54 50 -70 85q-12 29 -12 60q0 77 56 111q27 16 60 16q68 0 106 -62q5 -9 9 -18q-47 -47 -52 -53q-29 52 -61 53q-31 0 -37 -29q-1 -6 -1 -11 q0 -36 49 -83q53 -51 63 -62q44 -53 44 -113q0 -83 -64 -116q-30 -15 -65 -15zM91 -230l-15 40q52 8 54 48v12h-30v85h93v-62q0 -105 -84 -121z" glyph-name="uni0219" horiz-adv-x="287" unicode="ș"/>
<glyph d="M5 651h273v-80h-96v-571h-88v571h-89v80zM86 -230l-15 40q52 8 54 48v12h-30v85h93v-62q0 -105 -84 -121z" glyph-name="uni021A" horiz-adv-x="283" unicode="Ț"/>
<glyph d="M7 417v71h47v123h80v-123h82v-71h-82v-308q2 -40 34 -41q18 0 54 14v-75q-38 -16 -73 -16q-81 0 -93 86q-2 14 -2 28v312h-47zM46 -230l-15 40q52 8 54 48v12h-30v85h93v-62q0 -105 -84 -121z" glyph-name="uni021B" horiz-adv-x="225" unicode="ț"/>
<glyph d="M31 238v33h176q-2 149 -54 150q-37 0 -47 -65v-2q-3 1 -36 14q-33 14 -37 15q26 106 112 114q7 1 14 1q130 -2 131 -251q-1 -256 -131 -257q-128 2 -128 248zM206 202h-95q8 -131 47 -135q34 0 44 80q3 24 4 55z" glyph-name="uni0259" horiz-adv-x="317" unicode="ə"/>
<glyph d="M46 552l77 150h71l75 -150h-69q-2 4 -22 46q-21 41 -23 46q-2 -4 -21 -46q-20 -41 -22 -46h-66z" glyph-name="circumflex" horiz-adv-x="321" unicode="ˆ"/>
<glyph d="M45 702h70q32 -65 43 -92l45 92h65l-75 -150h-71q-3 6 -38 75q-36 68 -39 75z" glyph-name="caron" horiz-adv-x="321" unicode="ˇ"/>
<glyph d="M159 546q-77 0 -99 78q-8 31 -6 68h55q2 -70 25 -86q11 -6 24 -6q52 2 47 92h59q5 -97 -51 -132q-24 -14 -54 -14z" glyph-name="breve" horiz-adv-x="315" unicode="˘"/>
<glyph d="M110 569v95h87v-95h-87z" glyph-name="dotaccent" horiz-adv-x="299" unicode="˙"/>
<glyph d="M171 542q-53 0 -77 45q-11 20 -11 44q0 51 44 76q21 11 44 11q52 0 78 -44q11 -20 11 -43q0 -53 -45 -78q-20 -11 -44 -11zM171 585q30 0 41 29q3 8 3 17q0 30 -28 40q-8 3 -16 3q-28 0 -40 -26q-3 -9 -3 -17q0 -31 27 -43q8 -3 16 -3z" glyph-name="ring" horiz-adv-x="321" unicode="˚"/>
<glyph d="M238 -136l5 -39q-34 -22 -74 -22q-77 6 -81 74q0 44 38 89q33 38 83 57l25 -4q-74 -51 -86 -112q-2 -8 -2 -14q2 -39 40 -40q18 0 52 11z" glyph-name="ogonek" horiz-adv-x="317" unicode="˛"/>
<glyph d="M99 561l-46 19q15 77 44 88q8 3 16 3q18 0 65 -33q21 -15 28 -15q14 0 22 36q1 6 3 14q2 -1 23 -8q3 -1 5 -2t5 -2l4.5 -1.5t3.5 -1t4 -0.5l1 -1q-16 -84 -53 -92q-6 -1 -11 -1q-19 0 -68 33q-15 10 -20 10q-14 0 -21 -27q-3 -8 -5 -19z" glyph-name="tilde" horiz-adv-x="321" unicode="˜"/>
<glyph d="M230 552h-49l43 150h102zM71 552l43 150h102l-96 -150h-49z" glyph-name="hungarumlaut" horiz-adv-x="323" unicode="˝"/>
<glyph d="M174 553h-45q2 6 23 75q20 67 22 74h98z" glyph-name="tonos" horiz-adv-x="321" unicode="΄"/>
<glyph d="M116 702h96l-28 -141h-43zM215 579v95h82v-95h-82zM32 674h82v-95h-82v95z" glyph-name="dieresistonos" horiz-adv-x="321" unicode="΅"/>
<glyph d="M90 0h-85q5 28 63 326q56 297 62 325h87l125 -651h-86q-1 6 -14 77q-13 70 -14 77h-110q-1 -6 -14 -77q-13 -70 -14 -77zM-49 502q2 6 23 74q20 68 22 75h98q-2 -3 -49 -75q-46 -70 -49 -74h-45zM174 467q-40 -213 -44 -239h85q-1 10 -21 120q-18 108 -20 119z" glyph-name="Alphatonos" horiz-adv-x="347" unicode="Ά"/>
<glyph d="M67 308v112h98v-112h-98z" glyph-name="anoteleia" horiz-adv-x="230" unicode="·"/>
<glyph d="M50 0v651h207v-81h-119v-183h78v-81h-78v-225h127v-81h-215zM-70 502h-45q2 6 23 74q20 68 22 75h98z" glyph-name="Epsilontonos" horiz-adv-x="312" unicode="Έ"/>
<glyph d="M50 0v651h88v-265h114v265h88v-651h-88v306h-114v-306h-88zM-70 502h-45q2 6 23 74q20 68 22 75h98z" glyph-name="Etatonos" horiz-adv-x="390" unicode="Ή"/>
<glyph d="M50 651h88v-651h-88v651zM-70 502h-45q2 6 23 74q20 68 22 75h98z" glyph-name="Iotatonos" horiz-adv-x="188" unicode="Ί"/>
<glyph d="M186 -10q-93 0 -125 113q-21 77 -21 222q0 191 39 268q36 67 108 68q94 0 125 -116q21 -77 21 -219q0 -183 -34 -259q-36 -76 -113 -77zM187 68q23 2 36 27q24 52 24 230q0 229 -45 254q-8 4 -16 4q-35 0 -49 -73v-2q-10 -60 -10 -182q0 -240 51 -257q5 -1 9 -1zM-32 502 h-45q2 6 23 74q20 68 22 75h98z" glyph-name="Omicrontonos" horiz-adv-x="373" unicode="Ό"/>
<glyph d="M136 251l-130 400h92l84 -307h1l82 307h90l-130 -397v-254h-89v251zM-105 502h-45q2 6 22 74q21 68 23 75h98z" glyph-name="Upsilontonos" horiz-adv-x="360" unicode="Ύ"/>
<glyph d="M88 83q-51 43 -51 253q0 198 48 272q35 53 101 53q95 0 128 -112q21 -75 21 -212q0 -143 -28 -207q-14 -31 -35 -52h62v-78h-134v100q29 20 40 95q8 53 8 141q0 219 -46 242q-8 4 -17 4q-29 0 -43 -48q-1 -1 -1 -2q-17 -58 -17 -195q0 -209 47 -237v-100h-134v78h57 l-2.5 2t-3.5 3zM-82 502q2 6 22 74q21 68 23 75h98l-98 -149h-45z" glyph-name="Omegatonos" horiz-adv-x="372" unicode="Ώ"/>
<glyph d="M126 0h-83v489h83v-489zM36 702h96l-28 -141h-43zM135 579v95h82v-95h-82zM-48 674h82v-95h-82v95z" glyph-name="iotadieresistonos" horiz-adv-x="171" unicode="ΐ"/>
<glyph d="M5 0l125 651h87l125 -651h-86l-28 154h-110l-28 -154h-85zM130 228h85l-41 239z" glyph-name="Alpha" horiz-adv-x="347" unicode="Α"/>
<glyph d="M166 0h-116v651h115q149 -2 150 -168q0 -98 -69 -133q-2 -1 -3 -2v-5q67 -22 79 -114q2 -18 2 -36q-2 -192 -158 -193zM136 307v-231h29q55 0 67 62q4 22 4 52q-1 116 -80 117h-20zM136 575v-192h31q59 2 60 97q0 80 -45 92q-11 3 -24 3h-22z" glyph-name="Beta" horiz-adv-x="364" unicode="Β"/>
<glyph d="M50 0v651h238v-81h-150v-570h-88z" glyph-name="Gamma" horiz-adv-x="298" unicode="Γ"/>
<glyph d="M341 0h-337q5 27 62 326q58 297 63 325h87zM102 74h139q-3 16 -35 195q-32 178 -35 195z" glyph-name="uni0394" horiz-adv-x="347" unicode="Δ"/>
<glyph d="M50 651h207v-81h-119v-183h78v-81h-78v-225h127v-81h-215v651z" glyph-name="Epsilon" horiz-adv-x="285" unicode="Ε"/>
<glyph d="M10 0v78l189 492h-165v81h252v-79q-8 -20 -94 -246q-87 -224 -95 -245h176v-81h-263z" glyph-name="Zeta" horiz-adv-x="296" unicode="Ζ"/>
<glyph d="M50 651h88v-265h114v265h88v-651h-88v306h-114v-306h-88v651z" glyph-name="Eta" horiz-adv-x="390" unicode="Η"/>
<glyph d="M185 -10q-91 0 -123 113q-22 78 -22 223q0 186 40 263q37 71 107 72q151 0 155 -315v-20q0 -228 -69 -299q-36 -37 -88 -37zM190 69q55 0 59 226v31q0 255 -59 256q-55 0 -60 -220v-36q0 -244 55 -256q3 -1 5 -1zM147 306v81h84v-81h-84z" glyph-name="Theta" horiz-adv-x="378" unicode="Θ"/>
<glyph d="M50 0v651h88v-651h-88z" glyph-name="Iota" horiz-adv-x="188" unicode="Ι"/>
<glyph d="M50 0v651h88v-235l108 235h90q-63 -133 -109 -235q5 -18 61 -208t61 -208h-91q-3 11 -36 125q-50 177 -55 193l-15 -30q-13 -28 -14 -31v-257h-88z" glyph-name="Kappa" horiz-adv-x="357" unicode="Κ"/>
<glyph d="M107 0h-88q9 55 55 326q45 270 55 325h86l113 -651h-87l-68 433z" glyph-name="Lambda" horiz-adv-x="344" unicode="Λ"/>
<glyph d="M50 651h128l66 -430h4l66 430h123v-651h-78v492h-2q-3 -20 -39 -246q-36 -225 -40 -246h-67q-3 20 -40 246q-36 226 -40 247h-3v-493h-78v651z" glyph-name="Mu" horiz-adv-x="487" unicode="Μ"/>
<glyph d="M49 -1l1 652h98l106 -393h2l1 393h81l-1 -651h-88l-117 423h-2l-1 -424h-80z" glyph-name="Nu" horiz-adv-x="387" unicode="Ν"/>
<glyph d="M34 81h90v225h-55v81h55v183h-82v81h253v-81h-86v-183h59v-81h-59v-225h94v-81h-269v81z" glyph-name="Xi" horiz-adv-x="335" unicode="Ξ"/>
<glyph d="M186 -10q-93 0 -125 113q-21 77 -21 222q0 191 39 268q36 67 108 68q94 0 125 -116q21 -77 21 -219q0 -183 -34 -259q-36 -76 -113 -77zM187 68q23 2 36 27q24 52 24 230q0 229 -45 254q-8 4 -16 4q-35 0 -49 -73v-2q-10 -60 -10 -182q0 -240 51 -257q5 -1 9 -1z" glyph-name="Omicron" horiz-adv-x="373" unicode="Ο"/>
<glyph d="M50 651h286v-651h-88v571h-110v-571h-88v651z" glyph-name="Pi" horiz-adv-x="386" unicode="Π"/>
<glyph d="M138 0h-88v651h109q166 -2 167 -200q-3 -203 -172 -205h-16v-246zM156 569h-18v-241h20q55 0 67 54q6 25 6 67q0 88 -32 109q-17 11 -43 11z" glyph-name="Rho" horiz-adv-x="346" unicode="Ρ"/>
<glyph d="M25 0v73l76 275l-78 229v74h236v-81h-145q4 -12 50 -145q23 -69 26 -76q-3 -11 -36 -135q-34 -122 -37 -134h155v-80h-247z" glyph-name="Sigma" horiz-adv-x="300" unicode="Σ"/>
<glyph d="M5 571v80h273v-80h-96v-571h-88v571h-89z" glyph-name="Tau" horiz-adv-x="283" unicode="Τ"/>
<glyph d="M6 651h92l84 -307h1l82 307h90l-130 -397v-254h-89v251z" glyph-name="Upsilon" horiz-adv-x="360" unicode="Υ"/>
<glyph d="M36 337q0 212 98 262q27 13 60 17v35h82v-35q158 -19 159 -279q0 -257 -153 -278q-4 -1 -6 -1v-58h-82v58q-157 18 -158 279zM352 336q-1 192 -76 202v-405q70 8 76 177v26zM118 337q0 -166 59 -198q9 -5 17 -6v406q-76 -11 -76 -202z" glyph-name="Phi" horiz-adv-x="469" unicode="Φ"/>
<glyph d="M6 0l112 338l-103 313h90q10 -38 58 -214q6 22 40 144q15 57 19 70h89l-104 -311q99 -293 113 -340h-90l-68 242l-68 -242h-88z" glyph-name="Chi" horiz-adv-x="326" unicode="Χ"/>
<glyph d="M42 651h87v-301q0 -58 36 -84q11 -8 23 -10v395h84v-395q35 3 52 47q8 22 8 47v301h87v-295q0 -111 -86 -160q-29 -16 -61 -20v-176h-84v176q-86 13 -125 88q-21 41 -21 92v295z" glyph-name="Psi" horiz-adv-x="460" unicode="Ψ"/>
<glyph d="M37 336q0 198 48 272q35 53 101 53q95 0 128 -112q21 -75 21 -212q0 -143 -28 -207q-14 -31 -35 -52h62v-78h-134v100q29 20 40 95q8 53 8 141q0 219 -46 242q-8 4 -17 4q-29 0 -43 -48q-1 -1 -1 -2q-17 -58 -17 -195q0 -209 47 -237v-100h-134v78h57l-2.5 2t-3.5 3 q-51 43 -51 253z" glyph-name="uni03A9" horiz-adv-x="372" unicode="Ω"/>
<glyph d="M50 0v651h88v-651h-88zM113 724v95h87v-95h-87zM-10 819h87v-95h-87v95z" glyph-name="Iotadieresis" horiz-adv-x="188" unicode="Ϊ"/>
<glyph d="M136 251l-130 400h92l84 -307h1l82 307h90l-130 -397v-254h-89v251zM200 719v95h87v-95h-87zM77 719v95h87v-95h-87z" glyph-name="Upsilondieresis" horiz-adv-x="360" unicode="Ϋ"/>
<glyph d="M321 63v-61q-25 -10 -49 -10q-45 2 -56 42q-20 -36 -65 -45q-7 -1 -12 -1q-93 0 -106 176q-3 35 -3 77q0 235 92 255q10 2 20 2q33 0 60 -29q4 -3 6 -6l1 25h77l1 -399q1 -28 17 -29q7 0 17 3zM203 86v314q-24 22 -46 22q-40 0 -44 -140v-39q0 -158 34 -175q6 -3 13 -3 q21 1 43 21zM178 553h-45q2 6 23 75q20 67 22 74h98z" glyph-name="alphatonos" horiz-adv-x="333" unicode="ά"/>
<glyph d="M94 264v4q-52 23 -53 97q0 71 43 109q30 25 72 25q103 -2 127 -126l-71 -27q-12 74 -51 75q-22 0 -34 -29q-4 -12 -4 -24q0 -63 37 -73q10 -2 23 -2h26v-68h-21q-49 0 -61 -34q-7 -19 -7 -50q0 -64 35 -73q5 -1 9 -1q27 0 40 39q5 16 6 36l3 -1q3 -1 7.5 -2t10 -2.5 t11.5 -3.5t12 -3.5t11.5 -3t10 -2.5t7.5 -2l3 -1q-20 -108 -96 -127q-15 -4 -30 -4q-96 0 -120 97q-6 27 -6 57q0 84 54 117zM168 553h-45q2 6 23 75q20 67 22 74h98z" glyph-name="epsilontonos" horiz-adv-x="296" unicode="έ"/>
<glyph d="M123 0h-83v488h83v-27l3 -2q36 37 74 41q88 -2 89 -117v-383h-83v370q-5 50 -35 53q-23 -1 -48 -22v-401zM116 553q2 6 22 75q21 67 23 74h98l-98 -149h-45z" glyph-name="etatonos" horiz-adv-x="329" unicode="ή"/>
<glyph d="M43 0v489h83v-489h-83zM104 553h-45q2 6 23 75q20 67 22 74h98z" glyph-name="iotatonos" horiz-adv-x="171" unicode="ί"/>
<glyph d="M41 488h82v-355q1 -66 41 -67q41 2 42 67v355h83v-363q0 -94 -69 -123q-25 -11 -55 -11q-86 0 -114 73q-10 27 -10 60v364zM116 702h96l-28 -141h-43zM215 674h82v-95h-82v95zM32 579v95h82v-95h-82z" glyph-name="upsilondieresistonos" horiz-adv-x="331" unicode="ΰ"/>
<glyph d="M321 63v-61q-25 -10 -49 -10q-45 2 -56 42q-20 -36 -65 -45q-7 -1 -12 -1q-93 0 -106 176q-3 35 -3 77q0 235 92 255q10 2 20 2q33 0 60 -29q4 -3 6 -6l1 25h77l1 -399q1 -28 17 -29q7 0 17 3zM203 86v314q-24 22 -46 22q-40 0 -44 -140v-39q0 -158 34 -175q6 -3 13 -3 q21 1 43 21z" glyph-name="alpha" horiz-adv-x="333" unicode="α"/>
<glyph d="M40 -165v674q0 126 73 160q22 10 48 10q92 0 115 -105q6 -29 6 -64q-1 -86 -57 -122v-5q75 -26 76 -159q-1 -238 -111 -239q-38 1 -67 29v-179h-83zM148 343v71q51 1 51 96q-1 95 -43 96q-27 0 -34 -35q-3 -20 -3 -54v-442q16 -22 51 -23q32 0 43 80q5 31 5 70 q0 123 -52 139q-9 2 -18 2z" glyph-name="beta" horiz-adv-x="331" unicode="β"/>
<glyph d="M16 488h86l49 -305h2l51 305h86l-96 -464v-189h-83v187z" glyph-name="gamma" horiz-adv-x="305" unicode="γ"/>
<glyph d="M288 657l-24 -72q-35 21 -71 21q-47 -2 -48 -45q0 -28 47 -70q24 -22 30 -29q50 -53 65 -116q10 -46 10 -112q0 -209 -101 -239q-16 -5 -33 -5q-92 0 -121 127q-12 51 -12 116q0 166 70 210q10 6 19 9l-2 1q-54 50 -55 113q0 78 71 104q26 9 57 9q53 0 98 -22zM165 62 q21 2 33 28q16 39 16 143q0 99 -20 136q-11 19 -28 33q-27 -9 -40 -44q-13 -43 -13 -124q1 -171 52 -172z" glyph-name="delta" horiz-adv-x="327" unicode="δ"/>
<glyph d="M91 264v4q-52 23 -53 97q0 71 43 109q30 25 72 25q103 -2 127 -126l-71 -27q-12 74 -51 75q-22 0 -34 -29q-4 -12 -4 -24q0 -63 37 -73q10 -2 23 -2h26v-68h-21q-49 0 -61 -34q-7 -19 -7 -50q0 -64 35 -73q5 -1 9 -1q27 0 40 39q5 16 6 36l3 -1q3 -1 7.5 -2t10 -2.5 t11.5 -3.5t12 -3.5t11.5 -3t10 -2.5t7.5 -2l3 -1q-20 -108 -96 -127q-15 -4 -30 -4q-96 0 -120 97q-6 27 -6 57q0 84 54 117z" glyph-name="epsilon" horiz-adv-x="293" unicode="ε"/>
<glyph d="M47 598v72h251v-74q-134 -156 -173 -313q-13 -52 -13 -98q0 -55 26 -81q19 -18 67 -44q62 -34 70 -52q3 -8 4 -17q1 -38 -65 -100q-11 -10 -21 -18q-2 1 -23 19q-20 17 -23 19q5 6 18 16q29 26 30 44q0 6 -31 22h-1l-1 1q-77 38 -104 78q-28 43 -28 111q0 110 74 252 q53 100 119 163h-176z" glyph-name="zeta" horiz-adv-x="252" unicode="ζ"/>
<glyph d="M40 488h83v-27l3 -2q36 37 74 41q88 -2 89 -117v-383h-83v370q-5 50 -35 53q-23 -1 -48 -22v-401h-83v488z" glyph-name="eta" horiz-adv-x="329" unicode="η"/>
<glyph d="M173 -8q-95 0 -125 140q-16 77 -16 202q0 252 68 317q30 29 74 29q126 0 140 -267q2 -36 2 -76q0 -275 -85 -329q-26 -16 -58 -16zM175 70q58 2 58 249h-118q0 -249 60 -249zM115 395h117q-4 200 -59 208q-56 0 -58 -196v-12z" glyph-name="theta" horiz-adv-x="350" unicode="θ"/>
<glyph d="M43 0v489h83v-489h-83z" glyph-name="iota" horiz-adv-x="171" unicode="ι"/>
<glyph d="M40 489h82v-176l85 176h92l-87 -160l90 -329h-83l-65 231l-32 -60v-171h-82v489z" glyph-name="kappa" horiz-adv-x="309" unicode="κ"/>
<glyph d="M90 0h-85q5 20 58 234q53 213 58 233l-16 89q-13 49 -42 51q-12 0 -19 -2q0 3 -2 35q-1 30 -1 34q28 7 54 7q59 0 81 -60q6 -15 10 -34l106 -493q5 -26 13 -29q3 -1 6 -1q6 0 14 3v-67q-21 -6 -45 -6q-45 0 -58 38q-3 9 -5 18q-15 79 -58 277q-3 -13 -35 -163 q-31 -151 -34 -164z" glyph-name="lambda" horiz-adv-x="327" unicode="λ"/>
<glyph d="M5 488h87q1 -8 28 -174q27 -167 28 -175h4l55 349h86q-2 -10 -51 -244q-49 -233 -51 -244h-85q-2 10 -50 244q-49 233 -51 244z" glyph-name="nu" horiz-adv-x="298" unicode="ν"/>
<glyph d="M106 375v4q-62 23 -67 121q-1 12 -1 24q0 82 46 126q31 29 72 29q92 0 122 -101q5 -14 8 -30q-3 -1 -38 -12q-33 -11 -37 -12q-10 77 -48 78q-31 0 -41 -47q-3 -16 -3 -36q0 -97 67 -104q6 -1 13 -1h30v-71h-26q-88 0 -91 -143v-14q0 -58 29 -86q20 -20 63 -43 q62 -34 70 -52q3 -7 4 -16q0 -39 -64 -97q-11 -11 -22 -19q-2 1 -22 19q-20 16 -23 18q5 6 18 17q28 26 29 42q0 6 -31 22h-1l-1 1q-85 41 -112 98q-19 40 -19 96q0 127 52 174q12 10 24 15z" glyph-name="xi" horiz-adv-x="257" unicode="ξ"/>
<glyph d="M163 -10q-132 2 -133 253q7 248 134 255q132 -2 133 -255q0 -232 -114 -251q-10 -2 -20 -2zM165 64q50 3 49 179q0 165 -40 179q-6 2 -11 2q-51 -4 -50 -181q0 -161 40 -177q6 -2 12 -2z" glyph-name="omicron" horiz-adv-x="327" unicode="ο"/>
<glyph d="M40 488h249v-488h-83v413h-83v-413h-83v488z" glyph-name="pi" horiz-adv-x="329" unicode="π"/>
<glyph d="M125 -165h-85v459q0 149 65 188q27 16 64 16q127 -2 127 -253q0 -209 -67 -247q-19 -10 -41 -10q-33 1 -63 27v-180zM125 301v-225q23 -22 43 -22q45 2 45 189q-3 178 -50 182q-38 -2 -38 -124z" glyph-name="rho" horiz-adv-x="326" unicode="ρ"/>
<glyph d="M148 -73q21 21 39 50q4 7 4 9q0 6 -31 22h-1l-1 1q-63 31 -84 54q-44 51 -44 178q1 257 132 258q93 0 112 -109q2 -12 3 -23q-3 -1 -37 -11q-32 -11 -36 -12q-10 75 -42 76q-48 -2 -48 -178q0 -91 25 -122q17 -20 62 -45q62 -34 70 -52q3 -8 4 -17q0 -49 -75 -112 q-4 -3 -6 -5q-2 1 -23 19q-20 17 -23 19z" glyph-name="sigma1" horiz-adv-x="287" unicode="ς"/>
<glyph d="M263 413l-4 -2q40 -30 42 -153v-19q0 -222 -106 -246q-14 -3 -30 -3q-134 2 -135 248q1 249 134 250h165v-75h-66zM167 66q34 0 44 64q6 40 6 108q0 145 -33 165q-8 5 -18 5q-44 0 -51 -116q-1 -24 -1 -53q0 -156 40 -171q7 -2 13 -2z" glyph-name="sigma" horiz-adv-x="344" unicode="σ"/>
<glyph d="M7 413v75h241v-75h-87l-1 -304q0 -37 22 -40q4 -1 8 -1q18 0 54 14v-75q-38 -16 -73 -16q-90 2 -91 114v308h-73z" glyph-name="tau" horiz-adv-x="255" unicode="τ"/>
<glyph d="M40 488h82v-355q1 -66 41 -67q41 2 42 67v355h83v-363q0 -94 -69 -123q-25 -11 -55 -11q-86 0 -114 73q-10 27 -10 60v364z" glyph-name="upsilon" horiz-adv-x="328" unicode="υ"/>
<glyph d="M173 -12q-142 17 -143 255q0 190 78 239q7 5 14 8q2 -2 18 -31q17 -28 19 -31q-49 -17 -49 -185q1 -173 63 -181v436h73q110 0 142 -141q11 -50 11 -114q-1 -235 -144 -255v-153h-82v153zM255 421v-361q53 7 61 114q2 27 2 69q-1 172 -63 178z" glyph-name="phi" horiz-adv-x="429" unicode="φ"/>
<glyph d="M5 0l108 259l-96 229h87l52 -152l52 152h88l-96 -229l109 -259h-88l-64 181l-65 -181h-87z" glyph-name="chi" horiz-adv-x="314" unicode="χ"/>
<glyph d="M40 139v350h82v-349q0 -51 44 -70q4 -2 8 -3v485h83v-485q37 7 49 45q5 13 5 28v348h83v-348q0 -92 -82 -134q-27 -13 -56 -17v-154h-82v155q-61 9 -101 57q-33 40 -33 92z" glyph-name="psi" horiz-adv-x="434" unicode="ψ"/>
<glyph d="M241 48h-4q-33 -53 -80 -58q-127 2 -127 253q0 184 74 238q20 13 44 20q1 -3 14 -33q12 -29 13 -32q-58 -19 -61 -175v-17q0 -153 29 -173q7 -4 15 -4q39 2 39 116v124h81v-124q1 -115 41 -116q32 0 40 81q3 38 3 96q0 161 -56 190q-3 1 -5 2q1 2 11 31q11 28 12 31 q122 -17 122 -255q-1 -252 -127 -253q-51 0 -76 53q-1 3 -2 5z" glyph-name="omega" horiz-adv-x="476" unicode="ω"/>
<glyph d="M43 0v489h83v-489h-83zM102 579v95h87v-95h-87zM-21 674h87v-95h-87v95z" glyph-name="iotadieresis" horiz-adv-x="171" unicode="ϊ"/>
<glyph d="M40 488h82v-355q1 -66 41 -67q41 2 42 67v355h83v-363q0 -94 -69 -123q-25 -11 -55 -11q-86 0 -114 73q-10 27 -10 60v364zM180 674h87v-95h-87v95zM57 674h87v-95h-87v95z" glyph-name="upsilondieresis" horiz-adv-x="328" unicode="ϋ"/>
<glyph d="M163 -10q-132 2 -133 253q7 248 134 255q132 -2 133 -255q0 -232 -114 -251q-10 -2 -20 -2zM165 64q50 3 49 179q0 165 -40 179q-6 2 -11 2q-51 -4 -50 -181q0 -161 40 -177q6 -2 12 -2zM183 553h-45q2 6 22 75q21 67 23 74h98z" glyph-name="omicrontonos" horiz-adv-x="327" unicode="ό"/>
<glyph d="M40 124v364h82v-355q1 -66 41 -67q41 2 42 67v355h83v-363q0 -94 -69 -123q-25 -11 -55 -11q-86 0 -114 73q-10 27 -10 60zM132 553q2 6 22 75q21 67 23 74h98l-98 -149h-45z" glyph-name="upsilontonos" horiz-adv-x="328" unicode="ύ"/>
<glyph d="M241 48h-4q-33 -53 -80 -58q-127 2 -127 253q0 184 74 238q20 13 44 20q1 -3 14 -33q12 -29 13 -32q-58 -19 -61 -175v-17q0 -153 29 -173q7 -4 15 -4q39 2 39 116v124h81v-124q1 -115 41 -116q32 0 40 81q3 38 3 96q0 161 -56 190q-3 1 -5 2q1 2 11 31q11 28 12 31 q122 -17 122 -255q-1 -252 -127 -253q-51 0 -76 53q-1 3 -2 5zM254 553h-45q2 6 23 75q20 67 22 74h98z" glyph-name="omegatonos" horiz-adv-x="476" unicode="ώ"/>
<glyph d="M50 0v651h207v-81h-119v-183h78v-81h-78v-225h127v-81h-215zM63 850h102q2 -6 23 -74q20 -67 22 -74h-49q-4 6 -49 74q-45 67 -49 74z" glyph-name="uni0400" horiz-adv-x="285" unicode="Ѐ"/>
<glyph d="M50 0v651h207v-81h-119v-183h78v-81h-78v-225h127v-81h-215zM252 709h-87v95h87v-95zM42 804h87v-95h-87v95z" glyph-name="uni0401" horiz-adv-x="285" unicode="Ё"/>
<glyph d="M5 571v80h281v-80h-101v-196l3 -2q41 24 79 24q90 0 112 -132q7 -40 7 -91q-1 -210 -131 -222q-1 2 -14 24q-2 4 -3 5.5t-3 5t-3 5t-2 3.5t-2 3l-1 2q57 12 68 83q5 29 5 88q-1 155 -67 156q-19 -1 -48 -17v-310h-88v571h-92z" glyph-name="uni0402" horiz-adv-x="411" unicode="Ђ"/>
<glyph d="M50 0v651h238v-81h-150v-570h-88zM168 702h-47q2 6 22 74q20 67 22 74h100l-24 -37q-24 -37 -49 -74z" glyph-name="uni0403" horiz-adv-x="298" unicode="Ѓ"/>
<glyph d="M224 306h-95v-32q5 -193 51 -204q4 -1 7 -1q40 2 55 122q4 -1 42 -10q37 -9 41 -10q-21 -181 -141 -182q-93 0 -125 124q-19 77 -19 211q0 302 115 333q15 4 31 4q105 0 129 -153q2 -14 3 -27q-3 -1 -48 -12q-28 -7 -31 -8q-9 107 -41 119q-6 2 -12 2q-45 0 -55 -139 q-1 -27 -2 -58h95v-79z" glyph-name="uni0404" horiz-adv-x="345" unicode="Є"/>
<glyph d="M159 -10q-75 0 -119 70q-10 17 -18 37q2 3 31 33q28 28 31 32q33 -94 79 -95q44 0 55 57q2 13 2 26q0 69 -60 138q-9 10 -28 30q-60 63 -78 105q-17 39 -17 82q0 96 63 136q32 20 70 20q87 -1 130 -95q-10 -13 -55 -58q-36 72 -73 73q-36 0 -47 -40q-3 -12 -3 -25 q0 -54 57 -119q8 -9 24 -26q65 -71 85 -118q20 -45 20 -95q0 -103 -71 -147q-34 -21 -78 -21z" glyph-name="uni0405" horiz-adv-x="336" unicode="Ѕ"/>
<glyph d="M50 0v651h88v-651h-88z" glyph-name="uni0406" horiz-adv-x="188" unicode="І"/>
<glyph d="M50 0v651h88v-651h-88zM114 711v95h87v-95h-87zM-9 806h87v-95h-87v95z" glyph-name="uni0407" horiz-adv-x="188" unicode="Ї"/>
<glyph d="M-10 146l82 29q16 -105 69 -106q48 0 56 62q2 13 2 27v493h87v-489q0 -114 -77 -155q-32 -17 -70 -17q-113 0 -143 125q-4 15 -6 31z" glyph-name="uni0408" horiz-adv-x="336" unicode="Ј"/>
<glyph d="M5 66q50 3 67 51q13 35 24 180q1 4 1 7l26 347h233v-265h6q177 0 183 -179v-12q0 -164 -126 -190q-23 -5 -48 -5h-103v568h-64l-27 -323q-15 -182 -75 -231q-31 -24 -76 -24zM371 309h-15v-232h21q63 0 77 60q5 24 5 56q0 93 -51 111q-16 5 -37 5z" glyph-name="uni0409" horiz-adv-x="575" unicode="Љ"/>
<glyph d="M50 0v651h88v-265h100v265h88v-133q1 -120 1 -132h5q177 0 183 -179v-12q0 -164 -126 -190q-23 -5 -48 -5h-103v306h-100v-306h-88zM326 77h21q63 0 77 60q5 24 5 56q0 93 -51 111q-16 5 -37 5h-14q0 -9 -1 -116v-116z" glyph-name="uni040A" horiz-adv-x="545" unicode="Њ"/>
<glyph d="M5 571v80h281v-80h-101v-196l3 -2q43 32 90 32q65 0 94 -53q14 -27 14 -62v-290h-88v279q-8 46 -51 51q-31 -1 -62 -20v-310h-88v571h-92z" glyph-name="uni040B" horiz-adv-x="421" unicode="Ћ"/>
<glyph d="M50 0v651h87v-267h4q24 0 43 38q4 9 7 18l72 211h89q-3 -9 -34 -100q-30 -91 -33 -100q-28 -83 -78 -100v-3q50 -15 74 -79q4 -12 8 -25l72 -244h-91q-61 215 -71 247q-20 55 -57 59h-5v-306h-87zM201 702h-47q2 6 22 74q20 67 22 74h100l-24 -37l-48 -74z" glyph-name="uni040C" horiz-adv-x="366" unicode="Ќ"/>
<glyph d="M131 0h-81v651h81v-404h2l113 404h91v-651h-80v417h-2zM67 850h102q2 -6 23 -74q20 -67 22 -74h-49q-4 6 -49 74q-45 67 -49 74z" glyph-name="uni040D" horiz-adv-x="387" unicode="Ѝ"/>
<glyph d="M120 116l-115 537h92l70 -387h2l64 387h91l-100 -502q-24 -121 -99 -152q-33 -13 -76 -13l-17 76h7q16 0 23 2q45 9 58 52zM167 695q-77 0 -99 78q-8 31 -6 68h55q2 -70 25 -86q11 -6 24 -6q52 2 47 92h59q5 -97 -51 -132q-24 -14 -54 -14z" glyph-name="uni040E" horiz-adv-x="329" unicode="Ў"/>
<glyph d="M51 0v651h87v-568h110v568h89v-651h-98v-144h-92v144h-96z" glyph-name="uni040F" horiz-adv-x="387" unicode="Џ"/>
<glyph d="M5 0l125 651h87l125 -651h-86l-28 154h-110l-28 -154h-85zM130 228h85l-41 239z" glyph-name="uni0410" horiz-adv-x="347" unicode="А"/>
<glyph d="M152 0h-103v651h240v-83h-152v-182h6q177 0 183 -179v-12q0 -164 -126 -190q-23 -5 -48 -5zM152 309h-15v-232h21q63 0 77 60q5 24 5 56q0 93 -51 111q-16 5 -37 5z" glyph-name="uni0411" horiz-adv-x="356" unicode="Б"/>
<glyph d="M166 0h-116v651h115q149 -2 150 -168q0 -98 -69 -133q-2 -1 -3 -2v-5q67 -22 79 -114q2 -18 2 -36q-2 -192 -158 -193zM136 307v-231h29q55 0 67 62q4 22 4 52q-1 116 -80 117h-20zM136 575v-192h31q59 2 60 97q0 80 -45 92q-11 3 -24 3h-22z" glyph-name="uni0412" horiz-adv-x="364" unicode="В"/>
<glyph d="M50 0v651h238v-81h-150v-570h-88z" glyph-name="uni0413" horiz-adv-x="298" unicode="Г"/>
<glyph d="M5 -137v218h40q89 77 108 294q2 25 4 53l13 223h261v-570h51v-218h-89v137h-299v-137h-89zM239 425q-19 -248 -90 -344h195v488h-94z" glyph-name="uni0414" horiz-adv-x="487" unicode="Д"/>
<glyph d="M50 651h207v-81h-119v-183h78v-81h-78v-225h127v-81h-215v651z" glyph-name="uni0415" horiz-adv-x="285" unicode="Е"/>
<glyph d="M6 0q3 10 36 122q33 111 36 122q22 75 64 97q9 4 18 7v3q-51 18 -78 100q-26 84 -67 200h89l72 -211q15 -46 43 -55q4 -1 7 -1h4v267h87v-267h4q24 0 43 38q4 9 7 18l72 211h89q-2 -4 -34 -100q-31 -95 -33 -100q-28 -83 -78 -100v-3q50 -15 74 -79q4 -12 8 -25 q3 -10 36 -122q33 -111 36 -122h-91q-3 10 -36 124q-32 112 -35 123q-20 55 -57 59h-5v-306h-87v306h-5q-37 0 -55 -52q-1 -4 -2 -7q-9 -29 -71 -247h-91z" glyph-name="uni0416" horiz-adv-x="549" unicode="Ж"/>
<glyph d="M116 308v78h22q55 0 69 45q8 24 8 60q0 68 -36 86q-9 5 -19 5q-45 -2 -66 -110l-75 32q31 156 148 157q91 0 123 -93q11 -34 11 -71q-1 -112 -77 -141v-4q61 -20 79 -107q6 -27 6 -57q0 -142 -82 -184q-29 -14 -65 -14q-93 0 -133 106q-9 25 -14 53l3 1q4 1 9 2.5t11 3 t13 3.5l14 4t13 3.5t11 3t9 2.5l3 1q7 -80 45 -100q8 -4 15 -4q61 2 62 115q0 108 -62 122q-12 2 -25 2h-20z" glyph-name="uni0417" horiz-adv-x="350" unicode="З"/>
<glyph d="M50 651h81v-404h2l113 404h91v-651h-80v417h-2l-124 -417h-81v651z" glyph-name="uni0418" horiz-adv-x="387" unicode="И"/>
<glyph d="M50 0v651h81v-404h2l113 404h91v-651h-80v417h-2l-124 -417h-81zM195 701q-77 0 -99 78q-8 31 -6 68h55q2 -70 25 -86q11 -6 24 -6q52 2 47 92h59q5 -97 -51 -132q-24 -14 -54 -14z" glyph-name="uni0419" horiz-adv-x="387" unicode="Й"/>
<glyph d="M137 0h-87v651h87v-267h4q24 0 43 38q4 9 7 18l72 211h89q-3 -9 -34 -100q-30 -91 -33 -100q-28 -83 -78 -100v-3q50 -15 74 -79q4 -12 8 -25l72 -244h-91q-61 215 -71 247q-20 55 -57 59h-5v-306z" glyph-name="uni041A" horiz-adv-x="366" unicode="К"/>
<glyph d="M25 -10l-21 76q50 3 67 51q13 35 24 180q1 4 1 7l26 346h236v-650h-89v568h-66l-27 -323q-13 -164 -49 -214q-31 -42 -88 -42h-6q-6 1 -8 1z" glyph-name="uni041B" horiz-adv-x="408" unicode="Л"/>
<glyph d="M50 651h128l66 -430h4l66 430h123v-651h-78v492h-2q-3 -20 -39 -246q-36 -225 -40 -246h-67q-3 20 -40 246q-36 226 -40 247h-3v-493h-78v651z" glyph-name="uni041C" horiz-adv-x="487" unicode="М"/>
<glyph d="M50 651h88v-265h114v265h88v-651h-88v306h-114v-306h-88v651z" glyph-name="uni041D" horiz-adv-x="390" unicode="Н"/>
<glyph d="M186 -10q-93 0 -125 113q-21 77 -21 222q0 191 39 268q36 67 108 68q94 0 125 -116q21 -77 21 -219q0 -183 -34 -259q-36 -76 -113 -77zM187 68q23 2 36 27q24 52 24 230q0 229 -45 254q-8 4 -16 4q-35 0 -49 -73v-2q-10 -60 -10 -182q0 -240 51 -257q5 -1 9 -1z" glyph-name="uni041E" horiz-adv-x="373" unicode="О"/>
<glyph d="M50 651h286v-651h-88v571h-110v-571h-88v651z" glyph-name="uni041F" horiz-adv-x="386" unicode="П"/>
<glyph d="M138 0h-88v651h109q166 -2 167 -200q-3 -203 -172 -205h-16v-246zM156 569h-18v-241h20q55 0 67 54q6 25 6 67q0 88 -32 109q-17 11 -43 11z" glyph-name="uni0420" horiz-adv-x="346" unicode="Р"/>
<glyph d="M184 -11q-93 0 -125 124q-19 77 -19 211q0 302 115 333q15 4 31 4q105 0 129 -153q2 -14 3 -27l-40 -10q-35 -9 -39 -10q-9 107 -41 119q-6 2 -12 2q-43 0 -53 -126q-4 -52 -4 -132q0 -240 50 -254q4 -1 8 -1q40 2 55 122q4 -1 42 -10q37 -9 41 -10q-21 -181 -141 -182z " glyph-name="uni0421" horiz-adv-x="345" unicode="С"/>
<glyph d="M5 571v80h273v-80h-96v-571h-88v571h-89z" glyph-name="uni0422" horiz-adv-x="283" unicode="Т"/>
<glyph d="M5 651h92l70 -387h2l64 387h91l-100 -502q-24 -121 -99 -152q-33 -13 -76 -13l-17 76h7q16 0 23 2q45 9 58 52z" glyph-name="uni0423" horiz-adv-x="329" unicode="У"/>
<glyph d="M36 337q0 212 98 262q27 13 60 17v35h82v-35q158 -19 159 -279q0 -257 -153 -278q-4 -1 -6 -1v-58h-82v58q-157 18 -158 279zM352 336q-1 192 -76 202v-405q70 8 76 177v26zM118 337q0 -166 59 -198q9 -5 17 -6v406q-76 -11 -76 -202z" glyph-name="uni0424" horiz-adv-x="469" unicode="Ф"/>
<glyph d="M6 0l112 338l-103 313h90q10 -38 58 -214q6 22 40 144q15 57 19 70h89l-104 -311q99 -293 113 -340h-90l-68 242l-68 -242h-88z" glyph-name="uni0425" horiz-adv-x="326" unicode="Х"/>
<glyph d="M50 650h88v-567h110v567h89v-567h55v-220h-89v137h-253v650z" glyph-name="uni0426" horiz-adv-x="404" unicode="Ц"/>
<glyph d="M42 651h88v-233q8 -46 51 -51q31 1 62 20v264h88v-651h-88v322q-41 -30 -93 -30q-65 0 -94 53q-14 27 -14 62v244z" glyph-name="uni0427" horiz-adv-x="382" unicode="Ч"/>
<glyph d="M50 651h88v-568h98v568h88v-568h99v568h86v-651h-459v651z" glyph-name="uni0428" horiz-adv-x="560" unicode="Ш"/>
<glyph d="M50 0v651h88v-568h98v568h88v-568h98v568h87v-568h55v-220h-89v137h-425z" glyph-name="uni0429" horiz-adv-x="572" unicode="Щ"/>
<glyph d="M2 650h173v-264h6q177 0 183 -179v-12q0 -164 -126 -190q-23 -5 -48 -5h-103v568h-85v82zM190 309h-15v-232h21q63 0 77 60q5 24 5 56q0 93 -51 111q-16 5 -37 5z" glyph-name="uni042A" horiz-adv-x="394" unicode="Ъ"/>
<glyph d="M152 0h-103v651h88v-265h6q177 0 183 -179v-12q0 -164 -126 -190q-23 -5 -48 -5zM369 0v651h88v-651h-88zM137 309v-232h21q63 0 77 60q5 24 5 56q0 93 -51 111q-16 5 -37 5h-15z" glyph-name="uni042B" horiz-adv-x="508" unicode="Ы"/>
<glyph d="M152 0h-103v651h88v-265h6q177 0 183 -179v-12q0 -164 -126 -190q-23 -5 -48 -5zM152 309h-15v-232h21q63 0 77 60q5 24 5 56q0 93 -51 111q-16 5 -37 5z" glyph-name="uni042C" horiz-adv-x="356" unicode="Ь"/>
<glyph d="M121 306v79h95q-4 182 -48 196q-5 1 -9 1q-35 0 -47 -72q-4 -21 -6 -49q-3 1 -48 12q-28 7 -31 8q15 163 113 179q10 1 19 1q96 0 128 -121q18 -72 18 -194q0 -325 -118 -354q-13 -3 -26 -3q-121 2 -141 182q4 1 42 10q37 9 41 10q15 -121 55 -122q51 0 57 186q1 24 1 51 h-95z" glyph-name="uni042D" horiz-adv-x="346" unicode="Э"/>
<glyph d="M50 651h88v-271h82q7 212 80 262q28 19 67 19q94 0 125 -116q21 -77 21 -219q0 -233 -59 -299q-34 -37 -88 -37q-94 0 -126 116q-17 65 -20 172v22h-82v-300h-88v651zM307 326q0 -240 51 -257q5 -1 9 -1q40 0 52 91q8 60 8 166q0 229 -45 254q-8 4 -16 4q-40 0 -52 -96 q-7 -59 -7 -161z" glyph-name="uni042E" horiz-adv-x="553" unicode="Ю"/>
<glyph d="M25 0q3 15 47 187q26 107 29 118q-56 32 -65 114q-2 21 -2 47q2 184 177 185h99v-651h-88v276h-16q-18 0 -27 1l-64 -277h-90zM214 571q-68 0 -83 -55q-6 -22 -6 -52q0 -87 51 -103q16 -5 36 -5h10v215h-8z" glyph-name="uni042F" horiz-adv-x="360" unicode="Я"/>
<glyph d="M201 30h-4q-27 -36 -65 -39q-106 2 -107 163q0 114 63 153q24 15 52 15q28 -1 51 -17v49q-3 64 -46 66q-34 -1 -68 -32l-34 65q53 46 115 46q107 0 115 -114q1 -10 1 -21v-277q1 -23 13 -24q9 1 23 8v-61q-23 -17 -57 -17q-43 2 -52 37zM192 82v156q-17 11 -34 11 q-40 0 -48 -68q-2 -13 -2 -28q0 -77 34 -90q5 -2 10 -2q20 1 40 21z" glyph-name="uni0430" horiz-adv-x="321" unicode="а"/>
<glyph d="M278 695l17 -76q-95 -23 -115 -33q-36 -19 -49 -66q-7 -25 -11 -62l3 -1q24 23 55 23q75 0 104 -103q14 -52 14 -124q-1 -263 -131 -264q-90 0 -119 100q-17 61 -17 167q0 243 48 334q27 49 69 68q24 11 115 33q10 2 17 4zM165 63q38 0 46 96q2 32 2 76q-1 170 -58 171 q-20 -1 -35 -15q-8 -43 -8 -131q0 -155 25 -184q11 -13 28 -13z" glyph-name="uni0431" horiz-adv-x="327" unicode="б"/>
<glyph d="M40 0v488h102q132 0 142 -108q1 -9 1 -17q0 -57 -46 -90q-9 -6 -18 -10q65 -15 80 -83q3 -16 3 -32q0 -118 -100 -142q-24 -6 -51 -6h-113zM125 224v-154h17q69 0 79 60q1 9 1 17q-4 75 -84 77h-13zM138 417h-13v-125h11q67 2 68 63q-2 61 -66 62z" glyph-name="uni0432" horiz-adv-x="329" unicode="в"/>
<glyph d="M40 0v488h216v-71h-133v-417h-83z" glyph-name="uni0433" horiz-adv-x="261" unicode="г"/>
<glyph d="M5 72h35q41 52 54 141q6 42 10 103q1 8 7 116q3 49 3 55h233v-415h42v-199h-80v127h-224v-127h-80v199zM129 72h136v345h-78q-1 -5 -3 -55q-3 -50 -4 -55q-10 -152 -51 -235z" glyph-name="uni0434" horiz-adv-x="403" unicode="д"/>
<glyph d="M289 217h-176q2 -149 54 -150q37 0 47 65v2q3 -1 36 -14q33 -14 37 -15q-26 -106 -112 -114q-7 -1 -14 -1q-130 2 -131 251q1 256 131 257q128 -2 128 -248v-33zM114 286h95q-8 131 -47 135q-34 0 -44 -80q-3 -24 -4 -55z" glyph-name="uni0435" horiz-adv-x="317" unicode="е"/>
<glyph d="M9 0l62 183q21 61 55 75q5 2 9 3q-35 14 -59 78l-57 149h82l62 -157q16 -38 35 -39h5v196h82v-196h5q19 0 34 37q1 1 1 2l62 157h82l-57 -149q-25 -65 -59 -78q38 -10 60 -66l4 -12l62 -183h-85l-61 186q-15 39 -40 40h-8v-226h-82v226h-8q-26 0 -39 -38q-1 -1 -1 -2 l-61 -186h-85z" glyph-name="uni0436" horiz-adv-x="487" unicode="ж"/>
<glyph d="M97 225v68h26q46 0 56 38q4 16 4 37q0 34 -24 49q-7 4 -14 4q-40 -2 -51 -75l-71 27q25 125 127 126q80 0 106 -80q9 -27 9 -54q-1 -76 -53 -97v-4q54 -27 59 -105q1 -8 1 -15q0 -112 -72 -144q-25 -10 -54 -10q-86 0 -118 98q-5 16 -8 33q3 1 38 11q34 9 38 10 q4 -63 37 -74q5 -1 9 -1q32 0 41 46q3 13 3 28q0 67 -35 79q-14 5 -33 5h-21z" glyph-name="uni0437" horiz-adv-x="302" unicode="з"/>
<glyph d="M40 489h81v-271h4l96 271h81v-489h-81v271h-4l-96 -271h-81v489z" glyph-name="uni0438" horiz-adv-x="342" unicode="и"/>
<glyph d="M40 0v489h81v-271h4l96 271h81v-489h-81v271h-4l-96 -271h-81zM166 546q-77 0 -99 78q-8 31 -6 68h55q2 -70 25 -86q11 -6 24 -6q52 2 47 92h59q5 -97 -51 -132q-24 -14 -54 -14z" glyph-name="uni0439" horiz-adv-x="342" unicode="й"/>
<glyph d="M122 0h-82v488h82v-196h5q19 0 34 37q1 1 1 2q2 7 31 79q28 71 31 78h82l-57 -149q-24 -61 -59 -75v-3q38 -10 60 -66l4 -12l62 -183h-85q-14 45 -61 186q-15 39 -40 40h-8v-226z" glyph-name="uni043A" horiz-adv-x="321" unicode="к"/>
<glyph d="M33 -10l-25 71q44 6 57 25q16 25 23 132l18 270h208v-488h-83v415h-54l-14 -203q-8 -121 -22 -156q-23 -57 -95 -65q-7 -1 -13 -1z" glyph-name="uni043B" horiz-adv-x="354" unicode="л"/>
<glyph d="M40 488h120l77 -334h4l73 334h119v-488h-85v330h-4l-80 -330h-56l-81 335h-2v-335h-85v488z" glyph-name="uni043C" horiz-adv-x="473" unicode="м"/>
<glyph d="M40 489h83v-189h82v189h84v-489h-84v226h-82v-226h-83v489z" glyph-name="uni043D" horiz-adv-x="330" unicode="н"/>
<glyph d="M163 -10q-132 2 -133 253q7 248 134 255q132 -2 133 -255q0 -232 -114 -251q-10 -2 -20 -2zM165 64q50 3 49 179q0 165 -40 179q-6 2 -11 2q-51 -4 -50 -181q0 -161 40 -177q6 -2 12 -2z" glyph-name="uni043E" horiz-adv-x="327" unicode="о"/>
<glyph d="M40 488h249v-488h-83v413h-83v-413h-83v488z" glyph-name="uni043F" horiz-adv-x="329" unicode="п"/>
<glyph d="M40 488h83v-28q28 32 67 37q96 0 105 -207q1 -24 1 -49q0 -211 -72 -246q-17 -8 -37 -8q-33 1 -64 29v-181h-83v653zM123 401v-325q27 -21 44 -21q43 0 45 173v15q0 167 -36 179q-4 1 -7 1q-23 -1 -46 -22z" glyph-name="uni0440" horiz-adv-x="326" unicode="р"/>
<glyph d="M277 361l-77 -23q-6 81 -38 82q-48 -2 -48 -178q0 -164 43 -173q3 -1 6 -1q35 0 46 89v2q3 -1 38 -11q34 -10 38 -11q-19 -146 -124 -147q-130 2 -131 251q1 257 132 258q83 0 108 -95q5 -20 7 -43z" glyph-name="uni0441" horiz-adv-x="299" unicode="с"/>
<glyph d="M5 417v71h273v-71h-93v-417h-88v417h-92z" glyph-name="uni0442" horiz-adv-x="283" unicode="т"/>
<glyph d="M8 488h88l66 -359h5q3 15 31 179q27 164 30 180h86l-99 -455q-24 -110 -65 -155q-36 -39 -96 -54q-2 2 -20 32q-17 29 -19 32q96 15 108 107l-4 17q-4 18 -10.5 46.5t-15.5 65t-18 77.5t-18.5 81.5t-18.5 77t-15.5 65t-10.5 45.5z" glyph-name="uni0443" horiz-adv-x="319" unicode="у"/>
<glyph d="M172 -12q-127 12 -141 195q-2 28 -2 60q0 203 102 246q20 7 41 9v172h83q0 -7 -1 -86v-86q106 -5 135 -147q10 -48 10 -108q-1 -235 -144 -255v-153h-82q0 7 -1 77v76zM318 243q0 147 -47 172q-8 4 -16 6v-361q53 7 61 114q2 27 2 69zM172 421q-62 -14 -62 -178 q0 -128 28 -163q14 -17 34 -20v361z" glyph-name="uni0444" horiz-adv-x="429" unicode="ф"/>
<glyph d="M5 0l108 259l-96 229h87l52 -152l52 152h88l-96 -229l109 -259h-88l-64 181l-65 -181h-87z" glyph-name="uni0445" horiz-adv-x="314" unicode="х"/>
<glyph d="M40 490h83v-417h82v417h84v-417h45v-200h-81v127h-213v490z" glyph-name="uni0446" horiz-adv-x="345" unicode="ц"/>
<glyph d="M30 282v207h83v-186q1 -51 36 -52q20 1 47 17v221h83v-489h-83v210l-3 2q-36 -31 -76 -31q-53 0 -76 48q-11 24 -11 53z" glyph-name="uni0447" horiz-adv-x="319" unicode="ч"/>
<glyph d="M40 490h83v-417h77v417h83v-417h74v417h84v-490h-401v490z" glyph-name="uni0448" horiz-adv-x="483" unicode="ш"/>
<glyph d="M40 490h83v-417h77v417h83v-417h74v417h84v-417h45v-200h-81v127h-365v490z" glyph-name="uni0449" horiz-adv-x="486" unicode="щ"/>
<glyph d="M0 488h192v-187h30q88 0 127 -64q21 -35 21 -83q-2 -153 -159 -154h-104v415h-107v73zM214 230h-22v-160h26q71 2 72 81q0 66 -56 77q-10 2 -20 2z" glyph-name="uni044A" horiz-adv-x="395" unicode="ъ"/>
<glyph d="M144 0h-104v489h85v-188h30q88 0 127 -64q21 -35 21 -83q-2 -153 -159 -154zM343 489h83v-489h-83v489zM125 230v-160h26q71 2 72 81q0 66 -56 77q-10 2 -20 2h-22z" glyph-name="uni044B" horiz-adv-x="467" unicode="ы"/>
<glyph d="M144 0h-104v489h85v-188h30q88 0 127 -64q21 -35 21 -83q-2 -153 -159 -154zM147 230h-22v-160h26q71 2 72 81q0 66 -56 77q-10 2 -20 2z" glyph-name="uni044C" horiz-adv-x="328" unicode="ь"/>
<glyph d="M112 222v67h78q-6 130 -48 131q-33 -2 -42 -76l-73 23q10 121 99 131q9 1 16 1q95 0 121 -118q11 -52 11 -128q0 -243 -113 -262q-9 -1 -18 -1q-100 0 -123 137v2q3 1 38 8q34 7 38 8q3 -65 37 -76q4 -1 8 -1q46 2 49 154h-78z" glyph-name="uni044D" horiz-adv-x="304" unicode="э"/>
<glyph d="M43 489h83v-197h82q13 205 133 206q132 -2 133 -255q-1 -252 -134 -253q-126 2 -133 228h-81v-218h-83v489zM290 243q0 -161 40 -177q6 -2 12 -2q41 0 48 118q1 27 1 61q0 165 -40 179q-6 2 -11 2q-40 0 -48 -106q-2 -33 -2 -75z" glyph-name="uni044E" horiz-adv-x="504" unicode="ю"/>
<glyph d="M102 0h-84q3 10 34 114q32 104 35 114q-53 24 -60 90q-1 14 -1 30q0 132 145 140h16h87v-488h-83v205h-12q-14 0 -21 1q-2 -8 -28 -103q-25 -94 -28 -103zM182 417q-62 0 -72 -44q-2 -11 -2 -25q0 -56 42 -66q14 -3 32 -3h7v138h-7z" glyph-name="uni044F" horiz-adv-x="314" unicode="я"/>
<glyph d="M161 -10q-130 2 -131 251q1 256 131 257q128 -2 128 -248v-33h-176q2 -149 54 -150q37 0 47 65v2q3 -1 36 -14q33 -14 37 -15q-26 -106 -112 -114q-7 -1 -14 -1zM114 286h95q-8 131 -47 135q-34 0 -44 -80q-3 -24 -4 -55zM179 572v95h87v-95h-87zM56 667h87v-95h-87v95z " glyph-name="uni0451" horiz-adv-x="317" unicode="ё"/>
<glyph d="M0 591h40v80h83v-80h70v-59h-70v-89l3 -2q37 22 74 22q103 0 105 -229v-11q0 -193 -78 -251q-23 -16 -52 -25q-23 47 -26 53q53 25 67 89q8 41 8 131q0 141 -31 168q-11 9 -25 9q-20 -1 -45 -16v-381h-83v532h-40v59z" glyph-name="uni0452" horiz-adv-x="335" unicode="ђ"/>
<glyph d="M40 0v488h216v-71h-133v-417h-83zM143 553h-49q2 6 22 74q21 67 23 74h97q-4 -6 -46 -74q-43 -67 -47 -74z" glyph-name="uni0453" horiz-adv-x="261" unicode="ѓ"/>
<glyph d="M192 216h-78q8 -141 49 -148q26 0 38 37q6 18 7 40q3 -1 38 -8q34 -7 38 -8q-23 -138 -123 -139q-130 2 -131 251q1 257 132 258q93 0 112 -109q2 -12 3 -23q-3 -1 -37 -11q-32 -11 -36 -12q-10 75 -42 76q-42 0 -48 -135v-2h78v-67z" glyph-name="uni0454" horiz-adv-x="299" unicode="є"/>
<glyph d="M137 -9q-67 0 -106 60q-9 14 -15 29q2 2 28 30l29 29q27 -72 65 -73q37 0 42 40q1 5 1 10q0 46 -50 95q-6 6 -19 17q-54 50 -70 85q-12 29 -12 60q0 77 56 111q27 16 60 16q68 0 106 -62q5 -9 9 -18q-47 -47 -52 -53q-29 52 -61 53q-31 0 -37 -29q-1 -6 -1 -11 q0 -36 49 -83q53 -51 63 -62q44 -53 44 -113q0 -83 -64 -116q-30 -15 -65 -15z" glyph-name="uni0455" horiz-adv-x="287" unicode="ѕ"/>
<glyph d="M43 0v489h83v-489h-83zM42 571v95h87v-95h-87z" glyph-name="uni0456" horiz-adv-x="171" unicode="і"/>
<glyph d="M43 0v489h83v-489h-83zM102 579v95h87v-95h-87zM-21 674h87v-95h-87v95z" glyph-name="uni0457" horiz-adv-x="171" unicode="ї"/>
<glyph d="M-32 -167l-7 72q23 -7 36 -7q43 2 44 56v535h83v-520q0 -118 -75 -138q-17 -4 -37 -4q-21 0 -44 6zM40 571v95h87v-95h-87z" glyph-name="uni0458" horiz-adv-x="168" unicode="ј"/>
<glyph d="M5 61q44 6 57 25q16 25 23 132l18 270q9 0 102 1h97v-188h30q88 0 127 -64q21 -35 21 -83q-2 -153 -159 -154h-104v415h-43q0 -9 -7 -101q-6 -93 -7 -102q-8 -121 -22 -156q-23 -57 -95 -65q-7 -1 -13 -1zM302 230v-160h26q71 2 72 81q0 66 -56 77q-10 2 -20 2h-22z" glyph-name="uni0459" horiz-adv-x="505" unicode="љ"/>
<glyph d="M40 489h83v-189h72v189h84v-188h31q88 0 127 -64q21 -35 21 -83q-2 -153 -159 -154h-104v226h-72v-226h-83v489zM302 230h-23v-160h27q71 2 72 81q0 66 -56 77q-10 2 -20 2z" glyph-name="uni045A" horiz-adv-x="483" unicode="њ"/>
<glyph d="M40 532h-40v59h40v80h83v-80h65v-59h-65v-101l3 -2q36 37 74 41q88 -2 89 -117v-353h-83v342q-5 50 -35 53q-23 -1 -48 -22v-373h-83v532z" glyph-name="uni045B" horiz-adv-x="326" unicode="ћ"/>
<glyph d="M40 0v488h82v-196h5q19 0 34 37q1 1 1 2q2 7 31 79q28 71 31 78h82l-57 -149q-24 -61 -59 -75v-3q38 -10 60 -66l4 -12l62 -183h-85q-14 45 -61 186q-15 39 -40 40h-8v-226h-82zM175 553h-49q2 6 22 74q21 67 23 74h97q-4 -6 -46 -74q-43 -67 -47 -74z" glyph-name="uni045C" horiz-adv-x="321" unicode="ќ"/>
<glyph d="M8 488h88l66 -359h5q3 15 31 179q27 164 30 180h86l-99 -455q-24 -110 -65 -155q-36 -39 -96 -54q-2 2 -20 32q-17 29 -19 32q96 15 108 107l-4 17q-4 18 -10.5 46.5t-15.5 65t-18 77.5t-18.5 81.5t-18.5 77t-15.5 65t-10.5 45.5zM167 558q-77 0 -99 78q-8 31 -6 68h55 q2 -70 25 -86q11 -6 24 -6q52 2 47 92h59q5 -97 -51 -132q-24 -14 -54 -14z" glyph-name="uni045E" horiz-adv-x="319" unicode="ў"/>
<glyph d="M40 0v489h83v-417h82v417h84v-489h-85v-127h-80v127h-84z" glyph-name="uni045F" horiz-adv-x="330" unicode="џ"/>
<glyph d="M0 591h40v80h85v-80h63v-59h-63v-231h30q88 0 127 -64q21 -35 21 -83q-2 -153 -159 -154h-104v532h-40v59zM147 230h-22v-160h26q71 2 72 81q0 66 -56 77q-10 2 -20 2z" glyph-name="uni0462" horiz-adv-x="328" unicode="Ѣ"/>
<glyph d="M0 551h49v100h88v-100h71v-62h-71v-103h6q177 0 183 -179v-12q0 -164 -126 -190q-23 -5 -48 -5h-103v489h-49v62zM152 309h-15v-232h21q63 0 77 60q5 24 5 56q0 93 -51 111q-16 5 -37 5z" glyph-name="uni0463" horiz-adv-x="356" unicode="ѣ"/>
<glyph d="M189 -10q-99 0 -131 133q-18 76 -18 202q0 265 87 319q28 17 63 17q101 0 133 -139q17 -75 17 -196q0 -269 -92 -321q-26 -15 -59 -15zM190 69q60 2 60 237h-121q2 -211 45 -233q8 -4 16 -4zM129 387h119q-6 178 -47 193q-6 2 -12 2q-38 0 -51 -84q-7 -44 -9 -111z" glyph-name="uni0472" horiz-adv-x="378" unicode="Ѳ"/>
<glyph d="M163 -10q-132 2 -133 253q2 253 134 255q132 -2 133 -255q-1 -252 -134 -253zM165 64q40 0 47 111q1 18 2 38h-101q4 -137 43 -148q5 -1 9 -1zM113 284h100q-7 136 -50 140q-45 0 -50 -131v-9z" glyph-name="uni0473" horiz-adv-x="327" unicode="ѳ"/>
<glyph d="M0 591h40v80h85v-80h63v-59h-63v-231h30q88 0 127 -64q21 -35 21 -83q-2 -153 -159 -154h-104v532h-40v59zM147 230h-22v-160h26q71 2 72 81q0 66 -56 77q-10 2 -20 2z" glyph-name="uni048C" horiz-adv-x="328" unicode="Ҍ"/>
<glyph d="M0 551h49v100h88v-100h71v-62h-71v-103h6q177 0 183 -179v-12q0 -164 -126 -190q-23 -5 -48 -5h-103v489h-49v62zM152 309h-15v-232h21q63 0 77 60q5 24 5 56q0 93 -51 111q-16 5 -37 5z" glyph-name="uni048D" horiz-adv-x="356" unicode="ҍ"/>
<glyph d="M50 0v651h151v126h86v-207h-149v-570h-88z" glyph-name="uni0490" horiz-adv-x="291" unicode="Ґ"/>
<glyph d="M40 0v488h138v106h78v-177h-133v-417h-83z" glyph-name="uni0491" horiz-adv-x="265" unicode="ґ"/>
<glyph d="M6 374h45v277h206v-81h-119v-196h78v-83h-78v-291h-87v291h-45v83z" glyph-name="uni0492" horiz-adv-x="267" unicode="Ғ"/>
<glyph d="M6 271h34v217h216v-71h-133v-146h94v-68h-94v-203h-83v203h-34v68z" glyph-name="uni0493" horiz-adv-x="261" unicode="ғ"/>
<glyph d="M97 0h-91l72 244q22 75 64 97q9 4 18 7v3q-51 18 -78 100q-2 4 -34 100q-31 95 -33 100h89l72 -211q15 -46 43 -55q4 -1 7 -1h4v267h87v-267h4q24 0 43 38q4 9 7 18l72 211h89q-2 -4 -34 -100q-31 -95 -33 -100q-28 -83 -78 -100v-3q50 -15 74 -79q4 -12 8 -25l49 -165 h47v-216h-90v137h-25l-71 247q-20 55 -57 59h-5v-306h-87v306h-5q-37 0 -55 -52q-1 -4 -2 -7z" glyph-name="uni0496" horiz-adv-x="565" unicode="Җ"/>
<glyph d="M9 0l62 183q21 61 55 75q5 2 9 3q-35 14 -59 78l-57 149h82l62 -157q16 -38 35 -39h5v196h82v-196h5q19 0 34 37q1 1 1 2l62 157h82l-57 -149q-25 -65 -59 -78q38 -10 60 -66l4 -12l37 -110h41v-210h-79v137h-22l-61 186q-15 39 -40 40h-8v-226h-82v226h-8q-26 0 -39 -38 q-1 -1 -1 -2l-61 -186h-85z" glyph-name="uni0497" horiz-adv-x="495" unicode="җ"/>
<glyph d="M50 651h87v-267h4q24 0 43 38q4 9 7 18l72 211h89q-2 -4 -34 -100q-31 -95 -33 -100q-28 -83 -78 -100v-3q50 -15 74 -79q4 -12 8 -25l49 -165h38v-216h-90v137h-16l-71 247q-20 55 -57 59h-5v-306h-87v651z" glyph-name="uni049A" horiz-adv-x="376" unicode="Қ"/>
<glyph d="M122 0h-82v488h82v-196h5q19 0 34 37q1 1 1 2q1 3 21 54q39 98 41 103h82l-57 -149q-24 -61 -59 -75v-3q38 -10 60 -66l4 -12l37 -110h41v-210h-79v137h-22l-61 186q-15 39 -40 40h-8v-226z" glyph-name="uni049B" horiz-adv-x="333" unicode="қ"/>
<glyph d="M50 651h87v-267q10 0 14 2v96h35v-55q1 3 5 16q7 18 8 23l64 185h89l-67 -200q-28 -83 -78 -100v-3q50 -15 74 -79q4 -12 8 -25l72 -244h-91l-71 247q-7 20 -13 30v-79h-35v107q-5 1 -12 1h-2v-306h-87v651z" glyph-name="uni049C" horiz-adv-x="366" unicode="Ҝ"/>
<glyph d="M40 0v488h82v-196h3q8 0 12 2v79h34v-19q49 122 53 134h82l-57 -149q-24 -61 -59 -75v-3q38 -10 60 -66l4 -12l62 -183h-85l-60 183v-52h-34v95h-15v-226h-82z" glyph-name="uni049D" horiz-adv-x="321" unicode="ҝ"/>
<glyph d="M0 651h184v-267h4q24 0 43 38q4 9 7 18q40 121 72 211h89q-1 -4 -33 -100q-32 -95 -34 -100q-28 -83 -78 -100v-3q50 -15 74 -79q4 -12 8 -25q3 -10 36 -122q33 -111 36 -122h-91q-3 10 -35 124q-33 112 -36 123q-20 55 -57 59h-5v-306h-87v570h-97v81z" glyph-name="uni04A0" horiz-adv-x="418" unicode="Ҡ"/>
<glyph d="M84 412h-84v76h166v-196h5q19 0 34 37q1 1 1 2q18 48 62 157h82q-2 -6 -28 -74t-29 -75q-24 -61 -59 -75v-3q38 -10 60 -66l4 -12l62 -183h-85q-3 8 -31 93q-27 84 -30 93q-15 39 -40 40h-8v-226h-82v412z" glyph-name="uni04A1" horiz-adv-x="368" unicode="ҡ"/>
<glyph d="M50 651h88v-265h114v265h88v-572h46v-216h-90v137h-44v306h-114v-306h-88v651z" glyph-name="uni04A2" horiz-adv-x="390" unicode="Ң"/>
<glyph d="M40 489h83v-189h82v189h84v-416h41v-210h-79v137h-46v226h-82v-226h-83v489z" glyph-name="uni04A3" horiz-adv-x="330" unicode="ң"/>
<glyph d="M6 651h92l84 -307h1l82 307h90l-130 -397v-254h-89v251z" glyph-name="uni04AE" horiz-adv-x="360" unicode="Ү"/>
<glyph d="M16 488h86l49 -305h2l51 305h86l-96 -464v-189h-83v187z" glyph-name="uni04AF" horiz-adv-x="305" unicode="ү"/>
<glyph d="M6 651h92l84 -307h1l82 307h90l-126 -385h74v-67h-78v-199h-89v199h-74v67h69z" glyph-name="uni04B0" horiz-adv-x="360" unicode="Ұ"/>
<glyph d="M15 488h87l51 -305h1l50 305h86l-93 -450h81v-67h-84v-136h-83v136h-74v67h71z" glyph-name="uni04B1" horiz-adv-x="305" unicode="ұ"/>
<glyph d="M6 0l112 338l-103 313h90q10 -38 58 -214q6 22 40 144q15 57 19 70h89l-104 -311l87 -261h52v-216h-90v137h-26l-68 242l-68 -242h-88z" glyph-name="uni04B2" horiz-adv-x="346" unicode="Ҳ"/>
<glyph d="M5 0l108 259l-96 229h87l52 -152l52 152h88l-96 -229l78 -186h46v-210h-79v137h-24l-64 181l-65 -181h-87z" glyph-name="uni04B3" horiz-adv-x="324" unicode="ҳ"/>
<glyph d="M42 651h88v-233q8 -46 51 -51q31 1 62 20v264h88v-572h45v-216h-90v137h-43v322q-41 -30 -93 -30q-65 0 -94 53q-14 27 -14 62v244z" glyph-name="uni04B6" horiz-adv-x="382" unicode="Ҷ"/>
<glyph d="M30 282v207h83v-186q1 -51 36 -52q20 1 47 17v221h83v-416h40v-210h-79v137h-44v214q-38 -33 -79 -33q-53 0 -76 48q-11 24 -11 53z" glyph-name="uni04B7" horiz-adv-x="319" unicode="ҷ"/>
<glyph d="M42 651h88v-233q1 -44 42 -50v101h35v-98q18 5 36 16v264h88v-651h-88v322q-19 -13 -36 -20v-117h-35v109q-14 -2 -21 -2q-70 0 -97 58q-12 26 -12 57v244z" glyph-name="uni04B8" horiz-adv-x="382" unicode="Ҹ"/>
<glyph d="M30 282v207h83v-186q1 -41 24 -50v110h34v-108q13 5 25 13v221h83v-489h-83v214q-11 -9 -25 -18v-75h-34v62q-14 -2 -21 -2q-55 0 -77 54q-9 22 -9 47z" glyph-name="uni04B9" horiz-adv-x="319" unicode="ҹ"/>
<glyph d="M50 651h88v-276l3 -2q43 32 90 32q65 0 94 -53q14 -27 14 -62v-290h-88v279q-8 46 -51 51q-31 -1 -62 -20v-310h-88v651z" glyph-name="uni04BA" horiz-adv-x="374" unicode="Һ"/>
<glyph d="M40 670h83v-209l3 -2q36 37 74 41q88 -2 89 -117v-383h-83v372q-5 50 -35 53q-23 -1 -48 -22v-403h-83v670z" glyph-name="uni04BB" horiz-adv-x="329" unicode="һ"/>
<glyph d="M41 319v43h196q0 182 -37 212q-11 9 -25 9q-26 0 -45 -44q-11 -26 -15 -60q-30 15 -76 31q28 135 119 150q11 2 22 2q145 -2 145 -332q0 -300 -112 -334q-16 -5 -33 -5q-105 0 -130 177q-9 63 -9 151zM237 285h-111q0 -197 40 -215q6 -2 12 -2q35 0 48 74q9 50 11 143z " glyph-name="uni04D8" horiz-adv-x="366" unicode="Ә"/>
<glyph d="M31 238v33h176q-2 149 -54 150q-37 0 -47 -65v-2q-3 1 -36 14q-33 14 -37 15q26 106 112 114q7 1 14 1q130 -2 131 -251q-1 -256 -131 -257q-128 2 -128 248zM206 202h-95q8 -131 47 -135q34 0 44 80q3 24 4 55z" glyph-name="uni04D9" horiz-adv-x="317" unicode="ә"/>
<glyph d="M189 -10q-99 0 -131 133q-18 76 -18 202q0 265 87 319q28 17 63 17q101 0 133 -139q17 -75 17 -196q0 -269 -92 -321q-26 -15 -59 -15zM190 69q60 2 60 237h-121q2 -211 45 -233q8 -4 16 -4zM129 387h119q-6 178 -47 193q-6 2 -12 2q-38 0 -51 -84q-7 -44 -9 -111z" glyph-name="uni04E8" horiz-adv-x="378" unicode="Ө"/>
<glyph d="M163 -10q-132 2 -133 253q2 253 134 255q132 -2 133 -255q-1 -252 -134 -253zM165 64q40 0 47 111q1 18 2 38h-101q4 -137 43 -148q5 -1 9 -1zM113 284h100q-7 136 -50 140q-45 0 -50 -131v-9z" glyph-name="uni04E9" horiz-adv-x="327" unicode="ө"/>
<glyph d="M91 0q-3 27 -41 326q-36 297 -40 325h84q2 -18 22 -215q19 -195 21 -214h3q2 18 23 214t23 215h74l45 -426h4l42 426h87l-86 -651h-85q-2 16 -23 186q-20 170 -22 186h-2l-44 -372h-85zM102 850h102q2 -6 22 -74q21 -67 23 -74h-49q-4 6 -49 74q-45 67 -49 74z" glyph-name="Wgrave" horiz-adv-x="448" unicode="Ẁ"/>
<glyph d="M78 0l-73 488h86l31 -299h4q1 5 20.5 139.5t22.5 159.5h74l43 -300h4q1 6 17 163q12 115 14 137h86l-74 -488h-79l-46 317h-4l-47 -317h-79zM182 553l-98 148h102l45 -148h-49z" glyph-name="wgrave" horiz-adv-x="412" unicode="ẁ"/>
<glyph d="M91 0q-3 27 -41 326q-36 297 -40 325h84q2 -18 22 -215q19 -195 21 -214h3q2 18 23 214t23 215h74l45 -426h4l42 426h87l-86 -651h-85q-2 16 -23 186q-20 170 -22 186h-2l-44 -372h-85zM250 702h-47q2 6 22 74q20 67 22 74h100l-24 -37q-24 -37 -49 -74z" glyph-name="Wacute" horiz-adv-x="448" unicode="Ẃ"/>
<glyph d="M5 488h86l31 -299h4q1 5 20.5 139.5t22.5 159.5h74l43 -300h4q1 6 17 163q12 115 14 137h86l-74 -488h-79l-46 317h-4l-47 -317h-79zM233 553h-49q2 6 22 74q21 67 23 74h97q-4 -6 -46 -74q-43 -67 -47 -74z" glyph-name="wacute" horiz-adv-x="412" unicode="ẃ"/>
<glyph d="M91 0l-3 22q-3 23 -7.5 61t-10.5 86.5t-13 102.5t-13.5 107.5t-12.5 102t-10.5 86.5t-7.5 60l-3 23h84l3 -32q3 -32 8 -79.5t10.5 -103t10.5 -103t8 -79.5l3 -32h3l4 32q3 32 8 79.5t11 103t11 103t8 79.5l4 32h74l45 -426h4l3 32q3 32 8 79t10 102t10 102t8 79l3 32h87 l-86 -651h-85l-3 28q-4 28 -9 69t-10.5 89t-10.5 89t-8 69l-4 28h-2l-44 -372h-85zM239 824h87v-95h-87v95zM116 824h87v-95h-87v95z" glyph-name="Wdieresis" horiz-adv-x="448" unicode="Ẅ"/>
<glyph d="M5 488h86l31 -299h4q1 5 20.5 139.5t22.5 159.5h74l43 -300h4q1 6 17 163q12 115 14 137h86l-74 -488h-79l-46 317h-4l-47 -317h-79zM312 579h-87v95h87v-95zM102 579v95h87v-95h-87z" glyph-name="wdieresis" horiz-adv-x="412" unicode="ẅ"/>
<glyph d="M50 0v479q0 130 87 168q29 13 63 13q85 0 154 -64l4 -4q-24 -56 -94 -227q71 -16 93 -107q8 -32 8 -70q0 -127 -69 -177q-31 -22 -69 -22q-29 0 -58 12l11 74q3 -1 16 -3q14 -3 17 -4q52 0 62 90q2 18 2 36q0 85 -44 105q-11 4 -23 4q-2 2 -16 23q-14 20 -16 23 q4 9 44 107q39 97 43 107q-35 21 -64 21q-53 0 -64 -61q-2 -14 -2 -28v-495h-85z" glyph-name="Germandbls" horiz-adv-x="390" unicode="ẞ"/>
<glyph d="M136 251l-130 400h92l84 -307h1l82 307h90l-130 -397v-254h-89v251zM166 702q-4 6 -49 74q-45 67 -49 74h102q2 -6 22 -74q21 -67 23 -74h-49z" glyph-name="Ygrave" horiz-adv-x="360" unicode="Ỳ"/>
<glyph d="M8 488h88l66 -359h5q3 15 31 179q27 164 30 180h86l-99 -455q-24 -110 -65 -155q-36 -39 -96 -54q-2 2 -20 32q-17 29 -19 32q96 15 108 107l-4 17q-4 18 -10.5 46.5t-15.5 65t-18 77.5t-18.5 81.5t-18.5 77t-15.5 65t-10.5 45.5zM145 553l-98 148h102l45 -148h-49z" glyph-name="ygrave" horiz-adv-x="319" unicode="ỳ"/>
<glyph d="M30 246v77h277v-77h-277z" glyph-name="endash" horiz-adv-x="337" unicode="–"/>
<glyph d="M30 246v77h427v-77h-427z" glyph-name="emdash" horiz-adv-x="484" unicode="—"/>
<glyph d="M64 449v81q0 95 47 121q21 12 52 15l15 -41q-57 -12 -53 -70h30v-106h-91z" glyph-name="quoteleft" horiz-adv-x="227" unicode="‘"/>
<glyph d="M81 449l-15 41q57 12 53 70h-30v106h91v-81q0 -95 -47 -121q-21 -12 -52 -15z" glyph-name="quoteright" horiz-adv-x="246" unicode="’"/>
<glyph d="M63 -112l-15 41q57 12 53 70h-30v106h91v-81q0 -95 -47 -121q-21 -12 -52 -15z" glyph-name="quotesinglbase" horiz-adv-x="220" unicode="‚"/>
<glyph d="M155 449h-91v81q0 95 47 121q21 12 52 15l15 -41q-57 -12 -53 -70h30v-106zM185 449v81q0 17 1 25q5 83 59 103q17 6 39 8l15 -41q-57 -12 -53 -70h30v-106h-91z" glyph-name="quotedblleft" horiz-adv-x="353" unicode="“"/>
<glyph d="M175 485q57 12 53 70h-30v106h91v-81q0 -98 -53 -124q-20 -9 -46 -12zM69 444l-15 41q57 12 53 70h-30v106h91v-81q0 -17 -1 -25q-5 -83 -59 -103q-17 -6 -39 -8z" glyph-name="quotedblright" horiz-adv-x="352" unicode="”"/>
<glyph d="M179 -71q57 12 53 70h-30v106h91v-81q0 -95 -47 -121q-21 -12 -52 -15zM69 -112l-15 41q57 12 53 70h-30v106h91v-81q0 -17 -1 -25q-5 -83 -59 -103q-17 -6 -39 -8z" glyph-name="quotedblbase" horiz-adv-x="352" unicode="„"/>
<glyph d="M92 452h128v199h86v-198h127v-77h-127v-469h-86v469h-128v76z" glyph-name="dagger" horiz-adv-x="523" unicode="†"/>
<glyph d="M92 185h128v197h-127v76h127v193h86v-192h127v-77h-127v-196h127v-76h-127v-203h-86v203h-128v75z" glyph-name="daggerdbl" horiz-adv-x="523" unicode="‡"/>
<glyph d="M186 188q-61 0 -93 50q-18 29 -18 62q0 61 50 94q28 18 61 18q60 0 93 -51q18 -28 18 -61q0 -61 -50 -94q-28 -18 -61 -18z" glyph-name="bullet" horiz-adv-x="369" unicode="•"/>
<glyph d="M75 451l363 -185l-363 -195v380z" glyph-name="uni2023" horiz-adv-x="475" unicode="‣"/>
<glyph d="M610 0h-108v112h108v-112zM277 0v112h108v-112h-108zM51 112h108v-112h-108v112z" glyph-name="ellipsis" horiz-adv-x="657" unicode="…"/>
<glyph d="M449 -8q-111 7 -113 188q4 187 114 190q98 0 111 -148q2 -20 2 -42q0 -158 -83 -184q-15 -4 -31 -4zM450 55q16 2 26 20q13 32 13 105q-1 126 -40 127q-23 0 -32 -37v-2q-7 -28 -7 -88q1 -124 40 -125zM146 283q-103 0 -113 157q-1 15 -1 31q0 164 88 187q13 3 27 3 q112 -2 113 -190q0 -147 -74 -180q-19 -8 -40 -8zM147 346q16 2 26 20q13 30 13 105q-1 126 -40 127q-24 0 -33 -40v-2q-6 -31 -6 -85q1 -124 40 -125zM178 -21h-58l295 696h59zM718 -8q-100 0 -112 150q-1 19 -1 38q4 187 114 190q98 0 111 -148q2 -20 2 -42 q0 -177 -102 -187q-6 -1 -12 -1zM719 55q20 2 28 24q11 29 11 101q-5 121 -40 127q-21 0 -30 -31q-1 -1 -1 -2q-8 -33 -8 -94q1 -124 40 -125z" glyph-name="perthousand" horiz-adv-x="864" unicode="‰"/>
<glyph d="M218 57h-84q-4 7 -47 91q-43 82 -47 90q4 8 47 90q43 81 47 89h84q-30 -63 -91 -179l45 -90q42 -83 46 -91z" glyph-name="guilsinglleft" horiz-adv-x="248" unicode="‹"/>
<glyph d="M114 57h-84l91 181l-45 90q-42 81 -46 89h84q4 -7 47 -89t47 -90z" glyph-name="guilsinglright" horiz-adv-x="248" unicode="›"/>
<glyph d="M-140 -21l295 696h59l-296 -696h-58z" glyph-name="fraction" horiz-adv-x="102" unicode="⁄"/>
<glyph d="M14 295h42v60h-42v52h44q19 253 143 254q96 0 124 -128q3 -12 5 -24l-79 -20q-11 92 -50 93q-50 -1 -55 -175h101v-52h-104v-60h104v-50h-101q6 -174 56 -176q37 1 52 97l83 -20q-22 -141 -117 -155q-11 -2 -21 -2q-127 0 -142 251v5h-43v50z" glyph-name="Euro" horiz-adv-x="342" unicode="€"/>
<glyph d="M91 495l-71 38q21 97 98 124q21 7 43 7q110 0 137 -91q8 -27 8 -59q0 -54 -16 -98h24v-60h-55q-13 -21 -44 -58h99v-60h-152q-42 -55 -42 -100q0 -56 36 -66q7 -2 13 -2q47 0 71 75q1 1 1 2l68 -36q-24 -82 -93 -111q-25 -10 -50 -10q-98 0 -122 88q-7 26 -7 56 q0 55 28 104h-38v60h81q18 21 51 58h-132v60h173q22 42 22 87q0 73 -49 82q-6 1 -12 1q-35 0 -58 -52q-7 -18 -12 -39z" glyph-name="uni20B4" horiz-adv-x="342" unicode="₴"/>
<glyph d="M153 472h-134v51h123q-20 72 -97 73h-24v54h273v-51h-94q23 -26 32 -72q1 -3 1 -4h61v-51h-50q-1 -140 -121 -182q-3 0 -7 -2q-5 -2 -7 -2l167 -286h-101l-152 274v63h5q69 0 106 48q28 38 19 87z" glyph-name="uni20B9" horiz-adv-x="312" unicode="₹"/>
<glyph d="M41 413q0 109 79 147q24 11 52 14v77h45v-78q91 -12 120 -94q11 -31 11 -68v-411h-88v417q-1 58 -43 75v-433h-45v433q-43 -16 -44 -75v-417h-87v413z" glyph-name="uni20BC" horiz-adv-x="387" unicode="₼"/>
<glyph d="M80 156h-44v52h44v55h-44v50h44v338h99q135 0 168 -121q9 -36 9 -79q0 -176 -161 -186q-11 -1 -21 -1h-6v-56h87v-52h-87v-156h-88v156zM176 569h-8v-254h10q82 2 83 134q0 108 -68 119q-8 1 -17 1z" glyph-name="uni20BD" horiz-adv-x="396" unicode="₽"/>
<glyph d="M93 0h-43v651h43v76h50v-76q6 0 18 -1h16v77h50v-85q93 -34 94 -159q0 -85 -61 -126q-8 -5 -15 -9v-5q58 -19 78 -94q7 -28 7 -59q-1 -139 -97 -178q-3 0 -6 -2v-78h-50v68h-34v-68h-50v68zM136 307v-231h35q64 0 70 85q1 13 1 29q-2 116 -80 117h-26zM173 383h4 q56 6 56 97q0 73 -36 89q-10 4 -20 5q-5 1 -13 1h-28v-192h37z" glyph-name="uni20BF" horiz-adv-x="363" unicode="₿"/>
<glyph d="M343 -11q-93 0 -125 124q-19 77 -19 211q0 302 115 333q15 4 31 4q105 0 129 -153q2 -14 3 -27q-3 -1 -39 -10l-40 -10q-9 107 -41 119q-6 2 -12 2q-43 0 -53 -126q-4 -52 -4 -132q0 -240 50 -254q4 -1 8 -1q40 2 55 122q3 -1 41 -10t42 -10q-21 -181 -141 -182zM6 570 q0 53 44 77q21 11 44 11q57 0 79 -47q9 -20 9 -41q0 -55 -45 -79q-20 -10 -43 -10q-54 0 -78 46q-10 20 -10 43zM94 522q35 0 44 33q2 8 2 15q0 39 -34 46q-6 1 -12 1q-34 0 -43 -32q-2 -7 -2 -15q0 -35 30 -46q8 -2 15 -2z" glyph-name="uni2103" horiz-adv-x="504" unicode="℃"/>
<glyph d="M222 651h207v-81h-119v-196h78v-81h-78v-292h-88v650zM96 480q-54 0 -78 46q-10 20 -10 43q0 53 44 77q21 11 44 11q57 0 79 -47q9 -20 9 -41q0 -55 -45 -79q-20 -10 -43 -10zM96 616q-34 0 -43 -32q-2 -7 -2 -15q0 -35 30 -46q8 -2 15 -2q35 0 44 33q2 8 2 15 q0 39 -34 46q-6 1 -12 1z" glyph-name="uni2109" horiz-adv-x="470" unicode="℉"/>
<glyph d="M62 169l-2 2q-1 2 -3 4t-4 5t-4.5 6l-5 6t-4.5 6t-4 5t-3 4l-2 2q17 14 64 61v221q0 179 89 210q16 6 34 6q51 0 77 -51q16 -34 16 -80q-1 -145 -150 -327v-74q4 -122 65 -125q45 0 76 107q2 5 3 9q2 -1 29 -14q26 -12 29 -13q-48 -148 -141 -149q-86 0 -115 88 q-11 35 -11 78v39q-15 -13 -33 -26zM212 638q-35 0 -47 -71q-5 -29 -5 -65v-160q72 96 84 207q2 15 2 27q-3 58 -34 62z" glyph-name="uni2113" horiz-adv-x="412" unicode="ℓ"/>
<glyph d="M50 651h91l101 -421h2v421h74v-651h-81l-111 447h-3v-447h-73v651zM463 353q-103 1 -103 152q2 152 104 153q103 -1 104 -153q0 -109 -59 -141q-21 -11 -46 -11zM463 605q-38 -3 -37 -100q1 -98 38 -99q38 1 38 99q-1 99 -39 100zM360 318h207v-58h-207v58z" glyph-name="uni2116" horiz-adv-x="610" unicode="№"/>
<glyph d="M46 325q0 299 201 332q24 4 49 4q212 0 244 -244q6 -43 6 -92q0 -316 -223 -334q-14 -1 -27 -1q-249 2 -250 335zM100 325q0 -261 161 -284q17 -2 35 -2q132 0 173 117q23 65 23 169q-1 286 -196 287q-195 -2 -196 -287zM288 114h-60v416h70q105 0 112 -113q1 -10 1 -18 q-2 -132 -123 -133v-152zM302 474q-5 1 -14 1v-155q58 7 60 77q-1 70 -46 77z" glyph-name="uni2117" horiz-adv-x="591" unicode="℗"/>
<glyph d="M205 283v368h66l60 -235l59 235h66v-368h-57v193l-48 -191h-42l-47 187v-189h-57zM15 594v57h166v-57h-54v-311h-57v311h-55z" glyph-name="trademark" horiz-adv-x="489" unicode="™"/>
<glyph d="M5 0l123 639q-42 24 -43 77q0 51 44 76q21 11 44 11q52 0 78 -44q11 -20 11 -43q-1 -50 -43 -77l123 -639h-86l-28 154h-110l-28 -154h-85zM174 467l-44 -239h85zM173 759q-28 0 -40 -26q-3 -9 -3 -17q0 -31 27 -43q8 -3 16 -3q30 0 41 29q3 8 3 17q0 30 -28 40 q-8 3 -16 3z" glyph-name="uni212B" horiz-adv-x="347" unicode="Å"/>
<glyph d="M353 -11q-122 0 -210 96q-90 102 -92 240q0 139 90 237q89 95 212 96q134 0 220 -107q76 -96 81 -238h-476v-183q34 -82 120 -106q27 -8 55 -8q98 0 172 83q10 12 19 24h52q-73 -103 -187 -128q-28 -6 -56 -6zM353 631q-96 0 -161 -93q-8 -11 -14 -22v-175h351v178 q-45 87 -134 107q-21 5 -42 5z" glyph-name="estimated" horiz-adv-x="723" unicode="℮"/>
<glyph d="M30 274v75h287v-75h-287z" glyph-name="minus" horiz-adv-x="347" unicode="−"/>
<glyph d="M123 40v633h633v-633h-633z" glyph-name="filledbox" horiz-adv-x="875" unicode="■"/>
<glyph d="M82 0v693h687v-693h-687zM150 67h551v557h-551v-557z" glyph-name="H22073" horiz-adv-x="841" unicode="□"/>
<glyph d="M82 0v693h687v-693h-687zM150 67h551v557h-551v-557z" glyph-name="uni2610" horiz-adv-x="841" unicode="☐"/>
<glyph d="M82 0v693h687v-693h-687zM150 67h550v556h-550v-556zM678 585l14 -19q-101 -77 -244 -327q-37 -66 -64 -121q-58 -11 -79 -22q-34 130 -81 219q-21 38 -36 49q37 29 80 29q21 0 53 -67q25 -53 35 -107q106 172 229 291q50 47 93 75z" glyph-name="uni2611" horiz-adv-x="850" unicode="☑"/>
<glyph d="M82 0v693h687v-693h-687zM151 67h551v557h-551v-557zM240 113l-50 53l181 181l-181 182l51 52l182 -183l180 183l52 -51l-180 -181l183 -183l-54 -51l-181 183z" glyph-name="uni2612" horiz-adv-x="850" unicode="☒"/>
<glyph d="M741 673l15 -17q-118 -88 -299 -391q-84 -142 -137 -253q-72 -15 -101 -32q-36 153 -93 281q-37 83 -62 95q43 35 101 37q26 0 63 -78q43 -90 54 -181q109 188 262 359q109 122 197 180z" glyph-name="uni2713" horiz-adv-x="764" unicode="✓"/>
<glyph d="M177 -10q-94 0 -126 115q-21 77 -21 220q0 239 65 304q33 32 83 32q94 0 126 -115q21 -77 21 -220q0 -228 -56 -296q-34 -40 -92 -40zM178 69q26 0 40 43q1 1 1 2q17 60 17 211q0 220 -39 250q-9 7 -20 7q-34 0 -47 -72v-2q-11 -64 -11 -182q0 -240 50 -256q5 -1 9 -1z " glyph-name="uniE000" horiz-adv-x="355" unicode=""/>
<glyph d="M43 79h98v455l-89 -55v93l118 79h57v-572h104v-79h-288v79z" glyph-name="uniE001" horiz-adv-x="355" unicode=""/>
<glyph d="M47 0v18q0 153 50 248q24 43 68 99q67 87 68 144q0 62 -40 72q-6 1 -12 1q-38 0 -53 -61q-3 -11 -5 -23q-3 1 -41 10q-37 10 -41 11q25 117 105 137q20 5 42 5q84 0 116 -74q15 -34 15 -75q-1 -82 -92 -200q-72 -94 -85 -167q-6 -30 -6 -65h175v-80h-264z" glyph-name="uniE002" horiz-adv-x="355" unicode=""/>
<glyph d="M116 318v71h15q60 0 76 32q11 24 11 83q-6 71 -48 78q-41 0 -57 -81v-2l-75 27q24 126 120 134q7 1 14 1q81 0 115 -75q16 -36 16 -80q-1 -111 -79 -145v-4q84 -29 85 -167q0 -132 -73 -180q-31 -20 -70 -20q-84 0 -117 85q-11 28 -19 66q4 1 40 13q36 11 40 12 q14 -96 59 -97q39 0 51 83q2 18 2 34q0 105 -55 125q-18 7 -42 7h-9z" glyph-name="uniE003" horiz-adv-x="355" unicode=""/>
<glyph d="M212 144h-189v58q6 14 62 139q126 285 137 310h66v-434h43v-73h-43v-144h-76v144zM107 217h106v238q-5 -10 -53 -119q-48 -108 -53 -119z" glyph-name="uniE004" horiz-adv-x="355" unicode=""/>
<glyph d="M38 142l79 21q5 -77 43 -91q6 -2 12 -2q56 2 56 150q-1 137 -49 138q-30 -1 -50 -43l-73 18l11 318h237v-81h-160l-8 -156q27 23 62 23q117 -2 118 -215q0 -212 -123 -230q-11 -2 -23 -2q-85 0 -119 92q-10 28 -13 60z" glyph-name="uniE005" horiz-adv-x="355" unicode=""/>
<glyph d="M181 -10q-112 0 -134 163q-7 52 -7 144q0 246 56 320q34 44 90 44q103 0 121 -137q1 -6 1 -10q-3 -1 -38 -10q-34 -9 -38 -10q-10 87 -46 88q-39 0 -50 -92q-6 -48 -7 -127l4 -1q31 33 69 33q84 0 109 -113q9 -40 9 -89q0 -124 -63 -177q-33 -26 -76 -26zM182 69 q51 2 51 120q-1 122 -55 123q-24 -1 -46 -22q-9 -82 6 -156q14 -64 44 -65z" glyph-name="uniE006" horiz-adv-x="355" unicode=""/>
<glyph d="M178 0h-83q1 365 133 571h-172v80h260v-80q-99 -154 -124 -325q-14 -97 -14 -246z" glyph-name="uniE007" horiz-adv-x="355" unicode=""/>
<glyph d="M107 353l1 6q-59 35 -59 132q0 100 57 146q32 24 72 24q93 0 120 -98q9 -33 9 -71q0 -69 -38 -112q-11 -12 -22 -19l-2 -5q67 -37 67 -160q0 -171 -98 -201q-18 -5 -38 -5q-99 0 -125 120q-8 38 -8 85q1 126 64 158zM179 69q47 2 47 127q0 107 -41 119q-4 1 -8 1 q-39 0 -46 -83q-2 -17 -2 -36q1 -127 50 -128zM178 397q44 2 44 91q-1 94 -44 95q-44 -2 -44 -92q1 -93 44 -94z" glyph-name="uniE008" horiz-adv-x="355" unicode=""/>
<glyph d="M164 -10q-92 0 -118 108q-5 19 -7 39q3 1 31 8l48 12q10 -87 46 -88q33 0 45 58q11 50 12 161l-4 1q-31 -33 -69 -33q-84 0 -109 113q-9 40 -9 89q0 124 63 177q33 26 76 26q112 0 134 -163q7 -52 7 -144q0 -224 -39 -299q-35 -64 -107 -65zM172 339q24 1 46 22 q9 85 -6 157q-14 63 -44 64q-51 -2 -51 -120q1 -122 55 -123z" glyph-name="uniE009" horiz-adv-x="355" unicode=""/>
<glyph d="M169 -10q-103 0 -128 133q-9 50 -9 121q0 201 82 242q25 12 56 12q99 0 125 -120q12 -53 12 -134q0 -204 -85 -243q-24 -11 -53 -11zM171 63q39 0 48 84q5 39 5 98q0 159 -39 178q-7 3 -15 3q-42 0 -50 -103q-3 -34 -3 -78q0 -170 46 -181q4 -1 8 -1z" glyph-name="uniE024" horiz-adv-x="340" unicode=""/>
<glyph d="M33 78h93v294l-89 -53v93l118 77h57v-411h99v-78h-278v78z" glyph-name="uniE025" horiz-adv-x="314" unicode=""/>
<glyph d="M42 0v14q0 117 50 188q23 33 66 75q62 63 63 104q-3 48 -53 49q-34 0 -51 -40q-4 -12 -7 -26l-76 30q25 90 105 105q18 3 39 3q89 0 117 -65q10 -22 10 -48q-1 -67 -86 -152q-72 -73 -86 -114q-8 -22 -8 -46h173v-77h-256z" glyph-name="uniE026" horiz-adv-x="340" unicode=""/>
<glyph d="M109 172v66h23q67 0 72 92q1 11 1 21q0 66 -41 72q-4 1 -7 1q-41 0 -57 -75v-2q-23 9 -75 25q24 118 119 125q8 1 15 1q83 0 116 -72q15 -33 15 -73q-1 -108 -79 -141v-4q84 -28 85 -150q0 -122 -72 -168q-31 -19 -71 -19q-84 0 -118 82q-11 25 -18 59q2 0 8.5 2 t15.5 4.5t18.5 5.5t17.5 5t14 4l6 2q14 -89 59 -90q39 0 50 76q3 18 3 33q0 98 -52 114q-14 4 -31 4h-17z" glyph-name="uniE027" horiz-adv-x="340" unicode=""/>
<glyph d="M8 62l199 427h66v-412h43v-77h-43v-125h-76v125h-189v62zM198 300l-100 -223h100v223z" glyph-name="uniE028" horiz-adv-x="340" unicode=""/>
<glyph d="M27 10l79 20q5 -71 42 -86q7 -2 13 -2q56 2 56 142q-1 129 -49 130q-31 -1 -50 -41l-73 17l11 300h237v-76h-160l-8 -147q27 21 62 21q117 -2 118 -202q0 -205 -129 -218q-9 -1 -17 -1q-86 0 -119 87q-10 26 -13 56z" glyph-name="uniE029" horiz-adv-x="340" unicode=""/>
<glyph d="M302 483l-76 -19q-10 82 -46 83q-39 0 -51 -85q-6 -46 -7 -121l4 -1q32 31 70 31q85 0 110 -109q8 -37 8 -81q0 -118 -63 -166q-33 -25 -76 -25q-113 0 -135 154q-7 48 -7 135q0 230 55 300q34 42 92 42q102 0 121 -127q0 -6 1 -11zM176 64q49 16 51 113q-1 115 -56 116 q-23 -1 -46 -21q-2 -17 -2 -53q1 -154 53 -155z" glyph-name="uniE02A" horiz-adv-x="340" unicode=""/>
<glyph d="M172 -124h-84q1 344 129 533h-184v80h274v-80q-96 -142 -121 -296q-14 -91 -14 -237z" glyph-name="uniE02B" horiz-adv-x="340" unicode=""/>
<glyph d="M166 -10q-100 0 -124 118q-7 34 -7 75q1 118 63 148l1 6q-58 33 -58 124q0 95 57 138q30 22 70 22q94 0 120 -97q7 -29 7 -62q0 -65 -38 -106q-11 -11 -21 -17l-2 -5q66 -34 66 -150q0 -163 -98 -189q-17 -5 -36 -5zM169 64q46 2 46 120q0 103 -41 112q-4 1 -7 1 q-40 0 -46 -85q-1 -13 -1 -27q1 -120 49 -121zM168 373q43 2 43 85q-1 89 -43 90q-43 -2 -43 -87q1 -87 43 -88z" glyph-name="uniE02C" horiz-adv-x="340" unicode=""/>
<glyph d="M40 7l76 19q10 -82 46 -83q39 0 51 85q6 46 7 121l-4 1q-32 -31 -70 -31q-85 0 -110 109q-8 37 -8 81q0 118 63 166q33 25 76 25q113 0 135 -154q7 -48 7 -135q0 -230 -55 -300q-34 -42 -92 -42q-102 0 -121 127q0 6 -1 11zM171 197q23 1 46 21q2 17 2 53q-1 154 -53 155 q-50 -2 -51 -113q1 -115 56 -116z" glyph-name="uniE02D" horiz-adv-x="340" unicode=""/>
<glyph d="M167 -10q-103 0 -128 133q-9 50 -9 121q0 201 82 242q25 12 56 12q99 0 125 -120q12 -53 12 -134q0 -204 -85 -243q-24 -11 -53 -11zM169 63q39 0 48 84q5 39 5 98q0 159 -39 178q-7 3 -15 3q-42 0 -50 -103q-3 -34 -3 -78q0 -170 46 -181q4 -1 8 -1z" glyph-name="uniE048" horiz-adv-x="338" unicode=""/>
<glyph d="M103 0v372l-79 -48v93l108 72h57v-489h-86z" glyph-name="uniE049" horiz-adv-x="269" unicode=""/>
<glyph d="M25 0v14q0 117 50 188q23 33 66 75q62 63 63 104q-3 48 -53 49q-34 0 -51 -40q-4 -12 -7 -26l-76 30q25 90 105 105q18 3 39 3q89 0 117 -65q10 -22 10 -48q-1 -67 -86 -152q-72 -73 -86 -114q-8 -22 -8 -46h173v-77h-256z" glyph-name="uniE04A" horiz-adv-x="322" unicode=""/>
<glyph d="M94 172v66h23q67 0 72 92q1 11 1 21q0 66 -41 72q-4 1 -7 1q-41 0 -57 -75v-2q-23 9 -75 25q24 118 119 125q8 1 15 1q83 0 116 -72q15 -33 15 -73q-1 -108 -79 -141v-4q84 -28 85 -150q0 -122 -72 -168q-31 -19 -71 -19q-84 0 -118 82q-11 25 -18 59q2 0 8.5 2t15.5 4.5 t18.5 5.5t17.5 5t14 4l6 2q14 -89 59 -90q39 0 50 76q3 18 3 33q0 98 -52 114q-14 4 -31 4h-17z" glyph-name="uniE04B" horiz-adv-x="322" unicode=""/>
<glyph d="M6 62l199 427h66v-412h43v-77h-43v-125h-76v125h-189v62zM196 300l-100 -223h100v223z" glyph-name="uniE04C" horiz-adv-x="343" unicode=""/>
<glyph d="M15 10l79 20q5 -71 42 -86q7 -2 13 -2q56 2 56 142q-1 129 -49 130q-31 -1 -50 -41l-73 17l11 300h237v-76h-160l-8 -147q27 21 62 21q117 -2 118 -202q0 -205 -129 -218q-9 -1 -17 -1q-86 0 -119 87q-10 26 -13 56z" glyph-name="uniE04D" horiz-adv-x="336" unicode=""/>
<glyph d="M299 483l-76 -19q-10 82 -46 83q-39 0 -51 -85q-6 -46 -7 -121l4 -1q32 31 70 31q85 0 110 -109q8 -37 8 -81q0 -118 -63 -166q-33 -25 -76 -25q-113 0 -135 154q-7 48 -7 135q0 230 55 300q34 42 92 42q102 0 121 -127q0 -6 1 -11zM173 64q49 16 51 113q-1 115 -56 116 q-23 -1 -46 -21q-2 -17 -2 -53q1 -154 53 -155z" glyph-name="uniE04E" horiz-adv-x="347" unicode=""/>
<glyph d="M137 -124h-84q1 344 129 533h-184v80h274v-80q-96 -142 -121 -296q-14 -91 -14 -237z" glyph-name="uniE04F" horiz-adv-x="289" unicode=""/>
<glyph d="M171 -10q-100 0 -124 118q-7 34 -7 75q1 118 63 148l1 6q-58 33 -58 124q0 95 57 138q30 22 70 22q94 0 120 -97q7 -29 7 -62q0 -65 -38 -106q-11 -11 -21 -17l-2 -5q66 -34 66 -150q0 -163 -98 -189q-17 -5 -36 -5zM174 64q46 2 46 120q0 103 -41 112q-4 1 -7 1 q-40 0 -46 -85q-1 -13 -1 -27q1 -120 49 -121zM173 373q43 2 43 85q-1 89 -43 90q-43 -2 -43 -87q1 -87 43 -88z" glyph-name="uniE050" horiz-adv-x="358" unicode=""/>
<glyph d="M44 7l76 19q10 -82 46 -83q39 0 51 85q6 46 7 121l-4 1q-32 -31 -70 -31q-85 0 -110 109q-8 37 -8 81q0 118 63 166q33 25 76 25q113 0 135 -154q7 -48 7 -135q0 -230 -55 -300q-34 -42 -92 -42q-102 0 -121 127q0 6 -1 11zM175 197q23 1 46 21q2 17 2 53q-1 154 -53 155 q-50 -2 -51 -113q1 -115 56 -116z" glyph-name="uniE051" horiz-adv-x="350" unicode=""/>
<glyph d="M43 0v489h83v-489h-83zM129 571h-87v95h87v-95z" glyph-name="uniE096" horiz-adv-x="171" unicode=""/>
<glyph d="M30 325q0 239 65 304q33 32 83 32q94 0 126 -115q21 -77 21 -220q0 -228 -56 -296q-34 -40 -92 -40q-94 0 -126 115q-21 77 -21 220zM232 457l-95 -341q15 -46 41 -47q40 0 52 102q6 58 6 154q0 85 -4 132zM124 198l94 340q-13 43 -41 44q-42 0 -53 -119q-5 -54 -5 -137 q0 -72 5 -128z" glyph-name="uniE23F" horiz-adv-x="355" unicode=""/>
<glyph d="M129 -9q-101 8 -104 163q0 105 59 148q25 19 54 19q30 -1 54 -16v49q-2 65 -48 66q-31 -1 -65 -32l-1 2q-2 3 -4 7t-4.5 8.5t-5 9.5t-5 10.5t-5 10t-4.5 8.5t-4 6l-1 3q53 46 112 46q99 0 114 -97q3 -20 3 -43v-359h-77v33q-16 -34 -59 -41q-5 -1 -9 -1zM108 155 q0 -77 33 -91q6 -2 11 -2q20 1 40 21v155q-17 11 -36 11q-47 -2 -48 -94z" glyph-name="uniE26A" horiz-adv-x="313" unicode=""/>
<glyph d="M8 488h88l68 -347l64 347h86l-141 -653h-82l33 155z" glyph-name="uniE26B" horiz-adv-x="324" unicode=""/>
<glyph d="M240 196v50h-59v77h144v-112q0 -202 -120 -219q-11 -2 -22 -2q-93 0 -124 124q-19 76 -19 210q1 297 112 332q17 5 35 5q105 0 129 -153q2 -14 3 -27l-78 -17q-11 107 -45 117q-5 1 -10 1q-56 -2 -56 -258q0 -212 34 -245q10 -9 23 -9q47 0 52 94q1 15 1 32z" glyph-name="uniE26C" horiz-adv-x="365" unicode=""/>
<glyph d="M49 651h87l109 -395l106 395h86v-651h-78v405q-2 -5 -66 -233q-47 -167 -48 -171q-109 381 -117 406v-407h-79v651z" glyph-name="uniE26D" horiz-adv-x="487" unicode=""/>
<glyph d="M320 -55l-66 64q-27 -19 -68 -19q-93 0 -125 113q-21 77 -21 222q0 191 39 268q36 67 108 68q94 0 125 -116q21 -77 21 -219q0 -176 -32 -254l72 -72zM187 68q23 2 36 27q24 52 24 230q0 229 -45 254q-8 4 -16 4q-35 0 -49 -73v-2q-10 -60 -10 -182q0 -240 51 -257 q5 -1 9 -1z" glyph-name="uniE26E" horiz-adv-x="373" unicode=""/>
<glyph d="M25 154q0 105 59 148q25 19 54 19q30 -1 54 -16v49q-2 65 -48 66q-31 -1 -65 -32l-1 2q-2 3 -4 7t-4.5 8.5t-5 9.5t-5 10.5t-5 10t-4.5 8.5t-4 6l-1 3q53 46 112 46q99 0 114 -97q3 -20 3 -43v-359h-77v33q-16 -34 -59 -41q-5 -1 -9 -1q-101 8 -104 163zM108 155 q0 -77 33 -91q6 -2 11 -2q20 1 40 21v155q-17 11 -36 11q-47 -2 -48 -94zM49 701h102l45 -148h-49z" glyph-name="uniE270" horiz-adv-x="313" unicode=""/>
<glyph d="M25 154q0 105 59 148q25 19 54 19q30 -1 54 -16v49q-2 65 -48 66q-31 -1 -65 -32l-1 2q-2 3 -4 7t-4.5 8.5t-5 9.5t-5 10.5t-5 10t-4.5 8.5t-4 6l-1 3q53 46 112 46q99 0 114 -97q3 -20 3 -43v-359h-77v33q-16 -34 -59 -41q-5 -1 -9 -1q-101 8 -104 163zM156 249 q-47 -2 -48 -94q0 -77 33 -91q6 -2 11 -2q20 1 40 21v155q-17 11 -36 11zM129 553q2 6 23 74q20 67 22 74h97q-4 -6 -47 -74q-42 -67 -46 -74h-49z" glyph-name="uniE271" horiz-adv-x="313" unicode=""/>
<glyph d="M129 -9q-101 8 -104 163q0 105 59 148q25 19 54 19q30 -1 54 -16v49q-2 65 -48 66q-31 -1 -65 -32l-1 2q-2 3 -4 7t-4.5 8.5t-5 9.5t-5 10.5t-5 10t-4.5 8.5t-4 6l-1 3q53 46 112 46q99 0 114 -97q3 -20 3 -43v-359h-77v33q-16 -34 -59 -41q-5 -1 -9 -1zM104 552h-66 l77 150h71l75 -150h-69q-2 4 -22 46q-21 41 -23 46q-2 -4 -21 -46q-20 -41 -22 -46zM156 249q-47 -2 -48 -94q0 -77 33 -91q6 -2 11 -2q20 1 40 21v155q-17 11 -36 11z" glyph-name="uniE272" horiz-adv-x="313" unicode=""/>
<glyph d="M25 154q0 105 59 148q25 19 54 19q30 -1 54 -16v49q-2 65 -48 66q-31 -1 -65 -32l-1 2q-2 3 -4 7t-4.5 8.5t-5 9.5t-5 10.5t-5 10t-4.5 8.5t-4 6l-1 3q53 46 112 46q99 0 114 -97q3 -20 3 -43v-359h-77v33q-16 -34 -59 -41q-5 -1 -9 -1q-101 8 -104 163zM43 580 q15 77 44 88q8 3 16 3q18 0 65 -33q21 -15 28 -15q14 0 22 36q1 6 3 14q2 -1 23 -8q3 -1 5 -2t5 -2l4.5 -1.5t3.5 -1t4 -0.5l1 -1q-16 -84 -53 -92q-6 -1 -11 -1q-19 0 -68 33q-15 10 -20 10q-14 0 -21 -27q-3 -8 -5 -19zM108 155q0 -77 33 -91q6 -2 11 -2q20 1 40 21v155 q-17 11 -36 11q-47 -2 -48 -94z" glyph-name="uniE273" horiz-adv-x="313" unicode=""/>
<glyph d="M25 154q0 105 59 148q25 19 54 19q30 -1 54 -16v47q0 54 -36 64q-6 2 -12 2q-31 -1 -65 -32l-1 2q-2 3 -4 7l-4.5 9t-5 10.5t-5 10.5l-5 10l-4.5 9t-4 6l-1 3q53 46 112 46q106 0 116 -115q1 -13 1 -25v-359h-77v33l-18 -17q-27 -24 -50 -25q-101 8 -104 163zM156 251 q-46 -6 -48 -96q0 -77 33 -91q6 -2 11 -2q20 1 40 21v157q-17 11 -36 11zM268 579h-87v95h87v-95zM145 579h-87v95h87v-95z" glyph-name="uniE274" horiz-adv-x="313" unicode=""/>
<glyph d="M25 154q0 105 59 148q25 19 54 19q30 -1 54 -16v49q-2 65 -48 66q-31 -1 -65 -32l-1 2q-2 3 -4 7t-4.5 8.5t-5 9.5t-5 10.5t-5 10t-4.5 8.5t-4 6l-1 3q53 46 112 46q99 0 114 -97q3 -20 3 -43v-359h-77v33q-16 -34 -59 -41q-5 -1 -9 -1q-101 8 -104 163zM153 540 q-53 0 -77 45q-11 20 -11 44q0 51 44 76q21 11 44 11q52 0 78 -44q11 -20 11 -43q0 -53 -45 -78q-20 -11 -44 -11zM156 249q-47 -2 -48 -94q0 -77 33 -91q6 -2 11 -2q20 1 40 21v155q-17 11 -36 11zM110 629q0 -31 27 -43q8 -3 16 -3q30 0 41 29q3 8 3 17q0 30 -28 40 q-8 3 -16 3q-28 0 -40 -26q-3 -9 -3 -17z" glyph-name="uniE275" horiz-adv-x="313" unicode=""/>
<glyph d="M129 -9q-101 8 -104 163q0 105 59 148q25 19 54 19q30 -1 54 -16v49q-2 65 -48 66q-31 -1 -65 -32l-1 2q-2 3 -4 7t-4.5 8.5t-5 9.5t-5 10.5t-5 10t-4.5 8.5t-4 6l-1 3q53 46 112 46q99 0 114 -97q3 -20 3 -43v-359h-77v33q-16 -34 -59 -41q-5 -1 -9 -1zM108 155 q0 -77 33 -91q6 -2 11 -2q20 1 40 21v155q-17 11 -36 11q-47 -2 -48 -94zM255 573h-196v70h196v-70z" glyph-name="uniE276" horiz-adv-x="313" unicode=""/>
<glyph d="M25 154q0 105 59 148q25 19 54 19q30 -1 54 -16v49q-2 65 -48 66q-31 -1 -65 -32l-1 2q-2 3 -4 7t-4.5 8.5t-5 9.5t-5 10.5t-5 10t-4.5 8.5t-4 6l-1 3q53 46 112 46q99 0 114 -97q3 -20 3 -43v-359h-77v33q-16 -34 -59 -41q-5 -1 -9 -1q-101 8 -104 163zM158 546 q-77 0 -99 78q-8 31 -6 68h55q2 -70 25 -86q11 -6 24 -6q52 2 47 92h59q5 -97 -51 -132q-24 -14 -54 -14zM108 155q0 -77 33 -91q6 -2 11 -2q20 1 40 21v155q-17 11 -36 11q-47 -2 -48 -94z" glyph-name="uniE277" horiz-adv-x="313" unicode=""/>
<glyph d="M129 -9q-101 8 -104 163q0 105 59 148q25 19 54 19q30 -1 54 -16v47q0 54 -36 64q-6 2 -12 2q-31 -1 -65 -32l-34 67q53 46 112 46q106 0 116 -115q1 -13 1 -25v-359h-39q-67 -51 -75 -108q-1 -5 -1 -9q2 -39 40 -40q18 0 52 11l5 -39q-34 -22 -74 -22q-77 6 -81 74 q0 45 39 90q24 28 57 45v31l-18 -17q-27 -24 -50 -25zM108 155q0 -77 33 -91q6 -2 11 -2q20 1 40 21v157q-17 11 -36 11q-46 -6 -48 -96z" glyph-name="uniE278" horiz-adv-x="313" unicode=""/>
<glyph d="M124 -10l-116 498h88l68 -347l64 347h86l-141 -653h-82zM182 553h-49l1 5q2 6 5 14.5t6 19.5t7 23t7.5 24t6.5 23t6 19.5t4 14.5l2 5h97l-3 -5q-4 -6 -9.5 -14.5t-12 -19.5t-14.5 -23t-15.5 -24t-14 -23t-12 -19.5t-8.5 -14.5z" glyph-name="uniE279" horiz-adv-x="324" unicode=""/>
<glyph d="M124 -10l-116 498h88l68 -347l64 347h86l-141 -653h-82zM270 579h-87v95h87v-95zM147 579h-87v95h87v-95z" glyph-name="uniE27A" horiz-adv-x="324" unicode=""/>
<glyph d="M8 488h88l68 -347l64 347h86l-141 -653h-82l33 155zM53 552l77 150h71l75 -150h-69l-23 46q-20 41 -22 46q-2 -4 -22 -46q-19 -41 -21 -46h-66z" glyph-name="uniE27B" horiz-adv-x="324" unicode=""/>
<glyph d="M208 0v19l-3 1q-34 -31 -66 -32q-93 0 -106 176q-3 35 -3 77q0 235 92 255q10 2 20 2q25 -1 61 -32l6 3v19h77v-488h-78zM203 86v314q-24 22 -46 22q-40 0 -44 -140v-39q0 -158 34 -175q6 -3 13 -3q21 1 43 21zM187 553h-45q2 6 22 75q21 67 23 74h98z" glyph-name="uniE27C" horiz-adv-x="326" unicode=""/>
<glyph d="M208 0v19l-3 1q-34 -31 -66 -32q-93 0 -106 176q-3 35 -3 77q0 235 92 255q10 2 20 2q25 -1 61 -32l6 3v19h77v-488h-78zM160 65q21 1 43 21v314q-24 22 -46 22q-40 0 -44 -140v-39q0 -158 34 -175q6 -3 13 -3z" glyph-name="uniE27D" horiz-adv-x="326" unicode=""/>
<glyph d="M5 651h92l68 -387h5l63 387h91l-135 -651h-82l23 101zM168 697q-77 0 -99 78q-8 31 -6 68h55q2 -70 25 -86q11 -6 24 -6q52 2 47 92h59q5 -97 -51 -132q-24 -14 -54 -14z" glyph-name="uniE27E" horiz-adv-x="329" unicode=""/>
<glyph d="M5 651h92l68 -387h5l63 387h91l-135 -651h-82l23 101z" glyph-name="uniE27F" horiz-adv-x="329" unicode=""/>
<glyph d="M129 -9q-101 8 -104 163q0 105 59 148q25 19 54 19q30 -1 54 -16v49q-2 65 -48 66q-31 -1 -65 -32l-1 2q-2 3 -4 7t-4.5 8.5t-5 9.5t-5 10.5t-5 10t-4.5 8.5t-4 6l-1 3q53 46 112 46q99 0 114 -97q3 -20 3 -43v-359h-77v33q-16 -34 -59 -41q-5 -1 -9 -1zM108 155 q0 -77 33 -91q6 -2 11 -2q20 1 40 21v155q-17 11 -36 11q-47 -2 -48 -94z" glyph-name="uniE280" horiz-adv-x="313" unicode=""/>
<glyph d="M8 488h88l68 -347l64 347h86l-141 -653h-82l33 155z" glyph-name="uniE281" horiz-adv-x="324" unicode=""/>
<glyph d="M8 488h88l68 -347l64 347h86l-141 -653h-82l33 155zM161 561q-77 0 -99 78q-8 31 -6 68h55q2 -70 25 -86q11 -6 24 -6q52 2 47 92h59q5 -97 -51 -132q-24 -14 -54 -14z" glyph-name="uniE282" horiz-adv-x="324" unicode=""/>
<glyph d="M103 249q-66 0 -76 81q-2 14 -2 29q0 77 53 104q20 9 41 9q21 -1 38 -10v26q-3 37 -33 39q-26 -1 -55 -22q-1 2 -15 25q-3 4 -4 6t-3.5 5t-3.5 5l-2 4l-2 4l-1 1q48 34 95 34q92 -2 93 -96v-240h-66v23q-22 -25 -57 -27zM96 360q0 -49 28 -54q4 -1 6 -1q14 1 27 12v95 q-12 7 -25 7q-35 -4 -36 -59z" glyph-name="uniE283" horiz-adv-x="260" unicode=""/>
<glyph d="M40 670l83 25v-231l3 -1q29 37 61 38q92 0 107 -168q3 -38 3 -86q0 -239 -98 -255q-8 -1 -15 -1q-35 1 -60 34l-5 -1v-24h-79v670zM123 405v-322q23 -22 47 -22q40 0 43 155v29q0 172 -40 180q-4 1 -6 1q-19 -1 -44 -21z" glyph-name="uniE284" horiz-adv-x="327" unicode=""/>
<glyph d="M136 -9q-96 0 -105 207q-1 24 -1 49q0 211 72 246q17 8 37 8q30 -1 59 -26l5 1v194l83 25v-695h-83v25l-3 2q-25 -35 -64 -36zM159 427q-37 0 -43 -114q-2 -30 -2 -68q0 -171 37 -181q3 -1 6 -1q23 1 46 22v321q-27 21 -44 21z" glyph-name="uniE285" horiz-adv-x="326" unicode=""/>
<glyph d="M40 671l83 24v-234l3 -2q36 37 74 41q88 -2 89 -117v-383h-83v372q-5 50 -35 53q-23 -1 -48 -22v-403h-83v671z" glyph-name="uniE286" horiz-adv-x="329" unicode=""/>
<glyph d="M40 671l82 24v-382l85 176h92l-87 -160l90 -329h-83l-65 231l-32 -60v-171h-82v671z" glyph-name="uniE287" horiz-adv-x="309" unicode=""/>
<glyph d="M45 0v671l84 24v-695h-84z" glyph-name="uniE288" horiz-adv-x="174" unicode=""/>
<glyph d="M40 488h83v-25l3 -2q25 35 64 36q96 0 105 -207q1 -24 1 -49q0 -211 -72 -246q-17 -8 -37 -8q-30 1 -59 26l-5 -1v-168l-83 -24v668zM123 76q27 -21 44 -21q43 0 45 173v15q0 167 -36 179q-4 1 -7 1q-23 -1 -46 -22v-325z" glyph-name="uniE289" horiz-adv-x="326" unicode=""/>
<glyph d="M140 -12q-92 0 -107 168q-3 38 -3 86q0 239 98 255q8 1 15 1q31 -1 56 -34l5 1v24h83v-645l-83 -24v205l-3 1q-29 -37 -61 -38zM114 244q5 -175 46 -182q19 1 44 21v321q-23 22 -47 22q-39 0 -42 -140q-1 -20 -1 -42z" glyph-name="uniE28A" horiz-adv-x="327" unicode=""/>
<glyph d="M30 247q0 211 72 246q17 8 37 8q30 -1 59 -26l5 1v194l83 25v-695h-83v25l-3 2q-25 -35 -64 -36q-96 0 -105 207q-1 24 -1 49zM159 427q-37 0 -43 -114q-2 -30 -2 -68q0 -171 37 -181q3 -1 6 -1q23 1 46 22v321q-27 21 -44 21zM326 512l-15 40q52 8 54 48v12h-30v85h93 v-62q0 -105 -84 -121z" glyph-name="uniE28B" horiz-adv-x="412" unicode=""/>
<glyph d="M136 -9q-69 0 -91 84q-15 55 -15 152q0 173 51 215q24 19 58 19q30 -1 59 -26l5 1v96h-68v59h68v79l83 25v-104h40v-59h-40v-532h-83v25l-3 2q-25 -35 -64 -36zM159 387q-26 0 -35 -35q-10 -38 -10 -127q0 -139 27 -157q7 -5 16 -5q23 1 46 22v281q-27 21 -44 21z" glyph-name="uniE28C" horiz-adv-x="326" unicode=""/>
<glyph d="M40 0v671l83 24v-234l3 -2q36 37 74 41q88 -2 89 -117v-383h-83v372q-5 50 -35 53q-23 -1 -48 -22v-403h-83zM-33 704q3 6 39 74q35 67 38 74h72l75 -148h-69q-2 4 -22 45q-21 41 -23 45q-1 -3 -14 -29q-26 -56 -29 -61h-67z" glyph-name="uniE28D" horiz-adv-x="329" unicode=""/>
<glyph d="M40 532h-40v59h40v80l83 24v-104h65v-59h-65v-101l3 -2q36 37 74 41q88 -2 89 -117v-353h-83v342q-5 50 -35 53q-23 -1 -48 -22v-373h-83v532z" glyph-name="uniE28E" horiz-adv-x="326" unicode=""/>
<glyph d="M40 0v671l82 24v-382l85 176h92l-87 -160l90 -329h-83l-65 231l-32 -60v-171h-82zM108 -217l-15 40q52 8 54 48v12h-30v85h93v-62q0 -105 -84 -121z" glyph-name="uniE28F" horiz-adv-x="309" unicode=""/>
<glyph d="M45 0v671l84 24v-695h-84zM103 714h-47q2 6 22 74q20 67 22 74h100l-24 -37l-48 -74z" glyph-name="uniE290" horiz-adv-x="174" unicode=""/>
<glyph d="M45 0v671l84 24v-695h-84zM34 -222l-15 40q52 8 54 48v12h-30v85h93v-62q0 -105 -84 -121z" glyph-name="uniE291" horiz-adv-x="174" unicode=""/>
<glyph d="M45 0v671l84 24v-695h-84zM164 510l-15 40q52 8 54 48v12h-30v85h93v-62q0 -105 -84 -121z" glyph-name="uniE292" horiz-adv-x="241" unicode=""/>
<glyph d="M45 0v671l84 24v-695h-84zM167 296v95h87v-95h-87z" glyph-name="uniE293" horiz-adv-x="255" unicode=""/>
<glyph d="M-7 274l52 30v367l84 24v-343l31 18l29 -51l-60 -35v-284h-84v235l-23 -13z" glyph-name="uniE294" horiz-adv-x="174" unicode=""/>
<glyph d="M40 671l83 24v-232l3 -2q25 35 64 36q96 0 105 -207q1 -24 1 -49q0 -211 -72 -246q-17 -8 -37 -8q-30 1 -59 26l-5 -1v-168l-83 -24v851zM123 76q27 -21 44 -21q43 0 45 173v15q0 167 -36 179q-4 1 -7 1q-23 -1 -46 -22v-325z" glyph-name="uniE295" horiz-adv-x="326" unicode=""/>
<glyph d="M209 703l44 147h106l-97 -147h-53zM97 703l44 147h106q-4 -6 -49 -74q-44 -66 -48 -73h-53z" glyph-name="uniE296" horiz-adv-x="373" unicode=""/>
<glyph d="M158 702q-3 6 -38 74q-36 67 -39 74h67q2 -4 22 -45q19 -41 21 -45l45 90h67l-37 -74q-35 -67 -38 -74h-70z" glyph-name="uniE297" horiz-adv-x="373" unicode=""/>
<glyph d="M148 702h-67q3 6 39 74q35 67 38 74h72l75 -148h-69q-2 4 -22 45q-21 41 -23 45q-1 -3 -14 -29q-26 -56 -29 -61z" glyph-name="uniE298" horiz-adv-x="373" unicode=""/>
<glyph d="M142 -230l-15 40q52 8 54 48v12h-30v85h93v-62q0 -105 -84 -121z" glyph-name="uniE29B" horiz-adv-x="357" unicode=""/>
<glyph d="M219 702h-49q-4 6 -49 74q-45 67 -49 74h102q2 -6 22 -74q21 -67 23 -74z" glyph-name="uniE29C" horiz-adv-x="373" unicode=""/>
<glyph d="M197 702h-47q2 6 22 74q20 67 22 74h100l-24 -37l-48 -74z" glyph-name="uniE29D" horiz-adv-x="373" unicode=""/>
<glyph d="M40 -179v700q0 129 74 163q22 10 47 10q93 0 115 -107q6 -30 6 -65q-1 -88 -57 -124v-5q76 -28 76 -162q-1 -242 -111 -243q-38 1 -67 29v-173zM148 352v72q51 1 51 98q-1 97 -43 98q-28 0 -34 -39q-3 -19 -3 -52v-450q16 -22 51 -23q32 0 43 81q5 32 5 72q0 125 -52 141 q-9 2 -18 2z" glyph-name="uniE2A3" horiz-adv-x="331" unicode=""/>
<glyph d="M111 22l-96 466h87q0 -3 6 -37q5 -33 6 -37l39 -233q2 10 20 118q29 173 31 189h86q-4 -20 -48 -232t-48 -232v-180l-83 -23v201z" glyph-name="uniE2A4" horiz-adv-x="305" unicode=""/>
<glyph d="M40 -179v667h83v-362q1 -59 35 -60q21 1 43 21v401h83v-488h-83v28h-4q-23 -40 -66 -41q-1 0 -4 1h-4v-144z" glyph-name="uniE2A5" horiz-adv-x="324" unicode=""/>
<glyph d="M125 -156l-85 -23v473q0 149 65 188q27 16 64 16q127 -2 127 -253q0 -209 -67 -247q-19 -10 -41 -10q-33 1 -63 27v-171zM125 301v-225q23 -22 43 -22q45 2 45 189q-3 178 -50 182q-38 -2 -38 -124z" glyph-name="uniE2A6" horiz-adv-x="326" unicode=""/>
<glyph d="M40 124v364h82v-355q1 -66 41 -67q41 2 42 67v344l83 24v-376q0 -94 -69 -123q-25 -11 -55 -11q-86 0 -114 73q-10 27 -10 60z" glyph-name="uniE2A7" horiz-adv-x="328" unicode=""/>
<glyph d="M173 -12q-142 17 -143 255q0 190 78 239q7 5 14 8l2 -4q3 -3 6 -8.5t7 -12t7.5 -13t7 -12t5.5 -8.5l2 -4q-49 -17 -49 -185q1 -173 63 -181v436h73q110 0 142 -141q11 -50 11 -114q-1 -235 -144 -255v-144l-82 -23v167zM255 421v-361q53 7 61 114q2 27 2 69 q-1 172 -63 178z" glyph-name="uniE2A8" horiz-adv-x="429" unicode=""/>
<glyph d="M40 139v350h82v-349q0 -51 44 -70q4 -2 8 -3v485l83 25v-510q37 7 49 45q5 13 5 28v341l83 24v-365q0 -92 -82 -134q-27 -13 -56 -17v-145l-82 -23v169q-61 9 -101 57q-33 40 -33 92z" glyph-name="uniE2A9" horiz-adv-x="434" unicode=""/>
<glyph d="M40 488h83v-25l3 -2q25 35 64 36q96 0 105 -207q1 -24 1 -49q0 -211 -72 -246q-17 -8 -37 -8q-30 1 -59 26l-5 -1v-168l-83 -24v668zM123 76q27 -21 44 -21q43 0 45 173v15q0 167 -36 179q-4 1 -7 1q-23 -1 -46 -22v-325z" glyph-name="uniE2AA" horiz-adv-x="326" unicode=""/>
<glyph d="M0 591h40v80l83 24v-104h85v-59h-85v-101l3 -2q36 37 74 41q88 -2 89 -117v-353h-83v342q-5 50 -35 53q-23 -1 -48 -22v-373h-83v532h-40v59z" glyph-name="uniE2AB" horiz-adv-x="326" unicode=""/>
<glyph d="M0 591h40v80l85 24v-104h83v-59h-83v-231h30q88 0 127 -64q21 -35 21 -83q-2 -153 -159 -154h-104v532h-40v59zM147 230h-22v-160h26q71 2 72 81q0 66 -56 77q-10 2 -20 2z" glyph-name="uniE2AC" horiz-adv-x="328" unicode=""/>
<glyph d="M0 591h40v80l85 24v-104h83v-59h-83v-231h30q88 0 127 -64q21 -35 21 -83q-2 -153 -159 -154h-104v532h-40v59zM147 230h-22v-160h26q71 2 72 81q0 66 -56 77q-10 2 -20 2z" glyph-name="uniE2AD" horiz-adv-x="328" unicode=""/>
<glyph d="M40 671l83 24v-234l3 -2q36 37 74 41q88 -2 89 -117v-383h-83v372q-5 50 -35 53q-23 -1 -48 -22v-403h-83v671z" glyph-name="uniE2AE" horiz-adv-x="329" unicode=""/>
<glyph d="M29 243q0 203 102 246q20 7 41 9v173l82 24v-197q106 -5 135 -147q10 -48 10 -108q-1 -235 -144 -255v-144l-82 -23q0 3 -1 83v84q-127 12 -141 195q-2 28 -2 60zM318 243q0 147 -47 172q-8 4 -16 6v-361q53 7 61 114q2 27 2 69zM110 243q0 -128 28 -163q14 -17 34 -20 v361q-62 -14 -62 -178z" glyph-name="uniE2AF" horiz-adv-x="429" unicode=""/>
<glyph d="M0 591h40v80l83 24v-104h75v-59h-75v-89l3 -2q37 22 74 22q103 0 105 -229v-11q0 -152 -61 -234q-30 -40 -69 -52l-2 4l-5 10t-6 12.5t-6 12.5l-5 10l-2 4q75 36 75 230q0 141 -31 168q-11 9 -25 9q-20 -1 -45 -16v-381h-83v532h-40v59z" glyph-name="uniE2B0" horiz-adv-x="335" unicode=""/>
<glyph d="M40 124v364h82v-355q1 -66 41 -67q41 2 42 67v344l83 24v-376q0 -94 -69 -123q-25 -11 -55 -11q-86 0 -114 73q-10 27 -10 60zM177 553h-45q2 6 22 75q21 67 23 74h98z" glyph-name="uniE2B1" horiz-adv-x="328" unicode=""/>
<glyph d="M40 124v364h82v-355q1 -66 41 -67q41 2 42 67v344l83 24v-376q0 -94 -69 -123q-25 -11 -55 -11q-86 0 -114 73q-10 27 -10 60zM116 702h96l-28 -141h-43zM215 674h82v-95h-82v95zM32 579v95h82v-95h-82z" glyph-name="uniE2B2" horiz-adv-x="328" unicode=""/>
<glyph d="M40 124v364h82v-355q1 -66 41 -67q41 2 42 67v344l83 24v-376q0 -94 -69 -123q-25 -11 -55 -11q-86 0 -114 73q-10 27 -10 60zM179 579v95h87v-95h-87zM56 674h87v-95h-87v95z" glyph-name="uniE2B3" horiz-adv-x="328" unicode=""/>
<glyph d="M40 324q1 297 112 332q17 5 35 5q105 0 129 -153q2 -14 3 -27l-78 -17q-11 107 -45 117q-5 1 -10 1q-56 -2 -56 -258q0 -212 34 -245q10 -9 23 -9q47 0 52 94q1 15 1 32v50h-59v77h144v-112q0 -202 -120 -219q-11 -2 -22 -2q-93 0 -124 124q-19 76 -19 210zM141 702h-67 q3 6 38 74q36 67 39 74h72l75 -148h-69q-2 4 -23 45q-20 41 -22 45q-1 -3 -14 -29q-26 -56 -29 -61z" glyph-name="uniE2B5" horiz-adv-x="365" unicode=""/>
<glyph d="M183 -10q-93 0 -124 124q-19 76 -19 210q1 297 112 332q17 5 35 5q105 0 129 -153q2 -14 3 -27l-78 -17q-11 107 -45 117q-5 1 -10 1q-56 -2 -56 -258q0 -212 34 -245q10 -9 23 -9q47 0 52 94q1 15 1 32v50h-59v77h144v-112q0 -202 -120 -219q-11 -2 -22 -2zM187 704 q-77 0 -99 78q-8 31 -6 68h55q2 -70 25 -86q11 -6 24 -6q52 2 47 92h59q5 -97 -51 -132q-24 -14 -54 -14z" glyph-name="uniE2B6" horiz-adv-x="365" unicode=""/>
<glyph d="M240 196v50h-59v77h144v-112q0 -202 -120 -219q-11 -2 -22 -2q-93 0 -124 124q-19 76 -19 210q1 297 112 332q17 5 35 5q105 0 129 -153q2 -14 3 -27l-78 -17q-11 107 -45 117q-5 1 -10 1q-56 -2 -56 -258q0 -212 34 -245q10 -9 23 -9q47 0 52 94q1 15 1 32zM145 719v95 h87v-95h-87z" glyph-name="uniE2B7" horiz-adv-x="365" unicode=""/>
<glyph d="M240 196v50h-59v77h144v-112q0 -202 -120 -219q-11 -2 -22 -2q-93 0 -124 124q-19 76 -19 210q1 297 112 332q17 5 35 5q105 0 129 -153q2 -14 3 -27l-78 -17q-11 107 -45 117q-5 1 -10 1q-56 -2 -56 -258q0 -212 34 -245q10 -9 23 -9q47 0 52 94q1 15 1 32zM133 -230 l-15 40q52 8 54 48v12h-30v85h93v-62q0 -105 -84 -121z" glyph-name="uniE2B8" horiz-adv-x="365" unicode=""/>
<glyph d="M7 488h47v128l80 25v-153h82v-71h-82v-308q2 -40 34 -41q18 0 54 14v-75q-38 -16 -73 -16q-81 0 -93 86q-2 14 -2 28v312h-47v71z" glyph-name="uniE2BC" horiz-adv-x="225" unicode=""/>
<glyph d="M7 417v71h47v128l80 25v-153h82v-71h-82v-308q2 -40 34 -41q18 0 54 14v-75q-38 -16 -73 -16q-21 0 -37 6l-18 -40q70 0 91 -50q5 -12 5 -24q0 -49 -42 -71q-23 -11 -53 -11q-37 1 -68 17l10 43q20 -14 49 -14q41 2 42 34q-1 33 -49 33l-23 25l30 74q-32 30 -32 92v312 h-47z" glyph-name="uniE2BD" horiz-adv-x="225" unicode=""/>
<glyph d="M7 417v71h47v128l80 25v-153h82v-71h-82v-308q2 -40 34 -41q18 0 54 14v-75q-38 -16 -73 -16q-81 0 -93 86q-2 14 -2 28v312h-47zM195 531l-15 40q52 8 54 48v12h-30v85h93v-62q0 -105 -84 -121z" glyph-name="uniE2BE" horiz-adv-x="294" unicode=""/>
<glyph d="M7 488h47v128l80 25v-153h82v-71h-82v-75h81v-65h-81v-168q2 -40 34 -41q18 0 54 14v-75q-38 -16 -73 -16q-81 0 -93 86q-2 14 -2 28v172h-41v65h41v75h-47v71z" glyph-name="uniE2BF" horiz-adv-x="225" unicode=""/>
<glyph d="M7 417v71h47v128l80 25v-153h82v-71h-82v-308q2 -40 34 -41q18 0 54 14v-75q-38 -16 -73 -16q-81 0 -93 86q-2 14 -2 28v312h-47zM55 -230l-15 40q52 8 54 48v12h-30v85h93v-62q0 -105 -84 -121z" glyph-name="uniE2C0" horiz-adv-x="225" unicode=""/>
<glyph d="M0 479q53 0 68 38q10 27 11 99h59v-128h78v-71h-78v-308q2 -40 34 -41q18 0 54 14v-75q-38 -16 -73 -16q-81 0 -93 86q-2 14 -2 28v312h-58v62z" glyph-name="uniE2EE" horiz-adv-x="225" unicode=""/>
<glyph d="M0 417v62q53 0 68 38q10 27 11 99h59v-128h78v-71h-78v-308q2 -40 34 -41q18 0 54 14v-75q-38 -16 -73 -16q-27 0 -47 10l-15 -33q70 0 91 -50q5 -12 5 -24q0 -49 -42 -71q-23 -11 -53 -11q-37 1 -68 17l10 43q20 -14 49 -14q41 2 42 34q-1 33 -49 33l-23 25l29 71 q-24 31 -24 84v312h-58z" glyph-name="uniE2EF" horiz-adv-x="225" unicode=""/>
<glyph d="M0 417v62q66 0 76 85q3 21 3 52h59v-128h78v-71h-78v-308q2 -40 34 -41q18 0 54 14v-75q-38 -16 -73 -16q-81 0 -93 86q-2 14 -2 28v312h-58zM178 571q52 8 54 48v12h-30v85h93v-62q0 -105 -84 -121l-18 -2z" glyph-name="uniE2F0" horiz-adv-x="292" unicode=""/>
<glyph d="M58 417h-58v62q53 0 68 38q10 27 11 99h59v-128h78v-71h-78v-75h74v-65h-74v-168q2 -40 34 -41q18 0 54 14v-75q-38 -16 -73 -16q-81 0 -93 86q-2 14 -2 28v172h-45v65h45v75z" glyph-name="uniE2F1" horiz-adv-x="225" unicode=""/>
<glyph d="M0 417v62q53 0 68 38q10 27 11 99h59v-128h78v-71h-78v-308q2 -40 34 -41q18 0 54 14v-75q-38 -16 -73 -16q-81 0 -93 86q-2 14 -2 28v312h-58zM39 -190q52 8 54 48v12h-30v85h93v-62q0 -105 -84 -121l-18 -2z" glyph-name="uniE2F2" horiz-adv-x="225" unicode=""/>
<glyph d="M50 0v651h95q131 0 160 -91q7 -22 7 -48q-2 -103 -90 -125v-3q99 -21 102 -171q0 -190 -127 -211q-15 -2 -31 -2h-116zM136 349v-273h19q65 0 78 92q3 20 3 42q0 129 -75 138q-5 1 -10 1h-15zM136 575v-150h18q61 0 69 60q1 9 1 17q0 65 -60 72q-9 1 -19 1h-9z" glyph-name="uniE320" horiz-adv-x="364" unicode=""/>
<glyph d="M50 651h207v-81h-119v-143h78v-81h-78v-265h127v-81h-215v651z" glyph-name="uniE321" horiz-adv-x="285" unicode=""/>
<glyph d="M50 651h207v-81h-119v-144h78v-81h-78v-344h-88v650z" glyph-name="uniE322" horiz-adv-x="267" unicode=""/>
<glyph d="M277 -5l-12 49q-28 -53 -82 -54q-87 0 -118 96q-25 78 -25 238q0 314 126 335q11 2 21 2q95 0 123 -120q7 -28 9 -59l-79 -20q-9 107 -39 118q-6 2 -12 2q-59 -2 -59 -258q0 -215 35 -248q11 -9 24 -9q36 0 46 59q5 31 5 81q0 121 -1 140h-58v79h144v-431h-48z" glyph-name="uniE323" horiz-adv-x="365" unicode=""/>
<glyph d="M50 651h88v-224h114v224h88v-651h-88v347h-114v-347h-88v651z" glyph-name="uniE324" horiz-adv-x="390" unicode=""/>
<glyph d="M50 651h88v-153l102 153h104l-121 -173l126 -478h-94l-97 385l-20 -28v-357h-88v651z" glyph-name="uniE325" horiz-adv-x="357" unicode=""/>
<glyph d="M138 0h-88v651h89q128 0 170 -83q17 -34 17 -78q0 -150 -154 -161q-14 -1 -28 -1h-6v-328zM146 572h-8v-165h10q64 0 78 45q5 16 5 38q0 73 -64 81q-10 1 -21 1z" glyph-name="uniE326" horiz-adv-x="336" unicode=""/>
<glyph d="M50 0v651h99q140 0 170 -103q7 -25 7 -55q0 -106 -75 -136q-3 -1 -4 -1l106 -356h-92l-95 341q-7 -1 -19 -1h-9v-340h-88zM138 571v-152h20q66 0 72 58q1 8 1 16q-7 74 -75 78h-18z" glyph-name="uniE327" horiz-adv-x="359" unicode=""/>
<glyph d="M310 71v-61q-24 -17 -59 -17q-41 2 -50 37q-29 -38 -80 -40q-95 2 -96 150q0 103 60 143q7 4 62 32q29 14 44 29v20q-1 57 -40 58q-35 0 -61 -71q-1 -1 -1 -2l-60 47q37 102 130 103q104 0 114 -112q1 -14 1 -28v-272q1 -23 13 -24q8 1 23 8zM193 76v199q-4 -4 -40 -24 q-36 -21 -44 -64q-4 -21 -4 -46q0 -80 36 -87q4 -1 6 -1q23 1 46 23z" glyph-name="uniE328" horiz-adv-x="321" unicode=""/>
<glyph d="M40 670h82v-298l73 117h96l-95 -137l105 -352h-87l-76 269l-16 -24v-245h-82v670z" glyph-name="uniE329" horiz-adv-x="309" unicode=""/>
<glyph d="M186 -10q-93 0 -125 113q-21 77 -21 222q0 240 65 304q32 32 82 32q25 0 50 -10h170v-81h-131v-143h90v-81h-90v-265h139v-81h-178q-22 -10 -51 -10zM146 544q-19 -57 -19 -218q0 -162 21 -219q15 -38 40 -39v515q-28 -2 -42 -39z" glyph-name="uniE32A" horiz-adv-x="432" unicode=""/>
<glyph d="M5 0l204 651h281v-81h-134v-143h96v-81h-96v-265h145v-81h-234v155h-123l-44 -155h-95zM262 563l-96 -334h101v334h-5z" glyph-name="uniE32B" horiz-adv-x="519" unicode=""/>
<glyph d="M374 134l73 -29q-26 -106 -112 -114q-7 -1 -14 -1q-59 1 -91 51q-39 -50 -98 -50q-106 2 -107 140q0 93 61 138q13 10 43 27q45 25 63 43v13q-1 65 -43 66q-33 0 -55 -60q-1 -1 -1 -2q-21 14 -64 40q36 102 128 103q59 -1 85 -42q25 41 79 41q128 -2 128 -248v-33h-176 q2 -149 54 -150q37 0 47 65v2zM152 63q36 1 58 26q-17 56 -17 173q-9 -6 -26 -15q-37 -19 -48 -40q-14 -27 -14 -72q0 -61 36 -71q6 -1 11 -1zM274 286h95q-8 131 -47 135q-34 0 -44 -80q-3 -24 -4 -55z" glyph-name="uniE32C" horiz-adv-x="477" unicode=""/>
<glyph d="M100 0h-95l204 651h281v-81h-134v-143h96v-81h-96v-265h145v-81h-234v155h-123zM262 563l-96 -334h101v334h-5zM342 702h-47q2 6 22 74q20 67 22 74h100l-24 -37q-24 -37 -49 -74z" glyph-name="uniE32D" horiz-adv-x="519" unicode=""/>
<glyph d="M374 134l73 -29q-26 -106 -112 -114q-7 -1 -14 -1q-59 1 -91 51q-39 -50 -98 -50q-106 2 -107 140q0 93 61 138q13 10 43 27q45 25 63 43v13q-1 65 -43 66q-33 0 -55 -60q-1 -1 -1 -2q-21 14 -64 40q36 102 128 103q59 -1 85 -42q25 41 79 41q128 -2 128 -248v-33h-176 q2 -149 54 -150q37 0 47 65v2zM152 63q36 1 58 26q-17 56 -17 173q-9 -6 -26 -15q-37 -19 -48 -40q-14 -27 -14 -72q0 -61 36 -71q6 -1 11 -1zM274 286h95q-8 131 -47 135q-34 0 -44 -80q-3 -24 -4 -55zM268 553h-49q2 6 23 74q20 67 22 74h97q-4 -6 -47 -74 q-42 -67 -46 -74z" glyph-name="uniE32E" horiz-adv-x="477" unicode=""/>
<glyph d="M50 0v651h207v-81h-119v-143h78v-81h-78v-265h127v-81h-215zM32 850h102q2 -6 22 -74q21 -67 23 -74h-49q-4 6 -49 74q-45 67 -49 74z" glyph-name="uniE32F" horiz-adv-x="285" unicode=""/>
<glyph d="M50 0v651h207v-81h-119v-143h78v-81h-78v-265h127v-81h-215zM167 702h-47q2 6 22 74q20 67 22 74h100l-24 -37l-48 -74z" glyph-name="uniE330" horiz-adv-x="285" unicode=""/>
<glyph d="M50 0v651h207v-81h-119v-143h78v-81h-78v-265h127v-81h-215zM36 702q3 6 38 74q36 67 39 74h72l75 -148h-69q-2 4 -23 45q-20 41 -22 45q-1 -3 -14 -29q-26 -56 -29 -61h-67z" glyph-name="uniE331" horiz-adv-x="285" unicode=""/>
<glyph d="M50 0v651h207v-81h-119v-143h78v-81h-78v-265h127v-81h-215zM173 829h87v-95h-87v95zM50 734v95h87v-95h-87z" glyph-name="uniE332" horiz-adv-x="285" unicode=""/>
<glyph d="M50 0v651h207v-81h-119v-143h78v-81h-78v-265h127v-81h-215zM250 727h-196v70h196v-70z" glyph-name="uniE333" horiz-adv-x="285" unicode=""/>
<glyph d="M46 0v651h207v-81h-119v-143h78v-81h-78v-265h127v-81h-215zM148 703q-77 0 -99 78q-8 31 -6 68h55q2 -70 25 -86q11 -6 24 -6q52 2 47 92h59q5 -97 -51 -132q-24 -14 -54 -14z" glyph-name="uniE334" horiz-adv-x="281" unicode=""/>
<glyph d="M50 0v651h207v-81h-119v-143h78v-81h-78v-265h127v-81h-215zM194 726h-87v95h87v-95z" glyph-name="uniE335" horiz-adv-x="285" unicode=""/>
<glyph d="M50 0v651h207v-81h-119v-143h78v-81h-78v-265h127v-81h-34q-58 -56 -63 -107q2 -39 40 -40q18 0 52 11l5 -39q-34 -22 -74 -22q-77 6 -81 74q0 44 37 88q18 21 39 35h-136z" glyph-name="uniE336" horiz-adv-x="285" unicode=""/>
<glyph d="M50 651h207v-81h-119v-143h78v-81h-78v-265h127v-81h-215v651zM110 702q-3 6 -38 74q-36 67 -39 74h67q2 -4 22 -45q19 -41 21 -45l45 90h67l-37 -74q-35 -67 -38 -74h-70z" glyph-name="uniE337" horiz-adv-x="285" unicode=""/>
<glyph d="M40 324q0 314 126 335q11 2 21 2q95 0 123 -120q7 -28 9 -59l-79 -20q-9 107 -39 118q-6 2 -12 2q-59 -2 -59 -258q0 -215 35 -248q11 -9 24 -9q36 0 46 59q5 31 5 81q0 121 -1 140h-58v79h144v-431h-48l-12 49q-28 -53 -82 -54q-87 0 -118 96q-25 78 -25 238zM76 702 q3 6 38 74q36 67 39 74h72l75 -148h-69q-2 4 -23 45q-20 41 -22 45q-1 -3 -14 -29q-26 -56 -29 -61h-67z" glyph-name="uniE338" horiz-adv-x="365" unicode=""/>
<glyph d="M40 324q0 314 126 335q11 2 21 2q95 0 123 -120q7 -28 9 -59l-79 -20q-9 107 -39 118q-6 2 -12 2q-59 -2 -59 -258q0 -215 35 -248q11 -9 24 -9q36 0 46 59q5 31 5 81q0 121 -1 140h-58v79h144v-431h-48l-12 49q-28 -53 -82 -54q-87 0 -118 96q-25 78 -25 238zM190 704 q-77 0 -99 78q-8 31 -6 68h55q2 -70 25 -86q11 -6 24 -6q52 2 47 92h59q5 -97 -51 -132q-24 -14 -54 -14z" glyph-name="uniE339" horiz-adv-x="365" unicode=""/>
<glyph d="M277 -5l-12 49q-28 -53 -82 -54q-87 0 -118 96q-25 78 -25 238q0 314 126 335q11 2 21 2q95 0 123 -120q7 -28 9 -59l-79 -20q-9 107 -39 118q-6 2 -12 2q-59 -2 -59 -258q0 -215 35 -248q11 -9 24 -9q36 0 46 59q5 31 5 81q0 121 -1 140h-58v79h144v-431h-48zM146 719 v95h87v-95h-87z" glyph-name="uniE33A" horiz-adv-x="365" unicode=""/>
<glyph d="M277 -5l-12 49q-28 -53 -82 -54q-87 0 -118 96q-25 78 -25 238q0 314 126 335q11 2 21 2q95 0 123 -120q7 -28 9 -59l-79 -20q-9 107 -39 118q-6 2 -12 2q-59 -2 -59 -258q0 -215 35 -248q11 -9 24 -9q36 0 46 59q5 31 5 81q0 121 -1 140h-58v79h144v-431h-48zM128 -230 l-15 40q52 8 54 48v12h-30v85h93v-62q0 -105 -84 -121z" glyph-name="uniE33B" horiz-adv-x="365" unicode=""/>
<glyph d="M138 0h-88v651h88v-224h114v224h88v-651h-88v347h-114v-347zM148 702h-67q3 6 39 74q35 67 38 74h72l75 -148h-69q-2 4 -22 45q-21 41 -23 45q-1 -3 -14 -29q-26 -56 -29 -61z" glyph-name="uniE33C" horiz-adv-x="390" unicode=""/>
<glyph d="M50 0v651h88v-153l102 153h104l-121 -173l126 -478h-94l-97 385l-20 -28v-357h-88zM133 -212l-15 40q52 8 54 48v12h-30v85h93v-62q0 -105 -84 -121z" glyph-name="uniE33D" horiz-adv-x="357" unicode=""/>
<glyph d="M50 0v651h99q140 0 170 -103q7 -25 7 -55q0 -106 -75 -136q-3 -1 -4 -1l106 -356h-92l-95 341q-7 -1 -19 -1h-9v-340h-88zM138 571v-152h20q66 0 72 58q1 8 1 16q-7 74 -75 78h-18zM173 702h-47q2 6 22 74q20 67 22 74h100l-24 -37l-48 -74z" glyph-name="uniE33E" horiz-adv-x="359" unicode=""/>
<glyph d="M50 651h99q140 0 170 -103q7 -25 7 -55q0 -106 -75 -136q-3 -1 -4 -1l106 -356h-92l-95 341q-7 -1 -19 -1h-9v-340h-88v651zM120 -178q52 8 54 48v12h-30v85h93v-62q0 -105 -84 -121l-18 -2zM156 571h-18v-152h20q66 0 72 58q1 8 1 16q-7 74 -75 78z" glyph-name="uniE33F" horiz-adv-x="359" unicode=""/>
<glyph d="M65 651h99q140 0 170 -103q7 -25 7 -55q0 -106 -75 -136q-3 -1 -4 -1l106 -356h-92l-95 341q-7 -1 -19 -1h-9v-340h-88v651zM127 702q-3 6 -39 74q-35 67 -38 74h67q2 -4 21 -45q20 -41 22 -45l45 90h67q-3 -6 -38 -74q-34 -67 -37 -74h-70zM153 419h20q66 0 72 58 q1 8 1 16q-7 74 -75 78h-18v-152z" glyph-name="uniE340" horiz-adv-x="374" unicode=""/>
<glyph d="M310 71v-61q-24 -17 -59 -17q-41 2 -50 37q-29 -38 -80 -40q-95 2 -96 150q0 103 60 143q7 4 62 32q29 14 44 29v20q-1 57 -40 58q-35 0 -61 -71q-1 -1 -1 -2l-60 47q37 102 130 103q104 0 114 -112q1 -14 1 -28v-272q1 -23 13 -24q8 1 23 8zM193 76v199q-4 -4 -40 -24 q-36 -21 -44 -64q-4 -21 -4 -46q0 -80 36 -87q4 -1 6 -1q23 1 46 23zM150 553l-98 148h102l45 -148h-49z" glyph-name="uniE341" horiz-adv-x="321" unicode=""/>
<glyph d="M310 71v-61q-24 -17 -59 -17q-41 2 -50 37q-29 -38 -80 -40q-95 2 -96 150q0 103 60 143q7 4 62 32q29 14 44 29v20q-1 57 -40 58q-35 0 -61 -71q-1 -1 -1 -2l-60 47q37 102 130 103q104 0 114 -112q1 -14 1 -28v-272q1 -23 13 -24q8 1 23 8zM193 76v199q-4 -4 -40 -24 q-36 -21 -44 -64q-4 -21 -4 -46q0 -80 36 -87q4 -1 6 -1q23 1 46 23zM176 553h-49q2 6 23 74q20 67 22 74h97q-4 -6 -47 -74q-42 -67 -46 -74z" glyph-name="uniE342" horiz-adv-x="321" unicode=""/>
<glyph d="M121 -10q-95 2 -96 150q0 103 60 143q7 4 62 32q29 14 44 29v20q-1 57 -40 58q-35 0 -61 -71q-1 -1 -1 -2l-60 47q37 102 130 103q104 0 114 -112q1 -14 1 -28v-272q1 -23 13 -24q8 1 23 8v-61q-24 -17 -59 -17q-41 2 -50 37q-29 -38 -80 -40zM47 552l77 150h71l75 -150 h-69l-23 46q-20 41 -22 46q-2 -4 -22 -46q-19 -41 -21 -46h-66zM105 141q0 -80 36 -87q4 -1 6 -1q23 1 46 23v199q-4 -4 -40 -24q-36 -21 -44 -64q-4 -21 -4 -46z" glyph-name="uniE343" horiz-adv-x="321" unicode=""/>
<glyph d="M310 71v-61q-24 -17 -59 -17q-41 2 -50 37q-29 -38 -80 -40q-95 2 -96 150q0 103 60 143q7 4 62 32q29 14 44 29v20q-1 57 -40 58q-35 0 -61 -71q-1 -1 -1 -2l-60 47q37 102 130 103q104 0 114 -112q1 -14 1 -28v-272q1 -23 13 -24q8 1 23 8zM193 76v199q-4 -4 -40 -24 q-36 -21 -44 -64q-4 -21 -4 -46q0 -80 36 -87q4 -1 6 -1q23 1 46 23zM93 561l-46 19q15 77 44 88q8 3 16 3q18 0 65 -33q21 -15 28 -15q14 0 22 36q1 6 3 14q2 -1 23 -8q3 -1 5 -2t5 -2l4.5 -1.5t3.5 -1t4 -0.5l1 -1q-16 -84 -53 -92q-6 -1 -11 -1q-19 0 -68 33 q-15 10 -20 10q-14 0 -21 -27q-3 -8 -5 -19z" glyph-name="uniE344" horiz-adv-x="321" unicode=""/>
<glyph d="M132 -9q-106 2 -107 150q0 90 58 131q5 3 62 34q30 17 47 33v22q-1 55 -41 56q-37 0 -61 -67q-1 -1 -1 -2l-60 48q37 102 130 103q114 -2 115 -140v-270q1 -28 17 -29q7 0 17 3v-61q-25 -10 -49 -10q-41 1 -55 35q-26 -33 -72 -36zM105 135q0 -46 27 -66q10 -7 20 -7 q21 1 41 22v181q-9 -6 -27 -15q-36 -17 -47 -39q-14 -27 -14 -76zM176 575v95h87v-95h-87zM53 670h87v-95h-87v95z" glyph-name="uniE345" horiz-adv-x="319" unicode=""/>
<glyph d="M310 71v-61q-24 -17 -59 -17q-41 2 -50 37q-29 -38 -80 -40q-95 2 -96 150q0 103 60 143q7 4 62 32q29 14 44 29v20q-1 57 -40 58q-35 0 -61 -71q-1 -1 -1 -2l-60 47q37 102 130 103q104 0 114 -112q1 -14 1 -28v-272q1 -23 13 -24q8 1 23 8zM193 76v199q-4 -4 -40 -24 q-36 -21 -44 -64q-4 -21 -4 -46q0 -80 36 -87q4 -1 6 -1q23 1 46 23zM161 540q-53 0 -77 45q-11 20 -11 44q0 51 44 76q21 11 44 11q52 0 78 -44q11 -20 11 -43q0 -53 -45 -78q-20 -11 -44 -11zM161 583q30 0 41 29q3 8 3 17q0 30 -28 40q-8 3 -16 3q-28 0 -40 -26 q-3 -9 -3 -17q0 -31 27 -43q8 -3 16 -3z" glyph-name="uniE346" horiz-adv-x="321" unicode=""/>
<glyph d="M310 71v-61q-24 -17 -59 -17q-41 2 -50 37q-29 -38 -80 -40q-95 2 -96 150q0 103 60 143q7 4 62 32q29 14 44 29v20q-1 57 -40 58q-35 0 -61 -71q-1 -1 -1 -2l-60 47q37 102 130 103q104 0 114 -112q1 -14 1 -28v-272q1 -23 13 -24q8 1 23 8zM193 76v199q-4 -4 -40 -24 q-36 -21 -44 -64q-4 -21 -4 -46q0 -80 36 -87q4 -1 6 -1q23 1 46 23zM63 573v70h196v-70h-196z" glyph-name="uniE347" horiz-adv-x="321" unicode=""/>
<glyph d="M25 140q0 103 60 143q7 4 62 32q29 14 44 29v20q-1 57 -40 58q-35 0 -61 -71q-1 -1 -1 -2l-60 47q37 102 130 103q104 0 114 -112q1 -14 1 -28v-272q1 -23 13 -24q8 1 23 8v-61q-24 -17 -59 -17q-41 2 -50 37q-29 -38 -80 -40q-95 2 -96 150zM156 546q-77 0 -99 78 q-8 31 -6 68h55q2 -70 25 -86q11 -6 24 -6q52 2 47 92h59q5 -97 -51 -132q-24 -14 -54 -14zM105 141q0 -80 36 -87q4 -1 6 -1q23 1 46 23v199q-4 -4 -40 -24q-36 -21 -44 -64q-4 -21 -4 -46z" glyph-name="uniE348" horiz-adv-x="321" unicode=""/>
<glyph d="M302 -146l5 -39q-34 -22 -74 -22q-77 6 -81 74q0 43 37 88q20 24 46 40q-27 8 -34 35q-29 -38 -80 -40q-95 2 -96 150q0 103 60 143q7 4 62 32q29 14 44 29v20q-1 57 -40 58q-35 0 -61 -71q-1 -1 -1 -2l-60 47q37 102 130 103q104 0 114 -112q1 -14 1 -28v-272 q1 -23 13 -24q8 1 23 8v-61q-11 -8 -28 -13q-65 -51 -71 -106q-1 -5 -1 -8q2 -39 40 -40q18 0 52 11zM193 76v199q-4 -4 -40 -24q-36 -21 -44 -64q-4 -21 -4 -46q0 -80 36 -87q4 -1 6 -1q23 1 46 23z" glyph-name="uniE349" horiz-adv-x="321" unicode=""/>
<glyph d="M40 0v670h82v-298l73 117h96l-95 -137l105 -352h-87l-76 269l-16 -24v-245h-82zM106 -217l-15 40q52 8 54 48v12h-30v85h93v-62q0 -105 -84 -121z" glyph-name="uniE34A" horiz-adv-x="309" unicode=""/>
<glyph d="M50 0v651h207v-81h-119v-143h78v-81h-78v-265h127v-81h-215zM-71 502h-45q2 6 22 74q21 68 23 75h98z" glyph-name="uniE366" horiz-adv-x="285" unicode=""/>
<glyph d="M50 0v651h88v-224h114v224h88v-651h-88v347h-114v-347h-88zM-69 503h-45q2 6 22 75q21 67 23 74h98z" glyph-name="uniE367" horiz-adv-x="390" unicode=""/>
<glyph d="M50 0v651h95q131 0 160 -91q7 -22 7 -48q-2 -103 -90 -125v-3q99 -21 102 -171q0 -190 -127 -211q-15 -2 -31 -2h-116zM136 349v-273h19q65 0 78 92q3 20 3 42q0 129 -75 138q-5 1 -10 1h-15zM136 575v-150h18q61 0 69 60q1 9 1 17q0 65 -60 72q-9 1 -19 1h-9z" glyph-name="uniE368" horiz-adv-x="364" unicode=""/>
<glyph d="M50 651h207v-81h-119v-143h78v-81h-78v-265h127v-81h-215v651z" glyph-name="uniE369" horiz-adv-x="285" unicode=""/>
<glyph d="M50 651h88v-224h114v224h88v-651h-88v347h-114v-347h-88v651z" glyph-name="uniE36A" horiz-adv-x="390" unicode=""/>
<glyph d="M189 -10q-99 0 -131 133q-18 76 -18 202q0 265 87 319q28 17 63 17q101 0 133 -139q17 -75 17 -196q0 -269 -92 -321q-26 -15 -59 -15zM250 299q0 251 -43 278q-8 5 -18 5q-35 0 -49 -71q-11 -61 -11 -178q0 -236 45 -260q8 -4 16 -4q52 0 59 170q1 28 1 60zM147 346v80 h84v-80h-84z" glyph-name="uniE36B" horiz-adv-x="378" unicode=""/>
<glyph d="M50 651h88v-153l102 153h104l-121 -173l126 -478h-94l-97 385l-20 -28v-357h-88v651z" glyph-name="uniE36C" horiz-adv-x="357" unicode=""/>
<glyph d="M34 81h90v265h-55v81h55v143h-82v81h253v-81h-86v-143h59v-81h-59v-265h94v-81h-269v81z" glyph-name="uniE36D" horiz-adv-x="335" unicode=""/>
<glyph d="M138 0h-88v651h89q128 0 170 -83q17 -34 17 -78q0 -150 -154 -161q-14 -1 -28 -1h-6v-328zM146 572h-8v-165h10q64 0 78 45q5 16 5 38q0 73 -64 81q-10 1 -21 1z" glyph-name="uniE36E" horiz-adv-x="336" unicode=""/>
<glyph d="M40 489h82v-117l73 117h96l-95 -137l105 -352h-87l-76 269l-16 -24v-245h-82v489z" glyph-name="uniE36F" horiz-adv-x="309" unicode=""/>
<glyph d="M50 0v651h207v-81h-119v-143h78v-81h-78v-265h127v-81h-215zM33 850h102q2 -6 23 -74q20 -67 22 -74h-49q-4 6 -49 74q-45 67 -49 74z" glyph-name="uniE370" horiz-adv-x="285" unicode=""/>
<glyph d="M50 0v651h207v-81h-119v-143h78v-81h-78v-265h127v-81h-215zM173 829h87v-95h-87v95zM50 734v95h87v-95h-87z" glyph-name="uniE371" horiz-adv-x="285" unicode=""/>
<glyph d="M242 191l83 -20q-21 -181 -141 -182q-93 0 -125 124q-19 77 -19 211q0 302 115 333q15 4 31 4q105 0 129 -153q2 -14 3 -27l-79 -20q-9 107 -41 119q-6 2 -12 2q-38 0 -49 -89q-4 -31 -6 -73h93v-79h-95v-17q0 -240 50 -254q4 -1 8 -1q40 2 55 122z" glyph-name="uniE372" horiz-adv-x="345" unicode=""/>
<glyph d="M5 66q50 3 67 51q13 35 24 180q1 4 1 7l26 347h234v-225h18q170 -2 171 -211q0 -159 -96 -202q-31 -13 -69 -13h-113v568h-64l-27 -323q-13 -164 -49 -214q-31 -42 -88 -42h-6q-6 1 -8 1zM384 349h-27v-272h30q62 0 71 91q2 20 2 45q0 105 -39 127q-16 9 -37 9z" glyph-name="uniE373" horiz-adv-x="575" unicode=""/>
<glyph d="M50 651h88v-225h100v225h89v-225h18q170 -2 171 -211q0 -159 -96 -202q-31 -13 -69 -13h-113v346h-100v-346h-88v651zM354 349h-27v-272h30q62 0 71 91q2 20 2 45q0 105 -39 127q-16 9 -37 9z" glyph-name="uniE374" horiz-adv-x="545" unicode=""/>
<glyph d="M137 0h-87v651h87v-227h4q25 0 48 52q1 3 2 4l72 171h89l-67 -160q-32 -78 -67 -96q-6 -2 -11 -4v-3q56 -17 78 -90l4 -14l72 -284h-91l-71 287q-13 52 -50 58q-4 1 -7 1h-5v-346zM151 702q2 6 22 74q20 67 22 74h100l-24 -37q-24 -37 -49 -74l-24 -37h-47z" glyph-name="uniE375" horiz-adv-x="366" unicode=""/>
<glyph d="M152 0h-103v651h240v-83h-152v-142h6q134 0 171 -121q12 -40 12 -90q0 -135 -80 -189q-40 -26 -94 -26zM152 349h-15v-272h21q81 2 82 136q-1 135 -88 136z" glyph-name="uniE376" horiz-adv-x="356" unicode=""/>
<glyph d="M50 0v651h95q131 0 160 -91q7 -22 7 -48q-2 -103 -90 -125v-3q99 -21 102 -171q0 -190 -127 -211q-15 -2 -31 -2h-116zM136 349v-273h19q65 0 78 92q3 20 3 42q0 129 -75 138q-5 1 -10 1h-15zM136 575v-150h18q61 0 69 60q1 9 1 17q0 65 -60 72q-9 1 -19 1h-9z" glyph-name="uniE377" horiz-adv-x="364" unicode=""/>
<glyph d="M50 651h207v-81h-119v-143h78v-81h-78v-265h127v-81h-215v651z" glyph-name="uniE379" horiz-adv-x="285" unicode=""/>
<glyph d="M95 0h-91l72 284q20 80 73 101q5 2 9 3v3q-40 13 -73 87q-2 7 -5 13l-67 160h89l72 -171q24 -55 50 -56h4v227h87v-227h4q25 0 48 52q1 3 2 4l72 171h89l-67 -160q-32 -78 -67 -96q-6 -2 -11 -4v-3q56 -17 78 -90l4 -14l72 -284h-91l-71 287q-13 52 -50 58q-4 1 -7 1h-5 v-346h-87v346h-5q-35 0 -52 -42q-3 -9 -5 -17z" glyph-name="uniE37A" horiz-adv-x="544" unicode=""/>
<glyph d="M137 0h-87v651h87v-227h4q25 0 48 52q1 3 2 4l72 171h89l-67 -160q-32 -78 -67 -96q-6 -2 -11 -4v-3q56 -17 78 -90l4 -14l72 -284h-91l-71 287q-13 52 -50 58q-4 1 -7 1h-5v-346z" glyph-name="uniE37B" horiz-adv-x="366" unicode=""/>
<glyph d="M50 651h88v-224h114v224h88v-651h-88v347h-114v-347h-88v651z" glyph-name="uniE37C" horiz-adv-x="390" unicode=""/>
<glyph d="M138 0h-88v651h89q128 0 170 -83q17 -34 17 -78q0 -150 -154 -161q-14 -1 -28 -1h-6v-328zM146 572h-8v-165h10q64 0 78 45q5 16 5 38q0 73 -64 81q-10 1 -21 1z" glyph-name="uniE37D" horiz-adv-x="336" unicode=""/>
<glyph d="M2 650h173v-224h18q170 -2 171 -211q0 -159 -96 -202q-31 -13 -69 -13h-112v568h-85v82zM202 349h-27v-272h30q62 0 71 91q2 20 2 45q0 105 -39 127q-16 9 -37 9z" glyph-name="uniE37E" horiz-adv-x="394" unicode=""/>
<glyph d="M161 0h-112v651h88v-225h18q170 -2 171 -211q0 -159 -96 -202q-31 -13 -69 -13zM369 0v651h88v-651h-88zM137 349v-272h30q62 0 71 91q2 20 2 45q0 105 -39 127q-16 9 -37 9h-27z" glyph-name="uniE37F" horiz-adv-x="508" unicode=""/>
<glyph d="M161 0h-112v651h88v-225h18q170 -2 171 -211q0 -159 -96 -202q-31 -13 -69 -13zM164 349h-27v-272h30q62 0 71 91q2 20 2 45q0 105 -39 127q-16 9 -37 9z" glyph-name="uniE380" horiz-adv-x="356" unicode=""/>
<glyph d="M20 171l83 20q15 -121 55 -122q50 0 57 179q1 35 1 76v20h-95v79h93q-11 154 -55 159q-35 0 -47 -72q-4 -21 -6 -49l-79 20q15 163 113 179q10 1 19 1q89 0 121 -100q25 -77 25 -232q-1 -339 -144 -340q-121 2 -141 182z" glyph-name="uniE381" horiz-adv-x="346" unicode=""/>
<glyph d="M50 651h88v-231h83q12 194 94 231q23 10 51 10q94 0 125 -116q21 -77 21 -219q0 -233 -59 -299q-34 -37 -88 -37q-93 0 -125 113q-21 77 -21 222v15h-81v-340h-88v651zM306 326q0 -240 51 -257q5 -1 9 -1q40 0 52 91q8 60 8 166q0 229 -45 254q-8 4 -16 4q-40 0 -52 -96 q-7 -59 -7 -161z" glyph-name="uniE382" horiz-adv-x="553" unicode=""/>
<glyph d="M10 0q4 14 53 173q48 158 53 173q-4 2 -9 5q-71 42 -72 134q0 115 102 152q39 14 85 14h89v-651h-88v326h-9q-13 0 -19 1l-30 -105q-52 -182 -63 -222h-92zM130 489q0 -73 66 -83q8 -1 17 -1h10v166h-8q-73 0 -83 -63q-2 -9 -2 -19z" glyph-name="uniE383" horiz-adv-x="360" unicode=""/>
<glyph d="M310 71v-61q-24 -17 -59 -17q-41 2 -50 37q-29 -38 -80 -40q-95 2 -96 150q0 103 60 143q7 4 62 32q29 14 44 29v20q-1 57 -40 58q-35 0 -61 -71q-1 -1 -1 -2l-60 47q37 102 130 103q104 0 114 -112q1 -14 1 -28v-272q1 -23 13 -24q8 1 23 8zM193 76v199q-4 -4 -40 -24 q-36 -21 -44 -64q-4 -21 -4 -46q0 -80 36 -87q4 -1 6 -1q23 1 46 23z" glyph-name="uniE384" horiz-adv-x="321" unicode=""/>
<glyph d="M189 -10q-99 0 -131 133q-18 76 -18 202q0 265 87 319q28 17 63 17q101 0 133 -139q17 -75 17 -196q0 -269 -92 -321q-26 -15 -59 -15zM129 346v-13q0 -236 45 -260q8 -4 16 -4q52 0 59 170q1 28 1 60q0 8 -1 24v23h-120zM131 426h116q-9 143 -47 155q-6 1 -11 1 q-37 0 -50 -77q-5 -33 -8 -79z" glyph-name="uniE385" horiz-adv-x="378" unicode=""/>
<glyph d="M6 422h45v229h206v-81h-119v-148h78v-83h-78v-339h-87v339h-45v83z" glyph-name="uniE386" horiz-adv-x="267" unicode=""/>
<glyph d="M95 0h-91l72 284q20 80 73 101q5 2 9 3v3q-40 13 -73 87q-2 7 -5 13l-67 160h89l72 -171q24 -55 50 -56h4v227h87v-227h4q25 0 48 52q1 3 2 4l72 171h89l-67 -160q-32 -78 -67 -96q-6 -2 -11 -4v-3q56 -17 78 -90l4 -14l51 -201h59v-240h-94l-1 157h-34l-71 287 q-13 52 -50 58q-4 1 -7 1h-5v-346h-87v346h-5q-35 0 -52 -42q-3 -9 -5 -17z" glyph-name="uniE387" horiz-adv-x="571" unicode=""/>
<glyph d="M50 0v651h87v-227h4q25 0 48 52q1 3 2 4l72 171h89l-67 -160q-32 -78 -67 -96q-6 -2 -11 -4v-3q56 -17 78 -90l4 -14l51 -201h57v-240h-94l-1 157h-32l-71 287q-13 52 -50 58q-4 1 -7 1h-5v-346h-87z" glyph-name="uniE388" horiz-adv-x="387" unicode=""/>
<glyph d="M50 651h87v-227q10 0 14 2v108h35v-65l3 6q1 4 2 5l72 171h89q-3 -8 -32 -76q-32 -77 -35 -84q-32 -78 -67 -96q-6 -2 -11 -4v-3q56 -17 78 -90l4 -14l72 -284h-91q-55 229 -71 287q-4 18 -13 32v-69h-35v95q-6 1 -14 1v-346h-87v651z" glyph-name="uniE389" horiz-adv-x="366" unicode=""/>
<glyph d="M0 651h183v-227h4q25 0 48 52q1 3 2 4l72 171h89l-67 -160q-32 -78 -67 -96q-6 -2 -11 -4v-3q56 -17 78 -90l4 -14l72 -284h-91l-71 287q-13 52 -50 58q-4 1 -7 1h-5v-346h-87v571h-96v80z" glyph-name="uniE38A" horiz-adv-x="418" unicode=""/>
<glyph d="M50 651h88v-224h114v224h88v-568h50v-240h-94l-1 157h-43v347h-114v-347h-88v651z" glyph-name="uniE38B" horiz-adv-x="390" unicode=""/>
<glyph d="M189 -10q-99 0 -131 133q-18 76 -18 202q0 265 87 319q28 17 63 17q101 0 133 -139q17 -75 17 -196q0 -269 -92 -321q-26 -15 -59 -15zM129 346v-13q0 -236 45 -260q8 -4 16 -4q52 0 59 170q1 28 1 60q0 8 -1 24v23h-120zM131 426h116q-9 143 -47 155q-6 1 -11 1 q-37 0 -50 -77q-5 -33 -8 -79z" glyph-name="uniE38C" horiz-adv-x="378" unicode=""/>
<glyph d="M226 651h207v-81h-119v-144h78v-81h-78v-344h-88v650zM101 479q-54 0 -78 46q-10 20 -10 43q0 53 44 77q21 11 44 11q57 0 79 -47q9 -20 9 -41q0 -55 -45 -79q-20 -10 -43 -10zM101 615q-34 0 -43 -32q-2 -7 -2 -15q0 -35 30 -46q8 -2 15 -2q35 0 44 33q2 8 2 15 q0 39 -34 46q-6 1 -12 1z" glyph-name="uniE38D" horiz-adv-x="453" unicode=""/>
</font>
</defs>
</svg>
