<?xml version="1.0" encoding="utf-8"?>
<!-- Generator: Adobe Illustrator 21.1.0, SVG Export Plug-In . SVG Version: 6.00 Build 0)  -->
<svg version="1.1" id="Layer_1" xmlns="http://www.w3.org/2000/svg" xmlns:xlink="http://www.w3.org/1999/xlink" x="0px" y="0px"
	 viewBox="0 0 91.7 56.1" style="enable-background:new 0 0 91.7 56.1;" xml:space="preserve">
<g>
	<path d="M47.2,56.1c-18.5,0-35.5-6.7-42.4-14.3c-4.3-4.8-5.7-10.2-4.2-16.3C4.8,9.1,28.4,3.2,43.4,1.1c-7.6-0.4-15.5,0.2-23,2.2
		c-0.3,0.1-0.5-0.1-0.6-0.3c-0.1-0.3,0.1-0.5,0.3-0.6c9.2-2.5,18.9-2.9,28.1-1.8C53,0.1,56.1,0,56.2,0c0.3,0,0.5,0.2,0.5,0.5
		S56.5,1,56.2,1c-0.8,0-2,0-3.7,0.1C62.4,2.8,71.3,6,77.7,9.7c7.3,4.2,11.9,9.2,13.2,14.3c1.6,6.2,0.8,11.7-2.4,16.5
		c-4.9,7.5-15.5,12.6-30.4,14.9C54.5,55.9,50.8,56.1,47.2,56.1z M48.1,1.5c-5.3,0.6-12.3,1.6-19.2,3.6c-10.8,3-24.4,9.1-27.4,20.8
		c-1.5,5.7-0.1,10.8,4,15.4c8.1,8.9,30.4,16.5,52.5,13.2c14.6-2.2,24.9-7.2,29.7-14.5c3-4.5,3.7-9.8,2.2-15.7
		c-1.2-4.8-5.8-9.6-12.7-13.6C70,6.4,59.5,2.8,48.1,1.5z"/>
</g>
</svg>
