<svg version="1" xmlns="http://www.w3.org/2000/svg" width="682.667" height="682.667" viewBox="0 0 512.000000 512.000000"><path d="M235.2 130.1c-27 6.9-41.5 27.9-45.8 66.4-.9 7.7-.9 108.8 0 118 .3 3.9.8 8.2 1.1 9.5.3 1.3.7 4.2 1.1 6.4 1 7.2 7.1 22.4 11.7 29.3 10.7 16.1 27.1 24.1 49.7 24.1 17.4 0 31.5-4.9 41.6-14.5 7.9-7.4 15-19.4 17.5-29.3 5-19.9 5.3-23.5 5.3-82.5 0-62.5-.6-71.2-6-87.5-7.4-22.1-22.3-36.2-42.7-40.4-9.6-2-24.6-1.8-33.5.5zm30.1 9.7c9.1 4.1 15.6 13.2 17.4 24.4.4 2.3.8 44.6.8 93.8 0 85.1-.1 89.8-1.9 95-1 3-3.2 7.4-4.8 9.8-11.1 16.2-38.5 15.5-48.3-1.3-6-10.2-5.8-5.9-6-103-.1-49 .3-91.3.8-94 1.8-10.4 8.2-20.1 15.8-24 6.9-3.6 19-3.9 26.2-.7zM21 162.5v5.5h47.2l-7.9 6.4c-4.3 3.5-10.5 8.6-13.8 11.4l-6 4.9V256l-.1 65.2 13.9 11.4L68.1 344H21v11l40.3-.1c22.1-.1 43.4-.5 47.2-1 13.7-1.9 23.9-6.5 31.8-14.4 6.1-6.1 12.4-18.1 14.1-27 .4-1.7.9-4.1 1.2-5.5.2-1.4.8-4.5 1.2-7 .9-5.8.9-83.2 0-88.5-1.8-10.7-3-15.1-5.4-21.3-5.2-13-12.5-21.2-23.9-26.7-11.6-5.6-18.6-6.3-65.2-6.4l-41.3-.2v5.6zm84.1 7c8.9 2.4 14.8 7.7 17.5 15.8 1.6 4.7 1.8 11.4 1.8 69.2.1 69.3 0 71.1-5.2 78.9-1.8 2.6-4.8 5-8.7 7-5.8 2.9-6.4 3-22.7 3.4l-16.8.4v-17.1c-.1-9.4-.1-41.6-.1-71.6 0-30 0-61.9.1-71v-16.6l14.5.2c8.4 0 16.7.7 19.6 1.4zM345.8 162.5l-.3 5.4 8.5.3 8.4.3v174l-8.2.3c-8.8.3-8.4 0-8.4 6.2 0 1.6.1 3.4.1 4 .1.6 8.2 1 22.1 1h22v-11h-8c-5.7 0-8-.4-8.1-1.3-.3-4.6-.1-157.8.2-158.2.2-.2 4.3 8.7 9.1 19.8 4.8 11.1 14.7 34.1 22.1 51.2 7.4 17 20.1 46.3 28.2 65 8.1 18.7 15.1 34.4 15.5 34.9.7.7 12.1 1 29.4.7l3.4-.1-3.8-8.8-3.8-8.7v-84.8l.1-84.7h14.2l.1-5.5.1-5.5h-20.8c-22.7 0-21.6-.3-21.5 6.5l.1 4 8.3.3 8.2.3v71c0 47.1-.3 70.8-1 70.4-.5-.3-1-1-1-1.5 0-.7-7.7-18.5-22.6-52.8-.8-1.7-2-4.7-2.8-6.5-.8-1.7-9.6-22.1-19.6-45.2-10-23.1-18.6-43-19.1-44.3l-.9-2.2h-49.8l-.4 5.5z"/></svg>
